<?xml version="1.0" encoding="UTF-8" standalone="no"?><svg xmlns="http://www.w3.org/2000/svg" xmlns:xlink="http://www.w3.org/1999/xlink" contentScriptType="application/ecmascript" contentStyleType="text/css" height="154px" preserveAspectRatio="none" style="width:198px;height:154px;" version="1.1" viewBox="0 0 198 154" width="198px" zoomAndPan="magnify"><defs><filter height="300%" id="fag3xi254qthi" width="300%" x="-1" y="-1"><feGaussianBlur result="blurOut" stdDeviation="2.0"/><feColorMatrix in="blurOut" result="blurOut2" type="matrix" values="0 0 0 0 0 0 0 0 0 0 0 0 0 0 0 0 0 0 .4 0"/><feOffset dx="4.0" dy="4.0" in="blurOut2" result="blurOut3"/><feBlend in="SourceGraphic" in2="blurOut3" mode="normal"/></filter></defs><g><!--MD5=[ef2616cc0edc2f56e121b970d24f922a]
class pwr.sim.animal.ai.AiBehaviour--><a href="AiBehaviour.html" target="_top" title="AiBehaviour.html" xlink:actuate="onRequest" xlink:href="AiBehaviour.html" xlink:show="new" xlink:title="AiBehaviour.html" xlink:type="simple"><rect fill="#FEFECE" filter="url(#fag3xi254qthi)" height="117.9609" id="pwr.sim.animal.ai.AiBehaviour" style="stroke: #A80036; stroke-width: 1.5;" width="148" x="19" y="7"/><ellipse cx="48.4" cy="25.9688" fill="#ADD1B2" rx="11" ry="11" style="stroke: #A80036; stroke-width: 1.0;"/><path d="M51.3688,31.6094 Q50.7906,31.9063 50.15,32.0469 Q49.5094,32.2031 48.8063,32.2031 Q46.3063,32.2031 44.9781,30.5625 Q43.6656,28.9063 43.6656,25.7813 Q43.6656,22.6563 44.9781,21 Q46.3063,19.3438 48.8063,19.3438 Q49.5094,19.3438 50.15,19.5 Q50.8063,19.6563 51.3688,19.9531 L51.3688,22.6719 Q50.7438,22.0938 50.15,21.8281 Q49.5563,21.5469 48.9313,21.5469 Q47.5875,21.5469 46.9,22.625 Q46.2125,23.6875 46.2125,25.7813 Q46.2125,27.875 46.9,28.9531 Q47.5875,30.0156 48.9313,30.0156 Q49.5563,30.0156 50.15,29.75 Q50.7438,29.4688 51.3688,28.8906 L51.3688,31.6094 Z "/><text fill="#000000" font-family="sans-serif" font-size="14" lengthAdjust="spacingAndGlyphs" textLength="81" x="67.1" y="24.9951">AiBehaviour</text><text fill="#000000" font-family="sans-serif" font-size="10" lengthAdjust="spacingAndGlyphs" textLength="84" x="65.6" y="37.5791">pwr.sim.animal.ai</text><line style="stroke: #A80036; stroke-width: 1.5;" x1="20" x2="166" y1="44.9375" y2="44.9375"/><polygon fill="none" points="30,50.9375,34,54.9375,30,58.9375,26,54.9375" style="stroke: #B38D22; stroke-width: 1.0;"/><text fill="#000000" font-family="sans-serif" font-size="11" lengthAdjust="spacingAndGlyphs" textLength="122" x="39" y="59.1479">currentState: IAiState</text><ellipse cx="30" cy="68.7422" fill="none" rx="3" ry="3" style="stroke: #038048; stroke-width: 1.0;"/><text fill="#000000" font-family="sans-serif" font-size="11" lengthAdjust="spacingAndGlyphs" textLength="84" x="39" y="71.9526">animal: Animal</text><line style="stroke: #A80036; stroke-width: 1.5;" x1="20" x2="166" y1="78.5469" y2="78.5469"/><ellipse cx="30" cy="89.5469" fill="#84BE84" rx="3" ry="3" style="stroke: #038048; stroke-width: 1.0;"/><text fill="#000000" font-family="sans-serif" font-size="11" lengthAdjust="spacingAndGlyphs" textLength="113" x="39" y="92.7573">AiBehaviour(Animal)</text><ellipse cx="30" cy="102.3516" fill="#84BE84" rx="3" ry="3" style="stroke: #038048; stroke-width: 1.0;"/><text fill="#000000" font-family="sans-serif" font-size="11" lengthAdjust="spacingAndGlyphs" textLength="78" x="39" y="105.562">update(): void</text><ellipse cx="30" cy="115.1563" fill="#84BE84" rx="3" ry="3" style="stroke: #038048; stroke-width: 1.0;"/><text fill="#000000" font-family="sans-serif" font-size="11" lengthAdjust="spacingAndGlyphs" textLength="106" x="39" y="118.3667">debugInfo(): String</text></a><text fill="#888888" font-family="sans-serif" font-size="10" lengthAdjust="spacingAndGlyphs" textLength="186" x="0" y="141.2432">UMLDoclet 2.0.9, PlantUML 1.2020.08</text><!--MD5=[28098c1670aad03dca7a7e3656ec20e4]
@startuml
    set namespaceSeparator none
    hide empty fields
    hide empty methods

    class "<size:14>AiBehaviour\n<size:10>pwr.sim.animal.ai" as pwr.sim.animal.ai.AiBehaviour [[AiBehaviour.html]] {
        #currentState: IAiState
        +animal: Animal
        +AiBehaviour(Animal)
        +update(): void
        +debugInfo(): String
    }

    center footer UMLDoclet 2.0.9, PlantUML 1.2020.08
@enduml

PlantUML version 1.2020.08(Sun Apr 26 16:08:22 CEST 2020)
(APACHE source distribution)
Java Runtime: OpenJDK Runtime Environment
JVM: OpenJDK 64-Bit Server VM
Java Version: 11.0.7+10-post-Ubuntu-3ubuntu1
Operating System: Linux
Default Encoding: UTF-8
Language: en
Country: GB
--></g></svg>