<?xml version="1.0" encoding="UTF-8" standalone="no"?><svg xmlns="http://www.w3.org/2000/svg" xmlns:xlink="http://www.w3.org/1999/xlink" contentScriptType="application/ecmascript" contentStyleType="text/css" height="286px" preserveAspectRatio="none" style="width:322px;height:286px;" version="1.1" viewBox="0 0 322 286" width="322px" zoomAndPan="magnify"><defs><filter height="300%" id="f11ymqlqcmc8hq" width="300%" x="-1" y="-1"><feGaussianBlur result="blurOut" stdDeviation="2.0"/><feColorMatrix in="blurOut" result="blurOut2" type="matrix" values="0 0 0 0 0 0 0 0 0 0 0 0 0 0 0 0 0 0 .4 0"/><feOffset dx="4.0" dy="4.0" in="blurOut2" result="blurOut3"/><feBlend in="SourceGraphic" in2="blurOut3" mode="normal"/></filter></defs><g><!--MD5=[121cf36f1e8d8d12ac7b0be25c4f8490]
cluster pwr.sim.renderer--><polygon fill="#FFFFFF" filter="url(#f11ymqlqcmc8hq)" points="22,24,167,24,174,46.2969,300,46.2969,300,238,22,238,22,24" style="stroke: #000000; stroke-width: 1.5;"/><line style="stroke: #000000; stroke-width: 1.5;" x1="22" x2="174" y1="46.2969" y2="46.2969"/><text fill="#000000" font-family="sans-serif" font-size="14" font-weight="bold" lengthAdjust="spacingAndGlyphs" textLength="139" x="26" y="38.9951">pwr.sim.renderer</text><!--MD5=[ac1824f18913c130ef753fba7029e523]
class pwr.sim.renderer.Renderer--><a href="Renderer.html" target="_top" title="Renderer.html" xlink:actuate="onRequest" xlink:href="Renderer.html" xlink:show="new" xlink:title="Renderer.html" xlink:type="simple"><rect fill="#FEFECE" filter="url(#f11ymqlqcmc8hq)" height="163.2422" id="pwr.sim.renderer.Renderer" style="stroke: #A80036; stroke-width: 1.5;" width="246" x="38" y="59"/><ellipse cx="127.75" cy="75" fill="#ADD1B2" rx="11" ry="11" style="stroke: #A80036; stroke-width: 1.0;"/><path d="M130.7188,80.6406 Q130.1406,80.9375 129.5,81.0781 Q128.8594,81.2344 128.1563,81.2344 Q125.6563,81.2344 124.3281,79.5938 Q123.0156,77.9375 123.0156,74.8125 Q123.0156,71.6875 124.3281,70.0313 Q125.6563,68.375 128.1563,68.375 Q128.8594,68.375 129.5,68.5313 Q130.1563,68.6875 130.7188,68.9844 L130.7188,71.7031 Q130.0938,71.125 129.5,70.8594 Q128.9063,70.5781 128.2813,70.5781 Q126.9375,70.5781 126.25,71.6563 Q125.5625,72.7188 125.5625,74.8125 Q125.5625,76.9063 126.25,77.9844 Q126.9375,79.0469 128.2813,79.0469 Q128.9063,79.0469 129.5,78.7813 Q130.0938,78.5 130.7188,77.9219 L130.7188,80.6406 Z "/><text fill="#000000" font-family="sans-serif" font-size="12" lengthAdjust="spacingAndGlyphs" textLength="58" x="148.25" y="79.1543">Renderer</text><line style="stroke: #A80036; stroke-width: 1.5;" x1="39" x2="283" y1="91" y2="91"/><polygon fill="none" points="49,98,45,104,53,104" style="stroke: #1963A0; stroke-width: 1.0;"/><text fill="#000000" font-family="sans-serif" font-size="11" lengthAdjust="spacingAndGlyphs" text-decoration="underline" textLength="71" x="58" y="105.2104">cellWidth: int</text><line style="stroke: #A80036; stroke-width: 1.5;" x1="39" x2="283" y1="111.8047" y2="111.8047"/><ellipse cx="49" cy="122.8047" fill="#84BE84" rx="3" ry="3" style="stroke: #038048; stroke-width: 1.0;"/><text fill="#000000" font-family="sans-serif" font-size="11" lengthAdjust="spacingAndGlyphs" text-decoration="underline" textLength="109" x="58" y="126.0151">drawUi(World): void</text><ellipse cx="49" cy="135.6094" fill="#84BE84" rx="3" ry="3" style="stroke: #038048; stroke-width: 1.0;"/><text fill="#000000" font-family="sans-serif" font-size="11" lengthAdjust="spacingAndGlyphs" text-decoration="underline" textLength="177" x="58" y="138.8198">setCursorPosition(int, int): void</text><ellipse cx="49" cy="148.4141" fill="#84BE84" rx="3" ry="3" style="stroke: #038048; stroke-width: 1.0;"/><text fill="#000000" font-family="sans-serif" font-size="11" lengthAdjust="spacingAndGlyphs" text-decoration="underline" textLength="191" x="58" y="151.6245">setCursorToCell(Position2D): void</text><ellipse cx="49" cy="161.2188" fill="#84BE84" rx="3" ry="3" style="stroke: #038048; stroke-width: 1.0;"/><text fill="#000000" font-family="sans-serif" font-size="11" lengthAdjust="spacingAndGlyphs" text-decoration="underline" textLength="220" x="58" y="164.4292">drawColouredText(String, int, int): void</text><ellipse cx="49" cy="174.0234" fill="#84BE84" rx="3" ry="3" style="stroke: #038048; stroke-width: 1.0;"/><text fill="#000000" font-family="sans-serif" font-size="11" lengthAdjust="spacingAndGlyphs" text-decoration="underline" textLength="214" x="58" y="177.2339">drawColouredChar(char, int, int): void</text><ellipse cx="49" cy="186.8281" fill="#84BE84" rx="3" ry="3" style="stroke: #038048; stroke-width: 1.0;"/><text fill="#000000" font-family="sans-serif" font-size="11" lengthAdjust="spacingAndGlyphs" text-decoration="underline" textLength="203" x="58" y="190.0386">enableAlternateScreenBuffer(): void</text><ellipse cx="49" cy="199.6328" fill="#84BE84" rx="3" ry="3" style="stroke: #038048; stroke-width: 1.0;"/><text fill="#000000" font-family="sans-serif" font-size="11" lengthAdjust="spacingAndGlyphs" text-decoration="underline" textLength="206" x="58" y="202.8433">disableAlternateScreenBuffer(): void</text><ellipse cx="49" cy="212.4375" fill="#84BE84" rx="3" ry="3" style="stroke: #038048; stroke-width: 1.0;"/><text fill="#000000" font-family="sans-serif" font-size="11" lengthAdjust="spacingAndGlyphs" text-decoration="underline" textLength="107" x="58" y="215.6479">clearScreen(): void</text></a><text fill="#888888" font-family="sans-serif" font-size="10" lengthAdjust="spacingAndGlyphs" textLength="186" x="74" y="273.2822">UMLDoclet 2.0.9, PlantUML 1.2020.08</text><!--MD5=[206a360760d055e6d503383642c03ed0]
@startuml
    namespace pwr.sim.renderer {

        class Renderer [[Renderer.html]] {
            {static} ~cellWidth: int
            {static} +drawUi(World): void
            {static} +setCursorPosition(int, int): void
            {static} +setCursorToCell(Position2D): void
            {static} +drawColouredText(String, int, int): void
            {static} +drawColouredChar(char, int, int): void
            {static} +enableAlternateScreenBuffer(): void
            {static} +disableAlternateScreenBuffer(): void
            {static} +clearScreen(): void
        }

    }

    center footer UMLDoclet 2.0.9, PlantUML 1.2020.08
@enduml

PlantUML version 1.2020.08(Sun Apr 26 16:08:22 CEST 2020)
(APACHE source distribution)
Java Runtime: OpenJDK Runtime Environment
JVM: OpenJDK 64-Bit Server VM
Java Version: 11.0.7+10-post-Ubuntu-3ubuntu1
Operating System: Linux
Default Encoding: UTF-8
Language: en
Country: GB
--></g></svg>