<?xml version="1.0" encoding="UTF-8" standalone="no"?><svg xmlns="http://www.w3.org/2000/svg" xmlns:xlink="http://www.w3.org/1999/xlink" contentScriptType="application/ecmascript" contentStyleType="text/css" height="407px" preserveAspectRatio="none" style="width:458px;height:407px;" version="1.1" viewBox="0 0 458 407" width="458px" zoomAndPan="magnify"><defs><filter height="300%" id="f1jocxeqpmrn86" width="300%" x="-1" y="-1"><feGaussianBlur result="blurOut" stdDeviation="2.0"/><feColorMatrix in="blurOut" result="blurOut2" type="matrix" values="0 0 0 0 0 0 0 0 0 0 0 0 0 0 0 0 0 0 .4 0"/><feOffset dx="4.0" dy="4.0" in="blurOut2" result="blurOut3"/><feBlend in="SourceGraphic" in2="blurOut3" mode="normal"/></filter></defs><g><!--MD5=[c2dcf61bf1b29a597783dba432290bbf]
cluster pwr.sim.tile--><polygon fill="#FFFFFF" filter="url(#f1jocxeqpmrn86)" points="22,24,120,24,127,46.2969,436,46.2969,436,359,22,359,22,24" style="stroke: #000000; stroke-width: 1.5;"/><line style="stroke: #000000; stroke-width: 1.5;" x1="22" x2="127" y1="46.2969" y2="46.2969"/><text fill="#000000" font-family="sans-serif" font-size="14" font-weight="bold" lengthAdjust="spacingAndGlyphs" textLength="92" x="26" y="38.9951">pwr.sim.tile</text><!--MD5=[e4e8e6ac90e2a09c873f0220781c3de9]
class pwr.sim.tile.DesertTile--><a href="DesertTile.html" target="_top" title="DesertTile.html" xlink:actuate="onRequest" xlink:href="DesertTile.html" xlink:show="new" xlink:title="DesertTile.html" xlink:type="simple"><rect fill="#FEFECE" filter="url(#f1jocxeqpmrn86)" height="73.6094" id="pwr.sim.tile.DesertTile" style="stroke: #A80036; stroke-width: 1.5;" width="104" x="38" y="269"/><ellipse cx="57.05" cy="285" fill="#ADD1B2" rx="11" ry="11" style="stroke: #A80036; stroke-width: 1.0;"/><path d="M60.0188,290.6406 Q59.4406,290.9375 58.8,291.0781 Q58.1594,291.2344 57.4563,291.2344 Q54.9563,291.2344 53.6281,289.5938 Q52.3156,287.9375 52.3156,284.8125 Q52.3156,281.6875 53.6281,280.0313 Q54.9563,278.375 57.4563,278.375 Q58.1594,278.375 58.8,278.5313 Q59.4563,278.6875 60.0188,278.9844 L60.0188,281.7031 Q59.3938,281.125 58.8,280.8594 Q58.2063,280.5781 57.5813,280.5781 Q56.2375,280.5781 55.55,281.6563 Q54.8625,282.7188 54.8625,284.8125 Q54.8625,286.9063 55.55,287.9844 Q56.2375,289.0469 57.5813,289.0469 Q58.2063,289.0469 58.8,288.7813 Q59.3938,288.5 60.0188,287.9219 L60.0188,290.6406 Z "/><text fill="#000000" font-family="sans-serif" font-size="12" lengthAdjust="spacingAndGlyphs" textLength="63" x="71.95" y="289.1543">DesertTile</text><line style="stroke: #A80036; stroke-width: 1.5;" x1="39" x2="141" y1="301" y2="301"/><line style="stroke: #A80036; stroke-width: 1.5;" x1="39" x2="141" y1="309" y2="309"/><ellipse cx="49" cy="320" fill="#84BE84" rx="3" ry="3" style="stroke: #038048; stroke-width: 1.0;"/><text fill="#000000" font-family="sans-serif" font-size="11" lengthAdjust="spacingAndGlyphs" textLength="67" x="58" y="323.2104">draw(): void</text><ellipse cx="49" cy="332.8047" fill="#84BE84" rx="3" ry="3" style="stroke: #038048; stroke-width: 1.0;"/><text fill="#000000" font-family="sans-serif" font-size="11" lengthAdjust="spacingAndGlyphs" textLength="78" x="58" y="336.0151">getColor(): int</text></a><!--MD5=[255d31fd1638d93d5cc60083b3595b03]
class pwr.sim.tile.Tile--><a href="Tile.html" target="_top" title="Tile.html" xlink:actuate="onRequest" xlink:href="Tile.html" xlink:show="new" xlink:title="Tile.html" xlink:type="simple"><rect fill="#FEFECE" filter="url(#f1jocxeqpmrn86)" height="150.4375" id="pwr.sim.tile.Tile" style="stroke: #A80036; stroke-width: 1.5;" width="150" x="154" y="59"/><ellipse cx="214.25" cy="75" fill="#A9DCDF" rx="11" ry="11" style="stroke: #A80036; stroke-width: 1.0;"/><path d="M214.3594,70.3438 L213.2031,75.4219 L215.5313,75.4219 L214.3594,70.3438 Z M212.875,68.1094 L215.8594,68.1094 L219.2188,80.5 L216.7656,80.5 L216,77.4375 L212.7188,77.4375 L211.9688,80.5 L209.5313,80.5 L212.875,68.1094 Z "/><text fill="#000000" font-family="sans-serif" font-size="12" font-style="italic" lengthAdjust="spacingAndGlyphs" textLength="21" x="234.75" y="79.1543">Tile</text><line style="stroke: #A80036; stroke-width: 1.5;" x1="155" x2="303" y1="91" y2="91"/><rect fill="none" height="6" style="stroke: #C82930; stroke-width: 1.0;" width="6" x="162" y="99"/><text fill="#000000" font-family="sans-serif" font-size="11" lengthAdjust="spacingAndGlyphs" textLength="48" x="174" y="105.2104">flora: int</text><rect fill="none" height="6" style="stroke: #C82930; stroke-width: 1.0;" width="6" x="162" y="111.8047"/><text fill="#000000" font-family="sans-serif" font-size="11" lengthAdjust="spacingAndGlyphs" textLength="50" x="174" y="118.0151">flesh: int</text><line style="stroke: #A80036; stroke-width: 1.5;" x1="155" x2="303" y1="124.6094" y2="124.6094"/><ellipse cx="165" cy="135.6094" fill="#84BE84" rx="3" ry="3" style="stroke: #038048; stroke-width: 1.0;"/><text fill="#000000" font-family="sans-serif" font-size="11" lengthAdjust="spacingAndGlyphs" textLength="67" x="174" y="138.8198">draw(): void</text><ellipse cx="165" cy="148.4141" fill="#84BE84" rx="3" ry="3" style="stroke: #038048; stroke-width: 1.0;"/><text fill="#000000" font-family="sans-serif" font-size="11" font-style="italic" lengthAdjust="spacingAndGlyphs" textLength="78" x="174" y="151.6245">getColor(): int</text><ellipse cx="165" cy="161.2188" fill="#84BE84" rx="3" ry="3" style="stroke: #038048; stroke-width: 1.0;"/><text fill="#000000" font-family="sans-serif" font-size="11" lengthAdjust="spacingAndGlyphs" textLength="76" x="174" y="164.4292">getFlora(): int</text><ellipse cx="165" cy="174.0234" fill="#84BE84" rx="3" ry="3" style="stroke: #038048; stroke-width: 1.0;"/><text fill="#000000" font-family="sans-serif" font-size="11" lengthAdjust="spacingAndGlyphs" textLength="122" x="174" y="177.2339">changeFlora(int): void</text><ellipse cx="165" cy="186.8281" fill="#84BE84" rx="3" ry="3" style="stroke: #038048; stroke-width: 1.0;"/><text fill="#000000" font-family="sans-serif" font-size="11" lengthAdjust="spacingAndGlyphs" textLength="78" x="174" y="190.0386">getFlesh(): int</text><ellipse cx="165" cy="199.6328" fill="#84BE84" rx="3" ry="3" style="stroke: #038048; stroke-width: 1.0;"/><text fill="#000000" font-family="sans-serif" font-size="11" lengthAdjust="spacingAndGlyphs" textLength="124" x="174" y="202.8433">changeFlesh(int): void</text></a><!--MD5=[cf4041ff6bf4b05b06bf89537f092f10]
class pwr.sim.tile.ForestTile--><a href="ForestTile.html" target="_top" title="ForestTile.html" xlink:actuate="onRequest" xlink:href="ForestTile.html" xlink:show="new" xlink:title="ForestTile.html" xlink:type="simple"><rect fill="#FEFECE" filter="url(#f1jocxeqpmrn86)" height="73.6094" id="pwr.sim.tile.ForestTile" style="stroke: #A80036; stroke-width: 1.5;" width="104" x="177" y="269"/><ellipse cx="196.95" cy="285" fill="#ADD1B2" rx="11" ry="11" style="stroke: #A80036; stroke-width: 1.0;"/><path d="M199.9188,290.6406 Q199.3406,290.9375 198.7,291.0781 Q198.0594,291.2344 197.3563,291.2344 Q194.8563,291.2344 193.5281,289.5938 Q192.2156,287.9375 192.2156,284.8125 Q192.2156,281.6875 193.5281,280.0313 Q194.8563,278.375 197.3563,278.375 Q198.0594,278.375 198.7,278.5313 Q199.3563,278.6875 199.9188,278.9844 L199.9188,281.7031 Q199.2938,281.125 198.7,280.8594 Q198.1063,280.5781 197.4813,280.5781 Q196.1375,280.5781 195.45,281.6563 Q194.7625,282.7188 194.7625,284.8125 Q194.7625,286.9063 195.45,287.9844 Q196.1375,289.0469 197.4813,289.0469 Q198.1063,289.0469 198.7,288.7813 Q199.2938,288.5 199.9188,287.9219 L199.9188,290.6406 Z "/><text fill="#000000" font-family="sans-serif" font-size="12" lengthAdjust="spacingAndGlyphs" textLength="61" x="212.05" y="289.1543">ForestTile</text><line style="stroke: #A80036; stroke-width: 1.5;" x1="178" x2="280" y1="301" y2="301"/><line style="stroke: #A80036; stroke-width: 1.5;" x1="178" x2="280" y1="309" y2="309"/><ellipse cx="188" cy="320" fill="#84BE84" rx="3" ry="3" style="stroke: #038048; stroke-width: 1.0;"/><text fill="#000000" font-family="sans-serif" font-size="11" lengthAdjust="spacingAndGlyphs" textLength="67" x="197" y="323.2104">draw(): void</text><ellipse cx="188" cy="332.8047" fill="#84BE84" rx="3" ry="3" style="stroke: #038048; stroke-width: 1.0;"/><text fill="#000000" font-family="sans-serif" font-size="11" lengthAdjust="spacingAndGlyphs" textLength="78" x="197" y="336.0151">getColor(): int</text></a><!--MD5=[0a2e2e5dcd3c4966e0ab4445a4d1754e]
class pwr.sim.tile.WaterTile--><a href="WaterTile.html" target="_top" title="WaterTile.html" xlink:actuate="onRequest" xlink:href="WaterTile.html" xlink:show="new" xlink:title="WaterTile.html" xlink:type="simple"><rect fill="#FEFECE" filter="url(#f1jocxeqpmrn86)" height="73.6094" id="pwr.sim.tile.WaterTile" style="stroke: #A80036; stroke-width: 1.5;" width="104" x="316" y="269"/><ellipse cx="337.3" cy="285" fill="#ADD1B2" rx="11" ry="11" style="stroke: #A80036; stroke-width: 1.0;"/><path d="M340.2688,290.6406 Q339.6906,290.9375 339.05,291.0781 Q338.4094,291.2344 337.7063,291.2344 Q335.2063,291.2344 333.8781,289.5938 Q332.5656,287.9375 332.5656,284.8125 Q332.5656,281.6875 333.8781,280.0313 Q335.2063,278.375 337.7063,278.375 Q338.4094,278.375 339.05,278.5313 Q339.7063,278.6875 340.2688,278.9844 L340.2688,281.7031 Q339.6438,281.125 339.05,280.8594 Q338.4563,280.5781 337.8313,280.5781 Q336.4875,280.5781 335.8,281.6563 Q335.1125,282.7188 335.1125,284.8125 Q335.1125,286.9063 335.8,287.9844 Q336.4875,289.0469 337.8313,289.0469 Q338.4563,289.0469 339.05,288.7813 Q339.6438,288.5 340.2688,287.9219 L340.2688,290.6406 Z "/><text fill="#000000" font-family="sans-serif" font-size="12" lengthAdjust="spacingAndGlyphs" textLength="58" x="352.7" y="289.1543">WaterTile</text><line style="stroke: #A80036; stroke-width: 1.5;" x1="317" x2="419" y1="301" y2="301"/><line style="stroke: #A80036; stroke-width: 1.5;" x1="317" x2="419" y1="309" y2="309"/><ellipse cx="327" cy="320" fill="#84BE84" rx="3" ry="3" style="stroke: #038048; stroke-width: 1.0;"/><text fill="#000000" font-family="sans-serif" font-size="11" lengthAdjust="spacingAndGlyphs" textLength="67" x="336" y="323.2104">draw(): void</text><ellipse cx="327" cy="332.8047" fill="#84BE84" rx="3" ry="3" style="stroke: #038048; stroke-width: 1.0;"/><text fill="#000000" font-family="sans-serif" font-size="11" lengthAdjust="spacingAndGlyphs" textLength="78" x="336" y="336.0151">getColor(): int</text></a><!--MD5=[517225b6bb62042e671840763edf8f71]
reverse link pwr.sim.tile.Tile to pwr.sim.tile.DesertTile--><path d="M155.64,224.73 C142.83,240.39 130.2,255.84 119.49,268.93 " fill="none" id="pwr.sim.tile.Tile&lt;-pwr.sim.tile.DesertTile" style="stroke: #A80036; stroke-width: 1.0;"/><polygon fill="none" points="150.36,220.12,168.44,209.07,161.2,228.98,150.36,220.12" style="stroke: #A80036; stroke-width: 1.0;"/><!--MD5=[53dd2a6f0cf712c8ba6353c350253f78]
reverse link pwr.sim.tile.Tile to pwr.sim.tile.ForestTile--><path d="M229,229.12 C229,243.26 229,257.06 229,268.93 " fill="none" id="pwr.sim.tile.Tile&lt;-pwr.sim.tile.ForestTile" style="stroke: #A80036; stroke-width: 1.0;"/><polygon fill="none" points="222,229.07,229,209.07,236,229.07,222,229.07" style="stroke: #A80036; stroke-width: 1.0;"/><!--MD5=[d91a11ff80edeb6680de7c21f7862340]
reverse link pwr.sim.tile.Tile to pwr.sim.tile.WaterTile--><path d="M302.36,224.73 C315.17,240.39 327.8,255.84 338.51,268.93 " fill="none" id="pwr.sim.tile.Tile&lt;-pwr.sim.tile.WaterTile" style="stroke: #A80036; stroke-width: 1.0;"/><polygon fill="none" points="296.8,228.98,289.56,209.07,307.64,220.12,296.8,228.98" style="stroke: #A80036; stroke-width: 1.0;"/><text fill="#888888" font-family="sans-serif" font-size="10" lengthAdjust="spacingAndGlyphs" textLength="186" x="142" y="394.2822">UMLDoclet 2.0.9, PlantUML 1.2020.08</text><!--MD5=[87e79f35a2d2af342fc041d798093343]
@startuml
    namespace pwr.sim.tile {

        class DesertTile [[DesertTile.html]] {
            +draw(): void
            +getColor(): int
        }

        abstract class Tile [[Tile.html]] {
            -flora: int
            -flesh: int
            +draw(): void
            {abstract} +getColor(): int
            +getFlora(): int
            +changeFlora(int): void
            +getFlesh(): int
            +changeFlesh(int): void
        }

        class ForestTile [[ForestTile.html]] {
            +draw(): void
            +getColor(): int
        }

        class WaterTile [[WaterTile.html]] {
            +draw(): void
            +getColor(): int
        }

        Tile <|- - DesertTile
        Tile <|- - ForestTile
        Tile <|- - WaterTile
    }

    center footer UMLDoclet 2.0.9, PlantUML 1.2020.08
@enduml

PlantUML version 1.2020.08(Sun Apr 26 16:08:22 CEST 2020)
(APACHE source distribution)
Java Runtime: OpenJDK Runtime Environment
JVM: OpenJDK 64-Bit Server VM
Java Version: 11.0.7+10-post-Ubuntu-3ubuntu1
Operating System: Linux
Default Encoding: UTF-8
Language: en
Country: GB
--></g></svg>