<?xml version="1.0" encoding="UTF-8" standalone="no"?><svg xmlns="http://www.w3.org/2000/svg" xmlns:xlink="http://www.w3.org/1999/xlink" contentScriptType="application/ecmascript" contentStyleType="text/css" height="167px" preserveAspectRatio="none" style="width:198px;height:167px;" version="1.1" viewBox="0 0 198 167" width="198px" zoomAndPan="magnify"><defs><filter height="300%" id="fi2hky6pn37j3" width="300%" x="-1" y="-1"><feGaussianBlur result="blurOut" stdDeviation="2.0"/><feColorMatrix in="blurOut" result="blurOut2" type="matrix" values="0 0 0 0 0 0 0 0 0 0 0 0 0 0 0 0 0 0 .4 0"/><feOffset dx="4.0" dy="4.0" in="blurOut2" result="blurOut3"/><feBlend in="SourceGraphic" in2="blurOut3" mode="normal"/></filter></defs><g><!--MD5=[33d19a735a640f25ebb3fb0c069befba]
class pwr.sim.Node--><a href="Node.html" target="_top" title="Node.html" xlink:actuate="onRequest" xlink:href="Node.html" xlink:show="new" xlink:title="Node.html" xlink:type="simple"><rect fill="#FEFECE" filter="url(#fi2hky6pn37j3)" height="130.7656" id="pwr.sim.Node" style="stroke: #A80036; stroke-width: 1.5;" width="165" x="10.5" y="7"/><ellipse cx="69.75" cy="25.9688" fill="#ADD1B2" rx="11" ry="11" style="stroke: #A80036; stroke-width: 1.0;"/><path d="M72.7188,31.6094 Q72.1406,31.9063 71.5,32.0469 Q70.8594,32.2031 70.1563,32.2031 Q67.6563,32.2031 66.3281,30.5625 Q65.0156,28.9063 65.0156,25.7813 Q65.0156,22.6563 66.3281,21 Q67.6563,19.3438 70.1563,19.3438 Q70.8594,19.3438 71.5,19.5 Q72.1563,19.6563 72.7188,19.9531 L72.7188,22.6719 Q72.0938,22.0938 71.5,21.8281 Q70.9063,21.5469 70.2813,21.5469 Q68.9375,21.5469 68.25,22.625 Q67.5625,23.6875 67.5625,25.7813 Q67.5625,27.875 68.25,28.9531 Q68.9375,30.0156 70.2813,30.0156 Q70.9063,30.0156 71.5,29.75 Q72.0938,29.4688 72.7188,28.8906 L72.7188,31.6094 Z "/><text fill="#000000" font-family="sans-serif" font-size="14" lengthAdjust="spacingAndGlyphs" textLength="37" x="90.75" y="24.9951">Node</text><text fill="#000000" font-family="sans-serif" font-size="10" lengthAdjust="spacingAndGlyphs" textLength="38" x="90.25" y="37.5791">pwr.sim</text><line style="stroke: #A80036; stroke-width: 1.5;" x1="11.5" x2="174.5" y1="44.9375" y2="44.9375"/><ellipse cx="21.5" cy="55.9375" fill="none" rx="3" ry="3" style="stroke: #038048; stroke-width: 1.0;"/><text fill="#000000" font-family="sans-serif" font-size="11" lengthAdjust="spacingAndGlyphs" textLength="62" x="30.5" y="59.1479">prev: Node</text><ellipse cx="21.5" cy="68.7422" fill="none" rx="3" ry="3" style="stroke: #038048; stroke-width: 1.0;"/><text fill="#000000" font-family="sans-serif" font-size="11" lengthAdjust="spacingAndGlyphs" textLength="113" x="30.5" y="71.9526">position: Position2D</text><ellipse cx="21.5" cy="81.5469" fill="none" rx="3" ry="3" style="stroke: #038048; stroke-width: 1.0;"/><text fill="#000000" font-family="sans-serif" font-size="11" lengthAdjust="spacingAndGlyphs" textLength="55" x="30.5" y="84.7573">gCost: int</text><ellipse cx="21.5" cy="94.3516" fill="none" rx="3" ry="3" style="stroke: #038048; stroke-width: 1.0;"/><text fill="#000000" font-family="sans-serif" font-size="11" lengthAdjust="spacingAndGlyphs" textLength="72" x="30.5" y="97.562">finalCost: int</text><line style="stroke: #A80036; stroke-width: 1.5;" x1="11.5" x2="174.5" y1="104.1563" y2="104.1563"/><ellipse cx="21.5" cy="115.1563" fill="#84BE84" rx="3" ry="3" style="stroke: #038048; stroke-width: 1.0;"/><text fill="#000000" font-family="sans-serif" font-size="11" lengthAdjust="spacingAndGlyphs" textLength="134" x="30.5" y="118.3667">Node(Position2D, Node)</text><ellipse cx="21.5" cy="127.9609" fill="#84BE84" rx="3" ry="3" style="stroke: #038048; stroke-width: 1.0;"/><text fill="#000000" font-family="sans-serif" font-size="11" lengthAdjust="spacingAndGlyphs" textLength="139" x="30.5" y="131.1714">getPosition(): Position2D</text></a><text fill="#888888" font-family="sans-serif" font-size="10" lengthAdjust="spacingAndGlyphs" textLength="186" x="0" y="154.0479">UMLDoclet 2.0.9, PlantUML 1.2020.08</text><!--MD5=[ca93673540b52e4d0508793efe0d9506]
@startuml
    set namespaceSeparator none
    hide empty fields
    hide empty methods

    class "<size:14>Node\n<size:10>pwr.sim" as pwr.sim.Node [[Node.html]] {
        +prev: Node
        +position: Position2D
        +gCost: int
        +finalCost: int
        +Node(Position2D, Node)
        +getPosition(): Position2D
    }

    center footer UMLDoclet 2.0.9, PlantUML 1.2020.08
@enduml

PlantUML version 1.2020.08(Sun Apr 26 16:08:22 CEST 2020)
(APACHE source distribution)
Java Runtime: OpenJDK Runtime Environment
JVM: OpenJDK 64-Bit Server VM
Java Version: 11.0.7+10-post-Ubuntu-3ubuntu1
Operating System: Linux
Default Encoding: UTF-8
Language: en
Country: GB
--></g></svg>