<?xml version="1.0" encoding="UTF-8" standalone="no"?><svg xmlns="http://www.w3.org/2000/svg" xmlns:xlink="http://www.w3.org/1999/xlink" contentScriptType="application/ecmascript" contentStyleType="text/css" height="1047px" preserveAspectRatio="none" style="width:668px;height:1047px;" version="1.1" viewBox="0 0 668 1047" width="668px" zoomAndPan="magnify"><defs><filter height="300%" id="f1ucetr4d66p8e" width="300%" x="-1" y="-1"><feGaussianBlur result="blurOut" stdDeviation="2.0"/><feColorMatrix in="blurOut" result="blurOut2" type="matrix" values="0 0 0 0 0 0 0 0 0 0 0 0 0 0 0 0 0 0 .4 0"/><feOffset dx="4.0" dy="4.0" in="blurOut2" result="blurOut3"/><feBlend in="SourceGraphic" in2="blurOut3" mode="normal"/></filter></defs><g><!--MD5=[eb945461eba7eb248984bb62588b2b58]
cluster pwr.sim--><polygon fill="#FFFFFF" filter="url(#f1ucetr4d66p8e)" points="22,24,91,24,98,46.2969,622,46.2969,622,821,22,821,22,24" style="stroke: #000000; stroke-width: 1.5;"/><line style="stroke: #000000; stroke-width: 1.5;" x1="22" x2="98" y1="46.2969" y2="46.2969"/><text fill="#000000" font-family="sans-serif" font-size="14" font-weight="bold" lengthAdjust="spacingAndGlyphs" textLength="63" x="26" y="38.9951">pwr.sim</text><!--MD5=[38d21fd4d824cca984a032be1183e02d]
cluster pwr.sim.animal--><polygon fill="#FFFFFF" filter="url(#f1ucetr4d66p8e)" points="254,900,378,900,385,922.2969,514,922.2969,514,999,254,999,254,900" style="stroke: #000000; stroke-width: 1.5;"/><line style="stroke: #000000; stroke-width: 1.5;" x1="254" x2="385" y1="922.2969" y2="922.2969"/><text fill="#000000" font-family="sans-serif" font-size="14" font-weight="bold" lengthAdjust="spacingAndGlyphs" textLength="118" x="258" y="914.9951">pwr.sim.animal</text><!--MD5=[c2dcf61bf1b29a597783dba432290bbf]
cluster pwr.sim.tile--><polygon fill="#FFFFFF" filter="url(#f1ucetr4d66p8e)" points="538,900,636,900,643,922.2969,646,922.2969,646,999,538,999,538,900" style="stroke: #000000; stroke-width: 1.5;"/><line style="stroke: #000000; stroke-width: 1.5;" x1="538" x2="643" y1="922.2969" y2="922.2969"/><text fill="#000000" font-family="sans-serif" font-size="14" font-weight="bold" lengthAdjust="spacingAndGlyphs" textLength="92" x="542" y="914.9951">pwr.sim.tile</text><!--MD5=[866a64d3a691050e330e45953268b773]
class pwr.sim.Position2D--><a href="Position2D.html" target="_top" title="Position2D.html" xlink:actuate="onRequest" xlink:href="Position2D.html" xlink:show="new" xlink:title="Position2D.html" xlink:type="simple"><rect fill="#FEFECE" filter="url(#f1ucetr4d66p8e)" height="176.0469" id="pwr.sim.Position2D" style="stroke: #A80036; stroke-width: 1.5;" width="212" x="360" y="235"/><ellipse cx="428.25" cy="251" fill="#ADD1B2" rx="11" ry="11" style="stroke: #A80036; stroke-width: 1.0;"/><path d="M431.2188,256.6406 Q430.6406,256.9375 430,257.0781 Q429.3594,257.2344 428.6563,257.2344 Q426.1563,257.2344 424.8281,255.5938 Q423.5156,253.9375 423.5156,250.8125 Q423.5156,247.6875 424.8281,246.0313 Q426.1563,244.375 428.6563,244.375 Q429.3594,244.375 430,244.5313 Q430.6563,244.6875 431.2188,244.9844 L431.2188,247.7031 Q430.5938,247.125 430,246.8594 Q429.4063,246.5781 428.7813,246.5781 Q427.4375,246.5781 426.75,247.6563 Q426.0625,248.7188 426.0625,250.8125 Q426.0625,252.9063 426.75,253.9844 Q427.4375,255.0469 428.7813,255.0469 Q429.4063,255.0469 430,254.7813 Q430.5938,254.5 431.2188,253.9219 L431.2188,256.6406 Z "/><text fill="#000000" font-family="sans-serif" font-size="12" lengthAdjust="spacingAndGlyphs" textLength="67" x="448.75" y="255.1543">Position2D</text><line style="stroke: #A80036; stroke-width: 1.5;" x1="361" x2="571" y1="267" y2="267"/><rect fill="none" height="6" style="stroke: #C82930; stroke-width: 1.0;" width="6" x="368" y="275"/><text fill="#000000" font-family="sans-serif" font-size="11" lengthAdjust="spacingAndGlyphs" textLength="28" x="380" y="281.2104">x: int</text><rect fill="none" height="6" style="stroke: #C82930; stroke-width: 1.0;" width="6" x="368" y="287.8047"/><text fill="#000000" font-family="sans-serif" font-size="11" lengthAdjust="spacingAndGlyphs" textLength="28" x="380" y="294.0151">y: int</text><line style="stroke: #A80036; stroke-width: 1.5;" x1="361" x2="571" y1="300.6094" y2="300.6094"/><ellipse cx="371" cy="311.6094" fill="#84BE84" rx="3" ry="3" style="stroke: #038048; stroke-width: 1.0;"/><text fill="#000000" font-family="sans-serif" font-size="11" lengthAdjust="spacingAndGlyphs" textLength="143" x="380" y="314.8198">Position2D(int, int, World)</text><ellipse cx="371" cy="324.4141" fill="#84BE84" rx="3" ry="3" style="stroke: #038048; stroke-width: 1.0;"/><text fill="#000000" font-family="sans-serif" font-size="11" lengthAdjust="spacingAndGlyphs" textLength="128" x="380" y="327.6245">Position2D(Position2D)</text><ellipse cx="371" cy="337.2188" fill="#84BE84" rx="3" ry="3" style="stroke: #038048; stroke-width: 1.0;"/><text fill="#000000" font-family="sans-serif" font-size="11" lengthAdjust="spacingAndGlyphs" textLength="106" x="380" y="340.4292">move(int, int): void</text><ellipse cx="371" cy="350.0234" fill="#84BE84" rx="3" ry="3" style="stroke: #038048; stroke-width: 1.0;"/><text fill="#000000" font-family="sans-serif" font-size="11" lengthAdjust="spacingAndGlyphs" textLength="138" x="380" y="353.2339">setPosition(int, int): void</text><ellipse cx="371" cy="362.8281" fill="#84BE84" rx="3" ry="3" style="stroke: #038048; stroke-width: 1.0;"/><text fill="#000000" font-family="sans-serif" font-size="11" lengthAdjust="spacingAndGlyphs" textLength="186" x="380" y="366.0386">distanceSquared(Position2D): int</text><ellipse cx="371" cy="375.6328" fill="#84BE84" rx="3" ry="3" style="stroke: #038048; stroke-width: 1.0;"/><text fill="#000000" font-family="sans-serif" font-size="11" lengthAdjust="spacingAndGlyphs" textLength="155" x="380" y="378.8433">delta(Position2D): Vector2D</text><ellipse cx="371" cy="388.4375" fill="#84BE84" rx="3" ry="3" style="stroke: #038048; stroke-width: 1.0;"/><text fill="#000000" font-family="sans-serif" font-size="11" lengthAdjust="spacingAndGlyphs" textLength="55" x="380" y="391.6479">getX(): int</text><ellipse cx="371" cy="401.2422" fill="#84BE84" rx="3" ry="3" style="stroke: #038048; stroke-width: 1.0;"/><text fill="#000000" font-family="sans-serif" font-size="11" lengthAdjust="spacingAndGlyphs" textLength="55" x="380" y="404.4526">getY(): int</text></a><!--MD5=[e0482b18df9ae4a1c0083229bf001a33]
class pwr.sim.World--><a href="World.html" target="_top" title="World.html" xlink:actuate="onRequest" xlink:href="World.html" xlink:show="new" xlink:title="World.html" xlink:type="simple"><rect fill="#FEFECE" filter="url(#f1ucetr4d66p8e)" height="316.8984" id="pwr.sim.World" style="stroke: #A80036; stroke-width: 1.5;" width="288" x="318" y="488"/><ellipse cx="440.25" cy="504" fill="#ADD1B2" rx="11" ry="11" style="stroke: #A80036; stroke-width: 1.0;"/><path d="M443.2188,509.6406 Q442.6406,509.9375 442,510.0781 Q441.3594,510.2344 440.6563,510.2344 Q438.1563,510.2344 436.8281,508.5938 Q435.5156,506.9375 435.5156,503.8125 Q435.5156,500.6875 436.8281,499.0313 Q438.1563,497.375 440.6563,497.375 Q441.3594,497.375 442,497.5313 Q442.6563,497.6875 443.2188,497.9844 L443.2188,500.7031 Q442.5938,500.125 442,499.8594 Q441.4063,499.5781 440.7813,499.5781 Q439.4375,499.5781 438.75,500.6563 Q438.0625,501.7188 438.0625,503.8125 Q438.0625,505.9063 438.75,506.9844 Q439.4375,508.0469 440.7813,508.0469 Q441.4063,508.0469 442,507.7813 Q442.5938,507.5 443.2188,506.9219 L443.2188,509.6406 Z "/><text fill="#000000" font-family="sans-serif" font-size="12" lengthAdjust="spacingAndGlyphs" textLength="35" x="460.75" y="508.1543">World</text><line style="stroke: #A80036; stroke-width: 1.5;" x1="319" x2="605" y1="520" y2="520"/><rect fill="none" height="6" style="stroke: #C82930; stroke-width: 1.0;" width="6" x="326" y="528"/><text fill="#000000" font-family="sans-serif" font-size="11" lengthAdjust="spacingAndGlyphs" textLength="52" x="338" y="534.2104">width: int</text><rect fill="none" height="6" style="stroke: #C82930; stroke-width: 1.0;" width="6" x="326" y="540.8047"/><text fill="#000000" font-family="sans-serif" font-size="11" lengthAdjust="spacingAndGlyphs" textLength="57" x="338" y="547.0151">height: int</text><line style="stroke: #A80036; stroke-width: 1.5;" x1="319" x2="605" y1="553.6094" y2="553.6094"/><ellipse cx="329" cy="564.6094" fill="#84BE84" rx="3" ry="3" style="stroke: #038048; stroke-width: 1.0;"/><text fill="#000000" font-family="sans-serif" font-size="11" lengthAdjust="spacingAndGlyphs" textLength="111" x="338" y="567.8198">World(int, int, Tile[])</text><ellipse cx="329" cy="577.4141" fill="#84BE84" rx="3" ry="3" style="stroke: #038048; stroke-width: 1.0;"/><text fill="#000000" font-family="sans-serif" font-size="11" lengthAdjust="spacingAndGlyphs" text-decoration="underline" textLength="153" x="338" y="580.6245">loadFromFile(String): World</text><ellipse cx="329" cy="590.2188" fill="#84BE84" rx="3" ry="3" style="stroke: #038048; stroke-width: 1.0;"/><text fill="#000000" font-family="sans-serif" font-size="11" lengthAdjust="spacingAndGlyphs" textLength="78" x="338" y="593.4292">update(): void</text><ellipse cx="329" cy="603.0234" fill="#84BE84" rx="3" ry="3" style="stroke: #038048; stroke-width: 1.0;"/><text fill="#000000" font-family="sans-serif" font-size="11" lengthAdjust="spacingAndGlyphs" textLength="175" x="338" y="606.2339">populate(int, AnimalType): void</text><rect fill="#F24D5C" height="6" style="stroke: #C82930; stroke-width: 1.0;" width="6" x="326" y="612.8281"/><text fill="#000000" font-family="sans-serif" font-size="11" lengthAdjust="spacingAndGlyphs" textLength="179" x="338" y="619.0386">spawnAnimal(AnimalType): void</text><rect fill="#F24D5C" height="6" style="stroke: #C82930; stroke-width: 1.0;" width="6" x="326" y="625.6328"/><text fill="#000000" font-family="sans-serif" font-size="11" lengthAdjust="spacingAndGlyphs" textLength="262" x="338" y="631.8433">spawnAnimal(AnimalType, Position2D): Animal</text><rect fill="#F24D5C" height="6" style="stroke: #C82930; stroke-width: 1.0;" width="6" x="326" y="638.4375"/><text fill="#000000" font-family="sans-serif" font-size="11" lengthAdjust="spacingAndGlyphs" textLength="220" x="338" y="644.6479">spawnAnimal(Animal, Position2D): void</text><ellipse cx="329" cy="654.2422" fill="#84BE84" rx="3" ry="3" style="stroke: #038048; stroke-width: 1.0;"/><text fill="#000000" font-family="sans-serif" font-size="11" lengthAdjust="spacingAndGlyphs" textLength="194" x="338" y="657.4526">toSpawn(Animal, Position2D): void</text><rect fill="#F24D5C" height="6" style="stroke: #C82930; stroke-width: 1.0;" width="6" x="326" y="664.0469"/><text fill="#000000" font-family="sans-serif" font-size="11" lengthAdjust="spacingAndGlyphs" textLength="112" x="338" y="670.2573">addToSpawn(): void</text><ellipse cx="329" cy="679.8516" fill="#84BE84" rx="3" ry="3" style="stroke: #038048; stroke-width: 1.0;"/><text fill="#000000" font-family="sans-serif" font-size="11" lengthAdjust="spacingAndGlyphs" textLength="133" x="338" y="683.062">toRemove(Animal): void</text><rect fill="#F24D5C" height="6" style="stroke: #C82930; stroke-width: 1.0;" width="6" x="326" y="689.6563"/><text fill="#000000" font-family="sans-serif" font-size="11" lengthAdjust="spacingAndGlyphs" textLength="141" x="338" y="695.8667">removeToRemove(): void</text><ellipse cx="329" cy="705.4609" fill="#84BE84" rx="3" ry="3" style="stroke: #038048; stroke-width: 1.0;"/><text fill="#000000" font-family="sans-serif" font-size="11" lengthAdjust="spacingAndGlyphs" textLength="67" x="338" y="708.6714">draw(): void</text><ellipse cx="329" cy="718.2656" fill="#84BE84" rx="3" ry="3" style="stroke: #038048; stroke-width: 1.0;"/><text fill="#000000" font-family="sans-serif" font-size="11" lengthAdjust="spacingAndGlyphs" textLength="143" x="338" y="721.4761">drawAnimal(Animal): void</text><ellipse cx="329" cy="731.0703" fill="#84BE84" rx="3" ry="3" style="stroke: #038048; stroke-width: 1.0;"/><text fill="#000000" font-family="sans-serif" font-size="11" lengthAdjust="spacingAndGlyphs" textLength="110" x="338" y="734.2808">getTile(int, int): Tile</text><ellipse cx="329" cy="743.875" fill="#84BE84" rx="3" ry="3" style="stroke: #038048; stroke-width: 1.0;"/><text fill="#000000" font-family="sans-serif" font-size="11" lengthAdjust="spacingAndGlyphs" textLength="134" x="338" y="747.0854">getTile(Position2D): Tile</text><ellipse cx="329" cy="756.6797" fill="#84BE84" rx="3" ry="3" style="stroke: #038048; stroke-width: 1.0;"/><text fill="#000000" font-family="sans-serif" font-size="11" lengthAdjust="spacingAndGlyphs" textLength="237" x="338" y="759.8901">findNearestPlants(Position2D): Position2D</text><ellipse cx="329" cy="769.4844" fill="#84BE84" rx="3" ry="3" style="stroke: #038048; stroke-width: 1.0;"/><text fill="#000000" font-family="sans-serif" font-size="11" lengthAdjust="spacingAndGlyphs" textLength="180" x="338" y="772.6948">newPosition(int, int): Position2D</text><ellipse cx="329" cy="782.2891" fill="#84BE84" rx="3" ry="3" style="stroke: #038048; stroke-width: 1.0;"/><text fill="#000000" font-family="sans-serif" font-size="11" lengthAdjust="spacingAndGlyphs" textLength="78" x="338" y="785.4995">getWidth(): int</text><ellipse cx="329" cy="795.0938" fill="#84BE84" rx="3" ry="3" style="stroke: #038048; stroke-width: 1.0;"/><text fill="#000000" font-family="sans-serif" font-size="11" lengthAdjust="spacingAndGlyphs" textLength="84" x="338" y="798.3042">getHeight(): int</text></a><!--MD5=[33d19a735a640f25ebb3fb0c069befba]
class pwr.sim.Node--><a href="Node.html" target="_top" title="Node.html" xlink:actuate="onRequest" xlink:href="Node.html" xlink:show="new" xlink:title="Node.html" xlink:type="simple"><rect fill="#FEFECE" filter="url(#f1ucetr4d66p8e)" height="86.4141" id="pwr.sim.Node" style="stroke: #A80036; stroke-width: 1.5;" width="160" x="388" y="65.5"/><ellipse cx="447.25" cy="81.5" fill="#ADD1B2" rx="11" ry="11" style="stroke: #A80036; stroke-width: 1.0;"/><path d="M450.2188,87.1406 Q449.6406,87.4375 449,87.5781 Q448.3594,87.7344 447.6563,87.7344 Q445.1563,87.7344 443.8281,86.0938 Q442.5156,84.4375 442.5156,81.3125 Q442.5156,78.1875 443.8281,76.5313 Q445.1563,74.875 447.6563,74.875 Q448.3594,74.875 449,75.0313 Q449.6563,75.1875 450.2188,75.4844 L450.2188,78.2031 Q449.5938,77.625 449,77.3594 Q448.4063,77.0781 447.7813,77.0781 Q446.4375,77.0781 445.75,78.1563 Q445.0625,79.2188 445.0625,81.3125 Q445.0625,83.4063 445.75,84.4844 Q446.4375,85.5469 447.7813,85.5469 Q448.4063,85.5469 449,85.2813 Q449.5938,85 450.2188,84.4219 L450.2188,87.1406 Z "/><text fill="#000000" font-family="sans-serif" font-size="12" lengthAdjust="spacingAndGlyphs" textLength="33" x="467.75" y="85.6543">Node</text><line style="stroke: #A80036; stroke-width: 1.5;" x1="389" x2="547" y1="97.5" y2="97.5"/><ellipse cx="399" cy="108.5" fill="none" rx="3" ry="3" style="stroke: #038048; stroke-width: 1.0;"/><text fill="#000000" font-family="sans-serif" font-size="11" lengthAdjust="spacingAndGlyphs" textLength="55" x="408" y="111.7104">gCost: int</text><ellipse cx="399" cy="121.3047" fill="none" rx="3" ry="3" style="stroke: #038048; stroke-width: 1.0;"/><text fill="#000000" font-family="sans-serif" font-size="11" lengthAdjust="spacingAndGlyphs" textLength="72" x="408" y="124.5151">finalCost: int</text><line style="stroke: #A80036; stroke-width: 1.5;" x1="389" x2="547" y1="131.1094" y2="131.1094"/><ellipse cx="399" cy="142.1094" fill="#84BE84" rx="3" ry="3" style="stroke: #038048; stroke-width: 1.0;"/><text fill="#000000" font-family="sans-serif" font-size="11" lengthAdjust="spacingAndGlyphs" textLength="134" x="408" y="145.3198">Node(Position2D, Node)</text></a><!--MD5=[549ac8facc89d3c0e244f97ab8bb88ce]
class pwr.sim.App--><a href="App.html" target="_top" title="App.html" xlink:actuate="onRequest" xlink:href="App.html" xlink:show="new" xlink:title="App.html" xlink:type="simple"><rect fill="#FEFECE" filter="url(#f1ucetr4d66p8e)" height="60.8047" id="pwr.sim.App" style="stroke: #A80036; stroke-width: 1.5;" width="135" x="217.5" y="78"/><ellipse cx="268.75" cy="94" fill="#ADD1B2" rx="11" ry="11" style="stroke: #A80036; stroke-width: 1.0;"/><path d="M271.7188,99.6406 Q271.1406,99.9375 270.5,100.0781 Q269.8594,100.2344 269.1563,100.2344 Q266.6563,100.2344 265.3281,98.5938 Q264.0156,96.9375 264.0156,93.8125 Q264.0156,90.6875 265.3281,89.0313 Q266.6563,87.375 269.1563,87.375 Q269.8594,87.375 270.5,87.5313 Q271.1563,87.6875 271.7188,87.9844 L271.7188,90.7031 Q271.0938,90.125 270.5,89.8594 Q269.9063,89.5781 269.2813,89.5781 Q267.9375,89.5781 267.25,90.6563 Q266.5625,91.7188 266.5625,93.8125 Q266.5625,95.9063 267.25,96.9844 Q267.9375,98.0469 269.2813,98.0469 Q269.9063,98.0469 270.5,97.7813 Q271.0938,97.5 271.7188,96.9219 L271.7188,99.6406 Z "/><text fill="#000000" font-family="sans-serif" font-size="12" lengthAdjust="spacingAndGlyphs" textLength="24" x="289.25" y="98.1543">App</text><line style="stroke: #A80036; stroke-width: 1.5;" x1="218.5" x2="351.5" y1="110" y2="110"/><line style="stroke: #A80036; stroke-width: 1.5;" x1="218.5" x2="351.5" y1="118" y2="118"/><ellipse cx="228.5" cy="129" fill="#84BE84" rx="3" ry="3" style="stroke: #038048; stroke-width: 1.0;"/><text fill="#000000" font-family="sans-serif" font-size="11" lengthAdjust="spacingAndGlyphs" text-decoration="underline" textLength="109" x="237.5" y="132.2104">main(String[]): void</text></a><!--MD5=[2acd539d14ea0d78363791f3eea0e935]
class pwr.sim.Vector2D--><a href="Vector2D.html" target="_top" title="Vector2D.html" xlink:actuate="onRequest" xlink:href="Vector2D.html" xlink:show="new" xlink:title="Vector2D.html" xlink:type="simple"><rect fill="#FEFECE" filter="url(#f1ucetr4d66p8e)" height="99.2188" id="pwr.sim.Vector2D" style="stroke: #A80036; stroke-width: 1.5;" width="144" x="38" y="59"/><ellipse cx="77.3" cy="75" fill="#ADD1B2" rx="11" ry="11" style="stroke: #A80036; stroke-width: 1.0;"/><path d="M80.2688,80.6406 Q79.6906,80.9375 79.05,81.0781 Q78.4094,81.2344 77.7063,81.2344 Q75.2063,81.2344 73.8781,79.5938 Q72.5656,77.9375 72.5656,74.8125 Q72.5656,71.6875 73.8781,70.0313 Q75.2063,68.375 77.7063,68.375 Q78.4094,68.375 79.05,68.5313 Q79.7063,68.6875 80.2688,68.9844 L80.2688,71.7031 Q79.6438,71.125 79.05,70.8594 Q78.4563,70.5781 77.8313,70.5781 Q76.4875,70.5781 75.8,71.6563 Q75.1125,72.7188 75.1125,74.8125 Q75.1125,76.9063 75.8,77.9844 Q76.4875,79.0469 77.8313,79.0469 Q78.4563,79.0469 79.05,78.7813 Q79.6438,78.5 80.2688,77.9219 L80.2688,80.6406 Z "/><text fill="#000000" font-family="sans-serif" font-size="12" lengthAdjust="spacingAndGlyphs" textLength="58" x="96.7" y="79.1543">Vector2D</text><line style="stroke: #A80036; stroke-width: 1.5;" x1="39" x2="181" y1="91" y2="91"/><ellipse cx="49" cy="102" fill="none" rx="3" ry="3" style="stroke: #038048; stroke-width: 1.0;"/><text fill="#000000" font-family="sans-serif" font-size="11" lengthAdjust="spacingAndGlyphs" textLength="28" x="58" y="105.2104">x: int</text><ellipse cx="49" cy="114.8047" fill="none" rx="3" ry="3" style="stroke: #038048; stroke-width: 1.0;"/><text fill="#000000" font-family="sans-serif" font-size="11" lengthAdjust="spacingAndGlyphs" textLength="28" x="58" y="118.0151">y: int</text><line style="stroke: #A80036; stroke-width: 1.5;" x1="39" x2="181" y1="124.6094" y2="124.6094"/><ellipse cx="49" cy="135.6094" fill="#84BE84" rx="3" ry="3" style="stroke: #038048; stroke-width: 1.0;"/><text fill="#000000" font-family="sans-serif" font-size="11" lengthAdjust="spacingAndGlyphs" textLength="95" x="58" y="138.8198">Vector2D(int, int)</text><ellipse cx="49" cy="148.4141" fill="#84BE84" rx="3" ry="3" style="stroke: #038048; stroke-width: 1.0;"/><text fill="#000000" font-family="sans-serif" font-size="11" lengthAdjust="spacingAndGlyphs" textLength="118" x="58" y="151.6245">length_squared(): int</text></a><!--MD5=[987227bc14f49794a20df13de0d78393]
class pwr.sim.animal.AnimalFactory--><rect fill="#FEFECE" filter="url(#f1ucetr4d66p8e)" height="48" id="pwr.sim.animal.AnimalFactory" style="stroke: #A80036; stroke-width: 1.5;" width="119" x="270.5" y="935"/><ellipse cx="285.5" cy="951" fill="#ADD1B2" rx="11" ry="11" style="stroke: #A80036; stroke-width: 1.0;"/><path d="M288.4688,956.6406 Q287.8906,956.9375 287.25,957.0781 Q286.6094,957.2344 285.9063,957.2344 Q283.4063,957.2344 282.0781,955.5938 Q280.7656,953.9375 280.7656,950.8125 Q280.7656,947.6875 282.0781,946.0313 Q283.4063,944.375 285.9063,944.375 Q286.6094,944.375 287.25,944.5313 Q287.9063,944.6875 288.4688,944.9844 L288.4688,947.7031 Q287.8438,947.125 287.25,946.8594 Q286.6563,946.5781 286.0313,946.5781 Q284.6875,946.5781 284,947.6563 Q283.3125,948.7188 283.3125,950.8125 Q283.3125,952.9063 284,953.9844 Q284.6875,955.0469 286.0313,955.0469 Q286.6563,955.0469 287.25,954.7813 Q287.8438,954.5 288.4688,953.9219 L288.4688,956.6406 Z "/><text fill="#000000" font-family="sans-serif" font-size="12" lengthAdjust="spacingAndGlyphs" textLength="87" x="299.5" y="955.1543">AnimalFactory</text><line style="stroke: #A80036; stroke-width: 1.5;" x1="271.5" x2="388.5" y1="967" y2="967"/><line style="stroke: #A80036; stroke-width: 1.5;" x1="271.5" x2="388.5" y1="975" y2="975"/><!--MD5=[c3d732d9f16640c78ebd86f186b6dc1a]
class pwr.sim.animal.Animal--><rect fill="#FEFECE" filter="url(#f1ucetr4d66p8e)" height="48" id="pwr.sim.animal.Animal" style="stroke: #A80036; stroke-width: 1.5;" width="73" x="424.5" y="935"/><ellipse cx="439.5" cy="951" fill="#ADD1B2" rx="11" ry="11" style="stroke: #A80036; stroke-width: 1.0;"/><path d="M442.4688,956.6406 Q441.8906,956.9375 441.25,957.0781 Q440.6094,957.2344 439.9063,957.2344 Q437.4063,957.2344 436.0781,955.5938 Q434.7656,953.9375 434.7656,950.8125 Q434.7656,947.6875 436.0781,946.0313 Q437.4063,944.375 439.9063,944.375 Q440.6094,944.375 441.25,944.5313 Q441.9063,944.6875 442.4688,944.9844 L442.4688,947.7031 Q441.8438,947.125 441.25,946.8594 Q440.6563,946.5781 440.0313,946.5781 Q438.6875,946.5781 438,947.6563 Q437.3125,948.7188 437.3125,950.8125 Q437.3125,952.9063 438,953.9844 Q438.6875,955.0469 440.0313,955.0469 Q440.6563,955.0469 441.25,954.7813 Q441.8438,954.5 442.4688,953.9219 L442.4688,956.6406 Z "/><text fill="#000000" font-family="sans-serif" font-size="12" lengthAdjust="spacingAndGlyphs" textLength="41" x="453.5" y="955.1543">Animal</text><line style="stroke: #A80036; stroke-width: 1.5;" x1="425.5" x2="496.5" y1="967" y2="967"/><line style="stroke: #A80036; stroke-width: 1.5;" x1="425.5" x2="496.5" y1="975" y2="975"/><!--MD5=[255d31fd1638d93d5cc60083b3595b03]
class pwr.sim.tile.Tile--><rect fill="#FEFECE" filter="url(#f1ucetr4d66p8e)" height="48" id="pwr.sim.tile.Tile" style="stroke: #A80036; stroke-width: 1.5;" width="53" x="554.5" y="935"/><ellipse cx="569.5" cy="951" fill="#ADD1B2" rx="11" ry="11" style="stroke: #A80036; stroke-width: 1.0;"/><path d="M572.4688,956.6406 Q571.8906,956.9375 571.25,957.0781 Q570.6094,957.2344 569.9063,957.2344 Q567.4063,957.2344 566.0781,955.5938 Q564.7656,953.9375 564.7656,950.8125 Q564.7656,947.6875 566.0781,946.0313 Q567.4063,944.375 569.9063,944.375 Q570.6094,944.375 571.25,944.5313 Q571.9063,944.6875 572.4688,944.9844 L572.4688,947.7031 Q571.8438,947.125 571.25,946.8594 Q570.6563,946.5781 570.0313,946.5781 Q568.6875,946.5781 568,947.6563 Q567.3125,948.7188 567.3125,950.8125 Q567.3125,952.9063 568,953.9844 Q568.6875,955.0469 570.0313,955.0469 Q570.6563,955.0469 571.25,954.7813 Q571.8438,954.5 572.4688,953.9219 L572.4688,956.6406 Z "/><text fill="#000000" font-family="sans-serif" font-size="12" lengthAdjust="spacingAndGlyphs" textLength="21" x="583.5" y="955.1543">Tile</text><line style="stroke: #A80036; stroke-width: 1.5;" x1="555.5" x2="606.5" y1="967" y2="967"/><line style="stroke: #A80036; stroke-width: 1.5;" x1="555.5" x2="606.5" y1="975" y2="975"/><!--MD5=[6c51088a85eec768b1bfc96db52d9ccf]
link pwr.sim.Position2D to pwr.sim.World--><path d="M464.92,411 C464.64,433.23 464.33,457.85 464.03,482.54 " fill="none" id="pwr.sim.Position2D-&gt;pwr.sim.World" style="stroke: #A80036; stroke-width: 1.0;"/><polygon fill="#A80036" points="463.96,487.81,468.0626,478.8563,464.0171,482.8103,460.0631,478.7649,463.96,487.81" style="stroke: #A80036; stroke-width: 1.0;"/><text fill="#000000" font-family="sans-serif" font-size="13" lengthAdjust="spacingAndGlyphs" textLength="33" x="465" y="454.0669">world</text><!--MD5=[03b29c26dadd101f34a3823bbbdf192d]
link pwr.sim.World to pwr.sim.animal.AnimalFactory--><path d="M374.42,805.16 C369.61,815.81 365.08,826.49 361,837 C349.06,867.76 340.36,904.71 335.27,929.62 " fill="none" id="pwr.sim.World-&gt;pwr.sim.animal.AnimalFactory" style="stroke: #A80036; stroke-width: 1.0;"/><polygon fill="#A80036" points="334.24,934.74,339.9364,926.7056,335.2261,929.8382,332.0935,925.1279,334.24,934.74" style="stroke: #A80036; stroke-width: 1.0;"/><text fill="#000000" font-family="sans-serif" font-size="13" lengthAdjust="spacingAndGlyphs" textLength="90" x="362" y="865.0669">animalFactory</text><!--MD5=[af8e19ab388f7c598b04694d638f4929]
link pwr.sim.World to pwr.sim.tile.Tile--><path d="M523.77,805.11 C527.93,815.9 532.04,826.6 536,837 C548.12,868.81 561.7,905.46 570.74,930.02 " fill="none" id="pwr.sim.World-&gt;pwr.sim.tile.Tile" style="stroke: #A80036; stroke-width: 1.0;"/><polygon fill="#A80036" points="572.48,934.76,573.1179,924.9318,570.7495,930.069,565.6123,927.7006,572.48,934.76" style="stroke: #A80036; stroke-width: 1.0;"/><text fill="#000000" font-family="sans-serif" font-size="13" lengthAdjust="spacingAndGlyphs" textLength="26" x="554" y="865.0669">tiles</text><text fill="#000000" font-family="sans-serif" font-size="13" lengthAdjust="spacingAndGlyphs" textLength="7" x="562.5501" y="924.1065">*</text><!--MD5=[bebff4904899ea4f952af4b7fcb9f442]
link pwr.sim.World to pwr.sim.animal.Animal--><path d="M461.49,805.02 C461.34,852.93 461.19,900.55 461.09,929.63 " fill="none" id="pwr.sim.World-&gt;pwr.sim.animal.Animal" style="stroke: #A80036; stroke-width: 1.0;"/><polygon fill="#A80036" points="461.07,934.84,465.0957,925.8515,461.0843,929.84,457.0957,925.8286,461.07,934.84" style="stroke: #A80036; stroke-width: 1.0;"/><text fill="#000000" font-family="sans-serif" font-size="13" lengthAdjust="spacingAndGlyphs" textLength="50" x="469.5" y="850.0669">animals</text><text fill="#000000" font-family="sans-serif" font-size="13" lengthAdjust="spacingAndGlyphs" textLength="55" x="467" y="865.1997">toSpawn</text><text fill="#000000" font-family="sans-serif" font-size="13" lengthAdjust="spacingAndGlyphs" textLength="65" x="462" y="880.3325">toRemove</text><text fill="#000000" font-family="sans-serif" font-size="13" lengthAdjust="spacingAndGlyphs" textLength="7" x="453.1911" y="923.811">*</text><!--MD5=[ae989d7f0dc8ea0e7c4283db7841b0eb]
link pwr.sim.Node to pwr.sim.Node--><path d="M548.08,92.23 C568.06,93.36 583,98.79 583,108.5 C583,117.38 570.52,122.67 553.11,124.39 " fill="none" id="pwr.sim.Node-&gt;pwr.sim.Node" style="stroke: #A80036; stroke-width: 1.0;"/><polygon fill="#A80036" points="548.08,124.77,557.3617,128.0639,553.0651,124.3843,556.7447,120.0877,548.08,124.77" style="stroke: #A80036; stroke-width: 1.0;"/><text fill="#000000" font-family="sans-serif" font-size="13" lengthAdjust="spacingAndGlyphs" textLength="28" x="589" y="113.0669">prev</text><!--MD5=[97242f9a468510aa70d71ed08ebc6e10]
link pwr.sim.Node to pwr.sim.Position2D--><path d="M467.6,151.74 C467.39,174.07 467.13,202.42 466.87,229.55 " fill="none" id="pwr.sim.Node-&gt;pwr.sim.Position2D" style="stroke: #A80036; stroke-width: 1.0;"/><polygon fill="#A80036" points="466.82,234.6,470.897,225.6346,466.8629,229.6002,462.8973,225.566,466.82,234.6" style="stroke: #A80036; stroke-width: 1.0;"/><text fill="#000000" font-family="sans-serif" font-size="13" lengthAdjust="spacingAndGlyphs" textLength="50" x="468" y="201.0669">position</text><text fill="#888888" font-family="sans-serif" font-size="10" lengthAdjust="spacingAndGlyphs" textLength="186" x="247" y="1034.2822">UMLDoclet 2.0.9, PlantUML 1.2020.08</text><!--MD5=[24f0090d6318d696967deecab00fc785]
@startuml
    namespace pwr.sim {

        class Position2D [[Position2D.html]] {
            -x: int
            -y: int
            +Position2D(int, int, World)
            +Position2D(Position2D)
            +move(int, int): void
            +setPosition(int, int): void
            +distanceSquared(Position2D): int
            +delta(Position2D): Vector2D
            +getX(): int
            +getY(): int
        }

        class World [[World.html]] {
            -width: int
            -height: int
            +World(int, int, Tile[])
            {static} +loadFromFile(String): World
            +update(): void
            +populate(int, AnimalType): void
            -spawnAnimal(AnimalType): void
            -spawnAnimal(AnimalType, Position2D): Animal
            -spawnAnimal(Animal, Position2D): void
            +toSpawn(Animal, Position2D): void
            -addToSpawn(): void
            +toRemove(Animal): void
            -removeToRemove(): void
            +draw(): void
            +drawAnimal(Animal): void
            +getTile(int, int): Tile
            +getTile(Position2D): Tile
            +findNearestPlants(Position2D): Position2D
            +newPosition(int, int): Position2D
            +getWidth(): int
            +getHeight(): int
        }

        class Node [[Node.html]] {
            +gCost: int
            +finalCost: int
            +Node(Position2D, Node)
        }

        class App [[App.html]] {
            {static} +main(String[]): void
        }

        class Vector2D [[Vector2D.html]] {
            +x: int
            +y: int
            +Vector2D(int, int)
            +length_squared(): int
        }

        Position2D - -> World: world
        World - -> pwr.sim.animal.AnimalFactory: animalFactory
        World - -> "*" pwr.sim.tile.Tile: tiles
        World - -> "*" pwr.sim.animal.Animal: animals\ntoSpawn\ntoRemove
        Node - -> Node: prev
        Node - -> Position2D: position
    }

    center footer UMLDoclet 2.0.9, PlantUML 1.2020.08
@enduml

PlantUML version 1.2020.08(Sun Apr 26 16:08:22 CEST 2020)
(APACHE source distribution)
Java Runtime: OpenJDK Runtime Environment
JVM: OpenJDK 64-Bit Server VM
Java Version: 11.0.7+10-post-Ubuntu-3ubuntu1
Operating System: Linux
Default Encoding: UTF-8
Language: en
Country: GB
--></g></svg>