<?xml version="1.0" encoding="UTF-8" standalone="no"?><svg xmlns="http://www.w3.org/2000/svg" xmlns:xlink="http://www.w3.org/1999/xlink" contentScriptType="application/ecmascript" contentStyleType="text/css" height="141px" preserveAspectRatio="none" style="width:198px;height:141px;" version="1.1" viewBox="0 0 198 141" width="198px" zoomAndPan="magnify"><defs><filter height="300%" id="f84m3k5myolhi" width="300%" x="-1" y="-1"><feGaussianBlur result="blurOut" stdDeviation="2.0"/><feColorMatrix in="blurOut" result="blurOut2" type="matrix" values="0 0 0 0 0 0 0 0 0 0 0 0 0 0 0 0 0 0 .4 0"/><feOffset dx="4.0" dy="4.0" in="blurOut2" result="blurOut3"/><feBlend in="SourceGraphic" in2="blurOut3" mode="normal"/></filter></defs><g><!--MD5=[2acd539d14ea0d78363791f3eea0e935]
class pwr.sim.Vector2D--><a href="Vector2D.html" target="_top" title="Vector2D.html" xlink:actuate="onRequest" xlink:href="Vector2D.html" xlink:show="new" xlink:title="Vector2D.html" xlink:type="simple"><rect fill="#FEFECE" filter="url(#f84m3k5myolhi)" height="105.1563" id="pwr.sim.Vector2D" style="stroke: #A80036; stroke-width: 1.5;" width="144" x="21" y="7"/><ellipse cx="57.15" cy="25.9688" fill="#ADD1B2" rx="11" ry="11" style="stroke: #A80036; stroke-width: 1.0;"/><path d="M60.1188,31.6094 Q59.5406,31.9063 58.9,32.0469 Q58.2594,32.2031 57.5563,32.2031 Q55.0563,32.2031 53.7281,30.5625 Q52.4156,28.9063 52.4156,25.7813 Q52.4156,22.6563 53.7281,21 Q55.0563,19.3438 57.5563,19.3438 Q58.2594,19.3438 58.9,19.5 Q59.5563,19.6563 60.1188,19.9531 L60.1188,22.6719 Q59.4938,22.0938 58.9,21.8281 Q58.3063,21.5469 57.6813,21.5469 Q56.3375,21.5469 55.65,22.625 Q54.9625,23.6875 54.9625,25.7813 Q54.9625,27.875 55.65,28.9531 Q56.3375,30.0156 57.6813,30.0156 Q58.3063,30.0156 58.9,29.75 Q59.4938,29.4688 60.1188,28.8906 L60.1188,31.6094 Z "/><text fill="#000000" font-family="sans-serif" font-size="14" lengthAdjust="spacingAndGlyphs" textLength="65" x="75.85" y="24.9951">Vector2D</text><text fill="#000000" font-family="sans-serif" font-size="10" lengthAdjust="spacingAndGlyphs" textLength="38" x="89.35" y="37.5791">pwr.sim</text><line style="stroke: #A80036; stroke-width: 1.5;" x1="22" x2="164" y1="44.9375" y2="44.9375"/><ellipse cx="32" cy="55.9375" fill="none" rx="3" ry="3" style="stroke: #038048; stroke-width: 1.0;"/><text fill="#000000" font-family="sans-serif" font-size="11" lengthAdjust="spacingAndGlyphs" textLength="28" x="41" y="59.1479">x: int</text><ellipse cx="32" cy="68.7422" fill="none" rx="3" ry="3" style="stroke: #038048; stroke-width: 1.0;"/><text fill="#000000" font-family="sans-serif" font-size="11" lengthAdjust="spacingAndGlyphs" textLength="28" x="41" y="71.9526">y: int</text><line style="stroke: #A80036; stroke-width: 1.5;" x1="22" x2="164" y1="78.5469" y2="78.5469"/><ellipse cx="32" cy="89.5469" fill="#84BE84" rx="3" ry="3" style="stroke: #038048; stroke-width: 1.0;"/><text fill="#000000" font-family="sans-serif" font-size="11" lengthAdjust="spacingAndGlyphs" textLength="95" x="41" y="92.7573">Vector2D(int, int)</text><ellipse cx="32" cy="102.3516" fill="#84BE84" rx="3" ry="3" style="stroke: #038048; stroke-width: 1.0;"/><text fill="#000000" font-family="sans-serif" font-size="11" lengthAdjust="spacingAndGlyphs" textLength="118" x="41" y="105.562">length_squared(): int</text></a><text fill="#888888" font-family="sans-serif" font-size="10" lengthAdjust="spacingAndGlyphs" textLength="186" x="0" y="128.4385">UMLDoclet 2.0.9, PlantUML 1.2020.08</text><!--MD5=[726cd075fe052a17d0d774cdb5d0ef40]
@startuml
    set namespaceSeparator none
    hide empty fields
    hide empty methods

    class "<size:14>Vector2D\n<size:10>pwr.sim" as pwr.sim.Vector2D [[Vector2D.html]] {
        +x: int
        +y: int
        +Vector2D(int, int)
        +length_squared(): int
    }

    center footer UMLDoclet 2.0.9, PlantUML 1.2020.08
@enduml

PlantUML version 1.2020.08(Sun Apr 26 16:08:22 CEST 2020)
(APACHE source distribution)
Java Runtime: OpenJDK Runtime Environment
JVM: OpenJDK 64-Bit Server VM
Java Version: 11.0.7+10-post-Ubuntu-3ubuntu1
Operating System: Linux
Default Encoding: UTF-8
Language: en
Country: GB
--></g></svg>