<?xml version="1.0" encoding="UTF-8" standalone="no"?><svg xmlns="http://www.w3.org/2000/svg" xmlns:xlink="http://www.w3.org/1999/xlink" contentScriptType="application/ecmascript" contentStyleType="text/css" height="243px" preserveAspectRatio="none" style="width:211px;height:243px;" version="1.1" viewBox="0 0 211 243" width="211px" zoomAndPan="magnify"><defs><filter height="300%" id="fyuaauvho4c9p" width="300%" x="-1" y="-1"><feGaussianBlur result="blurOut" stdDeviation="2.0"/><feColorMatrix in="blurOut" result="blurOut2" type="matrix" values="0 0 0 0 0 0 0 0 0 0 0 0 0 0 0 0 0 0 .4 0"/><feOffset dx="4.0" dy="4.0" in="blurOut2" result="blurOut3"/><feBlend in="SourceGraphic" in2="blurOut3" mode="normal"/></filter></defs><g><!--MD5=[b1b8f6298c44d0173040989d99b205cc]
class pwr.sim.animal.Crocodile--><a href="Crocodile.html" target="_top" title="Crocodile.html" xlink:actuate="onRequest" xlink:href="Crocodile.html" xlink:show="new" xlink:title="Crocodile.html" xlink:type="simple"><rect fill="#FEFECE" filter="url(#fyuaauvho4c9p)" height="84.3516" id="pwr.sim.animal.Crocodile" style="stroke: #A80036; stroke-width: 1.5;" width="188" x="6" y="127"/><ellipse cx="59.25" cy="145.9688" fill="#ADD1B2" rx="11" ry="11" style="stroke: #A80036; stroke-width: 1.0;"/><path d="M62.2188,151.6094 Q61.6406,151.9063 61,152.0469 Q60.3594,152.2031 59.6563,152.2031 Q57.1563,152.2031 55.8281,150.5625 Q54.5156,148.9063 54.5156,145.7813 Q54.5156,142.6563 55.8281,141 Q57.1563,139.3438 59.6563,139.3438 Q60.3594,139.3438 61,139.5 Q61.6563,139.6563 62.2188,139.9531 L62.2188,142.6719 Q61.5938,142.0938 61,141.8281 Q60.4063,141.5469 59.7813,141.5469 Q58.4375,141.5469 57.75,142.625 Q57.0625,143.6875 57.0625,145.7813 Q57.0625,147.875 57.75,148.9531 Q58.4375,150.0156 59.7813,150.0156 Q60.4063,150.0156 61,149.75 Q61.5938,149.4688 62.2188,148.8906 L62.2188,151.6094 Z "/><text fill="#000000" font-family="sans-serif" font-size="14" lengthAdjust="spacingAndGlyphs" textLength="65" x="83.75" y="144.9951">Crocodile</text><text fill="#000000" font-family="sans-serif" font-size="10" lengthAdjust="spacingAndGlyphs" textLength="73" x="79.75" y="157.5791">pwr.sim.animal</text><line style="stroke: #A80036; stroke-width: 1.5;" x1="7" x2="193" y1="164.9375" y2="164.9375"/><ellipse cx="17" cy="175.9375" fill="#84BE84" rx="3" ry="3" style="stroke: #038048; stroke-width: 1.0;"/><text fill="#000000" font-family="sans-serif" font-size="11" lengthAdjust="spacingAndGlyphs" textLength="106" x="26" y="179.1479">move(int, int): void</text><ellipse cx="17" cy="188.7422" fill="#84BE84" rx="3" ry="3" style="stroke: #038048; stroke-width: 1.0;"/><text fill="#000000" font-family="sans-serif" font-size="11" lengthAdjust="spacingAndGlyphs" textLength="162" x="26" y="191.9526">setPosition(Position2D): void</text><ellipse cx="17" cy="201.5469" fill="#84BE84" rx="3" ry="3" style="stroke: #038048; stroke-width: 1.0;"/><text fill="#000000" font-family="sans-serif" font-size="11" lengthAdjust="spacingAndGlyphs" textLength="124" x="26" y="204.7573">getAnimalChar(): char</text></a><!--MD5=[c3d732d9f16640c78ebd86f186b6dc1a]
class pwr.sim.animal.Animal--><a href="Animal.html" target="_top" title="Animal.html" xlink:actuate="onRequest" xlink:href="Animal.html" xlink:show="new" xlink:title="Animal.html" xlink:type="simple"><rect fill="#FEFECE" filter="url(#fyuaauvho4c9p)" height="58.7422" id="pwr.sim.animal.Animal" style="stroke: #A80036; stroke-width: 1.5;" width="151" x="24.5" y="8"/><ellipse cx="58.85" cy="26.9688" fill="#A9DCDF" rx="11" ry="11" style="stroke: #A80036; stroke-width: 1.0;"/><path d="M58.9594,22.3125 L57.8031,27.3906 L60.1313,27.3906 L58.9594,22.3125 Z M57.475,20.0781 L60.4594,20.0781 L63.8188,32.4688 L61.3656,32.4688 L60.6,29.4063 L57.3188,29.4063 L56.5688,32.4688 L54.1313,32.4688 L57.475,20.0781 Z "/><text fill="#000000" font-family="sans-serif" font-size="14" font-style="italic" lengthAdjust="spacingAndGlyphs" textLength="46" x="92.15" y="25.9951">Animal</text><text fill="#000000" font-family="sans-serif" font-size="10" font-style="italic" lengthAdjust="spacingAndGlyphs" textLength="76" x="77.15" y="38.5791">pwr.sim.animal</text><line style="stroke: #A80036; stroke-width: 1.5;" x1="25.5" x2="174.5" y1="45.9375" y2="45.9375"/><ellipse cx="35.5" cy="56.9375" fill="#84BE84" rx="3" ry="3" style="stroke: #038048; stroke-width: 1.0;"/><text fill="#000000" font-family="sans-serif" font-size="11" font-style="italic" lengthAdjust="spacingAndGlyphs" textLength="125" x="44.5" y="60.1479">getAnimalChar(): char</text></a><!--MD5=[eb525c31fe53d0a7c54753579ebbab9c]
reverse link pwr.sim.animal.Animal to pwr.sim.animal.Crocodile--><path d="M100,87.63 C100,100.47 100,114.17 100,126.56 " fill="none" id="pwr.sim.animal.Animal&lt;-pwr.sim.animal.Crocodile" style="stroke: #A80036; stroke-width: 1.0;"/><polygon fill="none" points="93,87.24,100,67.24,107,87.24,93,87.24" style="stroke: #A80036; stroke-width: 1.0;"/><text fill="#888888" font-family="sans-serif" font-size="10" lengthAdjust="spacingAndGlyphs" textLength="186" x="13" y="230.2822">UMLDoclet 2.0.9, PlantUML 1.2020.08</text><!--MD5=[6a61b3c4c5c5c69eaeee75f8314e4ad4]
@startuml
    set namespaceSeparator none
    hide empty fields
    hide empty methods

    class "<size:14>Crocodile\n<size:10>pwr.sim.animal" as pwr.sim.animal.Crocodile [[Crocodile.html]] {
        +move(int, int): void
        +setPosition(Position2D): void
        +getAnimalChar(): char
    }

    abstract class "<size:14>Animal\n<size:10>pwr.sim.animal" as pwr.sim.animal.Animal [[Animal.html]] {
        {abstract} +getAnimalChar(): char
    }

    pwr.sim.animal.Animal <|- - pwr.sim.animal.Crocodile

    center footer UMLDoclet 2.0.9, PlantUML 1.2020.08
@enduml

PlantUML version 1.2020.08(Sun Apr 26 16:08:22 CEST 2020)
(APACHE source distribution)
Java Runtime: OpenJDK Runtime Environment
JVM: OpenJDK 64-Bit Server VM
Java Version: 11.0.7+10-post-Ubuntu-3ubuntu1
Operating System: Linux
Default Encoding: UTF-8
Language: en
Country: GB
--></g></svg>