<?xml version="1.0" encoding="UTF-8" standalone="no"?><svg xmlns="http://www.w3.org/2000/svg" xmlns:xlink="http://www.w3.org/1999/xlink" contentScriptType="application/ecmascript" contentStyleType="text/css" height="176px" preserveAspectRatio="none" style="width:198px;height:176px;" version="1.1" viewBox="0 0 198 176" width="198px" zoomAndPan="magnify"><defs><filter height="300%" id="fg3vgwz757gum" width="300%" x="-1" y="-1"><feGaussianBlur result="blurOut" stdDeviation="2.0"/><feColorMatrix in="blurOut" result="blurOut2" type="matrix" values="0 0 0 0 0 0 0 0 0 0 0 0 0 0 0 0 0 0 .4 0"/><feOffset dx="4.0" dy="4.0" in="blurOut2" result="blurOut3"/><feBlend in="SourceGraphic" in2="blurOut3" mode="normal"/></filter></defs><g><!--MD5=[0d9c5885e47712ba48fdc187dade87ba]
class pwr.sim.animal.Hippo--><a href="Hippo.html" target="_top" title="Hippo.html" xlink:actuate="onRequest" xlink:href="Hippo.html" xlink:show="new" xlink:title="Hippo.html" xlink:type="simple"><rect fill="#FEFECE" filter="url(#fg3vgwz757gum)" height="37.9375" id="pwr.sim.animal.Hippo" style="stroke: #A80036; stroke-width: 1.5;" width="105" x="34.5" y="106"/><ellipse cx="49.5" cy="124.9688" fill="#ADD1B2" rx="11" ry="11" style="stroke: #A80036; stroke-width: 1.0;"/><path d="M52.4688,130.6094 Q51.8906,130.9063 51.25,131.0469 Q50.6094,131.2031 49.9063,131.2031 Q47.4063,131.2031 46.0781,129.5625 Q44.7656,127.9063 44.7656,124.7813 Q44.7656,121.6563 46.0781,120 Q47.4063,118.3438 49.9063,118.3438 Q50.6094,118.3438 51.25,118.5 Q51.9063,118.6563 52.4688,118.9531 L52.4688,121.6719 Q51.8438,121.0938 51.25,120.8281 Q50.6563,120.5469 50.0313,120.5469 Q48.6875,120.5469 48,121.625 Q47.3125,122.6875 47.3125,124.7813 Q47.3125,126.875 48,127.9531 Q48.6875,129.0156 50.0313,129.0156 Q50.6563,129.0156 51.25,128.75 Q51.8438,128.4688 52.4688,127.8906 L52.4688,130.6094 Z "/><text fill="#000000" font-family="sans-serif" font-size="14" lengthAdjust="spacingAndGlyphs" textLength="40" x="80" y="123.9951">Hippo</text><text fill="#000000" font-family="sans-serif" font-size="10" lengthAdjust="spacingAndGlyphs" textLength="73" x="63.5" y="136.5791">pwr.sim.animal</text></a><!--MD5=[c3d732d9f16640c78ebd86f186b6dc1a]
class pwr.sim.animal.Animal--><a href="Animal.html" target="_top" title="Animal.html" xlink:actuate="onRequest" xlink:href="Animal.html" xlink:show="new" xlink:title="Animal.html" xlink:type="simple"><rect fill="#FEFECE" filter="url(#fg3vgwz757gum)" height="37.9375" id="pwr.sim.animal.Animal" style="stroke: #A80036; stroke-width: 1.5;" width="108" x="33" y="8"/><ellipse cx="48" cy="26.9688" fill="#A9DCDF" rx="11" ry="11" style="stroke: #A80036; stroke-width: 1.0;"/><path d="M48.1094,22.3125 L46.9531,27.3906 L49.2813,27.3906 L48.1094,22.3125 Z M46.625,20.0781 L49.6094,20.0781 L52.9688,32.4688 L50.5156,32.4688 L49.75,29.4063 L46.4688,29.4063 L45.7188,32.4688 L43.2813,32.4688 L46.625,20.0781 Z "/><text fill="#000000" font-family="sans-serif" font-size="14" font-style="italic" lengthAdjust="spacingAndGlyphs" textLength="46" x="77" y="25.9951">Animal</text><text fill="#000000" font-family="sans-serif" font-size="10" font-style="italic" lengthAdjust="spacingAndGlyphs" textLength="76" x="62" y="38.5791">pwr.sim.animal</text></a><!--MD5=[aa43b6d8d15548c6030ab792b7b46440]
reverse link pwr.sim.animal.Animal to pwr.sim.animal.Hippo--><path d="M87,66.692 C87,80.1338 87,94.5458 87,105.6786 " fill="none" id="pwr.sim.animal.Animal&lt;-pwr.sim.animal.Hippo" style="stroke: #A80036; stroke-width: 1.0;"/><polygon fill="none" points="80.0001,66.3617,87,46.3616,94.0001,66.3616,80.0001,66.3617" style="stroke: #A80036; stroke-width: 1.0;"/><text fill="#888888" font-family="sans-serif" font-size="10" lengthAdjust="spacingAndGlyphs" textLength="186" x="0" y="163.2822">UMLDoclet 2.0.8, PlantUML 1.2020.01</text><!--MD5=[7364d5300816b28f980a3ceb59828a5e]
@startuml
    set namespaceSeparator none
    hide empty fields
    hide empty methods

    class "<size:14>Hippo\n<size:10>pwr.sim.animal" as pwr.sim.animal.Hippo [[Hippo.html]]

    abstract class "<size:14>Animal\n<size:10>pwr.sim.animal" as pwr.sim.animal.Animal [[Animal.html]]

    pwr.sim.animal.Animal <|- - pwr.sim.animal.Hippo

    center footer UMLDoclet 2.0.8, PlantUML 1.2020.01
@enduml

PlantUML version 1.2020.01(Sun Feb 16 18:40:32 CET 2020)
(APACHE source distribution)
Java Runtime: OpenJDK Runtime Environment
JVM: OpenJDK 64-Bit Server VM
Java Version: 11.0.7+10-post-Ubuntu-2ubuntu219.10
Operating System: Linux
Default Encoding: UTF-8
Language: en
Country: GB
--></g></svg>