<?xml version="1.0" encoding="UTF-8" standalone="no"?><svg xmlns="http://www.w3.org/2000/svg" xmlns:xlink="http://www.w3.org/1999/xlink" contentScriptType="application/ecmascript" contentStyleType="text/css" height="218px" preserveAspectRatio="none" style="width:198px;height:218px;" version="1.1" viewBox="0 0 198 218" width="198px" zoomAndPan="magnify"><defs><filter height="300%" id="f123n8f19ss6am" width="300%" x="-1" y="-1"><feGaussianBlur result="blurOut" stdDeviation="2.0"/><feColorMatrix in="blurOut" result="blurOut2" type="matrix" values="0 0 0 0 0 0 0 0 0 0 0 0 0 0 0 0 0 0 .4 0"/><feOffset dx="4.0" dy="4.0" in="blurOut2" result="blurOut3"/><feBlend in="SourceGraphic" in2="blurOut3" mode="normal"/></filter></defs><g><!--MD5=[ae591f3673b39f6f38258875ac411879]
class pwr.sim.animal.Lion--><a href="Lion.html" target="_top" title="Lion.html" xlink:actuate="onRequest" xlink:href="Lion.html" xlink:show="new" xlink:title="Lion.html" xlink:type="simple"><rect fill="#FEFECE" filter="url(#f123n8f19ss6am)" height="58.7422" id="pwr.sim.animal.Lion" style="stroke: #A80036; stroke-width: 1.5;" width="150" x="12" y="127"/><ellipse cx="47.25" cy="145.9688" fill="#ADD1B2" rx="11" ry="11" style="stroke: #A80036; stroke-width: 1.0;"/><path d="M50.2188,151.6094 Q49.6406,151.9063 49,152.0469 Q48.3594,152.2031 47.6563,152.2031 Q45.1563,152.2031 43.8281,150.5625 Q42.5156,148.9063 42.5156,145.7813 Q42.5156,142.6563 43.8281,141 Q45.1563,139.3438 47.6563,139.3438 Q48.3594,139.3438 49,139.5 Q49.6563,139.6563 50.2188,139.9531 L50.2188,142.6719 Q49.5938,142.0938 49,141.8281 Q48.4063,141.5469 47.7813,141.5469 Q46.4375,141.5469 45.75,142.625 Q45.0625,143.6875 45.0625,145.7813 Q45.0625,147.875 45.75,148.9531 Q46.4375,150.0156 47.7813,150.0156 Q48.4063,150.0156 49,149.75 Q49.5938,149.4688 50.2188,148.8906 L50.2188,151.6094 Z "/><text fill="#000000" font-family="sans-serif" font-size="14" lengthAdjust="spacingAndGlyphs" textLength="28" x="88.25" y="144.9951">Lion</text><text fill="#000000" font-family="sans-serif" font-size="10" lengthAdjust="spacingAndGlyphs" textLength="73" x="65.75" y="157.5791">pwr.sim.animal</text><line style="stroke: #A80036; stroke-width: 1.5;" x1="13" x2="161" y1="164.9375" y2="164.9375"/><ellipse cx="23" cy="175.9375" fill="#84BE84" rx="3" ry="3" style="stroke: #038048; stroke-width: 1.0;"/><text fill="#000000" font-family="sans-serif" font-size="11" lengthAdjust="spacingAndGlyphs" textLength="124" x="32" y="179.1479">getAnimalChar(): char</text></a><!--MD5=[c3d732d9f16640c78ebd86f186b6dc1a]
class pwr.sim.animal.Animal--><a href="Animal.html" target="_top" title="Animal.html" xlink:actuate="onRequest" xlink:href="Animal.html" xlink:show="new" xlink:title="Animal.html" xlink:type="simple"><rect fill="#FEFECE" filter="url(#f123n8f19ss6am)" height="58.7422" id="pwr.sim.animal.Animal" style="stroke: #A80036; stroke-width: 1.5;" width="151" x="11.5" y="8"/><ellipse cx="45.85" cy="26.9688" fill="#A9DCDF" rx="11" ry="11" style="stroke: #A80036; stroke-width: 1.0;"/><path d="M45.9594,22.3125 L44.8031,27.3906 L47.1313,27.3906 L45.9594,22.3125 Z M44.475,20.0781 L47.4594,20.0781 L50.8188,32.4688 L48.3656,32.4688 L47.6,29.4063 L44.3188,29.4063 L43.5688,32.4688 L41.1313,32.4688 L44.475,20.0781 Z "/><text fill="#000000" font-family="sans-serif" font-size="14" font-style="italic" lengthAdjust="spacingAndGlyphs" textLength="46" x="79.15" y="25.9951">Animal</text><text fill="#000000" font-family="sans-serif" font-size="10" font-style="italic" lengthAdjust="spacingAndGlyphs" textLength="76" x="64.15" y="38.5791">pwr.sim.animal</text><line style="stroke: #A80036; stroke-width: 1.5;" x1="12.5" x2="161.5" y1="45.9375" y2="45.9375"/><ellipse cx="22.5" cy="56.9375" fill="#84BE84" rx="3" ry="3" style="stroke: #038048; stroke-width: 1.0;"/><text fill="#000000" font-family="sans-serif" font-size="11" font-style="italic" lengthAdjust="spacingAndGlyphs" textLength="125" x="31.5" y="60.1479">getAnimalChar(): char</text></a><!--MD5=[0800056615779f0dd300cd144b3e14f7]
reverse link pwr.sim.animal.Animal to pwr.sim.animal.Lion--><path d="M87,87.25 C87,100.7 87,114.86 87,126.77 " fill="none" id="pwr.sim.animal.Animal&lt;-pwr.sim.animal.Lion" style="stroke: #A80036; stroke-width: 1.0;"/><polygon fill="none" points="80,87.12,87,67.12,94,87.12,80,87.12" style="stroke: #A80036; stroke-width: 1.0;"/><text fill="#888888" font-family="sans-serif" font-size="10" lengthAdjust="spacingAndGlyphs" textLength="186" x="0" y="205.2822">UMLDoclet 2.0.9, PlantUML 1.2020.08</text><!--MD5=[15bcecf8cfe4854a6f68b8494a36f178]
@startuml
    set namespaceSeparator none
    hide empty fields
    hide empty methods

    class "<size:14>Lion\n<size:10>pwr.sim.animal" as pwr.sim.animal.Lion [[Lion.html]] {
        +getAnimalChar(): char
    }

    abstract class "<size:14>Animal\n<size:10>pwr.sim.animal" as pwr.sim.animal.Animal [[Animal.html]] {
        {abstract} +getAnimalChar(): char
    }

    pwr.sim.animal.Animal <|- - pwr.sim.animal.Lion

    center footer UMLDoclet 2.0.9, PlantUML 1.2020.08
@enduml

PlantUML version 1.2020.08(Sun Apr 26 16:08:22 CEST 2020)
(APACHE source distribution)
Java Runtime: OpenJDK Runtime Environment
JVM: OpenJDK 64-Bit Server VM
Java Version: 11.0.7+10-post-Ubuntu-3ubuntu1
Operating System: Linux
Default Encoding: UTF-8
Language: en
Country: GB
--></g></svg>