<?xml version="1.0" encoding="UTF-8" standalone="no"?><svg xmlns="http://www.w3.org/2000/svg" xmlns:xlink="http://www.w3.org/1999/xlink" contentScriptType="application/ecmascript" contentStyleType="text/css" height="695px" preserveAspectRatio="none" style="width:1180px;height:695px;" version="1.1" viewBox="0 0 1180 695" width="1180px" zoomAndPan="magnify"><defs><filter height="300%" id="f19kc8x9tb23cn" width="300%" x="-1" y="-1"><feGaussianBlur result="blurOut" stdDeviation="2.0"/><feColorMatrix in="blurOut" result="blurOut2" type="matrix" values="0 0 0 0 0 0 0 0 0 0 0 0 0 0 0 0 0 0 .4 0"/><feOffset dx="4.0" dy="4.0" in="blurOut2" result="blurOut3"/><feBlend in="SourceGraphic" in2="blurOut3" mode="normal"/></filter></defs><g><!--MD5=[38d21fd4d824cca984a032be1183e02d]
cluster pwr.sim.animal--><polygon fill="#FFFFFF" filter="url(#f19kc8x9tb23cn)" points="22,24,146,24,153,46.2969,982,46.2969,982,647,22,647,22,24" style="stroke: #000000; stroke-width: 1.5;"/><line style="stroke: #000000; stroke-width: 1.5;" x1="22" x2="153" y1="46.2969" y2="46.2969"/><text fill="#000000" font-family="sans-serif" font-size="14" font-weight="bold" lengthAdjust="spacingAndGlyphs" textLength="118" x="26" y="38.9951">pwr.sim.animal</text><!--MD5=[cb8a12caddea0e4f4a4443ac73e0810b]
cluster pwr.sim.animal.ai--><polygon fill="#FFFFFF" filter="url(#f19kc8x9tb23cn)" points="1006,529,1148,529,1155,551.2969,1158,551.2969,1158,628,1006,628,1006,529" style="stroke: #000000; stroke-width: 1.5;"/><line style="stroke: #000000; stroke-width: 1.5;" x1="1006" x2="1155" y1="551.2969" y2="551.2969"/><text fill="#000000" font-family="sans-serif" font-size="14" font-weight="bold" lengthAdjust="spacingAndGlyphs" textLength="136" x="1010" y="543.9951">pwr.sim.animal.ai</text><!--MD5=[c3d732d9f16640c78ebd86f186b6dc1a]
class pwr.sim.animal.Animal--><a href="Animal.html" target="_top" title="Animal.html" xlink:actuate="onRequest" xlink:href="Animal.html" xlink:show="new" xlink:title="Animal.html" xlink:type="simple"><rect fill="#FEFECE" filter="url(#f19kc8x9tb23cn)" height="406.5313" id="pwr.sim.animal.Animal" style="stroke: #A80036; stroke-width: 1.5;" width="218" x="551" y="59"/><ellipse cx="635.25" cy="75" fill="#A9DCDF" rx="11" ry="11" style="stroke: #A80036; stroke-width: 1.0;"/><path d="M635.3594,70.3438 L634.2031,75.4219 L636.5313,75.4219 L635.3594,70.3438 Z M633.875,68.1094 L636.8594,68.1094 L640.2188,80.5 L637.7656,80.5 L637,77.4375 L633.7188,77.4375 L632.9688,80.5 L630.5313,80.5 L633.875,68.1094 Z "/><text fill="#000000" font-family="sans-serif" font-size="12" font-style="italic" lengthAdjust="spacingAndGlyphs" textLength="41" x="655.75" y="79.1543">Animal</text><line style="stroke: #A80036; stroke-width: 1.5;" x1="552" x2="768" y1="91" y2="91"/><ellipse cx="562" cy="102" fill="none" rx="3" ry="3" style="stroke: #038048; stroke-width: 1.0;"/><text fill="#000000" font-family="sans-serif" font-size="11" lengthAdjust="spacingAndGlyphs" textLength="121" x="571" y="105.2104">wantToMate: boolean</text><ellipse cx="562" cy="114.8047" fill="none" rx="3" ry="3" style="stroke: #038048; stroke-width: 1.0;"/><text fill="#000000" font-family="sans-serif" font-size="11" lengthAdjust="spacingAndGlyphs" textLength="103" x="571" y="118.0151">isHungry: boolean</text><ellipse cx="562" cy="127.6094" fill="none" rx="3" ry="3" style="stroke: #038048; stroke-width: 1.0;"/><text fill="#000000" font-family="sans-serif" font-size="11" lengthAdjust="spacingAndGlyphs" textLength="92" x="571" y="130.8198">isTired: boolean</text><polygon fill="none" points="562,135.4141,566,139.4141,562,143.4141,558,139.4141" style="stroke: #B38D22; stroke-width: 1.0;"/><text fill="#000000" font-family="sans-serif" font-size="11" lengthAdjust="spacingAndGlyphs" textLength="70" x="571" y="143.6245">world: World</text><rect fill="none" height="6" style="stroke: #C82930; stroke-width: 1.0;" width="6" x="559" y="150.2188"/><text fill="#000000" font-family="sans-serif" font-size="11" lengthAdjust="spacingAndGlyphs" textLength="57" x="571" y="156.4292">health: int</text><polygon fill="none" points="562,161.0234,566,165.0234,562,169.0234,558,165.0234" style="stroke: #B38D22; stroke-width: 1.0;"/><text fill="#000000" font-family="sans-serif" font-size="11" lengthAdjust="spacingAndGlyphs" textLength="113" x="571" y="169.2339">position: Position2D</text><polygon fill="none" points="562,173.8281,566,177.8281,562,181.8281,558,177.8281" style="stroke: #B38D22; stroke-width: 1.0;"/><text fill="#000000" font-family="sans-serif" font-size="11" lengthAdjust="spacingAndGlyphs" textLength="137" x="571" y="182.0386">nextPosition: Position2D</text><rect fill="none" height="6" style="stroke: #C82930; stroke-width: 1.0;" width="6" x="559" y="188.6328"/><text fill="#000000" font-family="sans-serif" font-size="11" lengthAdjust="spacingAndGlyphs" textLength="61" x="571" y="194.8433">energy: int</text><rect fill="none" height="6" style="stroke: #C82930; stroke-width: 1.0;" width="6" x="559" y="201.4375"/><text fill="#000000" font-family="sans-serif" font-size="11" lengthAdjust="spacingAndGlyphs" textLength="62" x="571" y="207.6479">hunger: int</text><line style="stroke: #A80036; stroke-width: 1.5;" x1="552" x2="768" y1="214.2422" y2="214.2422"/><ellipse cx="562" cy="225.2422" fill="#84BE84" rx="3" ry="3" style="stroke: #038048; stroke-width: 1.0;"/><text fill="#000000" font-family="sans-serif" font-size="11" lengthAdjust="spacingAndGlyphs" textLength="78" x="571" y="228.4526">update(): void</text><ellipse cx="562" cy="238.0469" fill="#84BE84" rx="3" ry="3" style="stroke: #038048; stroke-width: 1.0;"/><text fill="#000000" font-family="sans-serif" font-size="11" lengthAdjust="spacingAndGlyphs" textLength="152" x="571" y="241.2573">approach(Position2D): void</text><ellipse cx="562" cy="250.8516" fill="#84BE84" rx="3" ry="3" style="stroke: #038048; stroke-width: 1.0;"/><text fill="#000000" font-family="sans-serif" font-size="11" lengthAdjust="spacingAndGlyphs" textLength="133" x="571" y="254.062">evade(Position2D): void</text><ellipse cx="562" cy="263.6563" fill="#84BE84" rx="3" ry="3" style="stroke: #038048; stroke-width: 1.0;"/><text fill="#000000" font-family="sans-serif" font-size="11" lengthAdjust="spacingAndGlyphs" textLength="106" x="571" y="266.8667">move(int, int): void</text><ellipse cx="562" cy="276.4609" fill="#84BE84" rx="3" ry="3" style="stroke: #038048; stroke-width: 1.0;"/><text fill="#000000" font-family="sans-serif" font-size="11" lengthAdjust="spacingAndGlyphs" textLength="67" x="571" y="279.6714">draw(): void</text><ellipse cx="562" cy="289.2656" fill="#84BE84" rx="3" ry="3" style="stroke: #038048; stroke-width: 1.0;"/><text fill="#000000" font-family="sans-serif" font-size="11" lengthAdjust="spacingAndGlyphs" textLength="139" x="571" y="292.4761">getPosition(): Position2D</text><ellipse cx="562" cy="302.0703" fill="#84BE84" rx="3" ry="3" style="stroke: #038048; stroke-width: 1.0;"/><text fill="#000000" font-family="sans-serif" font-size="11" lengthAdjust="spacingAndGlyphs" textLength="162" x="571" y="305.2808">setPosition(Position2D): void</text><ellipse cx="562" cy="314.875" fill="#84BE84" rx="3" ry="3" style="stroke: #038048; stroke-width: 1.0;"/><text fill="#000000" font-family="sans-serif" font-size="11" lengthAdjust="spacingAndGlyphs" textLength="96" x="571" y="318.0854">getWorld(): World</text><ellipse cx="562" cy="327.6797" fill="#84BE84" rx="3" ry="3" style="stroke: #038048; stroke-width: 1.0;"/><text fill="#000000" font-family="sans-serif" font-size="11" lengthAdjust="spacingAndGlyphs" textLength="119" x="571" y="330.8901">setWorld(World): void</text><ellipse cx="562" cy="340.4844" fill="#84BE84" rx="3" ry="3" style="stroke: #038048; stroke-width: 1.0;"/><text fill="#000000" font-family="sans-serif" font-size="11" font-style="italic" lengthAdjust="spacingAndGlyphs" textLength="125" x="571" y="343.6948">getAnimalChar(): char</text><ellipse cx="562" cy="353.2891" fill="#84BE84" rx="3" ry="3" style="stroke: #038048; stroke-width: 1.0;"/><text fill="#000000" font-family="sans-serif" font-size="11" lengthAdjust="spacingAndGlyphs" textLength="87" x="571" y="356.4995">getEnergy(): int</text><ellipse cx="562" cy="366.0938" fill="#84BE84" rx="3" ry="3" style="stroke: #038048; stroke-width: 1.0;"/><text fill="#000000" font-family="sans-serif" font-size="11" lengthAdjust="spacingAndGlyphs" textLength="133" x="571" y="369.3042">changeEnergy(int): void</text><ellipse cx="562" cy="378.8984" fill="#84BE84" rx="3" ry="3" style="stroke: #038048; stroke-width: 1.0;"/><text fill="#000000" font-family="sans-serif" font-size="11" lengthAdjust="spacingAndGlyphs" textLength="89" x="571" y="382.1089">getHunger(): int</text><ellipse cx="562" cy="391.7031" fill="#84BE84" rx="3" ry="3" style="stroke: #038048; stroke-width: 1.0;"/><text fill="#000000" font-family="sans-serif" font-size="11" lengthAdjust="spacingAndGlyphs" textLength="135" x="571" y="394.9136">changeHunger(int): void</text><ellipse cx="562" cy="404.5078" fill="#84BE84" rx="3" ry="3" style="stroke: #038048; stroke-width: 1.0;"/><text fill="#000000" font-family="sans-serif" font-size="11" lengthAdjust="spacingAndGlyphs" textLength="84" x="571" y="407.7183">getHealth(): int</text><ellipse cx="562" cy="417.3125" fill="#84BE84" rx="3" ry="3" style="stroke: #038048; stroke-width: 1.0;"/><text fill="#000000" font-family="sans-serif" font-size="11" lengthAdjust="spacingAndGlyphs" textLength="130" x="571" y="420.5229">changeHealth(int): void</text><ellipse cx="562" cy="430.1172" fill="#84BE84" rx="3" ry="3" style="stroke: #038048; stroke-width: 1.0;"/><text fill="#000000" font-family="sans-serif" font-size="11" lengthAdjust="spacingAndGlyphs" textLength="192" x="571" y="433.3276">checkHungerAndEnergy(): IAiState</text><ellipse cx="562" cy="442.9219" fill="#84BE84" rx="3" ry="3" style="stroke: #038048; stroke-width: 1.0;"/><text fill="#000000" font-family="sans-serif" font-size="11" lengthAdjust="spacingAndGlyphs" textLength="69" x="571" y="446.1323">swap(): void</text><ellipse cx="562" cy="455.7266" fill="#84BE84" rx="3" ry="3" style="stroke: #038048; stroke-width: 1.0;"/><text fill="#000000" font-family="sans-serif" font-size="11" lengthAdjust="spacingAndGlyphs" textLength="123" x="571" y="458.937">getStringInfo(): String</text></a><!--MD5=[ae591f3673b39f6f38258875ac411879]
class pwr.sim.animal.Lion--><a href="Lion.html" target="_top" title="Lion.html" xlink:actuate="onRequest" xlink:href="Lion.html" xlink:show="new" xlink:title="Lion.html" xlink:type="simple"><rect fill="#FEFECE" filter="url(#f19kc8x9tb23cn)" height="60.8047" id="pwr.sim.animal.Lion" style="stroke: #A80036; stroke-width: 1.5;" width="150" x="38" y="557.5"/><ellipse cx="96.25" cy="573.5" fill="#ADD1B2" rx="11" ry="11" style="stroke: #A80036; stroke-width: 1.0;"/><path d="M99.2188,579.1406 Q98.6406,579.4375 98,579.5781 Q97.3594,579.7344 96.6563,579.7344 Q94.1563,579.7344 92.8281,578.0938 Q91.5156,576.4375 91.5156,573.3125 Q91.5156,570.1875 92.8281,568.5313 Q94.1563,566.875 96.6563,566.875 Q97.3594,566.875 98,567.0313 Q98.6563,567.1875 99.2188,567.4844 L99.2188,570.2031 Q98.5938,569.625 98,569.3594 Q97.4063,569.0781 96.7813,569.0781 Q95.4375,569.0781 94.75,570.1563 Q94.0625,571.2188 94.0625,573.3125 Q94.0625,575.4063 94.75,576.4844 Q95.4375,577.5469 96.7813,577.5469 Q97.4063,577.5469 98,577.2813 Q98.5938,577 99.2188,576.4219 L99.2188,579.1406 Z "/><text fill="#000000" font-family="sans-serif" font-size="12" lengthAdjust="spacingAndGlyphs" textLength="25" x="116.75" y="577.6543">Lion</text><line style="stroke: #A80036; stroke-width: 1.5;" x1="39" x2="187" y1="589.5" y2="589.5"/><line style="stroke: #A80036; stroke-width: 1.5;" x1="39" x2="187" y1="597.5" y2="597.5"/><ellipse cx="49" cy="608.5" fill="#84BE84" rx="3" ry="3" style="stroke: #038048; stroke-width: 1.0;"/><text fill="#000000" font-family="sans-serif" font-size="11" lengthAdjust="spacingAndGlyphs" textLength="124" x="58" y="611.7104">getAnimalChar(): char</text></a><!--MD5=[29f46aa792a47979f70cc8b131d6f6d8]
class pwr.sim.animal.AnimalType--><a href="AnimalType.html" target="_top" title="AnimalType.html" xlink:actuate="onRequest" xlink:href="AnimalType.html" xlink:show="new" xlink:title="AnimalType.html" xlink:type="simple"><rect fill="#FEFECE" filter="url(#f19kc8x9tb23cn)" height="112.0234" id="pwr.sim.animal.AnimalType" style="stroke: #A80036; stroke-width: 1.5;" width="102" x="406" y="206.5"/><ellipse cx="421" cy="222.5" fill="#EB937F" rx="11" ry="11" style="stroke: #A80036; stroke-width: 1.0;"/><path d="M425.1094,228.5 L417.3906,228.5 L417.3906,216.1094 L425.1094,216.1094 L425.1094,218.2656 L419.8438,218.2656 L419.8438,220.9375 L424.6094,220.9375 L424.6094,223.0938 L419.8438,223.0938 L419.8438,226.3438 L425.1094,226.3438 L425.1094,228.5 Z "/><text fill="#000000" font-family="sans-serif" font-size="12" lengthAdjust="spacingAndGlyphs" textLength="70" x="435" y="226.6543">AnimalType</text><line style="stroke: #A80036; stroke-width: 1.5;" x1="407" x2="507" y1="238.5" y2="238.5"/><ellipse cx="417" cy="249.5" fill="none" rx="3" ry="3" style="stroke: #038048; stroke-width: 1.0;"/><text fill="#000000" font-family="sans-serif" font-size="11" lengthAdjust="spacingAndGlyphs" text-decoration="underline" textLength="30" x="426" y="252.7104">WOLF</text><ellipse cx="417" cy="262.3047" fill="none" rx="3" ry="3" style="stroke: #038048; stroke-width: 1.0;"/><text fill="#000000" font-family="sans-serif" font-size="11" lengthAdjust="spacingAndGlyphs" text-decoration="underline" textLength="26" x="426" y="265.5151">LION</text><ellipse cx="417" cy="275.1094" fill="none" rx="3" ry="3" style="stroke: #038048; stroke-width: 1.0;"/><text fill="#000000" font-family="sans-serif" font-size="11" lengthAdjust="spacingAndGlyphs" text-decoration="underline" textLength="34" x="426" y="278.3198">HIPPO</text><ellipse cx="417" cy="287.9141" fill="none" rx="3" ry="3" style="stroke: #038048; stroke-width: 1.0;"/><text fill="#000000" font-family="sans-serif" font-size="11" lengthAdjust="spacingAndGlyphs" text-decoration="underline" textLength="65" x="426" y="291.1245">CROCODILE</text><ellipse cx="417" cy="300.7188" fill="none" rx="3" ry="3" style="stroke: #038048; stroke-width: 1.0;"/><text fill="#000000" font-family="sans-serif" font-size="11" lengthAdjust="spacingAndGlyphs" text-decoration="underline" textLength="58" x="426" y="303.9292">ANTELOPE</text><line style="stroke: #A80036; stroke-width: 1.5;" x1="407" x2="507" y1="310.5234" y2="310.5234"/></a><!--MD5=[51044fa7bd27f700e7b14792f0478e8b]
class pwr.sim.animal.Wolf--><a href="Wolf.html" target="_top" title="Wolf.html" xlink:actuate="onRequest" xlink:href="Wolf.html" xlink:show="new" xlink:title="Wolf.html" xlink:type="simple"><rect fill="#FEFECE" filter="url(#f19kc8x9tb23cn)" height="60.8047" id="pwr.sim.animal.Wolf" style="stroke: #A80036; stroke-width: 1.5;" width="150" x="223" y="557.5"/><ellipse cx="280.75" cy="573.5" fill="#ADD1B2" rx="11" ry="11" style="stroke: #A80036; stroke-width: 1.0;"/><path d="M283.7188,579.1406 Q283.1406,579.4375 282.5,579.5781 Q281.8594,579.7344 281.1563,579.7344 Q278.6563,579.7344 277.3281,578.0938 Q276.0156,576.4375 276.0156,573.3125 Q276.0156,570.1875 277.3281,568.5313 Q278.6563,566.875 281.1563,566.875 Q281.8594,566.875 282.5,567.0313 Q283.1563,567.1875 283.7188,567.4844 L283.7188,570.2031 Q283.0938,569.625 282.5,569.3594 Q281.9063,569.0781 281.2813,569.0781 Q279.9375,569.0781 279.25,570.1563 Q278.5625,571.2188 278.5625,573.3125 Q278.5625,575.4063 279.25,576.4844 Q279.9375,577.5469 281.2813,577.5469 Q281.9063,577.5469 282.5,577.2813 Q283.0938,577 283.7188,576.4219 L283.7188,579.1406 Z "/><text fill="#000000" font-family="sans-serif" font-size="12" lengthAdjust="spacingAndGlyphs" textLength="26" x="301.25" y="577.6543">Wolf</text><line style="stroke: #A80036; stroke-width: 1.5;" x1="224" x2="372" y1="589.5" y2="589.5"/><line style="stroke: #A80036; stroke-width: 1.5;" x1="224" x2="372" y1="597.5" y2="597.5"/><ellipse cx="234" cy="608.5" fill="#84BE84" rx="3" ry="3" style="stroke: #038048; stroke-width: 1.0;"/><text fill="#000000" font-family="sans-serif" font-size="11" lengthAdjust="spacingAndGlyphs" textLength="124" x="243" y="611.7104">getAnimalChar(): char</text></a><!--MD5=[0d9c5885e47712ba48fdc187dade87ba]
class pwr.sim.animal.Hippo--><a href="Hippo.html" target="_top" title="Hippo.html" xlink:actuate="onRequest" xlink:href="Hippo.html" xlink:show="new" xlink:title="Hippo.html" xlink:type="simple"><rect fill="#FEFECE" filter="url(#f19kc8x9tb23cn)" height="60.8047" id="pwr.sim.animal.Hippo" style="stroke: #A80036; stroke-width: 1.5;" width="150" x="408" y="557.5"/><ellipse cx="460.75" cy="573.5" fill="#ADD1B2" rx="11" ry="11" style="stroke: #A80036; stroke-width: 1.0;"/><path d="M463.7188,579.1406 Q463.1406,579.4375 462.5,579.5781 Q461.8594,579.7344 461.1563,579.7344 Q458.6563,579.7344 457.3281,578.0938 Q456.0156,576.4375 456.0156,573.3125 Q456.0156,570.1875 457.3281,568.5313 Q458.6563,566.875 461.1563,566.875 Q461.8594,566.875 462.5,567.0313 Q463.1563,567.1875 463.7188,567.4844 L463.7188,570.2031 Q463.0938,569.625 462.5,569.3594 Q461.9063,569.0781 461.2813,569.0781 Q459.9375,569.0781 459.25,570.1563 Q458.5625,571.2188 458.5625,573.3125 Q458.5625,575.4063 459.25,576.4844 Q459.9375,577.5469 461.2813,577.5469 Q461.9063,577.5469 462.5,577.2813 Q463.0938,577 463.7188,576.4219 L463.7188,579.1406 Z "/><text fill="#000000" font-family="sans-serif" font-size="12" lengthAdjust="spacingAndGlyphs" textLength="36" x="481.25" y="577.6543">Hippo</text><line style="stroke: #A80036; stroke-width: 1.5;" x1="409" x2="557" y1="589.5" y2="589.5"/><line style="stroke: #A80036; stroke-width: 1.5;" x1="409" x2="557" y1="597.5" y2="597.5"/><ellipse cx="419" cy="608.5" fill="#84BE84" rx="3" ry="3" style="stroke: #038048; stroke-width: 1.0;"/><text fill="#000000" font-family="sans-serif" font-size="11" lengthAdjust="spacingAndGlyphs" textLength="124" x="428" y="611.7104">getAnimalChar(): char</text></a><!--MD5=[987227bc14f49794a20df13de0d78393]
class pwr.sim.animal.AnimalFactory--><a href="AnimalFactory.html" target="_top" title="AnimalFactory.html" xlink:actuate="onRequest" xlink:href="AnimalFactory.html" xlink:show="new" xlink:title="AnimalFactory.html" xlink:type="simple"><rect fill="#FEFECE" filter="url(#f19kc8x9tb23cn)" height="99.2188" id="pwr.sim.animal.AnimalFactory" style="stroke: #A80036; stroke-width: 1.5;" width="287" x="68.5" y="213"/><ellipse cx="164.25" cy="229" fill="#ADD1B2" rx="11" ry="11" style="stroke: #A80036; stroke-width: 1.0;"/><path d="M167.2188,234.6406 Q166.6406,234.9375 166,235.0781 Q165.3594,235.2344 164.6563,235.2344 Q162.1563,235.2344 160.8281,233.5938 Q159.5156,231.9375 159.5156,228.8125 Q159.5156,225.6875 160.8281,224.0313 Q162.1563,222.375 164.6563,222.375 Q165.3594,222.375 166,222.5313 Q166.6563,222.6875 167.2188,222.9844 L167.2188,225.7031 Q166.5938,225.125 166,224.8594 Q165.4063,224.5781 164.7813,224.5781 Q163.4375,224.5781 162.75,225.6563 Q162.0625,226.7188 162.0625,228.8125 Q162.0625,230.9063 162.75,231.9844 Q163.4375,233.0469 164.7813,233.0469 Q165.4063,233.0469 166,232.7813 Q166.5938,232.5 167.2188,231.9219 L167.2188,234.6406 Z "/><text fill="#000000" font-family="sans-serif" font-size="12" lengthAdjust="spacingAndGlyphs" textLength="87" x="184.75" y="233.1543">AnimalFactory</text><line style="stroke: #A80036; stroke-width: 1.5;" x1="69.5" x2="354.5" y1="245" y2="245"/><rect fill="none" height="6" style="stroke: #C82930; stroke-width: 1.0;" width="6" x="76.5" y="253"/><text fill="#000000" font-family="sans-serif" font-size="11" lengthAdjust="spacingAndGlyphs" textLength="70" x="88.5" y="259.2104">world: World</text><line style="stroke: #A80036; stroke-width: 1.5;" x1="69.5" x2="354.5" y1="265.8047" y2="265.8047"/><ellipse cx="79.5" cy="276.8047" fill="#84BE84" rx="3" ry="3" style="stroke: #038048; stroke-width: 1.0;"/><text fill="#000000" font-family="sans-serif" font-size="11" lengthAdjust="spacingAndGlyphs" textLength="118" x="88.5" y="280.0151">AnimalFactory(World)</text><ellipse cx="79.5" cy="289.6094" fill="#84BE84" rx="3" ry="3" style="stroke: #038048; stroke-width: 1.0;"/><text fill="#000000" font-family="sans-serif" font-size="11" lengthAdjust="spacingAndGlyphs" textLength="261" x="88.5" y="292.8198">createAnimal(AnimalType, Position2D): Animal</text><ellipse cx="79.5" cy="302.4141" fill="#84BE84" rx="3" ry="3" style="stroke: #038048; stroke-width: 1.0;"/><text fill="#000000" font-family="sans-serif" font-size="11" lengthAdjust="spacingAndGlyphs" textLength="234" x="88.5" y="305.6245">createAnimal(Animal, Position2D): Animal</text></a><!--MD5=[42e61e67efa47235d09441cf7bdd044b]
class pwr.sim.animal.Antelope--><a href="Antelope.html" target="_top" title="Antelope.html" xlink:actuate="onRequest" xlink:href="Antelope.html" xlink:show="new" xlink:title="Antelope.html" xlink:type="simple"><rect fill="#FEFECE" filter="url(#f19kc8x9tb23cn)" height="60.8047" id="pwr.sim.animal.Antelope" style="stroke: #A80036; stroke-width: 1.5;" width="150" x="593" y="557.5"/><ellipse cx="635.9" cy="573.5" fill="#ADD1B2" rx="11" ry="11" style="stroke: #A80036; stroke-width: 1.0;"/><path d="M638.8688,579.1406 Q638.2906,579.4375 637.65,579.5781 Q637.0094,579.7344 636.3063,579.7344 Q633.8063,579.7344 632.4781,578.0938 Q631.1656,576.4375 631.1656,573.3125 Q631.1656,570.1875 632.4781,568.5313 Q633.8063,566.875 636.3063,566.875 Q637.0094,566.875 637.65,567.0313 Q638.3063,567.1875 638.8688,567.4844 L638.8688,570.2031 Q638.2438,569.625 637.65,569.3594 Q637.0563,569.0781 636.4313,569.0781 Q635.0875,569.0781 634.4,570.1563 Q633.7125,571.2188 633.7125,573.3125 Q633.7125,575.4063 634.4,576.4844 Q635.0875,577.5469 636.4313,577.5469 Q637.0563,577.5469 637.65,577.2813 Q638.2438,577 638.8688,576.4219 L638.8688,579.1406 Z "/><text fill="#000000" font-family="sans-serif" font-size="12" lengthAdjust="spacingAndGlyphs" textLength="56" x="656.1" y="577.6543">Antelope</text><line style="stroke: #A80036; stroke-width: 1.5;" x1="594" x2="742" y1="589.5" y2="589.5"/><line style="stroke: #A80036; stroke-width: 1.5;" x1="594" x2="742" y1="597.5" y2="597.5"/><ellipse cx="604" cy="608.5" fill="#84BE84" rx="3" ry="3" style="stroke: #038048; stroke-width: 1.0;"/><text fill="#000000" font-family="sans-serif" font-size="11" lengthAdjust="spacingAndGlyphs" textLength="124" x="613" y="611.7104">getAnimalChar(): char</text></a><!--MD5=[b1b8f6298c44d0173040989d99b205cc]
class pwr.sim.animal.Crocodile--><a href="Crocodile.html" target="_top" title="Crocodile.html" xlink:actuate="onRequest" xlink:href="Crocodile.html" xlink:show="new" xlink:title="Crocodile.html" xlink:type="simple"><rect fill="#FEFECE" filter="url(#f19kc8x9tb23cn)" height="86.4141" id="pwr.sim.animal.Crocodile" style="stroke: #A80036; stroke-width: 1.5;" width="188" x="778" y="545"/><ellipse cx="838.75" cy="561" fill="#ADD1B2" rx="11" ry="11" style="stroke: #A80036; stroke-width: 1.0;"/><path d="M841.7188,566.6406 Q841.1406,566.9375 840.5,567.0781 Q839.8594,567.2344 839.1563,567.2344 Q836.6563,567.2344 835.3281,565.5938 Q834.0156,563.9375 834.0156,560.8125 Q834.0156,557.6875 835.3281,556.0313 Q836.6563,554.375 839.1563,554.375 Q839.8594,554.375 840.5,554.5313 Q841.1563,554.6875 841.7188,554.9844 L841.7188,557.7031 Q841.0938,557.125 840.5,556.8594 Q839.9063,556.5781 839.2813,556.5781 Q837.9375,556.5781 837.25,557.6563 Q836.5625,558.7188 836.5625,560.8125 Q836.5625,562.9063 837.25,563.9844 Q837.9375,565.0469 839.2813,565.0469 Q839.9063,565.0469 840.5,564.7813 Q841.0938,564.5 841.7188,563.9219 L841.7188,566.6406 Z "/><text fill="#000000" font-family="sans-serif" font-size="12" lengthAdjust="spacingAndGlyphs" textLength="58" x="859.25" y="565.1543">Crocodile</text><line style="stroke: #A80036; stroke-width: 1.5;" x1="779" x2="965" y1="577" y2="577"/><line style="stroke: #A80036; stroke-width: 1.5;" x1="779" x2="965" y1="585" y2="585"/><ellipse cx="789" cy="596" fill="#84BE84" rx="3" ry="3" style="stroke: #038048; stroke-width: 1.0;"/><text fill="#000000" font-family="sans-serif" font-size="11" lengthAdjust="spacingAndGlyphs" textLength="106" x="798" y="599.2104">move(int, int): void</text><ellipse cx="789" cy="608.8047" fill="#84BE84" rx="3" ry="3" style="stroke: #038048; stroke-width: 1.0;"/><text fill="#000000" font-family="sans-serif" font-size="11" lengthAdjust="spacingAndGlyphs" textLength="162" x="798" y="612.0151">setPosition(Position2D): void</text><ellipse cx="789" cy="621.6094" fill="#84BE84" rx="3" ry="3" style="stroke: #038048; stroke-width: 1.0;"/><text fill="#000000" font-family="sans-serif" font-size="11" lengthAdjust="spacingAndGlyphs" textLength="124" x="798" y="624.8198">getAnimalChar(): char</text></a><!--MD5=[ef2616cc0edc2f56e121b970d24f922a]
class pwr.sim.animal.ai.AiBehaviour--><rect fill="#FEFECE" filter="url(#f19kc8x9tb23cn)" height="48" id="pwr.sim.animal.ai.AiBehaviour" style="stroke: #A80036; stroke-width: 1.5;" width="105" x="1022.5" y="564"/><ellipse cx="1037.5" cy="580" fill="#ADD1B2" rx="11" ry="11" style="stroke: #A80036; stroke-width: 1.0;"/><path d="M1040.4688,585.6406 Q1039.8906,585.9375 1039.25,586.0781 Q1038.6094,586.2344 1037.9063,586.2344 Q1035.4063,586.2344 1034.0781,584.5938 Q1032.7656,582.9375 1032.7656,579.8125 Q1032.7656,576.6875 1034.0781,575.0313 Q1035.4063,573.375 1037.9063,573.375 Q1038.6094,573.375 1039.25,573.5313 Q1039.9063,573.6875 1040.4688,573.9844 L1040.4688,576.7031 Q1039.8438,576.125 1039.25,575.8594 Q1038.6563,575.5781 1038.0313,575.5781 Q1036.6875,575.5781 1036,576.6563 Q1035.3125,577.7188 1035.3125,579.8125 Q1035.3125,581.9063 1036,582.9844 Q1036.6875,584.0469 1038.0313,584.0469 Q1038.6563,584.0469 1039.25,583.7813 Q1039.8438,583.5 1040.4688,582.9219 L1040.4688,585.6406 Z "/><text fill="#000000" font-family="sans-serif" font-size="12" lengthAdjust="spacingAndGlyphs" textLength="73" x="1051.5" y="584.1543">AiBehaviour</text><line style="stroke: #A80036; stroke-width: 1.5;" x1="1023.5" x2="1126.5" y1="596" y2="596"/><line style="stroke: #A80036; stroke-width: 1.5;" x1="1023.5" x2="1126.5" y1="604" y2="604"/><!--MD5=[52d6a25f107e5990b33b9f5740933ce2]
link pwr.sim.animal.Animal to pwr.sim.animal.ai.AiBehaviour--><path d="M769.04,348.5 C859.56,419.06 982.64,515 1041.26,560.7 " fill="none" id="pwr.sim.animal.Animal-&gt;pwr.sim.animal.ai.AiBehaviour" style="stroke: #A80036; stroke-width: 1.0;"/><polygon fill="#A80036" points="1045.37,563.91,1040.7477,555.2132,1041.4325,560.8285,1035.8172,561.5132,1045.37,563.91" style="stroke: #A80036; stroke-width: 1.0;"/><text fill="#000000" font-family="sans-serif" font-size="13" lengthAdjust="spacingAndGlyphs" textLength="75" x="975" y="509.0669">aiBehaviour</text><!--MD5=[0800056615779f0dd300cd144b3e14f7]
reverse link pwr.sim.animal.Animal to pwr.sim.animal.Lion--><path d="M535.16,459.62 C532.16,461.84 529.11,463.97 526,466 C465.58,505.43 272.63,493.32 206,521 C184.79,529.81 163.71,544.19 146.99,557.28 " fill="none" id="pwr.sim.animal.Animal&lt;-pwr.sim.animal.Lion" style="stroke: #A80036; stroke-width: 1.0;"/><polygon fill="none" points="530.75,454.18,550.67,446.94,539.61,465.02,530.75,454.18" style="stroke: #A80036; stroke-width: 1.0;"/><!--MD5=[6c69e18a1baf2883ad8c1a9296ae8651]
reverse link pwr.sim.animal.Animal to pwr.sim.animal.Wolf--><path d="M536.35,457.04 C532.96,460.13 529.51,463.12 526,466 C475.89,507.07 447.79,489.82 391,521 C371.91,531.48 352.05,545.14 335.62,557.31 " fill="none" id="pwr.sim.animal.Animal&lt;-pwr.sim.animal.Wolf" style="stroke: #A80036; stroke-width: 1.0;"/><polygon fill="none" points="531.65,451.85,550.84,442.87,541.44,461.85,531.65,451.85" style="stroke: #A80036; stroke-width: 1.0;"/><!--MD5=[aa43b6d8d15548c6030ab792b7b46440]
reverse link pwr.sim.animal.Animal to pwr.sim.animal.Hippo--><path d="M541.12,480.77 C524.75,510.69 509.96,537.73 499.39,557.04 " fill="none" id="pwr.sim.animal.Animal&lt;-pwr.sim.animal.Hippo" style="stroke: #A80036; stroke-width: 1.0;"/><polygon fill="none" points="535.19,477.04,550.93,462.85,547.47,483.76,535.19,477.04" style="stroke: #A80036; stroke-width: 1.0;"/><!--MD5=[f0ca4d8d7b91aca9404b4386d9ad3192]
reverse link pwr.sim.animal.Animal to pwr.sim.animal.Antelope--><path d="M665.51,486.33 C666.2,514.25 666.82,539.32 667.27,557.46 " fill="none" id="pwr.sim.animal.Animal&lt;-pwr.sim.animal.Antelope" style="stroke: #A80036; stroke-width: 1.0;"/><polygon fill="none" points="658.51,486.25,665.01,466.08,672.5,485.9,658.51,486.25" style="stroke: #A80036; stroke-width: 1.0;"/><!--MD5=[eb525c31fe53d0a7c54753579ebbab9c]
reverse link pwr.sim.animal.Animal to pwr.sim.animal.Crocodile--><path d="M780.23,446.96 C804.32,483.73 827.42,518.98 844.42,544.91 " fill="none" id="pwr.sim.animal.Animal&lt;-pwr.sim.animal.Crocodile" style="stroke: #A80036; stroke-width: 1.0;"/><polygon fill="none" points="774.21,450.55,769.11,429.99,785.92,442.88,774.21,450.55" style="stroke: #A80036; stroke-width: 1.0;"/><text fill="#888888" font-family="sans-serif" font-size="10" lengthAdjust="spacingAndGlyphs" textLength="186" x="503" y="682.2822">UMLDoclet 2.0.9, PlantUML 1.2020.08</text><!--MD5=[9b11ae2f449a6948468b4e65a85c90b8]
@startuml
    namespace pwr.sim.animal {

        abstract class Animal [[Animal.html]] {
            +wantToMate: boolean
            +isHungry: boolean
            +isTired: boolean
            #world: World
            -health: int
            #position: Position2D
            #nextPosition: Position2D
            -energy: int
            -hunger: int
            +update(): void
            +approach(Position2D): void
            +evade(Position2D): void
            +move(int, int): void
            +draw(): void
            +getPosition(): Position2D
            +setPosition(Position2D): void
            +getWorld(): World
            +setWorld(World): void
            {abstract} +getAnimalChar(): char
            +getEnergy(): int
            +changeEnergy(int): void
            +getHunger(): int
            +changeHunger(int): void
            +getHealth(): int
            +changeHealth(int): void
            +checkHungerAndEnergy(): IAiState
            +swap(): void
            +getStringInfo(): String
        }

        class Lion [[Lion.html]] {
            +getAnimalChar(): char
        }

        enum AnimalType [[AnimalType.html]] {
            {static} +WOLF
            {static} +LION
            {static} +HIPPO
            {static} +CROCODILE
            {static} +ANTELOPE
        }

        class Wolf [[Wolf.html]] {
            +getAnimalChar(): char
        }

        class Hippo [[Hippo.html]] {
            +getAnimalChar(): char
        }

        class AnimalFactory [[AnimalFactory.html]] {
            -world: World
            +AnimalFactory(World)
            +createAnimal(AnimalType, Position2D): Animal
            +createAnimal(Animal, Position2D): Animal
        }

        class Antelope [[Antelope.html]] {
            +getAnimalChar(): char
        }

        class Crocodile [[Crocodile.html]] {
            +move(int, int): void
            +setPosition(Position2D): void
            +getAnimalChar(): char
        }

        Animal - -> pwr.sim.animal.ai.AiBehaviour: aiBehaviour
        Animal <|- - Lion
        Animal <|- - Wolf
        Animal <|- - Hippo
        Animal <|- - Antelope
        Animal <|- - Crocodile
    }

    center footer UMLDoclet 2.0.9, PlantUML 1.2020.08
@enduml

PlantUML version 1.2020.08(Sun Apr 26 16:08:22 CEST 2020)
(APACHE source distribution)
Java Runtime: OpenJDK Runtime Environment
JVM: OpenJDK 64-Bit Server VM
Java Version: 11.0.7+10-post-Ubuntu-3ubuntu1
Operating System: Linux
Default Encoding: UTF-8
Language: en
Country: GB
--></g></svg>