<?xml version="1.0" encoding="UTF-8" standalone="no"?><svg xmlns="http://www.w3.org/2000/svg" xmlns:xlink="http://www.w3.org/1999/xlink" contentScriptType="application/ecmascript" contentStyleType="text/css" height="455px" preserveAspectRatio="none" style="width:714px;height:455px;" version="1.1" viewBox="0 0 714 455" width="714px" zoomAndPan="magnify"><defs><filter height="300%" id="f1csbryxmlzmqs" width="300%" x="-1" y="-1"><feGaussianBlur result="blurOut" stdDeviation="2.0"/><feColorMatrix in="blurOut" result="blurOut2" type="matrix" values="0 0 0 0 0 0 0 0 0 0 0 0 0 0 0 0 0 0 .4 0"/><feOffset dx="4.0" dy="4.0" in="blurOut2" result="blurOut3"/><feBlend in="SourceGraphic" in2="blurOut3" mode="normal"/></filter></defs><g><!--MD5=[38d21fd4d824cca984a032be1183e02d]
cluster pwr.sim.animal--><polygon fill="#FFFFFF" filter="url(#f1csbryxmlzmqs)" points="14,16,138,16,145,38.2969,532,38.2969,532,415,14,415,14,16" style="stroke: #000000; stroke-width: 1.5;"/><line style="stroke: #000000; stroke-width: 1.5;" x1="14" x2="145" y1="38.2969" y2="38.2969"/><text fill="#000000" font-family="sans-serif" font-size="14" font-weight="bold" lengthAdjust="spacingAndGlyphs" textLength="118" x="18" y="30.9951">pwr.sim.animal</text><!--MD5=[cb8a12caddea0e4f4a4443ac73e0810b]
cluster pwr.sim.animal.ai--><polygon fill="#FFFFFF" filter="url(#f1csbryxmlzmqs)" points="540,223,682,223,689,245.2969,692,245.2969,692,306,540,306,540,223" style="stroke: #000000; stroke-width: 1.5;"/><line style="stroke: #000000; stroke-width: 1.5;" x1="540" x2="689" y1="245.2969" y2="245.2969"/><text fill="#000000" font-family="sans-serif" font-size="14" font-weight="bold" lengthAdjust="spacingAndGlyphs" textLength="136" x="544" y="237.9951">pwr.sim.animal.ai</text><!--MD5=[c3d732d9f16640c78ebd86f186b6dc1a]
class pwr.sim.animal.Animal--><a href="Animal.html" target="_top" title="Animal.html" xlink:actuate="onRequest" xlink:href="Animal.html" xlink:show="new" xlink:title="Animal.html" xlink:type="simple"><rect fill="#FEFECE" filter="url(#f1csbryxmlzmqs)" height="124.8281" id="pwr.sim.animal.Animal" style="stroke: #A80036; stroke-width: 1.5;" width="142" x="228" y="43"/><ellipse cx="274.25" cy="59" fill="#A9DCDF" rx="11" ry="11" style="stroke: #A80036; stroke-width: 1.0;"/><path d="M274.3594,54.3438 L273.2031,59.4219 L275.5313,59.4219 L274.3594,54.3438 Z M272.875,52.1094 L275.8594,52.1094 L279.2188,64.5 L276.7656,64.5 L276,61.4375 L272.7188,61.4375 L271.9688,64.5 L269.5313,64.5 L272.875,52.1094 Z "/><text fill="#000000" font-family="sans-serif" font-size="12" font-style="italic" lengthAdjust="spacingAndGlyphs" textLength="41" x="294.75" y="63.1543">Animal</text><line style="stroke: #A80036; stroke-width: 1.5;" x1="229" x2="369" y1="75" y2="75"/><rect fill="none" height="6" style="stroke: #C82930; stroke-width: 1.0;" width="6" x="236" y="83"/><text fill="#000000" font-family="sans-serif" font-size="11" lengthAdjust="spacingAndGlyphs" textLength="57" x="248" y="89.2104">health: int</text><rect fill="none" height="6" style="stroke: #C82930; stroke-width: 1.0;" width="6" x="236" y="95.8047"/><text fill="#000000" font-family="sans-serif" font-size="11" lengthAdjust="spacingAndGlyphs" textLength="28" x="248" y="102.0151">x: int</text><rect fill="none" height="6" style="stroke: #C82930; stroke-width: 1.0;" width="6" x="236" y="108.6094"/><text fill="#000000" font-family="sans-serif" font-size="11" lengthAdjust="spacingAndGlyphs" textLength="28" x="248" y="114.8198">y: int</text><line style="stroke: #A80036; stroke-width: 1.5;" x1="229" x2="369" y1="121.4141" y2="121.4141"/><rect fill="#F24D5C" height="6" style="stroke: #C82930; stroke-width: 1.0;" width="6" x="236" y="129.4141"/><text fill="#000000" font-family="sans-serif" font-size="11" lengthAdjust="spacingAndGlyphs" textLength="46" x="248" y="135.6245">Animal()</text><ellipse cx="239" cy="145.2188" fill="#84BE84" rx="3" ry="3" style="stroke: #038048; stroke-width: 1.0;"/><text fill="#000000" font-family="sans-serif" font-size="11" lengthAdjust="spacingAndGlyphs" textLength="116" x="248" y="148.4292">Animal(IAiBehaviour)</text><ellipse cx="239" cy="158.0234" fill="#84BE84" rx="3" ry="3" style="stroke: #038048; stroke-width: 1.0;"/><text fill="#000000" font-family="sans-serif" font-size="11" lengthAdjust="spacingAndGlyphs" textLength="78" x="248" y="161.2339">update(): void</text></a><!--MD5=[ae591f3673b39f6f38258875ac411879]
class pwr.sim.animal.Lion--><a href="Lion.html" target="_top" title="Lion.html" xlink:actuate="onRequest" xlink:href="Lion.html" xlink:show="new" xlink:title="Lion.html" xlink:type="simple"><rect fill="#FEFECE" filter="url(#f1csbryxmlzmqs)" height="48" id="pwr.sim.animal.Lion" style="stroke: #A80036; stroke-width: 1.5;" width="57" x="22.5" y="359"/><ellipse cx="37.5" cy="375" fill="#ADD1B2" rx="11" ry="11" style="stroke: #A80036; stroke-width: 1.0;"/><path d="M40.4688,380.6406 Q39.8906,380.9375 39.25,381.0781 Q38.6094,381.2344 37.9063,381.2344 Q35.4063,381.2344 34.0781,379.5938 Q32.7656,377.9375 32.7656,374.8125 Q32.7656,371.6875 34.0781,370.0313 Q35.4063,368.375 37.9063,368.375 Q38.6094,368.375 39.25,368.5313 Q39.9063,368.6875 40.4688,368.9844 L40.4688,371.7031 Q39.8438,371.125 39.25,370.8594 Q38.6563,370.5781 38.0313,370.5781 Q36.6875,370.5781 36,371.6563 Q35.3125,372.7188 35.3125,374.8125 Q35.3125,376.9063 36,377.9844 Q36.6875,379.0469 38.0313,379.0469 Q38.6563,379.0469 39.25,378.7813 Q39.8438,378.5 40.4688,377.9219 L40.4688,380.6406 Z "/><text fill="#000000" font-family="sans-serif" font-size="12" lengthAdjust="spacingAndGlyphs" textLength="25" x="51.5" y="379.1543">Lion</text><line style="stroke: #A80036; stroke-width: 1.5;" x1="23.5" x2="78.5" y1="391" y2="391"/><line style="stroke: #A80036; stroke-width: 1.5;" x1="23.5" x2="78.5" y1="399" y2="399"/></a><!--MD5=[51044fa7bd27f700e7b14792f0478e8b]
class pwr.sim.animal.Wolf--><a href="Wolf.html" target="_top" title="Wolf.html" xlink:actuate="onRequest" xlink:href="Wolf.html" xlink:show="new" xlink:title="Wolf.html" xlink:type="simple"><rect fill="#FEFECE" filter="url(#f1csbryxmlzmqs)" height="48" id="pwr.sim.animal.Wolf" style="stroke: #A80036; stroke-width: 1.5;" width="58" x="115" y="359"/><ellipse cx="130" cy="375" fill="#ADD1B2" rx="11" ry="11" style="stroke: #A80036; stroke-width: 1.0;"/><path d="M132.9688,380.6406 Q132.3906,380.9375 131.75,381.0781 Q131.1094,381.2344 130.4063,381.2344 Q127.9063,381.2344 126.5781,379.5938 Q125.2656,377.9375 125.2656,374.8125 Q125.2656,371.6875 126.5781,370.0313 Q127.9063,368.375 130.4063,368.375 Q131.1094,368.375 131.75,368.5313 Q132.4063,368.6875 132.9688,368.9844 L132.9688,371.7031 Q132.3438,371.125 131.75,370.8594 Q131.1563,370.5781 130.5313,370.5781 Q129.1875,370.5781 128.5,371.6563 Q127.8125,372.7188 127.8125,374.8125 Q127.8125,376.9063 128.5,377.9844 Q129.1875,379.0469 130.5313,379.0469 Q131.1563,379.0469 131.75,378.7813 Q132.3438,378.5 132.9688,377.9219 L132.9688,380.6406 Z "/><text fill="#000000" font-family="sans-serif" font-size="12" lengthAdjust="spacingAndGlyphs" textLength="26" x="144" y="379.1543">Wolf</text><line style="stroke: #A80036; stroke-width: 1.5;" x1="116" x2="172" y1="391" y2="391"/><line style="stroke: #A80036; stroke-width: 1.5;" x1="116" x2="172" y1="399" y2="399"/></a><!--MD5=[0d9c5885e47712ba48fdc187dade87ba]
class pwr.sim.animal.Hippo--><a href="Hippo.html" target="_top" title="Hippo.html" xlink:actuate="onRequest" xlink:href="Hippo.html" xlink:show="new" xlink:title="Hippo.html" xlink:type="simple"><rect fill="#FEFECE" filter="url(#f1csbryxmlzmqs)" height="48" id="pwr.sim.animal.Hippo" style="stroke: #A80036; stroke-width: 1.5;" width="68" x="208" y="359"/><ellipse cx="223" cy="375" fill="#ADD1B2" rx="11" ry="11" style="stroke: #A80036; stroke-width: 1.0;"/><path d="M225.9688,380.6406 Q225.3906,380.9375 224.75,381.0781 Q224.1094,381.2344 223.4063,381.2344 Q220.9063,381.2344 219.5781,379.5938 Q218.2656,377.9375 218.2656,374.8125 Q218.2656,371.6875 219.5781,370.0313 Q220.9063,368.375 223.4063,368.375 Q224.1094,368.375 224.75,368.5313 Q225.4063,368.6875 225.9688,368.9844 L225.9688,371.7031 Q225.3438,371.125 224.75,370.8594 Q224.1563,370.5781 223.5313,370.5781 Q222.1875,370.5781 221.5,371.6563 Q220.8125,372.7188 220.8125,374.8125 Q220.8125,376.9063 221.5,377.9844 Q222.1875,379.0469 223.5313,379.0469 Q224.1563,379.0469 224.75,378.7813 Q225.3438,378.5 225.9688,377.9219 L225.9688,380.6406 Z "/><text fill="#000000" font-family="sans-serif" font-size="12" lengthAdjust="spacingAndGlyphs" textLength="36" x="237" y="379.1543">Hippo</text><line style="stroke: #A80036; stroke-width: 1.5;" x1="209" x2="275" y1="391" y2="391"/><line style="stroke: #A80036; stroke-width: 1.5;" x1="209" x2="275" y1="399" y2="399"/></a><!--MD5=[42e61e67efa47235d09441cf7bdd044b]
class pwr.sim.animal.Antelope--><a href="Antelope.html" target="_top" title="Antelope.html" xlink:actuate="onRequest" xlink:href="Antelope.html" xlink:show="new" xlink:title="Antelope.html" xlink:type="simple"><rect fill="#FEFECE" filter="url(#f1csbryxmlzmqs)" height="48" id="pwr.sim.animal.Antelope" style="stroke: #A80036; stroke-width: 1.5;" width="88" x="311" y="359"/><ellipse cx="326" cy="375" fill="#ADD1B2" rx="11" ry="11" style="stroke: #A80036; stroke-width: 1.0;"/><path d="M328.9688,380.6406 Q328.3906,380.9375 327.75,381.0781 Q327.1094,381.2344 326.4063,381.2344 Q323.9063,381.2344 322.5781,379.5938 Q321.2656,377.9375 321.2656,374.8125 Q321.2656,371.6875 322.5781,370.0313 Q323.9063,368.375 326.4063,368.375 Q327.1094,368.375 327.75,368.5313 Q328.4063,368.6875 328.9688,368.9844 L328.9688,371.7031 Q328.3438,371.125 327.75,370.8594 Q327.1563,370.5781 326.5313,370.5781 Q325.1875,370.5781 324.5,371.6563 Q323.8125,372.7188 323.8125,374.8125 Q323.8125,376.9063 324.5,377.9844 Q325.1875,379.0469 326.5313,379.0469 Q327.1563,379.0469 327.75,378.7813 Q328.3438,378.5 328.9688,377.9219 L328.9688,380.6406 Z "/><text fill="#000000" font-family="sans-serif" font-size="12" lengthAdjust="spacingAndGlyphs" textLength="56" x="340" y="379.1543">Antelope</text><line style="stroke: #A80036; stroke-width: 1.5;" x1="312" x2="398" y1="391" y2="391"/><line style="stroke: #A80036; stroke-width: 1.5;" x1="312" x2="398" y1="399" y2="399"/></a><!--MD5=[b1b8f6298c44d0173040989d99b205cc]
class pwr.sim.animal.Crocodile--><a href="Crocodile.html" target="_top" title="Crocodile.html" xlink:actuate="onRequest" xlink:href="Crocodile.html" xlink:show="new" xlink:title="Crocodile.html" xlink:type="simple"><rect fill="#FEFECE" filter="url(#f1csbryxmlzmqs)" height="48" id="pwr.sim.animal.Crocodile" style="stroke: #A80036; stroke-width: 1.5;" width="90" x="434" y="359"/><ellipse cx="449" cy="375" fill="#ADD1B2" rx="11" ry="11" style="stroke: #A80036; stroke-width: 1.0;"/><path d="M451.9688,380.6406 Q451.3906,380.9375 450.75,381.0781 Q450.1094,381.2344 449.4063,381.2344 Q446.9063,381.2344 445.5781,379.5938 Q444.2656,377.9375 444.2656,374.8125 Q444.2656,371.6875 445.5781,370.0313 Q446.9063,368.375 449.4063,368.375 Q450.1094,368.375 450.75,368.5313 Q451.4063,368.6875 451.9688,368.9844 L451.9688,371.7031 Q451.3438,371.125 450.75,370.8594 Q450.1563,370.5781 449.5313,370.5781 Q448.1875,370.5781 447.5,371.6563 Q446.8125,372.7188 446.8125,374.8125 Q446.8125,376.9063 447.5,377.9844 Q448.1875,379.0469 449.5313,379.0469 Q450.1563,379.0469 450.75,378.7813 Q451.3438,378.5 451.9688,377.9219 L451.9688,380.6406 Z "/><text fill="#000000" font-family="sans-serif" font-size="12" lengthAdjust="spacingAndGlyphs" textLength="58" x="463" y="379.1543">Crocodile</text><line style="stroke: #A80036; stroke-width: 1.5;" x1="435" x2="523" y1="391" y2="391"/><line style="stroke: #A80036; stroke-width: 1.5;" x1="435" x2="523" y1="399" y2="399"/></a><!--MD5=[42286ad51aa720358575a37c59436338]
class pwr.sim.animal.ai.IAiBehaviour--><rect fill="#FEFECE" filter="url(#f1csbryxmlzmqs)" height="48" id="pwr.sim.animal.ai.IAiBehaviour" style="stroke: #A80036; stroke-width: 1.5;" width="108" x="548" y="250"/><ellipse cx="563" cy="266" fill="#ADD1B2" rx="11" ry="11" style="stroke: #A80036; stroke-width: 1.0;"/><path d="M565.9688,271.6406 Q565.3906,271.9375 564.75,272.0781 Q564.1094,272.2344 563.4063,272.2344 Q560.9063,272.2344 559.5781,270.5938 Q558.2656,268.9375 558.2656,265.8125 Q558.2656,262.6875 559.5781,261.0313 Q560.9063,259.375 563.4063,259.375 Q564.1094,259.375 564.75,259.5313 Q565.4063,259.6875 565.9688,259.9844 L565.9688,262.7031 Q565.3438,262.125 564.75,261.8594 Q564.1563,261.5781 563.5313,261.5781 Q562.1875,261.5781 561.5,262.6563 Q560.8125,263.7188 560.8125,265.8125 Q560.8125,267.9063 561.5,268.9844 Q562.1875,270.0469 563.5313,270.0469 Q564.1563,270.0469 564.75,269.7813 Q565.3438,269.5 565.9688,268.9219 L565.9688,271.6406 Z "/><text fill="#000000" font-family="sans-serif" font-size="12" lengthAdjust="spacingAndGlyphs" textLength="76" x="577" y="270.1543">IAiBehaviour</text><line style="stroke: #A80036; stroke-width: 1.5;" x1="549" x2="655" y1="282" y2="282"/><line style="stroke: #A80036; stroke-width: 1.5;" x1="549" x2="655" y1="290" y2="290"/><!--MD5=[de237748146f76c053fb6c6be5d825bd]
link pwr.sim.animal.Animal to pwr.sim.animal.ai.IAiBehaviour--><path d="M370.1587,134.8989 C419.4287,156.5085 485.6601,188.0932 540,223 C550.7738,229.9209 561.8,238.4429 571.5098,246.5254 " fill="none" id="pwr.sim.animal.Animal-&gt;pwr.sim.animal.ai.IAiBehaviour" style="stroke: #A80036; stroke-width: 1.0;"/><polygon fill="#A80036" points="575.586,249.9565,571.2764,241.1006,571.7607,246.7367,566.1247,247.221,575.586,249.9565" style="stroke: #A80036; stroke-width: 1.0;"/><text fill="#000000" font-family="sans-serif" font-size="13" lengthAdjust="spacingAndGlyphs" textLength="75" x="522" y="211.0669">aiBehaviour</text><!--MD5=[0800056615779f0dd300cd144b3e14f7]
reverse link pwr.sim.animal.Animal to pwr.sim.animal.Lion--><path d="M217.8685,182.2953 C204.5996,195.6009 191.2096,209.5023 179,223 C137.2389,269.167 92.7586,326.9831 68.7917,358.948 " fill="none" id="pwr.sim.animal.Animal&lt;-pwr.sim.animal.Lion" style="stroke: #A80036; stroke-width: 1.0;"/><polygon fill="none" points="213.0231,177.2421,232.1575,168.1385,222.8765,187.1875,213.0231,177.2421" style="stroke: #A80036; stroke-width: 1.0;"/><!--MD5=[6c69e18a1baf2883ad8c1a9296ae8651]
reverse link pwr.sim.animal.Animal to pwr.sim.animal.Wolf--><path d="M254.1525,185.7916 C221.2474,244.7021 178.732,320.8185 157.4245,358.9657 " fill="none" id="pwr.sim.animal.Animal&lt;-pwr.sim.animal.Wolf" style="stroke: #A80036; stroke-width: 1.0;"/><polygon fill="none" points="248.1575,182.1697,264.0217,168.1224,260.3801,188.9968,248.1575,182.1697" style="stroke: #A80036; stroke-width: 1.0;"/><!--MD5=[aa43b6d8d15548c6030ab792b7b46440]
reverse link pwr.sim.animal.Animal to pwr.sim.animal.Hippo--><path d="M282.0365,188.0854 C270.0041,246.6643 254.6711,321.3118 246.9368,358.9657 " fill="none" id="pwr.sim.animal.Animal&lt;-pwr.sim.animal.Hippo" style="stroke: #A80036; stroke-width: 1.0;"/><polygon fill="none" points="275.256,186.305,286.137,168.1224,288.9697,189.1219,275.256,186.305" style="stroke: #A80036; stroke-width: 1.0;"/><!--MD5=[f0ca4d8d7b91aca9404b4386d9ad3192]
reverse link pwr.sim.animal.Animal to pwr.sim.animal.Antelope--><path d="M315.6659,188.0854 C327.4872,246.6643 342.5512,321.3118 350.1498,358.9657 " fill="none" id="pwr.sim.animal.Animal&lt;-pwr.sim.animal.Antelope" style="stroke: #A80036; stroke-width: 1.0;"/><polygon fill="none" points="308.732,189.1119,311.6373,168.1224,322.4554,186.3425,308.732,189.1119" style="stroke: #A80036; stroke-width: 1.0;"/><!--MD5=[eb525c31fe53d0a7c54753579ebbab9c]
reverse link pwr.sim.animal.Animal to pwr.sim.animal.Crocodile--><path d="M350.5875,185.0307 C388.8672,244.0453 438.5594,320.6541 463.4102,358.9657 " fill="none" id="pwr.sim.animal.Animal&lt;-pwr.sim.animal.Crocodile" style="stroke: #A80036; stroke-width: 1.0;"/><polygon fill="none" points="344.6311,188.711,339.62,168.1224,356.3766,181.0923,344.6311,188.711" style="stroke: #A80036; stroke-width: 1.0;"/><text fill="#888888" font-family="sans-serif" font-size="10" lengthAdjust="spacingAndGlyphs" textLength="186" x="266" y="442.2822">UMLDoclet 2.0.8, PlantUML 1.2020.01</text><!--MD5=[1861d616051c4938f7e63bf42f106b90]
@startuml
    namespace pwr.sim.animal {

        abstract class Animal [[Animal.html]] {
            -health: int
            -x: int
            -y: int
            -Animal()
            +Animal(IAiBehaviour)
            +update(): void
        }

        class Lion [[Lion.html]]

        class Wolf [[Wolf.html]]

        class Hippo [[Hippo.html]]

        class Antelope [[Antelope.html]]

        class Crocodile [[Crocodile.html]]

        Animal - -> pwr.sim.animal.ai.IAiBehaviour: aiBehaviour
        Animal <|- - Lion
        Animal <|- - Wolf
        Animal <|- - Hippo
        Animal <|- - Antelope
        Animal <|- - Crocodile
    }

    center footer UMLDoclet 2.0.8, PlantUML 1.2020.01
@enduml

PlantUML version 1.2020.01(Sun Feb 16 18:40:32 CET 2020)
(APACHE source distribution)
Java Runtime: OpenJDK Runtime Environment
JVM: OpenJDK 64-Bit Server VM
Java Version: 11.0.7+10-post-Ubuntu-2ubuntu219.10
Operating System: Linux
Default Encoding: UTF-8
Language: en
Country: GB
--></g></svg>