<?xml version="1.0" encoding="UTF-8" standalone="no"?><svg xmlns="http://www.w3.org/2000/svg" xmlns:xlink="http://www.w3.org/1999/xlink" contentScriptType="application/ecmascript" contentStyleType="text/css" height="251px" preserveAspectRatio="none" style="width:198px;height:251px;" version="1.1" viewBox="0 0 198 251" width="198px" zoomAndPan="magnify"><defs><filter height="300%" id="fdx0urju7fgrg" width="300%" x="-1" y="-1"><feGaussianBlur result="blurOut" stdDeviation="2.0"/><feColorMatrix in="blurOut" result="blurOut2" type="matrix" values="0 0 0 0 0 0 0 0 0 0 0 0 0 0 0 0 0 0 .4 0"/><feOffset dx="4.0" dy="4.0" in="blurOut2" result="blurOut3"/><feBlend in="SourceGraphic" in2="blurOut3" mode="normal"/></filter></defs><g><!--MD5=[d6ff7de480351f15b4a4cfc2ecc38967]
class pwr.sim.animal.ai.state.AiStateSleep--><a href="AiStateSleep.html" target="_top" title="AiStateSleep.html" xlink:actuate="onRequest" xlink:href="AiStateSleep.html" xlink:show="new" xlink:title="AiStateSleep.html" xlink:type="simple"><rect fill="#FEFECE" filter="url(#fdx0urju7fgrg)" height="92.3516" id="pwr.sim.animal.ai.state.AiStateSleep" style="stroke: #A80036; stroke-width: 1.5;" width="144" x="15" y="127"/><ellipse cx="30" cy="145.9688" fill="#ADD1B2" rx="11" ry="11" style="stroke: #A80036; stroke-width: 1.0;"/><path d="M32.9688,151.6094 Q32.3906,151.9063 31.75,152.0469 Q31.1094,152.2031 30.4063,152.2031 Q27.9063,152.2031 26.5781,150.5625 Q25.2656,148.9063 25.2656,145.7813 Q25.2656,142.6563 26.5781,141 Q27.9063,139.3438 30.4063,139.3438 Q31.1094,139.3438 31.75,139.5 Q32.4063,139.6563 32.9688,139.9531 L32.9688,142.6719 Q32.3438,142.0938 31.75,141.8281 Q31.1563,141.5469 30.5313,141.5469 Q29.1875,141.5469 28.5,142.625 Q27.8125,143.6875 27.8125,145.7813 Q27.8125,147.875 28.5,148.9531 Q29.1875,150.0156 30.5313,150.0156 Q31.1563,150.0156 31.75,149.75 Q32.3438,149.4688 32.9688,148.8906 L32.9688,151.6094 Z "/><text fill="#000000" font-family="sans-serif" font-size="14" lengthAdjust="spacingAndGlyphs" textLength="87" x="56.5" y="144.9951">AiStateSleep</text><text fill="#000000" font-family="sans-serif" font-size="10" lengthAdjust="spacingAndGlyphs" textLength="112" x="44" y="157.5791">pwr.sim.animal.ai.state</text><line style="stroke: #A80036; stroke-width: 1.5;" x1="16" x2="158" y1="164.9375" y2="164.9375"/><rect fill="none" height="6" style="stroke: #C82930; stroke-width: 1.0;" width="6" x="23" y="172.9375"/><text fill="#000000" font-family="sans-serif" font-size="11" lengthAdjust="spacingAndGlyphs" textLength="84" x="35" y="179.1479">animal: Animal</text><line style="stroke: #A80036; stroke-width: 1.5;" x1="16" x2="158" y1="185.7422" y2="185.7422"/><ellipse cx="26" cy="196.7422" fill="#84BE84" rx="3" ry="3" style="stroke: #038048; stroke-width: 1.0;"/><text fill="#000000" font-family="sans-serif" font-size="11" lengthAdjust="spacingAndGlyphs" textLength="118" x="35" y="199.9526">AiStateSleep(Animal)</text><ellipse cx="26" cy="209.5469" fill="#84BE84" rx="3" ry="3" style="stroke: #038048; stroke-width: 1.0;"/><text fill="#000000" font-family="sans-serif" font-size="11" lengthAdjust="spacingAndGlyphs" textLength="98" x="35" y="212.7573">update(): IAiState</text></a><!--MD5=[af772f8550f9215bd32b0d137f557a72]
class pwr.sim.animal.ai.state.IAiState--><a href="IAiState.html" target="_top" title="IAiState.html" xlink:actuate="onRequest" xlink:href="IAiState.html" xlink:show="new" xlink:title="IAiState.html" xlink:type="simple"><rect fill="#FEFECE" filter="url(#fdx0urju7fgrg)" height="58.7422" id="pwr.sim.animal.ai.state.IAiState" style="stroke: #A80036; stroke-width: 1.5;" width="148" x="13" y="8"/><ellipse cx="28" cy="26.9688" fill="#B4A7E5" rx="11" ry="11" style="stroke: #A80036; stroke-width: 1.0;"/><path d="M23.9219,22.7344 L23.9219,20.5781 L31.3125,20.5781 L31.3125,22.7344 L28.8438,22.7344 L28.8438,30.8125 L31.3125,30.8125 L31.3125,32.9688 L23.9219,32.9688 L23.9219,30.8125 L26.3906,30.8125 L26.3906,22.7344 L23.9219,22.7344 Z "/><text fill="#000000" font-family="sans-serif" font-size="14" font-style="italic" lengthAdjust="spacingAndGlyphs" textLength="53" x="73.5" y="25.9951">IAiState</text><text fill="#000000" font-family="sans-serif" font-size="10" font-style="italic" lengthAdjust="spacingAndGlyphs" textLength="116" x="42" y="38.5791">pwr.sim.animal.ai.state</text><line style="stroke: #A80036; stroke-width: 1.5;" x1="14" x2="160" y1="45.9375" y2="45.9375"/><ellipse cx="24" cy="56.9375" fill="#84BE84" rx="3" ry="3" style="stroke: #038048; stroke-width: 1.0;"/><text fill="#000000" font-family="sans-serif" font-size="11" font-style="italic" lengthAdjust="spacingAndGlyphs" textLength="98" x="33" y="60.1479">update(): IAiState</text></a><!--MD5=[e592b11b2e4325c24b9ab7df11589baa]
reverse link pwr.sim.animal.ai.state.IAiState to pwr.sim.animal.ai.state.AiStateSleep--><path d="M87,87.53 C87,100.4 87,114.21 87,126.86 " fill="none" id="pwr.sim.animal.ai.state.IAiState&lt;-pwr.sim.animal.ai.state.AiStateSleep" style="stroke: #A80036; stroke-width: 1.0; stroke-dasharray: 7.0,7.0;"/><polygon fill="none" points="80,87.14,87,67.14,94,87.14,80,87.14" style="stroke: #A80036; stroke-width: 1.0;"/><text fill="#888888" font-family="sans-serif" font-size="10" lengthAdjust="spacingAndGlyphs" textLength="186" x="0" y="238.2822">UMLDoclet 2.0.9, PlantUML 1.2020.08</text><!--MD5=[bb346bee25e1d23d43fd7ef2d38a6c26]
@startuml
    set namespaceSeparator none
    hide empty fields
    hide empty methods

    class "<size:14>AiStateSleep\n<size:10>pwr.sim.animal.ai.state" as pwr.sim.animal.ai.state.AiStateSleep [[AiStateSleep.html]] {
        -animal: Animal
        +AiStateSleep(Animal)
        +update(): IAiState
    }

    interface "<size:14>IAiState\n<size:10>pwr.sim.animal.ai.state" as pwr.sim.animal.ai.state.IAiState [[IAiState.html]] {
        {abstract} +update(): IAiState
    }

    pwr.sim.animal.ai.state.IAiState <|.. pwr.sim.animal.ai.state.AiStateSleep

    center footer UMLDoclet 2.0.9, PlantUML 1.2020.08
@enduml

PlantUML version 1.2020.08(Sun Apr 26 16:08:22 CEST 2020)
(APACHE source distribution)
Java Runtime: OpenJDK Runtime Environment
JVM: OpenJDK 64-Bit Server VM
Java Version: 11.0.7+10-post-Ubuntu-3ubuntu1
Operating System: Linux
Default Encoding: UTF-8
Language: en
Country: GB
--></g></svg>