<?xml version="1.0" encoding="UTF-8" standalone="no"?><svg xmlns="http://www.w3.org/2000/svg" xmlns:xlink="http://www.w3.org/1999/xlink" contentScriptType="application/ecmascript" contentStyleType="text/css" height="356px" preserveAspectRatio="none" style="width:1436px;height:356px;" version="1.1" viewBox="0 0 1436 356" width="1436px" zoomAndPan="magnify"><defs><filter height="300%" id="fpu3lpwvhd81u" width="300%" x="-1" y="-1"><feGaussianBlur result="blurOut" stdDeviation="2.0"/><feColorMatrix in="blurOut" result="blurOut2" type="matrix" values="0 0 0 0 0 0 0 0 0 0 0 0 0 0 0 0 0 0 .4 0"/><feOffset dx="4.0" dy="4.0" in="blurOut2" result="blurOut3"/><feBlend in="SourceGraphic" in2="blurOut3" mode="normal"/></filter></defs><g><!--MD5=[7eeeb206a6d334978b95fb0cfc669640]
cluster pwr.sim.animal.ai.state--><polygon fill="#FFFFFF" filter="url(#fpu3lpwvhd81u)" points="22,24,209,24,216,46.2969,1414,46.2969,1414,308,22,308,22,24" style="stroke: #000000; stroke-width: 1.5;"/><line style="stroke: #000000; stroke-width: 1.5;" x1="22" x2="216" y1="46.2969" y2="46.2969"/><text fill="#000000" font-family="sans-serif" font-size="14" font-weight="bold" lengthAdjust="spacingAndGlyphs" textLength="181" x="26" y="38.9951">pwr.sim.animal.ai.state</text><!--MD5=[08aadd0f49c91bafe227b24a75895544]
class pwr.sim.animal.ai.state.AiStateEatCorpse--><a href="AiStateEatCorpse.html" target="_top" title="AiStateEatCorpse.html" xlink:actuate="onRequest" xlink:href="AiStateEatCorpse.html" xlink:show="new" xlink:title="AiStateEatCorpse.html" xlink:type="simple"><rect fill="#FEFECE" filter="url(#fpu3lpwvhd81u)" height="86.4141" id="pwr.sim.animal.ai.state.AiStateEatCorpse" style="stroke: #A80036; stroke-width: 1.5;" width="171" x="38.5" y="199.5"/><ellipse cx="66.55" cy="215.5" fill="#ADD1B2" rx="11" ry="11" style="stroke: #A80036; stroke-width: 1.0;"/><path d="M69.5188,221.1406 Q68.9406,221.4375 68.3,221.5781 Q67.6594,221.7344 66.9563,221.7344 Q64.4563,221.7344 63.1281,220.0938 Q61.8156,218.4375 61.8156,215.3125 Q61.8156,212.1875 63.1281,210.5313 Q64.4563,208.875 66.9563,208.875 Q67.6594,208.875 68.3,209.0313 Q68.9563,209.1875 69.5188,209.4844 L69.5188,212.2031 Q68.8938,211.625 68.3,211.3594 Q67.7063,211.0781 67.0813,211.0781 Q65.7375,211.0781 65.05,212.1563 Q64.3625,213.2188 64.3625,215.3125 Q64.3625,217.4063 65.05,218.4844 Q65.7375,219.5469 67.0813,219.5469 Q67.7063,219.5469 68.3,219.2813 Q68.8938,219 69.5188,218.4219 L69.5188,221.1406 Z "/><text fill="#000000" font-family="sans-serif" font-size="12" lengthAdjust="spacingAndGlyphs" textLength="110" x="83.45" y="219.6543">AiStateEatCorpse</text><line style="stroke: #A80036; stroke-width: 1.5;" x1="39.5" x2="208.5" y1="231.5" y2="231.5"/><rect fill="none" height="6" style="stroke: #C82930; stroke-width: 1.0;" width="6" x="46.5" y="239.5"/><text fill="#000000" font-family="sans-serif" font-size="11" lengthAdjust="spacingAndGlyphs" textLength="84" x="58.5" y="245.7104">animal: Animal</text><line style="stroke: #A80036; stroke-width: 1.5;" x1="39.5" x2="208.5" y1="252.3047" y2="252.3047"/><ellipse cx="49.5" cy="263.3047" fill="#84BE84" rx="3" ry="3" style="stroke: #038048; stroke-width: 1.0;"/><text fill="#000000" font-family="sans-serif" font-size="11" lengthAdjust="spacingAndGlyphs" textLength="145" x="58.5" y="266.5151">AiStateEatCorpse(Animal)</text><ellipse cx="49.5" cy="276.1094" fill="#84BE84" rx="3" ry="3" style="stroke: #038048; stroke-width: 1.0;"/><text fill="#000000" font-family="sans-serif" font-size="11" lengthAdjust="spacingAndGlyphs" textLength="98" x="58.5" y="279.3198">update(): IAiState</text></a><!--MD5=[c59dbee51b91129f0f8245b72bd2908b]
class pwr.sim.animal.ai.state.AiStateEatPlant--><a href="AiStateEatPlant.html" target="_top" title="AiStateEatPlant.html" xlink:actuate="onRequest" xlink:href="AiStateEatPlant.html" xlink:show="new" xlink:title="AiStateEatPlant.html" xlink:type="simple"><rect fill="#FEFECE" filter="url(#fpu3lpwvhd81u)" height="86.4141" id="pwr.sim.animal.ai.state.AiStateEatPlant" style="stroke: #A80036; stroke-width: 1.5;" width="158" x="245" y="199.5"/><ellipse cx="272.6" cy="215.5" fill="#ADD1B2" rx="11" ry="11" style="stroke: #A80036; stroke-width: 1.0;"/><path d="M275.5688,221.1406 Q274.9906,221.4375 274.35,221.5781 Q273.7094,221.7344 273.0063,221.7344 Q270.5063,221.7344 269.1781,220.0938 Q267.8656,218.4375 267.8656,215.3125 Q267.8656,212.1875 269.1781,210.5313 Q270.5063,208.875 273.0063,208.875 Q273.7094,208.875 274.35,209.0313 Q275.0063,209.1875 275.5688,209.4844 L275.5688,212.2031 Q274.9438,211.625 274.35,211.3594 Q273.7563,211.0781 273.1313,211.0781 Q271.7875,211.0781 271.1,212.1563 Q270.4125,213.2188 270.4125,215.3125 Q270.4125,217.4063 271.1,218.4844 Q271.7875,219.5469 273.1313,219.5469 Q273.7563,219.5469 274.35,219.2813 Q274.9438,219 275.5688,218.4219 L275.5688,221.1406 Z "/><text fill="#000000" font-family="sans-serif" font-size="12" lengthAdjust="spacingAndGlyphs" textLength="98" x="289.4" y="219.6543">AiStateEatPlant</text><line style="stroke: #A80036; stroke-width: 1.5;" x1="246" x2="402" y1="231.5" y2="231.5"/><rect fill="none" height="6" style="stroke: #C82930; stroke-width: 1.0;" width="6" x="253" y="239.5"/><text fill="#000000" font-family="sans-serif" font-size="11" lengthAdjust="spacingAndGlyphs" textLength="84" x="265" y="245.7104">animal: Animal</text><line style="stroke: #A80036; stroke-width: 1.5;" x1="246" x2="402" y1="252.3047" y2="252.3047"/><ellipse cx="256" cy="263.3047" fill="#84BE84" rx="3" ry="3" style="stroke: #038048; stroke-width: 1.0;"/><text fill="#000000" font-family="sans-serif" font-size="11" lengthAdjust="spacingAndGlyphs" textLength="132" x="265" y="266.5151">AiStateEatPlant(Animal)</text><ellipse cx="256" cy="276.1094" fill="#84BE84" rx="3" ry="3" style="stroke: #038048; stroke-width: 1.0;"/><text fill="#000000" font-family="sans-serif" font-size="11" lengthAdjust="spacingAndGlyphs" textLength="98" x="265" y="279.3198">update(): IAiState</text></a><!--MD5=[af772f8550f9215bd32b0d137f557a72]
class pwr.sim.animal.ai.state.IAiState--><a href="IAiState.html" target="_top" title="IAiState.html" xlink:actuate="onRequest" xlink:href="IAiState.html" xlink:show="new" xlink:title="IAiState.html" xlink:type="simple"><rect fill="#FEFECE" filter="url(#fpu3lpwvhd81u)" height="73.6094" id="pwr.sim.animal.ai.state.IAiState" style="stroke: #A80036; stroke-width: 1.5;" width="132" x="671" y="59"/><ellipse cx="708.95" cy="75" fill="#B4A7E5" rx="11" ry="11" style="stroke: #A80036; stroke-width: 1.0;"/><path d="M704.8719,70.7656 L704.8719,68.6094 L712.2625,68.6094 L712.2625,70.7656 L709.7938,70.7656 L709.7938,78.8438 L712.2625,78.8438 L712.2625,81 L704.8719,81 L704.8719,78.8438 L707.3406,78.8438 L707.3406,70.7656 L704.8719,70.7656 Z "/><text fill="#000000" font-family="sans-serif" font-size="12" font-style="italic" lengthAdjust="spacingAndGlyphs" textLength="49" x="728.05" y="79.1543">IAiState</text><line style="stroke: #A80036; stroke-width: 1.5;" x1="672" x2="802" y1="91" y2="91"/><line style="stroke: #A80036; stroke-width: 1.5;" x1="672" x2="802" y1="99" y2="99"/><ellipse cx="682" cy="110" fill="#84BE84" rx="3" ry="3" style="stroke: #038048; stroke-width: 1.0;"/><text fill="#000000" font-family="sans-serif" font-size="11" font-style="italic" lengthAdjust="spacingAndGlyphs" textLength="98" x="691" y="113.2104">update(): IAiState</text><ellipse cx="682" cy="122.8047" fill="#84BE84" rx="3" ry="3" style="stroke: #038048; stroke-width: 1.0;"/><text fill="#000000" font-family="sans-serif" font-size="11" lengthAdjust="spacingAndGlyphs" textLength="106" x="691" y="126.0151">debugInfo(): String</text></a><!--MD5=[8bcb64160ca150be0df12a81ede32a6a]
class pwr.sim.animal.ai.state.AiStateEvade--><a href="AiStateEvade.html" target="_top" title="AiStateEvade.html" xlink:actuate="onRequest" xlink:href="AiStateEvade.html" xlink:show="new" xlink:title="AiStateEvade.html" xlink:type="simple"><rect fill="#FEFECE" filter="url(#fpu3lpwvhd81u)" height="99.2188" id="pwr.sim.animal.ai.state.AiStateEvade" style="stroke: #A80036; stroke-width: 1.5;" width="192" x="438" y="193"/><ellipse cx="488.25" cy="209" fill="#ADD1B2" rx="11" ry="11" style="stroke: #A80036; stroke-width: 1.0;"/><path d="M491.2188,214.6406 Q490.6406,214.9375 490,215.0781 Q489.3594,215.2344 488.6563,215.2344 Q486.1563,215.2344 484.8281,213.5938 Q483.5156,211.9375 483.5156,208.8125 Q483.5156,205.6875 484.8281,204.0313 Q486.1563,202.375 488.6563,202.375 Q489.3594,202.375 490,202.5313 Q490.6563,202.6875 491.2188,202.9844 L491.2188,205.7031 Q490.5938,205.125 490,204.8594 Q489.4063,204.5781 488.7813,204.5781 Q487.4375,204.5781 486.75,205.6563 Q486.0625,206.7188 486.0625,208.8125 Q486.0625,210.9063 486.75,211.9844 Q487.4375,213.0469 488.7813,213.0469 Q489.4063,213.0469 490,212.7813 Q490.5938,212.5 491.2188,211.9219 L491.2188,214.6406 Z "/><text fill="#000000" font-family="sans-serif" font-size="12" lengthAdjust="spacingAndGlyphs" textLength="83" x="508.75" y="213.1543">AiStateEvade</text><line style="stroke: #A80036; stroke-width: 1.5;" x1="439" x2="629" y1="225" y2="225"/><rect fill="none" height="6" style="stroke: #C82930; stroke-width: 1.0;" width="6" x="446" y="233"/><text fill="#000000" font-family="sans-serif" font-size="11" lengthAdjust="spacingAndGlyphs" textLength="84" x="458" y="239.2104">animal: Animal</text><rect fill="none" height="6" style="stroke: #C82930; stroke-width: 1.0;" width="6" x="446" y="245.8047"/><text fill="#000000" font-family="sans-serif" font-size="11" lengthAdjust="spacingAndGlyphs" textLength="95" x="458" y="252.0151">predator: Animal</text><line style="stroke: #A80036; stroke-width: 1.5;" x1="439" x2="629" y1="258.6094" y2="258.6094"/><ellipse cx="449" cy="269.6094" fill="#84BE84" rx="3" ry="3" style="stroke: #038048; stroke-width: 1.0;"/><text fill="#000000" font-family="sans-serif" font-size="11" lengthAdjust="spacingAndGlyphs" textLength="166" x="458" y="272.8198">AiStateEvade(Animal, Animal)</text><ellipse cx="449" cy="282.4141" fill="#84BE84" rx="3" ry="3" style="stroke: #038048; stroke-width: 1.0;"/><text fill="#000000" font-family="sans-serif" font-size="11" lengthAdjust="spacingAndGlyphs" textLength="98" x="458" y="285.6245">update(): IAiState</text></a><!--MD5=[d6ff7de480351f15b4a4cfc2ecc38967]
class pwr.sim.animal.ai.state.AiStateSleep--><a href="AiStateSleep.html" target="_top" title="AiStateSleep.html" xlink:actuate="onRequest" xlink:href="AiStateSleep.html" xlink:show="new" xlink:title="AiStateSleep.html" xlink:type="simple"><rect fill="#FEFECE" filter="url(#fpu3lpwvhd81u)" height="86.4141" id="pwr.sim.animal.ai.state.AiStateSleep" style="stroke: #A80036; stroke-width: 1.5;" width="144" x="665" y="199.5"/><ellipse cx="694.4" cy="215.5" fill="#ADD1B2" rx="11" ry="11" style="stroke: #A80036; stroke-width: 1.0;"/><path d="M697.3688,221.1406 Q696.7906,221.4375 696.15,221.5781 Q695.5094,221.7344 694.8063,221.7344 Q692.3063,221.7344 690.9781,220.0938 Q689.6656,218.4375 689.6656,215.3125 Q689.6656,212.1875 690.9781,210.5313 Q692.3063,208.875 694.8063,208.875 Q695.5094,208.875 696.15,209.0313 Q696.8063,209.1875 697.3688,209.4844 L697.3688,212.2031 Q696.7438,211.625 696.15,211.3594 Q695.5563,211.0781 694.9313,211.0781 Q693.5875,211.0781 692.9,212.1563 Q692.2125,213.2188 692.2125,215.3125 Q692.2125,217.4063 692.9,218.4844 Q693.5875,219.5469 694.9313,219.5469 Q695.5563,219.5469 696.15,219.2813 Q696.7438,219 697.3688,218.4219 L697.3688,221.1406 Z "/><text fill="#000000" font-family="sans-serif" font-size="12" lengthAdjust="spacingAndGlyphs" textLength="80" x="711.6" y="219.6543">AiStateSleep</text><line style="stroke: #A80036; stroke-width: 1.5;" x1="666" x2="808" y1="231.5" y2="231.5"/><rect fill="none" height="6" style="stroke: #C82930; stroke-width: 1.0;" width="6" x="673" y="239.5"/><text fill="#000000" font-family="sans-serif" font-size="11" lengthAdjust="spacingAndGlyphs" textLength="84" x="685" y="245.7104">animal: Animal</text><line style="stroke: #A80036; stroke-width: 1.5;" x1="666" x2="808" y1="252.3047" y2="252.3047"/><ellipse cx="676" cy="263.3047" fill="#84BE84" rx="3" ry="3" style="stroke: #038048; stroke-width: 1.0;"/><text fill="#000000" font-family="sans-serif" font-size="11" lengthAdjust="spacingAndGlyphs" textLength="118" x="685" y="266.5151">AiStateSleep(Animal)</text><ellipse cx="676" cy="276.1094" fill="#84BE84" rx="3" ry="3" style="stroke: #038048; stroke-width: 1.0;"/><text fill="#000000" font-family="sans-serif" font-size="11" lengthAdjust="spacingAndGlyphs" textLength="98" x="685" y="279.3198">update(): IAiState</text></a><!--MD5=[40300abaaeb8bc98273b3cd335c7cf0b]
class pwr.sim.animal.ai.state.AiStateLookForFood--><a href="AiStateLookForFood.html" target="_top" title="AiStateLookForFood.html" xlink:actuate="onRequest" xlink:href="AiStateLookForFood.html" xlink:show="new" xlink:title="AiStateLookForFood.html" xlink:type="simple"><rect fill="#FEFECE" filter="url(#fpu3lpwvhd81u)" height="99.2188" id="pwr.sim.animal.ai.state.AiStateLookForFood" style="stroke: #A80036; stroke-width: 1.5;" width="183" x="844.5" y="193"/><ellipse cx="871.2" cy="209" fill="#ADD1B2" rx="11" ry="11" style="stroke: #A80036; stroke-width: 1.0;"/><path d="M874.1688,214.6406 Q873.5906,214.9375 872.95,215.0781 Q872.3094,215.2344 871.6063,215.2344 Q869.1063,215.2344 867.7781,213.5938 Q866.4656,211.9375 866.4656,208.8125 Q866.4656,205.6875 867.7781,204.0313 Q869.1063,202.375 871.6063,202.375 Q872.3094,202.375 872.95,202.5313 Q873.6063,202.6875 874.1688,202.9844 L874.1688,205.7031 Q873.5438,205.125 872.95,204.8594 Q872.3563,204.5781 871.7313,204.5781 Q870.3875,204.5781 869.7,205.6563 Q869.0125,206.7188 869.0125,208.8125 Q869.0125,210.9063 869.7,211.9844 Q870.3875,213.0469 871.7313,213.0469 Q872.3563,213.0469 872.95,212.7813 Q873.5438,212.5 874.1688,211.9219 L874.1688,214.6406 Z "/><text fill="#000000" font-family="sans-serif" font-size="12" lengthAdjust="spacingAndGlyphs" textLength="125" x="887.8" y="213.1543">AiStateLookForFood</text><line style="stroke: #A80036; stroke-width: 1.5;" x1="845.5" x2="1026.5" y1="225" y2="225"/><rect fill="none" height="6" style="stroke: #C82930; stroke-width: 1.0;" width="6" x="852.5" y="233"/><text fill="#000000" font-family="sans-serif" font-size="11" lengthAdjust="spacingAndGlyphs" textLength="84" x="864.5" y="239.2104">animal: Animal</text><rect fill="none" height="6" style="stroke: #C82930; stroke-width: 1.0;" width="6" x="852.5" y="245.8047"/><text fill="#000000" font-family="sans-serif" font-size="11" lengthAdjust="spacingAndGlyphs" textLength="131" x="864.5" y="252.0151">destination: Position2D</text><line style="stroke: #A80036; stroke-width: 1.5;" x1="845.5" x2="1026.5" y1="258.6094" y2="258.6094"/><ellipse cx="855.5" cy="269.6094" fill="#84BE84" rx="3" ry="3" style="stroke: #038048; stroke-width: 1.0;"/><text fill="#000000" font-family="sans-serif" font-size="11" lengthAdjust="spacingAndGlyphs" textLength="157" x="864.5" y="272.8198">AiStateLookForFood(Animal)</text><ellipse cx="855.5" cy="282.4141" fill="#84BE84" rx="3" ry="3" style="stroke: #038048; stroke-width: 1.0;"/><text fill="#000000" font-family="sans-serif" font-size="11" lengthAdjust="spacingAndGlyphs" textLength="98" x="864.5" y="285.6245">update(): IAiState</text></a><!--MD5=[2101adf7b36736fda214d54ec3e7eccf]
class pwr.sim.animal.ai.state.AiStateHunt--><a href="AiStateHunt.html" target="_top" title="AiStateHunt.html" xlink:actuate="onRequest" xlink:href="AiStateHunt.html" xlink:show="new" xlink:title="AiStateHunt.html" xlink:type="simple"><rect fill="#FEFECE" filter="url(#fpu3lpwvhd81u)" height="99.2188" id="pwr.sim.animal.ai.state.AiStateHunt" style="stroke: #A80036; stroke-width: 1.5;" width="138" x="1063" y="193"/><ellipse cx="1091.95" cy="209" fill="#ADD1B2" rx="11" ry="11" style="stroke: #A80036; stroke-width: 1.0;"/><path d="M1094.9188,214.6406 Q1094.3406,214.9375 1093.7,215.0781 Q1093.0594,215.2344 1092.3563,215.2344 Q1089.8563,215.2344 1088.5281,213.5938 Q1087.2156,211.9375 1087.2156,208.8125 Q1087.2156,205.6875 1088.5281,204.0313 Q1089.8563,202.375 1092.3563,202.375 Q1093.0594,202.375 1093.7,202.5313 Q1094.3563,202.6875 1094.9188,202.9844 L1094.9188,205.7031 Q1094.2938,205.125 1093.7,204.8594 Q1093.1063,204.5781 1092.4813,204.5781 Q1091.1375,204.5781 1090.45,205.6563 Q1089.7625,206.7188 1089.7625,208.8125 Q1089.7625,210.9063 1090.45,211.9844 Q1091.1375,213.0469 1092.4813,213.0469 Q1093.1063,213.0469 1093.7,212.7813 Q1094.2938,212.5 1094.9188,211.9219 L1094.9188,214.6406 Z "/><text fill="#000000" font-family="sans-serif" font-size="12" lengthAdjust="spacingAndGlyphs" textLength="75" x="1109.05" y="213.1543">AiStateHunt</text><line style="stroke: #A80036; stroke-width: 1.5;" x1="1064" x2="1200" y1="225" y2="225"/><rect fill="none" height="6" style="stroke: #C82930; stroke-width: 1.0;" width="6" x="1071" y="233"/><text fill="#000000" font-family="sans-serif" font-size="11" lengthAdjust="spacingAndGlyphs" textLength="84" x="1083" y="239.2104">animal: Animal</text><rect fill="none" height="6" style="stroke: #C82930; stroke-width: 1.0;" width="6" x="1071" y="245.8047"/><text fill="#000000" font-family="sans-serif" font-size="11" lengthAdjust="spacingAndGlyphs" textLength="71" x="1083" y="252.0151">prey: Animal</text><line style="stroke: #A80036; stroke-width: 1.5;" x1="1064" x2="1200" y1="258.6094" y2="258.6094"/><ellipse cx="1074" cy="269.6094" fill="#84BE84" rx="3" ry="3" style="stroke: #038048; stroke-width: 1.0;"/><text fill="#000000" font-family="sans-serif" font-size="11" lengthAdjust="spacingAndGlyphs" textLength="112" x="1083" y="272.8198">AiStateHunt(Animal)</text><ellipse cx="1074" cy="282.4141" fill="#84BE84" rx="3" ry="3" style="stroke: #038048; stroke-width: 1.0;"/><text fill="#000000" font-family="sans-serif" font-size="11" lengthAdjust="spacingAndGlyphs" textLength="98" x="1083" y="285.6245">update(): IAiState</text></a><!--MD5=[35291f84c5102aa19c3fb4f3ba4efe54]
class pwr.sim.animal.ai.state.AiStateCopulate--><a href="AiStateCopulate.html" target="_top" title="AiStateCopulate.html" xlink:actuate="onRequest" xlink:href="AiStateCopulate.html" xlink:show="new" xlink:title="AiStateCopulate.html" xlink:type="simple"><rect fill="#FEFECE" filter="url(#fpu3lpwvhd81u)" height="99.2188" id="pwr.sim.animal.ai.state.AiStateCopulate" style="stroke: #A80036; stroke-width: 1.5;" width="162" x="1236" y="193"/><ellipse cx="1264.05" cy="209" fill="#ADD1B2" rx="11" ry="11" style="stroke: #A80036; stroke-width: 1.0;"/><path d="M1267.0188,214.6406 Q1266.4406,214.9375 1265.8,215.0781 Q1265.1594,215.2344 1264.4563,215.2344 Q1261.9563,215.2344 1260.6281,213.5938 Q1259.3156,211.9375 1259.3156,208.8125 Q1259.3156,205.6875 1260.6281,204.0313 Q1261.9563,202.375 1264.4563,202.375 Q1265.1594,202.375 1265.8,202.5313 Q1266.4563,202.6875 1267.0188,202.9844 L1267.0188,205.7031 Q1266.3938,205.125 1265.8,204.8594 Q1265.2063,204.5781 1264.5813,204.5781 Q1263.2375,204.5781 1262.55,205.6563 Q1261.8625,206.7188 1261.8625,208.8125 Q1261.8625,210.9063 1262.55,211.9844 Q1263.2375,213.0469 1264.5813,213.0469 Q1265.2063,213.0469 1265.8,212.7813 Q1266.3938,212.5 1267.0188,211.9219 L1267.0188,214.6406 Z "/><text fill="#000000" font-family="sans-serif" font-size="12" lengthAdjust="spacingAndGlyphs" textLength="101" x="1280.95" y="213.1543">AiStateCopulate</text><line style="stroke: #A80036; stroke-width: 1.5;" x1="1237" x2="1397" y1="225" y2="225"/><rect fill="none" height="6" style="stroke: #C82930; stroke-width: 1.0;" width="6" x="1244" y="233"/><text fill="#000000" font-family="sans-serif" font-size="11" lengthAdjust="spacingAndGlyphs" textLength="84" x="1256" y="239.2104">animal: Animal</text><rect fill="none" height="6" style="stroke: #C82930; stroke-width: 1.0;" width="6" x="1244" y="245.8047"/><text fill="#000000" font-family="sans-serif" font-size="11" lengthAdjust="spacingAndGlyphs" textLength="75" x="1256" y="252.0151">mate: Animal</text><line style="stroke: #A80036; stroke-width: 1.5;" x1="1237" x2="1397" y1="258.6094" y2="258.6094"/><ellipse cx="1247" cy="269.6094" fill="#84BE84" rx="3" ry="3" style="stroke: #038048; stroke-width: 1.0;"/><text fill="#000000" font-family="sans-serif" font-size="11" lengthAdjust="spacingAndGlyphs" textLength="136" x="1256" y="272.8198">AiStateCopulate(Animal)</text><ellipse cx="1247" cy="282.4141" fill="#84BE84" rx="3" ry="3" style="stroke: #038048; stroke-width: 1.0;"/><text fill="#000000" font-family="sans-serif" font-size="11" lengthAdjust="spacingAndGlyphs" textLength="98" x="1256" y="285.6245">update(): IAiState</text></a><!--MD5=[24be54786d3ad3ff38e49f9b8c481d90]
reverse link pwr.sim.animal.ai.state.IAiState to pwr.sim.animal.ai.state.AiStateEatCorpse--><path d="M650.48,106.62 C547.88,119.56 372.55,146.47 228,193 C221.93,194.95 215.75,197.18 209.59,199.57 " fill="none" id="pwr.sim.animal.ai.state.IAiState&lt;-pwr.sim.animal.ai.state.AiStateEatCorpse" style="stroke: #A80036; stroke-width: 1.0; stroke-dasharray: 7.0,7.0;"/><polygon fill="none" points="649.91,99.64,670.61,104.15,651.62,113.54,649.91,99.64" style="stroke: #A80036; stroke-width: 1.0;"/><!--MD5=[174119230dd55305b2c26203f87b3b2f]
reverse link pwr.sim.animal.ai.state.IAiState to pwr.sim.animal.ai.state.AiStateEatPlant--><path d="M651.31,118.82 C586.97,136.21 497.22,162.62 421,193 C415.14,195.34 409.15,197.89 403.17,200.57 " fill="none" id="pwr.sim.animal.ai.state.IAiState&lt;-pwr.sim.animal.ai.state.AiStateEatPlant" style="stroke: #A80036; stroke-width: 1.0; stroke-dasharray: 7.0,7.0;"/><polygon fill="none" points="649.71,112,670.83,113.61,653.32,125.53,649.71,112" style="stroke: #A80036; stroke-width: 1.0;"/><!--MD5=[e5367ba7475febf9c82c4f6453c3ad44]
reverse link pwr.sim.animal.ai.state.IAiState to pwr.sim.animal.ai.state.AiStateEvade--><path d="M669.89,144.77 C648.22,160.19 624.18,177.31 602.42,192.8 " fill="none" id="pwr.sim.animal.ai.state.IAiState&lt;-pwr.sim.animal.ai.state.AiStateEvade" style="stroke: #A80036; stroke-width: 1.0; stroke-dasharray: 7.0,7.0;"/><polygon fill="none" points="665.95,138.99,686.3,133.09,674.06,150.39,665.95,138.99" style="stroke: #A80036; stroke-width: 1.0;"/><!--MD5=[e592b11b2e4325c24b9ab7df11589baa]
reverse link pwr.sim.animal.ai.state.IAiState to pwr.sim.animal.ai.state.AiStateSleep--><path d="M737,153.18 C737,168.58 737,185.01 737,199.47 " fill="none" id="pwr.sim.animal.ai.state.IAiState&lt;-pwr.sim.animal.ai.state.AiStateSleep" style="stroke: #A80036; stroke-width: 1.0; stroke-dasharray: 7.0,7.0;"/><polygon fill="none" points="730,153.09,737,133.09,744,153.09,730,153.09" style="stroke: #A80036; stroke-width: 1.0;"/><!--MD5=[29c8f476f0695d5effd0b4dd77c410e4]
reverse link pwr.sim.animal.ai.state.IAiState to pwr.sim.animal.ai.state.AiStateLookForFood--><path d="M803.1,145 C824.26,160.36 847.7,177.38 868.93,192.8 " fill="none" id="pwr.sim.animal.ai.state.IAiState&lt;-pwr.sim.animal.ai.state.AiStateLookForFood" style="stroke: #A80036; stroke-width: 1.0; stroke-dasharray: 7.0,7.0;"/><polygon fill="none" points="798.77,150.51,786.7,133.09,807,139.18,798.77,150.51" style="stroke: #A80036; stroke-width: 1.0;"/><!--MD5=[4afa87c970f83683a30a40436ddf9837]
reverse link pwr.sim.animal.ai.state.IAiState to pwr.sim.animal.ai.state.AiStateHunt--><path d="M822.5,118.54 C885.27,135.57 971.97,161.66 1045,193 C1050.88,195.52 1056.88,198.33 1062.84,201.29 " fill="none" id="pwr.sim.animal.ai.state.IAiState&lt;-pwr.sim.animal.ai.state.AiStateHunt" style="stroke: #A80036; stroke-width: 1.0; stroke-dasharray: 7.0,7.0;"/><polygon fill="none" points="820.52,125.25,803,113.33,824.13,111.73,820.52,125.25" style="stroke: #A80036; stroke-width: 1.0;"/><!--MD5=[733dfd892e0ff27a6477abb609519e98]
reverse link pwr.sim.animal.ai.state.IAiState to pwr.sim.animal.ai.state.AiStateCopulate--><path d="M822.97,107.18 C920.79,120.34 1084.39,147.18 1219,193 C1224.57,194.9 1230.23,197.04 1235.87,199.36 " fill="none" id="pwr.sim.animal.ai.state.IAiState&lt;-pwr.sim.animal.ai.state.AiStateCopulate" style="stroke: #A80036; stroke-width: 1.0; stroke-dasharray: 7.0,7.0;"/><polygon fill="none" points="822.06,114.12,803.14,104.57,823.88,100.24,822.06,114.12" style="stroke: #A80036; stroke-width: 1.0;"/><text fill="#888888" font-family="sans-serif" font-size="10" lengthAdjust="spacingAndGlyphs" textLength="186" x="631" y="343.2822">UMLDoclet 2.0.9, PlantUML 1.2020.08</text><!--MD5=[c43077a41b923b70ad3e3157844cc770]
@startuml
    namespace pwr.sim.animal.ai.state {

        class AiStateEatCorpse [[AiStateEatCorpse.html]] {
            -animal: Animal
            +AiStateEatCorpse(Animal)
            +update(): IAiState
        }

        class AiStateEatPlant [[AiStateEatPlant.html]] {
            -animal: Animal
            +AiStateEatPlant(Animal)
            +update(): IAiState
        }

        interface IAiState [[IAiState.html]] {
            {abstract} +update(): IAiState
            +debugInfo(): String
        }

        class AiStateEvade [[AiStateEvade.html]] {
            -animal: Animal
            -predator: Animal
            +AiStateEvade(Animal, Animal)
            +update(): IAiState
        }

        class AiStateSleep [[AiStateSleep.html]] {
            -animal: Animal
            +AiStateSleep(Animal)
            +update(): IAiState
        }

        class AiStateLookForFood [[AiStateLookForFood.html]] {
            -animal: Animal
            -destination: Position2D
            +AiStateLookForFood(Animal)
            +update(): IAiState
        }

        class AiStateHunt [[AiStateHunt.html]] {
            -animal: Animal
            -prey: Animal
            +AiStateHunt(Animal)
            +update(): IAiState
        }

        class AiStateCopulate [[AiStateCopulate.html]] {
            -animal: Animal
            -mate: Animal
            +AiStateCopulate(Animal)
            +update(): IAiState
        }

        IAiState <|.. AiStateEatCorpse
        IAiState <|.. AiStateEatPlant
        IAiState <|.. AiStateEvade
        IAiState <|.. AiStateSleep
        IAiState <|.. AiStateLookForFood
        IAiState <|.. AiStateHunt
        IAiState <|.. AiStateCopulate
    }

    center footer UMLDoclet 2.0.9, PlantUML 1.2020.08
@enduml

PlantUML version 1.2020.08(Sun Apr 26 16:08:22 CEST 2020)
(APACHE source distribution)
Java Runtime: OpenJDK Runtime Environment
JVM: OpenJDK 64-Bit Server VM
Java Version: 11.0.7+10-post-Ubuntu-3ubuntu1
Operating System: Linux
Default Encoding: UTF-8
Language: en
Country: GB
--></g></svg>