<?xml version="1.0" encoding="UTF-8" standalone="no"?><svg xmlns="http://www.w3.org/2000/svg" xmlns:xlink="http://www.w3.org/1999/xlink" contentScriptType="application/ecmascript" contentStyleType="text/css" height="251px" preserveAspectRatio="none" style="width:202px;height:251px;" version="1.1" viewBox="0 0 202 251" width="202px" zoomAndPan="magnify"><defs><filter height="300%" id="f1pov7c4zqh0n5" width="300%" x="-1" y="-1"><feGaussianBlur result="blurOut" stdDeviation="2.0"/><feColorMatrix in="blurOut" result="blurOut2" type="matrix" values="0 0 0 0 0 0 0 0 0 0 0 0 0 0 0 0 0 0 .4 0"/><feOffset dx="4.0" dy="4.0" in="blurOut2" result="blurOut3"/><feBlend in="SourceGraphic" in2="blurOut3" mode="normal"/></filter></defs><g><!--MD5=[08aadd0f49c91bafe227b24a75895544]
class pwr.sim.animal.ai.state.AiStateEatCorpse--><a href="AiStateEatCorpse.html" target="_top" title="AiStateEatCorpse.html" xlink:actuate="onRequest" xlink:href="AiStateEatCorpse.html" xlink:show="new" xlink:title="AiStateEatCorpse.html" xlink:type="simple"><rect fill="#FEFECE" filter="url(#f1pov7c4zqh0n5)" height="92.3516" id="pwr.sim.animal.ai.state.AiStateEatCorpse" style="stroke: #A80036; stroke-width: 1.5;" width="171" x="6" y="127"/><ellipse cx="29.55" cy="145.9688" fill="#ADD1B2" rx="11" ry="11" style="stroke: #A80036; stroke-width: 1.0;"/><path d="M32.5188,151.6094 Q31.9406,151.9063 31.3,152.0469 Q30.6594,152.2031 29.9563,152.2031 Q27.4563,152.2031 26.1281,150.5625 Q24.8156,148.9063 24.8156,145.7813 Q24.8156,142.6563 26.1281,141 Q27.4563,139.3438 29.9563,139.3438 Q30.6594,139.3438 31.3,139.5 Q31.9563,139.6563 32.5188,139.9531 L32.5188,142.6719 Q31.8938,142.0938 31.3,141.8281 Q30.7063,141.5469 30.0813,141.5469 Q28.7375,141.5469 28.05,142.625 Q27.3625,143.6875 27.3625,145.7813 Q27.3625,147.875 28.05,148.9531 Q28.7375,150.0156 30.0813,150.0156 Q30.7063,150.0156 31.3,149.75 Q31.8938,149.4688 32.5188,148.8906 L32.5188,151.6094 Z "/><text fill="#000000" font-family="sans-serif" font-size="14" lengthAdjust="spacingAndGlyphs" textLength="120" x="45.45" y="144.9951">AiStateEatCorpse</text><text fill="#000000" font-family="sans-serif" font-size="10" lengthAdjust="spacingAndGlyphs" textLength="112" x="49.45" y="157.5791">pwr.sim.animal.ai.state</text><line style="stroke: #A80036; stroke-width: 1.5;" x1="7" x2="176" y1="164.9375" y2="164.9375"/><rect fill="none" height="6" style="stroke: #C82930; stroke-width: 1.0;" width="6" x="14" y="172.9375"/><text fill="#000000" font-family="sans-serif" font-size="11" lengthAdjust="spacingAndGlyphs" textLength="84" x="26" y="179.1479">animal: Animal</text><line style="stroke: #A80036; stroke-width: 1.5;" x1="7" x2="176" y1="185.7422" y2="185.7422"/><ellipse cx="17" cy="196.7422" fill="#84BE84" rx="3" ry="3" style="stroke: #038048; stroke-width: 1.0;"/><text fill="#000000" font-family="sans-serif" font-size="11" lengthAdjust="spacingAndGlyphs" textLength="145" x="26" y="199.9526">AiStateEatCorpse(Animal)</text><ellipse cx="17" cy="209.5469" fill="#84BE84" rx="3" ry="3" style="stroke: #038048; stroke-width: 1.0;"/><text fill="#000000" font-family="sans-serif" font-size="11" lengthAdjust="spacingAndGlyphs" textLength="98" x="26" y="212.7573">update(): IAiState</text></a><!--MD5=[af772f8550f9215bd32b0d137f557a72]
class pwr.sim.animal.ai.state.IAiState--><a href="IAiState.html" target="_top" title="IAiState.html" xlink:actuate="onRequest" xlink:href="IAiState.html" xlink:show="new" xlink:title="IAiState.html" xlink:type="simple"><rect fill="#FEFECE" filter="url(#f1pov7c4zqh0n5)" height="58.7422" id="pwr.sim.animal.ai.state.IAiState" style="stroke: #A80036; stroke-width: 1.5;" width="148" x="17.5" y="8"/><ellipse cx="32.5" cy="26.9688" fill="#B4A7E5" rx="11" ry="11" style="stroke: #A80036; stroke-width: 1.0;"/><path d="M28.4219,22.7344 L28.4219,20.5781 L35.8125,20.5781 L35.8125,22.7344 L33.3438,22.7344 L33.3438,30.8125 L35.8125,30.8125 L35.8125,32.9688 L28.4219,32.9688 L28.4219,30.8125 L30.8906,30.8125 L30.8906,22.7344 L28.4219,22.7344 Z "/><text fill="#000000" font-family="sans-serif" font-size="14" font-style="italic" lengthAdjust="spacingAndGlyphs" textLength="53" x="78" y="25.9951">IAiState</text><text fill="#000000" font-family="sans-serif" font-size="10" font-style="italic" lengthAdjust="spacingAndGlyphs" textLength="116" x="46.5" y="38.5791">pwr.sim.animal.ai.state</text><line style="stroke: #A80036; stroke-width: 1.5;" x1="18.5" x2="164.5" y1="45.9375" y2="45.9375"/><ellipse cx="28.5" cy="56.9375" fill="#84BE84" rx="3" ry="3" style="stroke: #038048; stroke-width: 1.0;"/><text fill="#000000" font-family="sans-serif" font-size="11" font-style="italic" lengthAdjust="spacingAndGlyphs" textLength="98" x="37.5" y="60.1479">update(): IAiState</text></a><!--MD5=[24be54786d3ad3ff38e49f9b8c481d90]
reverse link pwr.sim.animal.ai.state.IAiState to pwr.sim.animal.ai.state.AiStateEatCorpse--><path d="M91.5,87.53 C91.5,100.4 91.5,114.21 91.5,126.86 " fill="none" id="pwr.sim.animal.ai.state.IAiState&lt;-pwr.sim.animal.ai.state.AiStateEatCorpse" style="stroke: #A80036; stroke-width: 1.0; stroke-dasharray: 7.0,7.0;"/><polygon fill="none" points="84.5,87.14,91.5,67.14,98.5,87.14,84.5,87.14" style="stroke: #A80036; stroke-width: 1.0;"/><text fill="#888888" font-family="sans-serif" font-size="10" lengthAdjust="spacingAndGlyphs" textLength="186" x="4.5" y="238.2822">UMLDoclet 2.0.9, PlantUML 1.2020.08</text><!--MD5=[90622549e4494201cbc68ade9a3fa41b]
@startuml
    set namespaceSeparator none
    hide empty fields
    hide empty methods

    class "<size:14>AiStateEatCorpse\n<size:10>pwr.sim.animal.ai.state" as pwr.sim.animal.ai.state.AiStateEatCorpse [[AiStateEatCorpse.html]] {
        -animal: Animal
        +AiStateEatCorpse(Animal)
        +update(): IAiState
    }

    interface "<size:14>IAiState\n<size:10>pwr.sim.animal.ai.state" as pwr.sim.animal.ai.state.IAiState [[IAiState.html]] {
        {abstract} +update(): IAiState
    }

    pwr.sim.animal.ai.state.IAiState <|.. pwr.sim.animal.ai.state.AiStateEatCorpse

    center footer UMLDoclet 2.0.9, PlantUML 1.2020.08
@enduml

PlantUML version 1.2020.08(Sun Apr 26 16:08:22 CEST 2020)
(APACHE source distribution)
Java Runtime: OpenJDK Runtime Environment
JVM: OpenJDK 64-Bit Server VM
Java Version: 11.0.7+10-post-Ubuntu-3ubuntu1
Operating System: Linux
Default Encoding: UTF-8
Language: en
Country: GB
--></g></svg>