<?xml version="1.0" encoding="UTF-8" standalone="no"?><svg xmlns="http://www.w3.org/2000/svg" xmlns:xlink="http://www.w3.org/1999/xlink" contentScriptType="application/ecmascript" contentStyleType="text/css" height="251px" preserveAspectRatio="none" style="width:213px;height:251px;" version="1.1" viewBox="0 0 213 251" width="213px" zoomAndPan="magnify"><defs><filter height="300%" id="ftyp1btal7d6t" width="300%" x="-1" y="-1"><feGaussianBlur result="blurOut" stdDeviation="2.0"/><feColorMatrix in="blurOut" result="blurOut2" type="matrix" values="0 0 0 0 0 0 0 0 0 0 0 0 0 0 0 0 0 0 .4 0"/><feOffset dx="4.0" dy="4.0" in="blurOut2" result="blurOut3"/><feBlend in="SourceGraphic" in2="blurOut3" mode="normal"/></filter></defs><g><!--MD5=[358f9708588ba58a7609f627838ff4a4]
class pwr.sim.animal.ai.state.AiStateSleepPredator--><a href="AiStateSleepPredator.html" target="_top" title="AiStateSleepPredator.html" xlink:actuate="onRequest" xlink:href="AiStateSleepPredator.html" xlink:show="new" xlink:title="AiStateSleepPredator.html" xlink:type="simple"><rect fill="#FEFECE" filter="url(#ftyp1btal7d6t)" height="92.3516" id="pwr.sim.animal.ai.state.AiStateSleepPredator" style="stroke: #A80036; stroke-width: 1.5;" width="193" x="6" y="127"/><ellipse cx="27.75" cy="145.9688" fill="#ADD1B2" rx="11" ry="11" style="stroke: #A80036; stroke-width: 1.0;"/><path d="M30.7188,151.6094 Q30.1406,151.9063 29.5,152.0469 Q28.8594,152.2031 28.1563,152.2031 Q25.6563,152.2031 24.3281,150.5625 Q23.0156,148.9063 23.0156,145.7813 Q23.0156,142.6563 24.3281,141 Q25.6563,139.3438 28.1563,139.3438 Q28.8594,139.3438 29.5,139.5 Q30.1563,139.6563 30.7188,139.9531 L30.7188,142.6719 Q30.0938,142.0938 29.5,141.8281 Q28.9063,141.5469 28.2813,141.5469 Q26.9375,141.5469 26.25,142.625 Q25.5625,143.6875 25.5625,145.7813 Q25.5625,147.875 26.25,148.9531 Q26.9375,150.0156 28.2813,150.0156 Q28.9063,150.0156 29.5,149.75 Q30.0938,149.4688 30.7188,148.8906 L30.7188,151.6094 Z "/><text fill="#000000" font-family="sans-serif" font-size="14" lengthAdjust="spacingAndGlyphs" textLength="146" x="43.25" y="144.9951">AiStateSleepPredator</text><text fill="#000000" font-family="sans-serif" font-size="10" lengthAdjust="spacingAndGlyphs" textLength="112" x="60.25" y="157.5791">pwr.sim.animal.ai.state</text><line style="stroke: #A80036; stroke-width: 1.5;" x1="7" x2="198" y1="164.9375" y2="164.9375"/><rect fill="none" height="6" style="stroke: #C82930; stroke-width: 1.0;" width="6" x="14" y="172.9375"/><text fill="#000000" font-family="sans-serif" font-size="11" lengthAdjust="spacingAndGlyphs" textLength="84" x="26" y="179.1479">animal: Animal</text><line style="stroke: #A80036; stroke-width: 1.5;" x1="7" x2="198" y1="185.7422" y2="185.7422"/><ellipse cx="17" cy="196.7422" fill="#84BE84" rx="3" ry="3" style="stroke: #038048; stroke-width: 1.0;"/><text fill="#000000" font-family="sans-serif" font-size="11" lengthAdjust="spacingAndGlyphs" textLength="167" x="26" y="199.9526">AiStateSleepPredator(Animal)</text><ellipse cx="17" cy="209.5469" fill="#84BE84" rx="3" ry="3" style="stroke: #038048; stroke-width: 1.0;"/><text fill="#000000" font-family="sans-serif" font-size="11" lengthAdjust="spacingAndGlyphs" textLength="98" x="26" y="212.7573">update(): IAiState</text></a><!--MD5=[af772f8550f9215bd32b0d137f557a72]
class pwr.sim.animal.ai.state.IAiState--><a href="IAiState.html" target="_top" title="IAiState.html" xlink:actuate="onRequest" xlink:href="IAiState.html" xlink:show="new" xlink:title="IAiState.html" xlink:type="simple"><rect fill="#FEFECE" filter="url(#ftyp1btal7d6t)" height="58.7422" id="pwr.sim.animal.ai.state.IAiState" style="stroke: #A80036; stroke-width: 1.5;" width="148" x="28.5" y="8"/><ellipse cx="43.5" cy="26.9688" fill="#B4A7E5" rx="11" ry="11" style="stroke: #A80036; stroke-width: 1.0;"/><path d="M39.4219,22.7344 L39.4219,20.5781 L46.8125,20.5781 L46.8125,22.7344 L44.3438,22.7344 L44.3438,30.8125 L46.8125,30.8125 L46.8125,32.9688 L39.4219,32.9688 L39.4219,30.8125 L41.8906,30.8125 L41.8906,22.7344 L39.4219,22.7344 Z "/><text fill="#000000" font-family="sans-serif" font-size="14" font-style="italic" lengthAdjust="spacingAndGlyphs" textLength="53" x="89" y="25.9951">IAiState</text><text fill="#000000" font-family="sans-serif" font-size="10" font-style="italic" lengthAdjust="spacingAndGlyphs" textLength="116" x="57.5" y="38.5791">pwr.sim.animal.ai.state</text><line style="stroke: #A80036; stroke-width: 1.5;" x1="29.5" x2="175.5" y1="45.9375" y2="45.9375"/><ellipse cx="39.5" cy="56.9375" fill="#84BE84" rx="3" ry="3" style="stroke: #038048; stroke-width: 1.0;"/><text fill="#000000" font-family="sans-serif" font-size="11" font-style="italic" lengthAdjust="spacingAndGlyphs" textLength="98" x="48.5" y="60.1479">update(): IAiState</text></a><!--MD5=[a418f117811f0805cf5df0dcd5a97c3b]
reverse link pwr.sim.animal.ai.state.IAiState to pwr.sim.animal.ai.state.AiStateSleepPredator--><path d="M102.5,87.53 C102.5,100.4 102.5,114.21 102.5,126.86 " fill="none" id="pwr.sim.animal.ai.state.IAiState&lt;-pwr.sim.animal.ai.state.AiStateSleepPredator" style="stroke: #A80036; stroke-width: 1.0; stroke-dasharray: 7.0,7.0;"/><polygon fill="none" points="95.5,87.14,102.5,67.14,109.5,87.14,95.5,87.14" style="stroke: #A80036; stroke-width: 1.0;"/><text fill="#888888" font-family="sans-serif" font-size="10" lengthAdjust="spacingAndGlyphs" textLength="186" x="15.5" y="238.2822">UMLDoclet 2.0.9, PlantUML 1.2020.08</text><!--MD5=[9dd96f417c7e87bf970aa30929f6e9b1]
@startuml
    set namespaceSeparator none
    hide empty fields
    hide empty methods

    class "<size:14>AiStateSleepPredator\n<size:10>pwr.sim.animal.ai.state" as pwr.sim.animal.ai.state.AiStateSleepPredator [[AiStateSleepPredator.html]] {
        -animal: Animal
        +AiStateSleepPredator(Animal)
        +update(): IAiState
    }

    interface "<size:14>IAiState\n<size:10>pwr.sim.animal.ai.state" as pwr.sim.animal.ai.state.IAiState [[IAiState.html]] {
        {abstract} +update(): IAiState
    }

    pwr.sim.animal.ai.state.IAiState <|.. pwr.sim.animal.ai.state.AiStateSleepPredator

    center footer UMLDoclet 2.0.9, PlantUML 1.2020.08
@enduml

PlantUML version 1.2020.08(Sun Apr 26 16:08:22 CEST 2020)
(APACHE source distribution)
Java Runtime: OpenJDK Runtime Environment
JVM: OpenJDK 64-Bit Server VM
Java Version: 11.0.7+10-post-Ubuntu-3ubuntu1
Operating System: Linux
Default Encoding: UTF-8
Language: en
Country: GB
--></g></svg>