<?xml version="1.0" encoding="UTF-8" standalone="no"?><svg xmlns="http://www.w3.org/2000/svg" xmlns:xlink="http://www.w3.org/1999/xlink" contentScriptType="application/ecmascript" contentStyleType="text/css" height="264px" preserveAspectRatio="none" style="width:208px;height:264px;" version="1.1" viewBox="0 0 208 264" width="208px" zoomAndPan="magnify"><defs><filter height="300%" id="f1474gcp2xpx56" width="300%" x="-1" y="-1"><feGaussianBlur result="blurOut" stdDeviation="2.0"/><feColorMatrix in="blurOut" result="blurOut2" type="matrix" values="0 0 0 0 0 0 0 0 0 0 0 0 0 0 0 0 0 0 .4 0"/><feOffset dx="4.0" dy="4.0" in="blurOut2" result="blurOut3"/><feBlend in="SourceGraphic" in2="blurOut3" mode="normal"/></filter></defs><g><!--MD5=[40300abaaeb8bc98273b3cd335c7cf0b]
class pwr.sim.animal.ai.state.AiStateLookForFood--><a href="AiStateLookForFood.html" target="_top" title="AiStateLookForFood.html" xlink:actuate="onRequest" xlink:href="AiStateLookForFood.html" xlink:show="new" xlink:title="AiStateLookForFood.html" xlink:type="simple"><rect fill="#FEFECE" filter="url(#f1474gcp2xpx56)" height="105.1563" id="pwr.sim.animal.ai.state.AiStateLookForFood" style="stroke: #A80036; stroke-width: 1.5;" width="183" x="6" y="127"/><ellipse cx="26.85" cy="145.9688" fill="#ADD1B2" rx="11" ry="11" style="stroke: #A80036; stroke-width: 1.0;"/><path d="M29.8188,151.6094 Q29.2406,151.9063 28.6,152.0469 Q27.9594,152.2031 27.2563,152.2031 Q24.7563,152.2031 23.4281,150.5625 Q22.1156,148.9063 22.1156,145.7813 Q22.1156,142.6563 23.4281,141 Q24.7563,139.3438 27.2563,139.3438 Q27.9594,139.3438 28.6,139.5 Q29.2563,139.6563 29.8188,139.9531 L29.8188,142.6719 Q29.1938,142.0938 28.6,141.8281 Q28.0063,141.5469 27.3813,141.5469 Q26.0375,141.5469 25.35,142.625 Q24.6625,143.6875 24.6625,145.7813 Q24.6625,147.875 25.35,148.9531 Q26.0375,150.0156 27.3813,150.0156 Q28.0063,150.0156 28.6,149.75 Q29.1938,149.4688 29.8188,148.8906 L29.8188,151.6094 Z "/><text fill="#000000" font-family="sans-serif" font-size="14" lengthAdjust="spacingAndGlyphs" textLength="138" x="42.15" y="144.9951">AiStateLookForFood</text><text fill="#000000" font-family="sans-serif" font-size="10" lengthAdjust="spacingAndGlyphs" textLength="112" x="55.15" y="157.5791">pwr.sim.animal.ai.state</text><line style="stroke: #A80036; stroke-width: 1.5;" x1="7" x2="188" y1="164.9375" y2="164.9375"/><rect fill="none" height="6" style="stroke: #C82930; stroke-width: 1.0;" width="6" x="14" y="172.9375"/><text fill="#000000" font-family="sans-serif" font-size="11" lengthAdjust="spacingAndGlyphs" textLength="84" x="26" y="179.1479">animal: Animal</text><rect fill="none" height="6" style="stroke: #C82930; stroke-width: 1.0;" width="6" x="14" y="185.7422"/><text fill="#000000" font-family="sans-serif" font-size="11" lengthAdjust="spacingAndGlyphs" textLength="131" x="26" y="191.9526">destination: Position2D</text><line style="stroke: #A80036; stroke-width: 1.5;" x1="7" x2="188" y1="198.5469" y2="198.5469"/><ellipse cx="17" cy="209.5469" fill="#84BE84" rx="3" ry="3" style="stroke: #038048; stroke-width: 1.0;"/><text fill="#000000" font-family="sans-serif" font-size="11" lengthAdjust="spacingAndGlyphs" textLength="157" x="26" y="212.7573">AiStateLookForFood(Animal)</text><ellipse cx="17" cy="222.3516" fill="#84BE84" rx="3" ry="3" style="stroke: #038048; stroke-width: 1.0;"/><text fill="#000000" font-family="sans-serif" font-size="11" lengthAdjust="spacingAndGlyphs" textLength="98" x="26" y="225.562">update(): IAiState</text></a><!--MD5=[af772f8550f9215bd32b0d137f557a72]
class pwr.sim.animal.ai.state.IAiState--><a href="IAiState.html" target="_top" title="IAiState.html" xlink:actuate="onRequest" xlink:href="IAiState.html" xlink:show="new" xlink:title="IAiState.html" xlink:type="simple"><rect fill="#FEFECE" filter="url(#f1474gcp2xpx56)" height="58.7422" id="pwr.sim.animal.ai.state.IAiState" style="stroke: #A80036; stroke-width: 1.5;" width="148" x="23.5" y="8"/><ellipse cx="38.5" cy="26.9688" fill="#B4A7E5" rx="11" ry="11" style="stroke: #A80036; stroke-width: 1.0;"/><path d="M34.4219,22.7344 L34.4219,20.5781 L41.8125,20.5781 L41.8125,22.7344 L39.3438,22.7344 L39.3438,30.8125 L41.8125,30.8125 L41.8125,32.9688 L34.4219,32.9688 L34.4219,30.8125 L36.8906,30.8125 L36.8906,22.7344 L34.4219,22.7344 Z "/><text fill="#000000" font-family="sans-serif" font-size="14" font-style="italic" lengthAdjust="spacingAndGlyphs" textLength="53" x="84" y="25.9951">IAiState</text><text fill="#000000" font-family="sans-serif" font-size="10" font-style="italic" lengthAdjust="spacingAndGlyphs" textLength="116" x="52.5" y="38.5791">pwr.sim.animal.ai.state</text><line style="stroke: #A80036; stroke-width: 1.5;" x1="24.5" x2="170.5" y1="45.9375" y2="45.9375"/><ellipse cx="34.5" cy="56.9375" fill="#84BE84" rx="3" ry="3" style="stroke: #038048; stroke-width: 1.0;"/><text fill="#000000" font-family="sans-serif" font-size="11" font-style="italic" lengthAdjust="spacingAndGlyphs" textLength="98" x="43.5" y="60.1479">update(): IAiState</text></a><!--MD5=[29c8f476f0695d5effd0b4dd77c410e4]
reverse link pwr.sim.animal.ai.state.IAiState to pwr.sim.animal.ai.state.AiStateLookForFood--><path d="M97.5,87.38 C97.5,100.17 97.5,114.01 97.5,126.94 " fill="none" id="pwr.sim.animal.ai.state.IAiState&lt;-pwr.sim.animal.ai.state.AiStateLookForFood" style="stroke: #A80036; stroke-width: 1.0; stroke-dasharray: 7.0,7.0;"/><polygon fill="none" points="90.5,87.17,97.5,67.17,104.5,87.17,90.5,87.17" style="stroke: #A80036; stroke-width: 1.0;"/><text fill="#888888" font-family="sans-serif" font-size="10" lengthAdjust="spacingAndGlyphs" textLength="186" x="10.5" y="251.2822">UMLDoclet 2.0.9, PlantUML 1.2020.08</text><!--MD5=[d7648b05aaa8563c6d2c7248103b874f]
@startuml
    set namespaceSeparator none
    hide empty fields
    hide empty methods

    class "<size:14>AiStateLookForFood\n<size:10>pwr.sim.animal.ai.state" as pwr.sim.animal.ai.state.AiStateLookForFood [[AiStateLookForFood.html]] {
        -animal: Animal
        -destination: Position2D
        +AiStateLookForFood(Animal)
        +update(): IAiState
    }

    interface "<size:14>IAiState\n<size:10>pwr.sim.animal.ai.state" as pwr.sim.animal.ai.state.IAiState [[IAiState.html]] {
        {abstract} +update(): IAiState
    }

    pwr.sim.animal.ai.state.IAiState <|.. pwr.sim.animal.ai.state.AiStateLookForFood

    center footer UMLDoclet 2.0.9, PlantUML 1.2020.08
@enduml

PlantUML version 1.2020.08(Sun Apr 26 16:08:22 CEST 2020)
(APACHE source distribution)
Java Runtime: OpenJDK Runtime Environment
JVM: OpenJDK 64-Bit Server VM
Java Version: 11.0.7+10-post-Ubuntu-3ubuntu1
Operating System: Linux
Default Encoding: UTF-8
Language: en
Country: GB
--></g></svg>