<?xml version="1.0" encoding="UTF-8" standalone="no"?><svg xmlns="http://www.w3.org/2000/svg" xmlns:xlink="http://www.w3.org/1999/xlink" contentScriptType="application/ecmascript" contentStyleType="text/css" height="273px" preserveAspectRatio="none" style="width:1009px;height:273px;" version="1.1" viewBox="0 0 1009 273" width="1009px" zoomAndPan="magnify"><defs><filter height="300%" id="f1otuillkd32e0" width="300%" x="-1" y="-1"><feGaussianBlur result="blurOut" stdDeviation="2.0"/><feColorMatrix in="blurOut" result="blurOut2" type="matrix" values="0 0 0 0 0 0 0 0 0 0 0 0 0 0 0 0 0 0 .4 0"/><feOffset dx="4.0" dy="4.0" in="blurOut2" result="blurOut3"/><feBlend in="SourceGraphic" in2="blurOut3" mode="normal"/></filter></defs><g><!--MD5=[7eeeb206a6d334978b95fb0cfc669640]
cluster pwr.sim.animal.ai.state--><polygon fill="#FFFFFF" filter="url(#f1otuillkd32e0)" points="14,16,201,16,208,38.2969,987,38.2969,987,233,14,233,14,16" style="stroke: #000000; stroke-width: 1.5;"/><line style="stroke: #000000; stroke-width: 1.5;" x1="14" x2="208" y1="38.2969" y2="38.2969"/><text fill="#000000" font-family="sans-serif" font-size="14" font-weight="bold" lengthAdjust="spacingAndGlyphs" textLength="181" x="18" y="30.9951">pwr.sim.animal.ai.state</text><!--MD5=[08aadd0f49c91bafe227b24a75895544]
class pwr.sim.animal.ai.state.AiStateEatCorpse--><a href="AiStateEatCorpse.html" target="_top" title="AiStateEatCorpse.html" xlink:actuate="onRequest" xlink:href="AiStateEatCorpse.html" xlink:show="new" xlink:title="AiStateEatCorpse.html" xlink:type="simple"><rect fill="#FEFECE" filter="url(#f1otuillkd32e0)" height="60.8047" id="pwr.sim.animal.ai.state.AiStateEatCorpse" style="stroke: #A80036; stroke-width: 1.5;" width="142" x="22" y="164"/><ellipse cx="37" cy="180" fill="#ADD1B2" rx="11" ry="11" style="stroke: #A80036; stroke-width: 1.0;"/><path d="M39.9688,185.6406 Q39.3906,185.9375 38.75,186.0781 Q38.1094,186.2344 37.4063,186.2344 Q34.9063,186.2344 33.5781,184.5938 Q32.2656,182.9375 32.2656,179.8125 Q32.2656,176.6875 33.5781,175.0313 Q34.9063,173.375 37.4063,173.375 Q38.1094,173.375 38.75,173.5313 Q39.4063,173.6875 39.9688,173.9844 L39.9688,176.7031 Q39.3438,176.125 38.75,175.8594 Q38.1563,175.5781 37.5313,175.5781 Q36.1875,175.5781 35.5,176.6563 Q34.8125,177.7188 34.8125,179.8125 Q34.8125,181.9063 35.5,182.9844 Q36.1875,184.0469 37.5313,184.0469 Q38.1563,184.0469 38.75,183.7813 Q39.3438,183.5 39.9688,182.9219 L39.9688,185.6406 Z "/><text fill="#000000" font-family="sans-serif" font-size="12" lengthAdjust="spacingAndGlyphs" textLength="110" x="51" y="184.1543">AiStateEatCorpse</text><line style="stroke: #A80036; stroke-width: 1.5;" x1="23" x2="163" y1="196" y2="196"/><line style="stroke: #A80036; stroke-width: 1.5;" x1="23" x2="163" y1="204" y2="204"/><ellipse cx="33" cy="215" fill="#84BE84" rx="3" ry="3" style="stroke: #038048; stroke-width: 1.0;"/><text fill="#000000" font-family="sans-serif" font-size="11" lengthAdjust="spacingAndGlyphs" textLength="78" x="42" y="218.2104">update(): void</text></a><!--MD5=[c59dbee51b91129f0f8245b72bd2908b]
class pwr.sim.animal.ai.state.AiStateEatPlant--><a href="AiStateEatPlant.html" target="_top" title="AiStateEatPlant.html" xlink:actuate="onRequest" xlink:href="AiStateEatPlant.html" xlink:show="new" xlink:title="AiStateEatPlant.html" xlink:type="simple"><rect fill="#FEFECE" filter="url(#f1otuillkd32e0)" height="60.8047" id="pwr.sim.animal.ai.state.AiStateEatPlant" style="stroke: #A80036; stroke-width: 1.5;" width="130" x="199" y="164"/><ellipse cx="214" cy="180" fill="#ADD1B2" rx="11" ry="11" style="stroke: #A80036; stroke-width: 1.0;"/><path d="M216.9688,185.6406 Q216.3906,185.9375 215.75,186.0781 Q215.1094,186.2344 214.4063,186.2344 Q211.9063,186.2344 210.5781,184.5938 Q209.2656,182.9375 209.2656,179.8125 Q209.2656,176.6875 210.5781,175.0313 Q211.9063,173.375 214.4063,173.375 Q215.1094,173.375 215.75,173.5313 Q216.4063,173.6875 216.9688,173.9844 L216.9688,176.7031 Q216.3438,176.125 215.75,175.8594 Q215.1563,175.5781 214.5313,175.5781 Q213.1875,175.5781 212.5,176.6563 Q211.8125,177.7188 211.8125,179.8125 Q211.8125,181.9063 212.5,182.9844 Q213.1875,184.0469 214.5313,184.0469 Q215.1563,184.0469 215.75,183.7813 Q216.3438,183.5 216.9688,182.9219 L216.9688,185.6406 Z "/><text fill="#000000" font-family="sans-serif" font-size="12" lengthAdjust="spacingAndGlyphs" textLength="98" x="228" y="184.1543">AiStateEatPlant</text><line style="stroke: #A80036; stroke-width: 1.5;" x1="200" x2="328" y1="196" y2="196"/><line style="stroke: #A80036; stroke-width: 1.5;" x1="200" x2="328" y1="204" y2="204"/><ellipse cx="210" cy="215" fill="#84BE84" rx="3" ry="3" style="stroke: #038048; stroke-width: 1.0;"/><text fill="#000000" font-family="sans-serif" font-size="11" lengthAdjust="spacingAndGlyphs" textLength="78" x="219" y="218.2104">update(): void</text></a><!--MD5=[af772f8550f9215bd32b0d137f557a72]
class pwr.sim.animal.ai.state.IAiState--><a href="IAiState.html" target="_top" title="IAiState.html" xlink:actuate="onRequest" xlink:href="IAiState.html" xlink:show="new" xlink:title="IAiState.html" xlink:type="simple"><rect fill="#FEFECE" filter="url(#f1otuillkd32e0)" height="60.8047" id="pwr.sim.animal.ai.state.IAiState" style="stroke: #A80036; stroke-width: 1.5;" width="105" x="452.5" y="43"/><ellipse cx="478.3" cy="59" fill="#B4A7E5" rx="11" ry="11" style="stroke: #A80036; stroke-width: 1.0;"/><path d="M474.2219,54.7656 L474.2219,52.6094 L481.6125,52.6094 L481.6125,54.7656 L479.1438,54.7656 L479.1438,62.8438 L481.6125,62.8438 L481.6125,65 L474.2219,65 L474.2219,62.8438 L476.6906,62.8438 L476.6906,54.7656 L474.2219,54.7656 Z "/><text fill="#000000" font-family="sans-serif" font-size="12" font-style="italic" lengthAdjust="spacingAndGlyphs" textLength="49" x="494.7" y="63.1543">IAiState</text><line style="stroke: #A80036; stroke-width: 1.5;" x1="453.5" x2="556.5" y1="75" y2="75"/><line style="stroke: #A80036; stroke-width: 1.5;" x1="453.5" x2="556.5" y1="83" y2="83"/><ellipse cx="463.5" cy="94" fill="#84BE84" rx="3" ry="3" style="stroke: #038048; stroke-width: 1.0;"/><text fill="#000000" font-family="sans-serif" font-size="11" font-style="italic" lengthAdjust="spacingAndGlyphs" textLength="79" x="472.5" y="97.2104">update(): void</text></a><!--MD5=[d6ff7de480351f15b4a4cfc2ecc38967]
class pwr.sim.animal.ai.state.AiStateSleep--><a href="AiStateSleep.html" target="_top" title="AiStateSleep.html" xlink:actuate="onRequest" xlink:href="AiStateSleep.html" xlink:show="new" xlink:title="AiStateSleep.html" xlink:type="simple"><rect fill="#FEFECE" filter="url(#f1otuillkd32e0)" height="60.8047" id="pwr.sim.animal.ai.state.AiStateSleep" style="stroke: #A80036; stroke-width: 1.5;" width="112" x="364" y="164"/><ellipse cx="379" cy="180" fill="#ADD1B2" rx="11" ry="11" style="stroke: #A80036; stroke-width: 1.0;"/><path d="M381.9688,185.6406 Q381.3906,185.9375 380.75,186.0781 Q380.1094,186.2344 379.4063,186.2344 Q376.9063,186.2344 375.5781,184.5938 Q374.2656,182.9375 374.2656,179.8125 Q374.2656,176.6875 375.5781,175.0313 Q376.9063,173.375 379.4063,173.375 Q380.1094,173.375 380.75,173.5313 Q381.4063,173.6875 381.9688,173.9844 L381.9688,176.7031 Q381.3438,176.125 380.75,175.8594 Q380.1563,175.5781 379.5313,175.5781 Q378.1875,175.5781 377.5,176.6563 Q376.8125,177.7188 376.8125,179.8125 Q376.8125,181.9063 377.5,182.9844 Q378.1875,184.0469 379.5313,184.0469 Q380.1563,184.0469 380.75,183.7813 Q381.3438,183.5 381.9688,182.9219 L381.9688,185.6406 Z "/><text fill="#000000" font-family="sans-serif" font-size="12" lengthAdjust="spacingAndGlyphs" textLength="80" x="393" y="184.1543">AiStateSleep</text><line style="stroke: #A80036; stroke-width: 1.5;" x1="365" x2="475" y1="196" y2="196"/><line style="stroke: #A80036; stroke-width: 1.5;" x1="365" x2="475" y1="204" y2="204"/><ellipse cx="375" cy="215" fill="#84BE84" rx="3" ry="3" style="stroke: #038048; stroke-width: 1.0;"/><text fill="#000000" font-family="sans-serif" font-size="11" lengthAdjust="spacingAndGlyphs" textLength="78" x="384" y="218.2104">update(): void</text></a><!--MD5=[40300abaaeb8bc98273b3cd335c7cf0b]
class pwr.sim.animal.ai.state.AiStateLookForFood--><a href="AiStateLookForFood.html" target="_top" title="AiStateLookForFood.html" xlink:actuate="onRequest" xlink:href="AiStateLookForFood.html" xlink:show="new" xlink:title="AiStateLookForFood.html" xlink:type="simple"><rect fill="#FEFECE" filter="url(#f1otuillkd32e0)" height="60.8047" id="pwr.sim.animal.ai.state.AiStateLookForFood" style="stroke: #A80036; stroke-width: 1.5;" width="157" x="511.5" y="164"/><ellipse cx="526.5" cy="180" fill="#ADD1B2" rx="11" ry="11" style="stroke: #A80036; stroke-width: 1.0;"/><path d="M529.4688,185.6406 Q528.8906,185.9375 528.25,186.0781 Q527.6094,186.2344 526.9063,186.2344 Q524.4063,186.2344 523.0781,184.5938 Q521.7656,182.9375 521.7656,179.8125 Q521.7656,176.6875 523.0781,175.0313 Q524.4063,173.375 526.9063,173.375 Q527.6094,173.375 528.25,173.5313 Q528.9063,173.6875 529.4688,173.9844 L529.4688,176.7031 Q528.8438,176.125 528.25,175.8594 Q527.6563,175.5781 527.0313,175.5781 Q525.6875,175.5781 525,176.6563 Q524.3125,177.7188 524.3125,179.8125 Q524.3125,181.9063 525,182.9844 Q525.6875,184.0469 527.0313,184.0469 Q527.6563,184.0469 528.25,183.7813 Q528.8438,183.5 529.4688,182.9219 L529.4688,185.6406 Z "/><text fill="#000000" font-family="sans-serif" font-size="12" lengthAdjust="spacingAndGlyphs" textLength="125" x="540.5" y="184.1543">AiStateLookForFood</text><line style="stroke: #A80036; stroke-width: 1.5;" x1="512.5" x2="667.5" y1="196" y2="196"/><line style="stroke: #A80036; stroke-width: 1.5;" x1="512.5" x2="667.5" y1="204" y2="204"/><ellipse cx="522.5" cy="215" fill="#84BE84" rx="3" ry="3" style="stroke: #038048; stroke-width: 1.0;"/><text fill="#000000" font-family="sans-serif" font-size="11" lengthAdjust="spacingAndGlyphs" textLength="78" x="531.5" y="218.2104">update(): void</text></a><!--MD5=[2101adf7b36736fda214d54ec3e7eccf]
class pwr.sim.animal.ai.state.AiStateHunt--><a href="AiStateHunt.html" target="_top" title="AiStateHunt.html" xlink:actuate="onRequest" xlink:href="AiStateHunt.html" xlink:show="new" xlink:title="AiStateHunt.html" xlink:type="simple"><rect fill="#FEFECE" filter="url(#f1otuillkd32e0)" height="60.8047" id="pwr.sim.animal.ai.state.AiStateHunt" style="stroke: #A80036; stroke-width: 1.5;" width="107" x="703.5" y="164"/><ellipse cx="718.5" cy="180" fill="#ADD1B2" rx="11" ry="11" style="stroke: #A80036; stroke-width: 1.0;"/><path d="M721.4688,185.6406 Q720.8906,185.9375 720.25,186.0781 Q719.6094,186.2344 718.9063,186.2344 Q716.4063,186.2344 715.0781,184.5938 Q713.7656,182.9375 713.7656,179.8125 Q713.7656,176.6875 715.0781,175.0313 Q716.4063,173.375 718.9063,173.375 Q719.6094,173.375 720.25,173.5313 Q720.9063,173.6875 721.4688,173.9844 L721.4688,176.7031 Q720.8438,176.125 720.25,175.8594 Q719.6563,175.5781 719.0313,175.5781 Q717.6875,175.5781 717,176.6563 Q716.3125,177.7188 716.3125,179.8125 Q716.3125,181.9063 717,182.9844 Q717.6875,184.0469 719.0313,184.0469 Q719.6563,184.0469 720.25,183.7813 Q720.8438,183.5 721.4688,182.9219 L721.4688,185.6406 Z "/><text fill="#000000" font-family="sans-serif" font-size="12" lengthAdjust="spacingAndGlyphs" textLength="75" x="732.5" y="184.1543">AiStateHunt</text><line style="stroke: #A80036; stroke-width: 1.5;" x1="704.5" x2="809.5" y1="196" y2="196"/><line style="stroke: #A80036; stroke-width: 1.5;" x1="704.5" x2="809.5" y1="204" y2="204"/><ellipse cx="714.5" cy="215" fill="#84BE84" rx="3" ry="3" style="stroke: #038048; stroke-width: 1.0;"/><text fill="#000000" font-family="sans-serif" font-size="11" lengthAdjust="spacingAndGlyphs" textLength="78" x="723.5" y="218.2104">update(): void</text></a><!--MD5=[35291f84c5102aa19c3fb4f3ba4efe54]
class pwr.sim.animal.ai.state.AiStateCopulate--><a href="AiStateCopulate.html" target="_top" title="AiStateCopulate.html" xlink:actuate="onRequest" xlink:href="AiStateCopulate.html" xlink:show="new" xlink:title="AiStateCopulate.html" xlink:type="simple"><rect fill="#FEFECE" filter="url(#f1otuillkd32e0)" height="60.8047" id="pwr.sim.animal.ai.state.AiStateCopulate" style="stroke: #A80036; stroke-width: 1.5;" width="133" x="845.5" y="164"/><ellipse cx="860.5" cy="180" fill="#ADD1B2" rx="11" ry="11" style="stroke: #A80036; stroke-width: 1.0;"/><path d="M863.4688,185.6406 Q862.8906,185.9375 862.25,186.0781 Q861.6094,186.2344 860.9063,186.2344 Q858.4063,186.2344 857.0781,184.5938 Q855.7656,182.9375 855.7656,179.8125 Q855.7656,176.6875 857.0781,175.0313 Q858.4063,173.375 860.9063,173.375 Q861.6094,173.375 862.25,173.5313 Q862.9063,173.6875 863.4688,173.9844 L863.4688,176.7031 Q862.8438,176.125 862.25,175.8594 Q861.6563,175.5781 861.0313,175.5781 Q859.6875,175.5781 859,176.6563 Q858.3125,177.7188 858.3125,179.8125 Q858.3125,181.9063 859,182.9844 Q859.6875,184.0469 861.0313,184.0469 Q861.6563,184.0469 862.25,183.7813 Q862.8438,183.5 863.4688,182.9219 L863.4688,185.6406 Z "/><text fill="#000000" font-family="sans-serif" font-size="12" lengthAdjust="spacingAndGlyphs" textLength="101" x="874.5" y="184.1543">AiStateCopulate</text><line style="stroke: #A80036; stroke-width: 1.5;" x1="846.5" x2="977.5" y1="196" y2="196"/><line style="stroke: #A80036; stroke-width: 1.5;" x1="846.5" x2="977.5" y1="204" y2="204"/><ellipse cx="856.5" cy="215" fill="#84BE84" rx="3" ry="3" style="stroke: #038048; stroke-width: 1.0;"/><text fill="#000000" font-family="sans-serif" font-size="11" lengthAdjust="spacingAndGlyphs" textLength="78" x="865.5" y="218.2104">update(): void</text></a><!--MD5=[24be54786d3ad3ff38e49f9b8c481d90]
reverse link pwr.sim.animal.ai.state.IAiState to pwr.sim.animal.ai.state.AiStateEatCorpse--><path d="M432.7582,92.477 C367.0694,110.032 267.6093,137.3615 182,164 C176.2295,165.7956 170.2679,167.7092 164.291,169.6693 " fill="none" id="pwr.sim.animal.ai.state.IAiState&lt;-pwr.sim.animal.ai.state.AiStateEatCorpse" style="stroke: #A80036; stroke-width: 1.0; stroke-dasharray: 7.0,7.0;"/><polygon fill="none" points="431.2953,85.6227,452.4228,87.2442,434.8955,99.1519,431.2953,85.6227" style="stroke: #A80036; stroke-width: 1.0;"/><!--MD5=[174119230dd55305b2c26203f87b3b2f]
reverse link pwr.sim.animal.ai.state.IAiState to pwr.sim.animal.ai.state.AiStateEatPlant--><path d="M434.4327,108.93 C399.7253,126.3558 358.3035,147.1526 324.9866,163.8802 " fill="none" id="pwr.sim.animal.ai.state.IAiState&lt;-pwr.sim.animal.ai.state.AiStateEatPlant" style="stroke: #A80036; stroke-width: 1.0; stroke-dasharray: 7.0,7.0;"/><polygon fill="none" points="431.3947,102.6226,452.4093,99.9044,437.6765,115.1342,431.3947,102.6226" style="stroke: #A80036; stroke-width: 1.0;"/><!--MD5=[e592b11b2e4325c24b9ab7df11589baa]
reverse link pwr.sim.animal.ai.state.IAiState to pwr.sim.animal.ai.state.AiStateSleep--><path d="M472.013,120.458 C461.7481,135.0704 450.7027,150.7938 441.4422,163.9764 " fill="none" id="pwr.sim.animal.ai.state.IAiState&lt;-pwr.sim.animal.ai.state.AiStateSleep" style="stroke: #A80036; stroke-width: 1.0; stroke-dasharray: 7.0,7.0;"/><polygon fill="none" points="466.3265,116.3752,483.5509,104.0334,477.7824,124.4228,466.3265,116.3752" style="stroke: #A80036; stroke-width: 1.0;"/><!--MD5=[29c8f476f0695d5effd0b4dd77c410e4]
reverse link pwr.sim.animal.ai.state.IAiState to pwr.sim.animal.ai.state.AiStateLookForFood--><path d="M537.987,120.458 C548.2519,135.0704 559.2973,150.7938 568.5578,163.9764 " fill="none" id="pwr.sim.animal.ai.state.IAiState&lt;-pwr.sim.animal.ai.state.AiStateLookForFood" style="stroke: #A80036; stroke-width: 1.0; stroke-dasharray: 7.0,7.0;"/><polygon fill="none" points="532.2176,124.4228,526.4491,104.0334,543.6735,116.3752,532.2176,124.4228" style="stroke: #A80036; stroke-width: 1.0;"/><!--MD5=[4afa87c970f83683a30a40436ddf9837]
reverse link pwr.sim.animal.ai.state.IAiState to pwr.sim.animal.ai.state.AiStateHunt--><path d="M575.6418,107.4193 C616.0812,126.8366 666.0163,150.8134 703.2439,168.6886 " fill="none" id="pwr.sim.animal.ai.state.IAiState&lt;-pwr.sim.animal.ai.state.AiStateHunt" style="stroke: #A80036; stroke-width: 1.0; stroke-dasharray: 7.0,7.0;"/><polygon fill="none" points="572.5201,113.6856,557.5207,98.7183,578.58,101.065,572.5201,113.6856" style="stroke: #A80036; stroke-width: 1.0;"/><!--MD5=[733dfd892e0ff27a6477abb609519e98]
reverse link pwr.sim.animal.ai.state.IAiState to pwr.sim.animal.ai.state.AiStateCopulate--><path d="M577.3586,92.1074 C643.126,109.4138 742.6358,136.5861 828,164 C833.6133,165.8027 839.411,167.7422 845.2146,169.7382 " fill="none" id="pwr.sim.animal.ai.state.IAiState&lt;-pwr.sim.animal.ai.state.AiStateCopulate" style="stroke: #A80036; stroke-width: 1.0; stroke-dasharray: 7.0,7.0;"/><polygon fill="none" points="575.2452,98.7902,557.6684,86.9556,578.789,85.2461,575.2452,98.7902" style="stroke: #A80036; stroke-width: 1.0;"/><text fill="#888888" font-family="sans-serif" font-size="10" lengthAdjust="spacingAndGlyphs" textLength="186" x="413.5" y="260.2822">UMLDoclet 2.0.8, PlantUML 1.2020.01</text><!--MD5=[581889e3931066d645e5c954924697e2]
@startuml
    namespace pwr.sim.animal.ai.state {

        class AiStateEatCorpse [[AiStateEatCorpse.html]] {
            +update(): void
        }

        class AiStateEatPlant [[AiStateEatPlant.html]] {
            +update(): void
        }

        interface IAiState [[IAiState.html]] {
            {abstract} +update(): void
        }

        class AiStateSleep [[AiStateSleep.html]] {
            +update(): void
        }

        class AiStateLookForFood [[AiStateLookForFood.html]] {
            +update(): void
        }

        class AiStateHunt [[AiStateHunt.html]] {
            +update(): void
        }

        class AiStateCopulate [[AiStateCopulate.html]] {
            +update(): void
        }

        IAiState <|.. AiStateEatCorpse
        IAiState <|.. AiStateEatPlant
        IAiState <|.. AiStateSleep
        IAiState <|.. AiStateLookForFood
        IAiState <|.. AiStateHunt
        IAiState <|.. AiStateCopulate
    }

    center footer UMLDoclet 2.0.8, PlantUML 1.2020.01
@enduml

PlantUML version 1.2020.01(Sun Feb 16 18:40:32 CET 2020)
(APACHE source distribution)
Java Runtime: OpenJDK Runtime Environment
JVM: OpenJDK 64-Bit Server VM
Java Version: 11.0.7+10-post-Ubuntu-2ubuntu219.10
Operating System: Linux
Default Encoding: UTF-8
Language: en
Country: GB
--></g></svg>