<?xml version="1.0" encoding="UTF-8" standalone="no"?><svg xmlns="http://www.w3.org/2000/svg" xmlns:xlink="http://www.w3.org/1999/xlink" contentScriptType="application/ecmascript" contentStyleType="text/css" height="356px" preserveAspectRatio="none" style="width:1911px;height:356px;" version="1.1" viewBox="0 0 1911 356" width="1911px" zoomAndPan="magnify"><defs><filter height="300%" id="f8ce38ih761en" width="300%" x="-1" y="-1"><feGaussianBlur result="blurOut" stdDeviation="2.0"/><feColorMatrix in="blurOut" result="blurOut2" type="matrix" values="0 0 0 0 0 0 0 0 0 0 0 0 0 0 0 0 0 0 .4 0"/><feOffset dx="4.0" dy="4.0" in="blurOut2" result="blurOut3"/><feBlend in="SourceGraphic" in2="blurOut3" mode="normal"/></filter></defs><g><!--MD5=[7eeeb206a6d334978b95fb0cfc669640]
cluster pwr.sim.animal.ai.state--><polygon fill="#FFFFFF" filter="url(#f8ce38ih761en)" points="22,24,209,24,216,46.2969,1889,46.2969,1889,308,22,308,22,24" style="stroke: #000000; stroke-width: 1.5;"/><line style="stroke: #000000; stroke-width: 1.5;" x1="22" x2="216" y1="46.2969" y2="46.2969"/><text fill="#000000" font-family="sans-serif" font-size="14" font-weight="bold" lengthAdjust="spacingAndGlyphs" textLength="181" x="26" y="38.9951">pwr.sim.animal.ai.state</text><!--MD5=[08aadd0f49c91bafe227b24a75895544]
class pwr.sim.animal.ai.state.AiStateEatCorpse--><a href="AiStateEatCorpse.html" target="_top" title="AiStateEatCorpse.html" xlink:actuate="onRequest" xlink:href="AiStateEatCorpse.html" xlink:show="new" xlink:title="AiStateEatCorpse.html" xlink:type="simple"><rect fill="#FEFECE" filter="url(#f8ce38ih761en)" height="86.4141" id="pwr.sim.animal.ai.state.AiStateEatCorpse" style="stroke: #A80036; stroke-width: 1.5;" width="171" x="38.5" y="199.5"/><ellipse cx="66.55" cy="215.5" fill="#ADD1B2" rx="11" ry="11" style="stroke: #A80036; stroke-width: 1.0;"/><path d="M69.5188,221.1406 Q68.9406,221.4375 68.3,221.5781 Q67.6594,221.7344 66.9563,221.7344 Q64.4563,221.7344 63.1281,220.0938 Q61.8156,218.4375 61.8156,215.3125 Q61.8156,212.1875 63.1281,210.5313 Q64.4563,208.875 66.9563,208.875 Q67.6594,208.875 68.3,209.0313 Q68.9563,209.1875 69.5188,209.4844 L69.5188,212.2031 Q68.8938,211.625 68.3,211.3594 Q67.7063,211.0781 67.0813,211.0781 Q65.7375,211.0781 65.05,212.1563 Q64.3625,213.2188 64.3625,215.3125 Q64.3625,217.4063 65.05,218.4844 Q65.7375,219.5469 67.0813,219.5469 Q67.7063,219.5469 68.3,219.2813 Q68.8938,219 69.5188,218.4219 L69.5188,221.1406 Z "/><text fill="#000000" font-family="sans-serif" font-size="12" lengthAdjust="spacingAndGlyphs" textLength="110" x="83.45" y="219.6543">AiStateEatCorpse</text><line style="stroke: #A80036; stroke-width: 1.5;" x1="39.5" x2="208.5" y1="231.5" y2="231.5"/><rect fill="none" height="6" style="stroke: #C82930; stroke-width: 1.0;" width="6" x="46.5" y="239.5"/><text fill="#000000" font-family="sans-serif" font-size="11" lengthAdjust="spacingAndGlyphs" textLength="84" x="58.5" y="245.7104">animal: Animal</text><line style="stroke: #A80036; stroke-width: 1.5;" x1="39.5" x2="208.5" y1="252.3047" y2="252.3047"/><ellipse cx="49.5" cy="263.3047" fill="#84BE84" rx="3" ry="3" style="stroke: #038048; stroke-width: 1.0;"/><text fill="#000000" font-family="sans-serif" font-size="11" lengthAdjust="spacingAndGlyphs" textLength="145" x="58.5" y="266.5151">AiStateEatCorpse(Animal)</text><ellipse cx="49.5" cy="276.1094" fill="#84BE84" rx="3" ry="3" style="stroke: #038048; stroke-width: 1.0;"/><text fill="#000000" font-family="sans-serif" font-size="11" lengthAdjust="spacingAndGlyphs" textLength="98" x="58.5" y="279.3198">update(): IAiState</text></a><!--MD5=[358f9708588ba58a7609f627838ff4a4]
class pwr.sim.animal.ai.state.AiStateSleepPredator--><a href="AiStateSleepPredator.html" target="_top" title="AiStateSleepPredator.html" xlink:actuate="onRequest" xlink:href="AiStateSleepPredator.html" xlink:show="new" xlink:title="AiStateSleepPredator.html" xlink:type="simple"><rect fill="#FEFECE" filter="url(#f8ce38ih761en)" height="86.4141" id="pwr.sim.animal.ai.state.AiStateSleepPredator" style="stroke: #A80036; stroke-width: 1.5;" width="193" x="244.5" y="199.5"/><ellipse cx="271.2" cy="215.5" fill="#ADD1B2" rx="11" ry="11" style="stroke: #A80036; stroke-width: 1.0;"/><path d="M274.1688,221.1406 Q273.5906,221.4375 272.95,221.5781 Q272.3094,221.7344 271.6063,221.7344 Q269.1063,221.7344 267.7781,220.0938 Q266.4656,218.4375 266.4656,215.3125 Q266.4656,212.1875 267.7781,210.5313 Q269.1063,208.875 271.6063,208.875 Q272.3094,208.875 272.95,209.0313 Q273.6063,209.1875 274.1688,209.4844 L274.1688,212.2031 Q273.5438,211.625 272.95,211.3594 Q272.3563,211.0781 271.7313,211.0781 Q270.3875,211.0781 269.7,212.1563 Q269.0125,213.2188 269.0125,215.3125 Q269.0125,217.4063 269.7,218.4844 Q270.3875,219.5469 271.7313,219.5469 Q272.3563,219.5469 272.95,219.2813 Q273.5438,219 274.1688,218.4219 L274.1688,221.1406 Z "/><text fill="#000000" font-family="sans-serif" font-size="12" lengthAdjust="spacingAndGlyphs" textLength="135" x="287.8" y="219.6543">AiStateSleepPredator</text><line style="stroke: #A80036; stroke-width: 1.5;" x1="245.5" x2="436.5" y1="231.5" y2="231.5"/><rect fill="none" height="6" style="stroke: #C82930; stroke-width: 1.0;" width="6" x="252.5" y="239.5"/><text fill="#000000" font-family="sans-serif" font-size="11" lengthAdjust="spacingAndGlyphs" textLength="84" x="264.5" y="245.7104">animal: Animal</text><line style="stroke: #A80036; stroke-width: 1.5;" x1="245.5" x2="436.5" y1="252.3047" y2="252.3047"/><ellipse cx="255.5" cy="263.3047" fill="#84BE84" rx="3" ry="3" style="stroke: #038048; stroke-width: 1.0;"/><text fill="#000000" font-family="sans-serif" font-size="11" lengthAdjust="spacingAndGlyphs" textLength="167" x="264.5" y="266.5151">AiStateSleepPredator(Animal)</text><ellipse cx="255.5" cy="276.1094" fill="#84BE84" rx="3" ry="3" style="stroke: #038048; stroke-width: 1.0;"/><text fill="#000000" font-family="sans-serif" font-size="11" lengthAdjust="spacingAndGlyphs" textLength="98" x="264.5" y="279.3198">update(): IAiState</text></a><!--MD5=[c59dbee51b91129f0f8245b72bd2908b]
class pwr.sim.animal.ai.state.AiStateEatPlant--><a href="AiStateEatPlant.html" target="_top" title="AiStateEatPlant.html" xlink:actuate="onRequest" xlink:href="AiStateEatPlant.html" xlink:show="new" xlink:title="AiStateEatPlant.html" xlink:type="simple"><rect fill="#FEFECE" filter="url(#f8ce38ih761en)" height="86.4141" id="pwr.sim.animal.ai.state.AiStateEatPlant" style="stroke: #A80036; stroke-width: 1.5;" width="158" x="473" y="199.5"/><ellipse cx="500.6" cy="215.5" fill="#ADD1B2" rx="11" ry="11" style="stroke: #A80036; stroke-width: 1.0;"/><path d="M503.5688,221.1406 Q502.9906,221.4375 502.35,221.5781 Q501.7094,221.7344 501.0063,221.7344 Q498.5063,221.7344 497.1781,220.0938 Q495.8656,218.4375 495.8656,215.3125 Q495.8656,212.1875 497.1781,210.5313 Q498.5063,208.875 501.0063,208.875 Q501.7094,208.875 502.35,209.0313 Q503.0063,209.1875 503.5688,209.4844 L503.5688,212.2031 Q502.9438,211.625 502.35,211.3594 Q501.7563,211.0781 501.1313,211.0781 Q499.7875,211.0781 499.1,212.1563 Q498.4125,213.2188 498.4125,215.3125 Q498.4125,217.4063 499.1,218.4844 Q499.7875,219.5469 501.1313,219.5469 Q501.7563,219.5469 502.35,219.2813 Q502.9438,219 503.5688,218.4219 L503.5688,221.1406 Z "/><text fill="#000000" font-family="sans-serif" font-size="12" lengthAdjust="spacingAndGlyphs" textLength="98" x="517.4" y="219.6543">AiStateEatPlant</text><line style="stroke: #A80036; stroke-width: 1.5;" x1="474" x2="630" y1="231.5" y2="231.5"/><rect fill="none" height="6" style="stroke: #C82930; stroke-width: 1.0;" width="6" x="481" y="239.5"/><text fill="#000000" font-family="sans-serif" font-size="11" lengthAdjust="spacingAndGlyphs" textLength="84" x="493" y="245.7104">animal: Animal</text><line style="stroke: #A80036; stroke-width: 1.5;" x1="474" x2="630" y1="252.3047" y2="252.3047"/><ellipse cx="484" cy="263.3047" fill="#84BE84" rx="3" ry="3" style="stroke: #038048; stroke-width: 1.0;"/><text fill="#000000" font-family="sans-serif" font-size="11" lengthAdjust="spacingAndGlyphs" textLength="132" x="493" y="266.5151">AiStateEatPlant(Animal)</text><ellipse cx="484" cy="276.1094" fill="#84BE84" rx="3" ry="3" style="stroke: #038048; stroke-width: 1.0;"/><text fill="#000000" font-family="sans-serif" font-size="11" lengthAdjust="spacingAndGlyphs" textLength="98" x="493" y="279.3198">update(): IAiState</text></a><!--MD5=[af772f8550f9215bd32b0d137f557a72]
class pwr.sim.animal.ai.state.IAiState--><a href="IAiState.html" target="_top" title="IAiState.html" xlink:actuate="onRequest" xlink:href="IAiState.html" xlink:show="new" xlink:title="IAiState.html" xlink:type="simple"><rect fill="#FEFECE" filter="url(#f8ce38ih761en)" height="73.6094" id="pwr.sim.animal.ai.state.IAiState" style="stroke: #A80036; stroke-width: 1.5;" width="132" x="943" y="59"/><ellipse cx="980.95" cy="75" fill="#B4A7E5" rx="11" ry="11" style="stroke: #A80036; stroke-width: 1.0;"/><path d="M976.8719,70.7656 L976.8719,68.6094 L984.2625,68.6094 L984.2625,70.7656 L981.7938,70.7656 L981.7938,78.8438 L984.2625,78.8438 L984.2625,81 L976.8719,81 L976.8719,78.8438 L979.3406,78.8438 L979.3406,70.7656 L976.8719,70.7656 Z "/><text fill="#000000" font-family="sans-serif" font-size="12" font-style="italic" lengthAdjust="spacingAndGlyphs" textLength="49" x="1000.05" y="79.1543">IAiState</text><line style="stroke: #A80036; stroke-width: 1.5;" x1="944" x2="1074" y1="91" y2="91"/><line style="stroke: #A80036; stroke-width: 1.5;" x1="944" x2="1074" y1="99" y2="99"/><ellipse cx="954" cy="110" fill="#84BE84" rx="3" ry="3" style="stroke: #038048; stroke-width: 1.0;"/><text fill="#000000" font-family="sans-serif" font-size="11" font-style="italic" lengthAdjust="spacingAndGlyphs" textLength="98" x="963" y="113.2104">update(): IAiState</text><ellipse cx="954" cy="122.8047" fill="#84BE84" rx="3" ry="3" style="stroke: #038048; stroke-width: 1.0;"/><text fill="#000000" font-family="sans-serif" font-size="11" lengthAdjust="spacingAndGlyphs" textLength="106" x="963" y="126.0151">debugInfo(): String</text></a><!--MD5=[3d3f19dbfee82aafb6dd503c34a7894c]
class pwr.sim.animal.ai.state.AiStateCopulatePredator--><a href="AiStateCopulatePredator.html" target="_top" title="AiStateCopulatePredator.html" xlink:actuate="onRequest" xlink:href="AiStateCopulatePredator.html" xlink:show="new" xlink:title="AiStateCopulatePredator.html" xlink:type="simple"><rect fill="#FEFECE" filter="url(#f8ce38ih761en)" height="99.2188" id="pwr.sim.animal.ai.state.AiStateCopulatePredator" style="stroke: #A80036; stroke-width: 1.5;" width="211" x="666.5" y="193"/><ellipse cx="691.85" cy="209" fill="#ADD1B2" rx="11" ry="11" style="stroke: #A80036; stroke-width: 1.0;"/><path d="M694.8188,214.6406 Q694.2406,214.9375 693.6,215.0781 Q692.9594,215.2344 692.2563,215.2344 Q689.7563,215.2344 688.4281,213.5938 Q687.1156,211.9375 687.1156,208.8125 Q687.1156,205.6875 688.4281,204.0313 Q689.7563,202.375 692.2563,202.375 Q692.9594,202.375 693.6,202.5313 Q694.2563,202.6875 694.8188,202.9844 L694.8188,205.7031 Q694.1938,205.125 693.6,204.8594 Q693.0063,204.5781 692.3813,204.5781 Q691.0375,204.5781 690.35,205.6563 Q689.6625,206.7188 689.6625,208.8125 Q689.6625,210.9063 690.35,211.9844 Q691.0375,213.0469 692.3813,213.0469 Q693.0063,213.0469 693.6,212.7813 Q694.1938,212.5 694.8188,211.9219 L694.8188,214.6406 Z "/><text fill="#000000" font-family="sans-serif" font-size="12" lengthAdjust="spacingAndGlyphs" textLength="156" x="708.15" y="213.1543">AiStateCopulatePredator</text><line style="stroke: #A80036; stroke-width: 1.5;" x1="667.5" x2="876.5" y1="225" y2="225"/><rect fill="none" height="6" style="stroke: #C82930; stroke-width: 1.0;" width="6" x="674.5" y="233"/><text fill="#000000" font-family="sans-serif" font-size="11" lengthAdjust="spacingAndGlyphs" textLength="84" x="686.5" y="239.2104">animal: Animal</text><rect fill="none" height="6" style="stroke: #C82930; stroke-width: 1.0;" width="6" x="674.5" y="245.8047"/><text fill="#000000" font-family="sans-serif" font-size="11" lengthAdjust="spacingAndGlyphs" textLength="75" x="686.5" y="252.0151">mate: Animal</text><line style="stroke: #A80036; stroke-width: 1.5;" x1="667.5" x2="876.5" y1="258.6094" y2="258.6094"/><ellipse cx="677.5" cy="269.6094" fill="#84BE84" rx="3" ry="3" style="stroke: #038048; stroke-width: 1.0;"/><text fill="#000000" font-family="sans-serif" font-size="11" lengthAdjust="spacingAndGlyphs" textLength="185" x="686.5" y="272.8198">AiStateCopulatePredator(Animal)</text><ellipse cx="677.5" cy="282.4141" fill="#84BE84" rx="3" ry="3" style="stroke: #038048; stroke-width: 1.0;"/><text fill="#000000" font-family="sans-serif" font-size="11" lengthAdjust="spacingAndGlyphs" textLength="98" x="686.5" y="285.6245">update(): IAiState</text></a><!--MD5=[8bcb64160ca150be0df12a81ede32a6a]
class pwr.sim.animal.ai.state.AiStateEvade--><a href="AiStateEvade.html" target="_top" title="AiStateEvade.html" xlink:actuate="onRequest" xlink:href="AiStateEvade.html" xlink:show="new" xlink:title="AiStateEvade.html" xlink:type="simple"><rect fill="#FEFECE" filter="url(#f8ce38ih761en)" height="99.2188" id="pwr.sim.animal.ai.state.AiStateEvade" style="stroke: #A80036; stroke-width: 1.5;" width="192" x="913" y="193"/><ellipse cx="963.25" cy="209" fill="#ADD1B2" rx="11" ry="11" style="stroke: #A80036; stroke-width: 1.0;"/><path d="M966.2188,214.6406 Q965.6406,214.9375 965,215.0781 Q964.3594,215.2344 963.6563,215.2344 Q961.1563,215.2344 959.8281,213.5938 Q958.5156,211.9375 958.5156,208.8125 Q958.5156,205.6875 959.8281,204.0313 Q961.1563,202.375 963.6563,202.375 Q964.3594,202.375 965,202.5313 Q965.6563,202.6875 966.2188,202.9844 L966.2188,205.7031 Q965.5938,205.125 965,204.8594 Q964.4063,204.5781 963.7813,204.5781 Q962.4375,204.5781 961.75,205.6563 Q961.0625,206.7188 961.0625,208.8125 Q961.0625,210.9063 961.75,211.9844 Q962.4375,213.0469 963.7813,213.0469 Q964.4063,213.0469 965,212.7813 Q965.5938,212.5 966.2188,211.9219 L966.2188,214.6406 Z "/><text fill="#000000" font-family="sans-serif" font-size="12" lengthAdjust="spacingAndGlyphs" textLength="83" x="983.75" y="213.1543">AiStateEvade</text><line style="stroke: #A80036; stroke-width: 1.5;" x1="914" x2="1104" y1="225" y2="225"/><rect fill="none" height="6" style="stroke: #C82930; stroke-width: 1.0;" width="6" x="921" y="233"/><text fill="#000000" font-family="sans-serif" font-size="11" lengthAdjust="spacingAndGlyphs" textLength="84" x="933" y="239.2104">animal: Animal</text><rect fill="none" height="6" style="stroke: #C82930; stroke-width: 1.0;" width="6" x="921" y="245.8047"/><text fill="#000000" font-family="sans-serif" font-size="11" lengthAdjust="spacingAndGlyphs" textLength="95" x="933" y="252.0151">predator: Animal</text><line style="stroke: #A80036; stroke-width: 1.5;" x1="914" x2="1104" y1="258.6094" y2="258.6094"/><ellipse cx="924" cy="269.6094" fill="#84BE84" rx="3" ry="3" style="stroke: #038048; stroke-width: 1.0;"/><text fill="#000000" font-family="sans-serif" font-size="11" lengthAdjust="spacingAndGlyphs" textLength="166" x="933" y="272.8198">AiStateEvade(Animal, Animal)</text><ellipse cx="924" cy="282.4141" fill="#84BE84" rx="3" ry="3" style="stroke: #038048; stroke-width: 1.0;"/><text fill="#000000" font-family="sans-serif" font-size="11" lengthAdjust="spacingAndGlyphs" textLength="98" x="933" y="285.6245">update(): IAiState</text></a><!--MD5=[d6ff7de480351f15b4a4cfc2ecc38967]
class pwr.sim.animal.ai.state.AiStateSleep--><a href="AiStateSleep.html" target="_top" title="AiStateSleep.html" xlink:actuate="onRequest" xlink:href="AiStateSleep.html" xlink:show="new" xlink:title="AiStateSleep.html" xlink:type="simple"><rect fill="#FEFECE" filter="url(#f8ce38ih761en)" height="86.4141" id="pwr.sim.animal.ai.state.AiStateSleep" style="stroke: #A80036; stroke-width: 1.5;" width="144" x="1140" y="199.5"/><ellipse cx="1169.4" cy="215.5" fill="#ADD1B2" rx="11" ry="11" style="stroke: #A80036; stroke-width: 1.0;"/><path d="M1172.3688,221.1406 Q1171.7906,221.4375 1171.15,221.5781 Q1170.5094,221.7344 1169.8063,221.7344 Q1167.3063,221.7344 1165.9781,220.0938 Q1164.6656,218.4375 1164.6656,215.3125 Q1164.6656,212.1875 1165.9781,210.5313 Q1167.3063,208.875 1169.8063,208.875 Q1170.5094,208.875 1171.15,209.0313 Q1171.8063,209.1875 1172.3688,209.4844 L1172.3688,212.2031 Q1171.7438,211.625 1171.15,211.3594 Q1170.5563,211.0781 1169.9313,211.0781 Q1168.5875,211.0781 1167.9,212.1563 Q1167.2125,213.2188 1167.2125,215.3125 Q1167.2125,217.4063 1167.9,218.4844 Q1168.5875,219.5469 1169.9313,219.5469 Q1170.5563,219.5469 1171.15,219.2813 Q1171.7438,219 1172.3688,218.4219 L1172.3688,221.1406 Z "/><text fill="#000000" font-family="sans-serif" font-size="12" lengthAdjust="spacingAndGlyphs" textLength="80" x="1186.6" y="219.6543">AiStateSleep</text><line style="stroke: #A80036; stroke-width: 1.5;" x1="1141" x2="1283" y1="231.5" y2="231.5"/><rect fill="none" height="6" style="stroke: #C82930; stroke-width: 1.0;" width="6" x="1148" y="239.5"/><text fill="#000000" font-family="sans-serif" font-size="11" lengthAdjust="spacingAndGlyphs" textLength="84" x="1160" y="245.7104">animal: Animal</text><line style="stroke: #A80036; stroke-width: 1.5;" x1="1141" x2="1283" y1="252.3047" y2="252.3047"/><ellipse cx="1151" cy="263.3047" fill="#84BE84" rx="3" ry="3" style="stroke: #038048; stroke-width: 1.0;"/><text fill="#000000" font-family="sans-serif" font-size="11" lengthAdjust="spacingAndGlyphs" textLength="118" x="1160" y="266.5151">AiStateSleep(Animal)</text><ellipse cx="1151" cy="276.1094" fill="#84BE84" rx="3" ry="3" style="stroke: #038048; stroke-width: 1.0;"/><text fill="#000000" font-family="sans-serif" font-size="11" lengthAdjust="spacingAndGlyphs" textLength="98" x="1160" y="279.3198">update(): IAiState</text></a><!--MD5=[40300abaaeb8bc98273b3cd335c7cf0b]
class pwr.sim.animal.ai.state.AiStateLookForFood--><a href="AiStateLookForFood.html" target="_top" title="AiStateLookForFood.html" xlink:actuate="onRequest" xlink:href="AiStateLookForFood.html" xlink:show="new" xlink:title="AiStateLookForFood.html" xlink:type="simple"><rect fill="#FEFECE" filter="url(#f8ce38ih761en)" height="99.2188" id="pwr.sim.animal.ai.state.AiStateLookForFood" style="stroke: #A80036; stroke-width: 1.5;" width="183" x="1319.5" y="193"/><ellipse cx="1346.2" cy="209" fill="#ADD1B2" rx="11" ry="11" style="stroke: #A80036; stroke-width: 1.0;"/><path d="M1349.1688,214.6406 Q1348.5906,214.9375 1347.95,215.0781 Q1347.3094,215.2344 1346.6063,215.2344 Q1344.1063,215.2344 1342.7781,213.5938 Q1341.4656,211.9375 1341.4656,208.8125 Q1341.4656,205.6875 1342.7781,204.0313 Q1344.1063,202.375 1346.6063,202.375 Q1347.3094,202.375 1347.95,202.5313 Q1348.6063,202.6875 1349.1688,202.9844 L1349.1688,205.7031 Q1348.5438,205.125 1347.95,204.8594 Q1347.3563,204.5781 1346.7313,204.5781 Q1345.3875,204.5781 1344.7,205.6563 Q1344.0125,206.7188 1344.0125,208.8125 Q1344.0125,210.9063 1344.7,211.9844 Q1345.3875,213.0469 1346.7313,213.0469 Q1347.3563,213.0469 1347.95,212.7813 Q1348.5438,212.5 1349.1688,211.9219 L1349.1688,214.6406 Z "/><text fill="#000000" font-family="sans-serif" font-size="12" lengthAdjust="spacingAndGlyphs" textLength="125" x="1362.8" y="213.1543">AiStateLookForFood</text><line style="stroke: #A80036; stroke-width: 1.5;" x1="1320.5" x2="1501.5" y1="225" y2="225"/><rect fill="none" height="6" style="stroke: #C82930; stroke-width: 1.0;" width="6" x="1327.5" y="233"/><text fill="#000000" font-family="sans-serif" font-size="11" lengthAdjust="spacingAndGlyphs" textLength="84" x="1339.5" y="239.2104">animal: Animal</text><rect fill="none" height="6" style="stroke: #C82930; stroke-width: 1.0;" width="6" x="1327.5" y="245.8047"/><text fill="#000000" font-family="sans-serif" font-size="11" lengthAdjust="spacingAndGlyphs" textLength="131" x="1339.5" y="252.0151">destination: Position2D</text><line style="stroke: #A80036; stroke-width: 1.5;" x1="1320.5" x2="1501.5" y1="258.6094" y2="258.6094"/><ellipse cx="1330.5" cy="269.6094" fill="#84BE84" rx="3" ry="3" style="stroke: #038048; stroke-width: 1.0;"/><text fill="#000000" font-family="sans-serif" font-size="11" lengthAdjust="spacingAndGlyphs" textLength="157" x="1339.5" y="272.8198">AiStateLookForFood(Animal)</text><ellipse cx="1330.5" cy="282.4141" fill="#84BE84" rx="3" ry="3" style="stroke: #038048; stroke-width: 1.0;"/><text fill="#000000" font-family="sans-serif" font-size="11" lengthAdjust="spacingAndGlyphs" textLength="98" x="1339.5" y="285.6245">update(): IAiState</text></a><!--MD5=[2101adf7b36736fda214d54ec3e7eccf]
class pwr.sim.animal.ai.state.AiStateHunt--><a href="AiStateHunt.html" target="_top" title="AiStateHunt.html" xlink:actuate="onRequest" xlink:href="AiStateHunt.html" xlink:show="new" xlink:title="AiStateHunt.html" xlink:type="simple"><rect fill="#FEFECE" filter="url(#f8ce38ih761en)" height="99.2188" id="pwr.sim.animal.ai.state.AiStateHunt" style="stroke: #A80036; stroke-width: 1.5;" width="138" x="1538" y="193"/><ellipse cx="1566.95" cy="209" fill="#ADD1B2" rx="11" ry="11" style="stroke: #A80036; stroke-width: 1.0;"/><path d="M1569.9188,214.6406 Q1569.3406,214.9375 1568.7,215.0781 Q1568.0594,215.2344 1567.3563,215.2344 Q1564.8563,215.2344 1563.5281,213.5938 Q1562.2156,211.9375 1562.2156,208.8125 Q1562.2156,205.6875 1563.5281,204.0313 Q1564.8563,202.375 1567.3563,202.375 Q1568.0594,202.375 1568.7,202.5313 Q1569.3563,202.6875 1569.9188,202.9844 L1569.9188,205.7031 Q1569.2938,205.125 1568.7,204.8594 Q1568.1063,204.5781 1567.4813,204.5781 Q1566.1375,204.5781 1565.45,205.6563 Q1564.7625,206.7188 1564.7625,208.8125 Q1564.7625,210.9063 1565.45,211.9844 Q1566.1375,213.0469 1567.4813,213.0469 Q1568.1063,213.0469 1568.7,212.7813 Q1569.2938,212.5 1569.9188,211.9219 L1569.9188,214.6406 Z "/><text fill="#000000" font-family="sans-serif" font-size="12" lengthAdjust="spacingAndGlyphs" textLength="75" x="1584.05" y="213.1543">AiStateHunt</text><line style="stroke: #A80036; stroke-width: 1.5;" x1="1539" x2="1675" y1="225" y2="225"/><rect fill="none" height="6" style="stroke: #C82930; stroke-width: 1.0;" width="6" x="1546" y="233"/><text fill="#000000" font-family="sans-serif" font-size="11" lengthAdjust="spacingAndGlyphs" textLength="84" x="1558" y="239.2104">animal: Animal</text><rect fill="none" height="6" style="stroke: #C82930; stroke-width: 1.0;" width="6" x="1546" y="245.8047"/><text fill="#000000" font-family="sans-serif" font-size="11" lengthAdjust="spacingAndGlyphs" textLength="71" x="1558" y="252.0151">prey: Animal</text><line style="stroke: #A80036; stroke-width: 1.5;" x1="1539" x2="1675" y1="258.6094" y2="258.6094"/><ellipse cx="1549" cy="269.6094" fill="#84BE84" rx="3" ry="3" style="stroke: #038048; stroke-width: 1.0;"/><text fill="#000000" font-family="sans-serif" font-size="11" lengthAdjust="spacingAndGlyphs" textLength="112" x="1558" y="272.8198">AiStateHunt(Animal)</text><ellipse cx="1549" cy="282.4141" fill="#84BE84" rx="3" ry="3" style="stroke: #038048; stroke-width: 1.0;"/><text fill="#000000" font-family="sans-serif" font-size="11" lengthAdjust="spacingAndGlyphs" textLength="98" x="1558" y="285.6245">update(): IAiState</text></a><!--MD5=[35291f84c5102aa19c3fb4f3ba4efe54]
class pwr.sim.animal.ai.state.AiStateCopulate--><a href="AiStateCopulate.html" target="_top" title="AiStateCopulate.html" xlink:actuate="onRequest" xlink:href="AiStateCopulate.html" xlink:show="new" xlink:title="AiStateCopulate.html" xlink:type="simple"><rect fill="#FEFECE" filter="url(#f8ce38ih761en)" height="99.2188" id="pwr.sim.animal.ai.state.AiStateCopulate" style="stroke: #A80036; stroke-width: 1.5;" width="162" x="1711" y="193"/><ellipse cx="1739.05" cy="209" fill="#ADD1B2" rx="11" ry="11" style="stroke: #A80036; stroke-width: 1.0;"/><path d="M1742.0188,214.6406 Q1741.4406,214.9375 1740.8,215.0781 Q1740.1594,215.2344 1739.4563,215.2344 Q1736.9563,215.2344 1735.6281,213.5938 Q1734.3156,211.9375 1734.3156,208.8125 Q1734.3156,205.6875 1735.6281,204.0313 Q1736.9563,202.375 1739.4563,202.375 Q1740.1594,202.375 1740.8,202.5313 Q1741.4563,202.6875 1742.0188,202.9844 L1742.0188,205.7031 Q1741.3938,205.125 1740.8,204.8594 Q1740.2063,204.5781 1739.5813,204.5781 Q1738.2375,204.5781 1737.55,205.6563 Q1736.8625,206.7188 1736.8625,208.8125 Q1736.8625,210.9063 1737.55,211.9844 Q1738.2375,213.0469 1739.5813,213.0469 Q1740.2063,213.0469 1740.8,212.7813 Q1741.3938,212.5 1742.0188,211.9219 L1742.0188,214.6406 Z "/><text fill="#000000" font-family="sans-serif" font-size="12" lengthAdjust="spacingAndGlyphs" textLength="101" x="1755.95" y="213.1543">AiStateCopulate</text><line style="stroke: #A80036; stroke-width: 1.5;" x1="1712" x2="1872" y1="225" y2="225"/><rect fill="none" height="6" style="stroke: #C82930; stroke-width: 1.0;" width="6" x="1719" y="233"/><text fill="#000000" font-family="sans-serif" font-size="11" lengthAdjust="spacingAndGlyphs" textLength="84" x="1731" y="239.2104">animal: Animal</text><rect fill="none" height="6" style="stroke: #C82930; stroke-width: 1.0;" width="6" x="1719" y="245.8047"/><text fill="#000000" font-family="sans-serif" font-size="11" lengthAdjust="spacingAndGlyphs" textLength="75" x="1731" y="252.0151">mate: Animal</text><line style="stroke: #A80036; stroke-width: 1.5;" x1="1712" x2="1872" y1="258.6094" y2="258.6094"/><ellipse cx="1722" cy="269.6094" fill="#84BE84" rx="3" ry="3" style="stroke: #038048; stroke-width: 1.0;"/><text fill="#000000" font-family="sans-serif" font-size="11" lengthAdjust="spacingAndGlyphs" textLength="136" x="1731" y="272.8198">AiStateCopulate(Animal)</text><ellipse cx="1722" cy="282.4141" fill="#84BE84" rx="3" ry="3" style="stroke: #038048; stroke-width: 1.0;"/><text fill="#000000" font-family="sans-serif" font-size="11" lengthAdjust="spacingAndGlyphs" textLength="98" x="1731" y="285.6245">update(): IAiState</text></a><!--MD5=[24be54786d3ad3ff38e49f9b8c481d90]
reverse link pwr.sim.animal.ai.state.IAiState to pwr.sim.animal.ai.state.AiStateEatCorpse--><path d="M922.59,98.7 C776.51,103.54 472.65,122.06 227,193 C220.64,194.84 214.18,197.02 207.75,199.44 " fill="none" id="pwr.sim.animal.ai.state.IAiState&lt;-pwr.sim.animal.ai.state.AiStateEatCorpse" style="stroke: #A80036; stroke-width: 1.0; stroke-dasharray: 7.0,7.0;"/><polygon fill="none" points="922.77,91.69,942.97,98.08,923.2,105.69,922.77,91.69" style="stroke: #A80036; stroke-width: 1.0;"/><!--MD5=[a418f117811f0805cf5df0dcd5a97c3b]
reverse link pwr.sim.animal.ai.state.IAiState to pwr.sim.animal.ai.state.AiStateSleepPredator--><path d="M922.6,105.84 C812.58,118.49 617.4,145.63 456,193 C449.45,194.92 442.77,197.11 436.1,199.46 " fill="none" id="pwr.sim.animal.ai.state.IAiState&lt;-pwr.sim.animal.ai.state.AiStateSleepPredator" style="stroke: #A80036; stroke-width: 1.0; stroke-dasharray: 7.0,7.0;"/><polygon fill="none" points="922.12,98.85,942.77,103.57,923.68,112.76,922.12,98.85" style="stroke: #A80036; stroke-width: 1.0;"/><!--MD5=[174119230dd55305b2c26203f87b3b2f]
reverse link pwr.sim.animal.ai.state.IAiState to pwr.sim.animal.ai.state.AiStateEatPlant--><path d="M922.83,114.8 C848.92,131.28 740.23,158.44 649,193 C643.1,195.23 637.09,197.71 631.08,200.34 " fill="none" id="pwr.sim.animal.ai.state.IAiState&lt;-pwr.sim.animal.ai.state.AiStateEatPlant" style="stroke: #A80036; stroke-width: 1.0; stroke-dasharray: 7.0,7.0;"/><polygon fill="none" points="921.67,107.88,942.71,110.43,924.67,121.56,921.67,107.88" style="stroke: #A80036; stroke-width: 1.0;"/><!--MD5=[22c7b84fcd375c51c4737a7cb7e2d453]
reverse link pwr.sim.animal.ai.state.IAiState to pwr.sim.animal.ai.state.AiStateCopulatePredator--><path d="M932.52,143.63 C906.74,159.35 877.91,176.93 851.88,192.8 " fill="none" id="pwr.sim.animal.ai.state.IAiState&lt;-pwr.sim.animal.ai.state.AiStateCopulatePredator" style="stroke: #A80036; stroke-width: 1.0; stroke-dasharray: 7.0,7.0;"/><polygon fill="none" points="929.09,137.53,949.81,133.09,936.37,149.48,929.09,137.53" style="stroke: #A80036; stroke-width: 1.0;"/><!--MD5=[e5367ba7475febf9c82c4f6453c3ad44]
reverse link pwr.sim.animal.ai.state.IAiState to pwr.sim.animal.ai.state.AiStateEvade--><path d="M1009,153.35 C1009,166.38 1009,180.13 1009,192.8 " fill="none" id="pwr.sim.animal.ai.state.IAiState&lt;-pwr.sim.animal.ai.state.AiStateEvade" style="stroke: #A80036; stroke-width: 1.0; stroke-dasharray: 7.0,7.0;"/><polygon fill="none" points="1002,153.09,1009,133.09,1016,153.09,1002,153.09" style="stroke: #A80036; stroke-width: 1.0;"/><!--MD5=[e592b11b2e4325c24b9ab7df11589baa]
reverse link pwr.sim.animal.ai.state.IAiState to pwr.sim.animal.ai.state.AiStateSleep--><path d="M1076.29,144.9 C1101.07,162.54 1128.95,182.38 1152.95,199.47 " fill="none" id="pwr.sim.animal.ai.state.IAiState&lt;-pwr.sim.animal.ai.state.AiStateSleep" style="stroke: #A80036; stroke-width: 1.0; stroke-dasharray: 7.0,7.0;"/><polygon fill="none" points="1071.94,150.39,1059.7,133.09,1080.05,138.99,1071.94,150.39" style="stroke: #A80036; stroke-width: 1.0;"/><!--MD5=[29c8f476f0695d5effd0b4dd77c410e4]
reverse link pwr.sim.animal.ai.state.IAiState to pwr.sim.animal.ai.state.AiStateLookForFood--><path d="M1094.26,122.41 C1153.15,140.58 1233,166.42 1302,193 C1307.7,195.2 1313.54,197.53 1319.4,199.94 " fill="none" id="pwr.sim.animal.ai.state.IAiState&lt;-pwr.sim.animal.ai.state.AiStateLookForFood" style="stroke: #A80036; stroke-width: 1.0; stroke-dasharray: 7.0,7.0;"/><polygon fill="none" points="1092.21,129.1,1075.13,116.55,1096.31,115.72,1092.21,129.1" style="stroke: #A80036; stroke-width: 1.0;"/><!--MD5=[4afa87c970f83683a30a40436ddf9837]
reverse link pwr.sim.animal.ai.state.IAiState to pwr.sim.animal.ai.state.AiStateHunt--><path d="M1095.3,104.64 C1198.73,115.74 1376.11,140.94 1520,193 C1525.85,195.12 1531.78,197.6 1537.65,200.3 " fill="none" id="pwr.sim.animal.ai.state.IAiState&lt;-pwr.sim.animal.ai.state.AiStateHunt" style="stroke: #A80036; stroke-width: 1.0; stroke-dasharray: 7.0,7.0;"/><polygon fill="none" points="1094.49,111.6,1075.32,102.58,1095.93,97.67,1094.49,111.6" style="stroke: #A80036; stroke-width: 1.0;"/><!--MD5=[733dfd892e0ff27a6477abb609519e98]
reverse link pwr.sim.animal.ai.state.IAiState to pwr.sim.animal.ai.state.AiStateCopulate--><path d="M1095.24,100.27 C1227.01,107.21 1485.15,128.53 1694,193 C1699.62,194.74 1705.32,196.76 1710.99,198.98 " fill="none" id="pwr.sim.animal.ai.state.IAiState&lt;-pwr.sim.animal.ai.state.AiStateCopulate" style="stroke: #A80036; stroke-width: 1.0; stroke-dasharray: 7.0,7.0;"/><polygon fill="none" points="1094.84,107.26,1075.21,99.27,1095.53,93.27,1094.84,107.26" style="stroke: #A80036; stroke-width: 1.0;"/><text fill="#888888" font-family="sans-serif" font-size="10" lengthAdjust="spacingAndGlyphs" textLength="186" x="868.5" y="343.2822">UMLDoclet 2.0.9, PlantUML 1.2020.08</text><!--MD5=[5a733acc5f4fbdf0210e31cd617578aa]
@startuml
    namespace pwr.sim.animal.ai.state {

        class AiStateEatCorpse [[AiStateEatCorpse.html]] {
            -animal: Animal
            +AiStateEatCorpse(Animal)
            +update(): IAiState
        }

        class AiStateSleepPredator [[AiStateSleepPredator.html]] {
            -animal: Animal
            +AiStateSleepPredator(Animal)
            +update(): IAiState
        }

        class AiStateEatPlant [[AiStateEatPlant.html]] {
            -animal: Animal
            +AiStateEatPlant(Animal)
            +update(): IAiState
        }

        interface IAiState [[IAiState.html]] {
            {abstract} +update(): IAiState
            +debugInfo(): String
        }

        class AiStateCopulatePredator [[AiStateCopulatePredator.html]] {
            -animal: Animal
            -mate: Animal
            +AiStateCopulatePredator(Animal)
            +update(): IAiState
        }

        class AiStateEvade [[AiStateEvade.html]] {
            -animal: Animal
            -predator: Animal
            +AiStateEvade(Animal, Animal)
            +update(): IAiState
        }

        class AiStateSleep [[AiStateSleep.html]] {
            -animal: Animal
            +AiStateSleep(Animal)
            +update(): IAiState
        }

        class AiStateLookForFood [[AiStateLookForFood.html]] {
            -animal: Animal
            -destination: Position2D
            +AiStateLookForFood(Animal)
            +update(): IAiState
        }

        class AiStateHunt [[AiStateHunt.html]] {
            -animal: Animal
            -prey: Animal
            +AiStateHunt(Animal)
            +update(): IAiState
        }

        class AiStateCopulate [[AiStateCopulate.html]] {
            -animal: Animal
            -mate: Animal
            +AiStateCopulate(Animal)
            +update(): IAiState
        }

        IAiState <|.. AiStateEatCorpse
        IAiState <|.. AiStateSleepPredator
        IAiState <|.. AiStateEatPlant
        IAiState <|.. AiStateCopulatePredator
        IAiState <|.. AiStateEvade
        IAiState <|.. AiStateSleep
        IAiState <|.. AiStateLookForFood
        IAiState <|.. AiStateHunt
        IAiState <|.. AiStateCopulate
    }

    center footer UMLDoclet 2.0.9, PlantUML 1.2020.08
@enduml

PlantUML version 1.2020.08(Sun Apr 26 16:08:22 CEST 2020)
(APACHE source distribution)
Java Runtime: OpenJDK Runtime Environment
JVM: OpenJDK 64-Bit Server VM
Java Version: 11.0.7+10-post-Ubuntu-3ubuntu1
Operating System: Linux
Default Encoding: UTF-8
Language: en
Country: GB
--></g></svg>