<?xml version="1.0" encoding="UTF-8" standalone="no"?><svg xmlns="http://www.w3.org/2000/svg" xmlns:xlink="http://www.w3.org/1999/xlink" contentScriptType="application/ecmascript" contentStyleType="text/css" height="468px" preserveAspectRatio="none" style="width:493px;height:468px;" version="1.1" viewBox="0 0 493 468" width="493px" zoomAndPan="magnify"><defs><filter height="300%" id="f2pgl5vyicqrh" width="300%" x="-1" y="-1"><feGaussianBlur result="blurOut" stdDeviation="2.0"/><feColorMatrix in="blurOut" result="blurOut2" type="matrix" values="0 0 0 0 0 0 0 0 0 0 0 0 0 0 0 0 0 0 .4 0"/><feOffset dx="4.0" dy="4.0" in="blurOut2" result="blurOut3"/><feBlend in="SourceGraphic" in2="blurOut3" mode="normal"/></filter></defs><g><!--MD5=[eb945461eba7eb248984bb62588b2b58]
cluster pwr.sim--><polygon fill="#FFFFFF" filter="url(#f2pgl5vyicqrh)" points="14,16,83,16,90,38.2969,329,38.2969,329,428,14,428,14,16" style="stroke: #000000; stroke-width: 1.5;"/><line style="stroke: #000000; stroke-width: 1.5;" x1="14" x2="90" y1="38.2969" y2="38.2969"/><text fill="#000000" font-family="sans-serif" font-size="14" font-weight="bold" lengthAdjust="spacingAndGlyphs" textLength="63" x="18" y="30.9951">pwr.sim</text><!--MD5=[38d21fd4d824cca984a032be1183e02d]
cluster pwr.sim.animal--><polygon fill="#FFFFFF" filter="url(#f2pgl5vyicqrh)" points="337,223,461,223,468,245.2969,471,245.2969,471,306,337,306,337,223" style="stroke: #000000; stroke-width: 1.5;"/><line style="stroke: #000000; stroke-width: 1.5;" x1="337" x2="468" y1="245.2969" y2="245.2969"/><text fill="#000000" font-family="sans-serif" font-size="14" font-weight="bold" lengthAdjust="spacingAndGlyphs" textLength="118" x="341" y="237.9951">pwr.sim.animal</text><!--MD5=[e0482b18df9ae4a1c0083229bf001a33]
class pwr.sim.World--><a href="World.html" target="_top" title="World.html" xlink:actuate="onRequest" xlink:href="World.html" xlink:show="new" xlink:title="World.html" xlink:type="simple"><rect fill="#FEFECE" filter="url(#f2pgl5vyicqrh)" height="124.8281" id="pwr.sim.World" style="stroke: #A80036; stroke-width: 1.5;" width="128" x="193" y="43"/><ellipse cx="235.45" cy="59" fill="#ADD1B2" rx="11" ry="11" style="stroke: #A80036; stroke-width: 1.0;"/><path d="M238.4188,64.6406 Q237.8406,64.9375 237.2,65.0781 Q236.5594,65.2344 235.8563,65.2344 Q233.3563,65.2344 232.0281,63.5938 Q230.7156,61.9375 230.7156,58.8125 Q230.7156,55.6875 232.0281,54.0313 Q233.3563,52.375 235.8563,52.375 Q236.5594,52.375 237.2,52.5313 Q237.8563,52.6875 238.4188,52.9844 L238.4188,55.7031 Q237.7938,55.125 237.2,54.8594 Q236.6063,54.5781 235.9813,54.5781 Q234.6375,54.5781 233.95,55.6563 Q233.2625,56.7188 233.2625,58.8125 Q233.2625,60.9063 233.95,61.9844 Q234.6375,63.0469 235.9813,63.0469 Q236.6063,63.0469 237.2,62.7813 Q237.7938,62.5 238.4188,61.9219 L238.4188,64.6406 Z "/><text fill="#000000" font-family="sans-serif" font-size="12" lengthAdjust="spacingAndGlyphs" textLength="35" x="255.55" y="63.1543">World</text><line style="stroke: #A80036; stroke-width: 1.5;" x1="194" x2="320" y1="75" y2="75"/><rect fill="none" height="6" style="stroke: #C82930; stroke-width: 1.0;" width="6" x="201" y="83"/><text fill="#000000" font-family="sans-serif" font-size="11" lengthAdjust="spacingAndGlyphs" textLength="52" x="213" y="89.2104">width: int</text><rect fill="none" height="6" style="stroke: #C82930; stroke-width: 1.0;" width="6" x="201" y="95.8047"/><text fill="#000000" font-family="sans-serif" font-size="11" lengthAdjust="spacingAndGlyphs" textLength="57" x="213" y="102.0151">height: int</text><line style="stroke: #A80036; stroke-width: 1.5;" x1="194" x2="320" y1="108.6094" y2="108.6094"/><ellipse cx="204" cy="119.6094" fill="#84BE84" rx="3" ry="3" style="stroke: #038048; stroke-width: 1.0;"/><text fill="#000000" font-family="sans-serif" font-size="11" lengthAdjust="spacingAndGlyphs" textLength="75" x="213" y="122.8198">World(int, int)</text><ellipse cx="204" cy="132.4141" fill="#84BE84" rx="3" ry="3" style="stroke: #038048; stroke-width: 1.0;"/><text fill="#000000" font-family="sans-serif" font-size="11" lengthAdjust="spacingAndGlyphs" textLength="78" x="213" y="135.6245">update(): void</text><ellipse cx="204" cy="145.2188" fill="#84BE84" rx="3" ry="3" style="stroke: #038048; stroke-width: 1.0;"/><text fill="#000000" font-family="sans-serif" font-size="11" lengthAdjust="spacingAndGlyphs" textLength="102" x="213" y="148.4292">populate(int): void</text><ellipse cx="204" cy="158.0234" fill="#84BE84" rx="3" ry="3" style="stroke: #038048; stroke-width: 1.0;"/><text fill="#000000" font-family="sans-serif" font-size="11" lengthAdjust="spacingAndGlyphs" textLength="67" x="213" y="161.2339">draw(): void</text></a><!--MD5=[36afbd8015daf50f8140428b26f6964c]
class pwr.sim.Tile--><a href="Tile.html" target="_top" title="Tile.html" xlink:actuate="onRequest" xlink:href="Tile.html" xlink:show="new" xlink:title="Tile.html" xlink:type="simple"><rect fill="#FEFECE" filter="url(#f2pgl5vyicqrh)" height="60.8047" id="pwr.sim.Tile" style="stroke: #A80036; stroke-width: 1.5;" width="93" x="210.5" y="359"/><ellipse cx="243.5" cy="375" fill="#ADD1B2" rx="11" ry="11" style="stroke: #A80036; stroke-width: 1.0;"/><path d="M246.4688,380.6406 Q245.8906,380.9375 245.25,381.0781 Q244.6094,381.2344 243.9063,381.2344 Q241.4063,381.2344 240.0781,379.5938 Q238.7656,377.9375 238.7656,374.8125 Q238.7656,371.6875 240.0781,370.0313 Q241.4063,368.375 243.9063,368.375 Q244.6094,368.375 245.25,368.5313 Q245.9063,368.6875 246.4688,368.9844 L246.4688,371.7031 Q245.8438,371.125 245.25,370.8594 Q244.6563,370.5781 244.0313,370.5781 Q242.6875,370.5781 242,371.6563 Q241.3125,372.7188 241.3125,374.8125 Q241.3125,376.9063 242,377.9844 Q242.6875,379.0469 244.0313,379.0469 Q244.6563,379.0469 245.25,378.7813 Q245.8438,378.5 246.4688,377.9219 L246.4688,380.6406 Z "/><text fill="#000000" font-family="sans-serif" font-size="12" lengthAdjust="spacingAndGlyphs" textLength="21" x="261.5" y="379.1543">Tile</text><line style="stroke: #A80036; stroke-width: 1.5;" x1="211.5" x2="302.5" y1="391" y2="391"/><line style="stroke: #A80036; stroke-width: 1.5;" x1="211.5" x2="302.5" y1="399" y2="399"/><ellipse cx="221.5" cy="410" fill="#84BE84" rx="3" ry="3" style="stroke: #038048; stroke-width: 1.0;"/><text fill="#000000" font-family="sans-serif" font-size="11" lengthAdjust="spacingAndGlyphs" textLength="67" x="230.5" y="413.2104">draw(): void</text></a><!--MD5=[549ac8facc89d3c0e244f97ab8bb88ce]
class pwr.sim.App--><a href="App.html" target="_top" title="App.html" xlink:actuate="onRequest" xlink:href="App.html" xlink:show="new" xlink:title="App.html" xlink:type="simple"><rect fill="#FEFECE" filter="url(#f2pgl5vyicqrh)" height="60.8047" id="pwr.sim.App" style="stroke: #A80036; stroke-width: 1.5;" width="135" x="22.5" y="75"/><ellipse cx="73.75" cy="91" fill="#ADD1B2" rx="11" ry="11" style="stroke: #A80036; stroke-width: 1.0;"/><path d="M76.7188,96.6406 Q76.1406,96.9375 75.5,97.0781 Q74.8594,97.2344 74.1563,97.2344 Q71.6563,97.2344 70.3281,95.5938 Q69.0156,93.9375 69.0156,90.8125 Q69.0156,87.6875 70.3281,86.0313 Q71.6563,84.375 74.1563,84.375 Q74.8594,84.375 75.5,84.5313 Q76.1563,84.6875 76.7188,84.9844 L76.7188,87.7031 Q76.0938,87.125 75.5,86.8594 Q74.9063,86.5781 74.2813,86.5781 Q72.9375,86.5781 72.25,87.6563 Q71.5625,88.7188 71.5625,90.8125 Q71.5625,92.9063 72.25,93.9844 Q72.9375,95.0469 74.2813,95.0469 Q74.9063,95.0469 75.5,94.7813 Q76.0938,94.5 76.7188,93.9219 L76.7188,96.6406 Z "/><text fill="#000000" font-family="sans-serif" font-size="12" lengthAdjust="spacingAndGlyphs" textLength="24" x="94.25" y="95.1543">App</text><line style="stroke: #A80036; stroke-width: 1.5;" x1="23.5" x2="156.5" y1="107" y2="107"/><line style="stroke: #A80036; stroke-width: 1.5;" x1="23.5" x2="156.5" y1="115" y2="115"/><ellipse cx="33.5" cy="126" fill="#84BE84" rx="3" ry="3" style="stroke: #038048; stroke-width: 1.0;"/><text fill="#000000" font-family="sans-serif" font-size="11" lengthAdjust="spacingAndGlyphs" text-decoration="underline" textLength="109" x="42.5" y="129.2104">main(String[]): void</text></a><!--MD5=[c3d732d9f16640c78ebd86f186b6dc1a]
class pwr.sim.animal.Animal--><rect fill="#FEFECE" filter="url(#f2pgl5vyicqrh)" height="48" id="pwr.sim.animal.Animal" style="stroke: #A80036; stroke-width: 1.5;" width="73" x="345.5" y="250"/><ellipse cx="360.5" cy="266" fill="#ADD1B2" rx="11" ry="11" style="stroke: #A80036; stroke-width: 1.0;"/><path d="M363.4688,271.6406 Q362.8906,271.9375 362.25,272.0781 Q361.6094,272.2344 360.9063,272.2344 Q358.4063,272.2344 357.0781,270.5938 Q355.7656,268.9375 355.7656,265.8125 Q355.7656,262.6875 357.0781,261.0313 Q358.4063,259.375 360.9063,259.375 Q361.6094,259.375 362.25,259.5313 Q362.9063,259.6875 363.4688,259.9844 L363.4688,262.7031 Q362.8438,262.125 362.25,261.8594 Q361.6563,261.5781 361.0313,261.5781 Q359.6875,261.5781 359,262.6563 Q358.3125,263.7188 358.3125,265.8125 Q358.3125,267.9063 359,268.9844 Q359.6875,270.0469 361.0313,270.0469 Q361.6563,270.0469 362.25,269.7813 Q362.8438,269.5 363.4688,268.9219 L363.4688,271.6406 Z "/><text fill="#000000" font-family="sans-serif" font-size="12" lengthAdjust="spacingAndGlyphs" textLength="41" x="374.5" y="270.1543">Animal</text><line style="stroke: #A80036; stroke-width: 1.5;" x1="346.5" x2="417.5" y1="282" y2="282"/><line style="stroke: #A80036; stroke-width: 1.5;" x1="346.5" x2="417.5" y1="290" y2="290"/><!--MD5=[b594ba8e26ea4f81c1aa5f7a3b6b0c8d]
link pwr.sim.World to pwr.sim.Tile--><path d="M257,168.1766 C257,225.1148 257,307.1056 257,353.6481 " fill="none" id="pwr.sim.World-&gt;pwr.sim.Tile" style="stroke: #A80036; stroke-width: 1.0;"/><polygon fill="#A80036" points="257,358.8678,261,349.8678,257,353.8678,253,349.8678,257,358.8678" style="stroke: #A80036; stroke-width: 1.0;"/><text fill="#000000" font-family="sans-serif" font-size="13" lengthAdjust="spacingAndGlyphs" textLength="26" x="258" y="278.5669">tiles</text><text fill="#000000" font-family="sans-serif" font-size="13" lengthAdjust="spacingAndGlyphs" textLength="7" x="249.2781" y="348.1038">*</text><!--MD5=[bebff4904899ea4f952af4b7fcb9f442]
link pwr.sim.World to pwr.sim.animal.Animal--><path d="M303.5454,168.2432 C323.328,194.9101 345.3961,224.6579 361.0756,245.7939 " fill="none" id="pwr.sim.World-&gt;pwr.sim.animal.Animal" style="stroke: #A80036; stroke-width: 1.0;"/><polygon fill="#A80036" points="364.1238,249.9028,361.974,240.2914,361.1448,245.8872,355.549,245.0579,364.1238,249.9028" style="stroke: #A80036; stroke-width: 1.0;"/><text fill="#000000" font-family="sans-serif" font-size="13" lengthAdjust="spacingAndGlyphs" textLength="50" x="339" y="211.0669">animals</text><text fill="#000000" font-family="sans-serif" font-size="13" lengthAdjust="spacingAndGlyphs" textLength="7" x="351.6461" y="238.8899">*</text><text fill="#888888" font-family="sans-serif" font-size="10" lengthAdjust="spacingAndGlyphs" textLength="186" x="155.5" y="455.2822">UMLDoclet 2.0.8, PlantUML 1.2020.01</text><!--MD5=[7506bb12a5a9dd2afa30953153aacb5c]
@startuml
    namespace pwr.sim {

        class World [[World.html]] {
            -width: int
            -height: int
            +World(int, int)
            +update(): void
            +populate(int): void
            +draw(): void
        }

        class Tile [[Tile.html]] {
            +draw(): void
        }

        class App [[App.html]] {
            {static} +main(String[]): void
        }

        World - -> "*" Tile: tiles
        World - -> "*" pwr.sim.animal.Animal: animals
    }

    center footer UMLDoclet 2.0.8, PlantUML 1.2020.01
@enduml

PlantUML version 1.2020.01(Sun Feb 16 18:40:32 CET 2020)
(APACHE source distribution)
Java Runtime: OpenJDK Runtime Environment
JVM: OpenJDK 64-Bit Server VM
Java Version: 11.0.7+10-post-Ubuntu-2ubuntu219.10
Operating System: Linux
Default Encoding: UTF-8
Language: en
Country: GB
--></g></svg>