<?xml version="1.0" encoding="UTF-8" standalone="no"?><svg xmlns="http://www.w3.org/2000/svg" xmlns:xlink="http://www.w3.org/1999/xlink" contentScriptType="application/ecmascript" contentStyleType="text/css" height="977px" preserveAspectRatio="none" style="width:483px;height:977px;" version="1.1" viewBox="0 0 483 977" width="483px" zoomAndPan="magnify"><defs><filter height="300%" id="fyqfivg08f6vr" width="300%" x="-1" y="-1"><feGaussianBlur result="blurOut" stdDeviation="2.0"/><feColorMatrix in="blurOut" result="blurOut2" type="matrix" values="0 0 0 0 0 0 0 0 0 0 0 0 0 0 0 0 0 0 .4 0"/><feOffset dx="4.0" dy="4.0" in="blurOut2" result="blurOut3"/><feBlend in="SourceGraphic" in2="blurOut3" mode="normal"/></filter></defs><g><!--MD5=[eb945461eba7eb248984bb62588b2b58]
cluster pwr.sim--><polygon fill="#FFFFFF" filter="url(#fyqfivg08f6vr)" points="22,156,91,156,98,178.2969,437,178.2969,437,751,22,751,22,156" style="stroke: #000000; stroke-width: 1.5;"/><line style="stroke: #000000; stroke-width: 1.5;" x1="22" x2="98" y1="178.2969" y2="178.2969"/><text fill="#000000" font-family="sans-serif" font-size="14" font-weight="bold" lengthAdjust="spacingAndGlyphs" textLength="63" x="26" y="170.9951">pwr.sim</text><!--MD5=[aa8f7b917213fcc1c2766e2d59b49067]
cluster java.lang--><polygon fill="#FFFFFF" filter="url(#fyqfivg08f6vr)" points="252,24,327,24,334,46.2969,378,46.2969,378,123,252,123,252,24" style="stroke: #000000; stroke-width: 1.5;"/><line style="stroke: #000000; stroke-width: 1.5;" x1="252" x2="334" y1="46.2969" y2="46.2969"/><text fill="#000000" font-family="sans-serif" font-size="14" font-weight="bold" lengthAdjust="spacingAndGlyphs" textLength="69" x="256" y="38.9951">java.lang</text><!--MD5=[38d21fd4d824cca984a032be1183e02d]
cluster pwr.sim.animal--><polygon fill="#FFFFFF" filter="url(#fyqfivg08f6vr)" points="69,830,193,830,200,852.2969,329,852.2969,329,929,69,929,69,830" style="stroke: #000000; stroke-width: 1.5;"/><line style="stroke: #000000; stroke-width: 1.5;" x1="69" x2="200" y1="852.2969" y2="852.2969"/><text fill="#000000" font-family="sans-serif" font-size="14" font-weight="bold" lengthAdjust="spacingAndGlyphs" textLength="118" x="73" y="844.9951">pwr.sim.animal</text><!--MD5=[c2dcf61bf1b29a597783dba432290bbf]
cluster pwr.sim.tile--><polygon fill="#FFFFFF" filter="url(#fyqfivg08f6vr)" points="353,830,451,830,458,852.2969,461,852.2969,461,929,353,929,353,830" style="stroke: #000000; stroke-width: 1.5;"/><line style="stroke: #000000; stroke-width: 1.5;" x1="353" x2="458" y1="852.2969" y2="852.2969"/><text fill="#000000" font-family="sans-serif" font-size="14" font-weight="bold" lengthAdjust="spacingAndGlyphs" textLength="92" x="357" y="844.9951">pwr.sim.tile</text><!--MD5=[866a64d3a691050e330e45953268b773]
class pwr.sim.Position2D--><a href="Position2D.html" target="_top" title="Position2D.html" xlink:actuate="onRequest" xlink:href="Position2D.html" xlink:show="new" xlink:title="Position2D.html" xlink:type="simple"><rect fill="#FEFECE" filter="url(#fyqfivg08f6vr)" height="176.0469" id="pwr.sim.Position2D" style="stroke: #A80036; stroke-width: 1.5;" width="212" x="209" y="191"/><ellipse cx="277.25" cy="207" fill="#ADD1B2" rx="11" ry="11" style="stroke: #A80036; stroke-width: 1.0;"/><path d="M280.2188,212.6406 Q279.6406,212.9375 279,213.0781 Q278.3594,213.2344 277.6563,213.2344 Q275.1563,213.2344 273.8281,211.5938 Q272.5156,209.9375 272.5156,206.8125 Q272.5156,203.6875 273.8281,202.0313 Q275.1563,200.375 277.6563,200.375 Q278.3594,200.375 279,200.5313 Q279.6563,200.6875 280.2188,200.9844 L280.2188,203.7031 Q279.5938,203.125 279,202.8594 Q278.4063,202.5781 277.7813,202.5781 Q276.4375,202.5781 275.75,203.6563 Q275.0625,204.7188 275.0625,206.8125 Q275.0625,208.9063 275.75,209.9844 Q276.4375,211.0469 277.7813,211.0469 Q278.4063,211.0469 279,210.7813 Q279.5938,210.5 280.2188,209.9219 L280.2188,212.6406 Z "/><text fill="#000000" font-family="sans-serif" font-size="12" lengthAdjust="spacingAndGlyphs" textLength="67" x="297.75" y="211.1543">Position2D</text><line style="stroke: #A80036; stroke-width: 1.5;" x1="210" x2="420" y1="223" y2="223"/><rect fill="none" height="6" style="stroke: #C82930; stroke-width: 1.0;" width="6" x="217" y="231"/><text fill="#000000" font-family="sans-serif" font-size="11" lengthAdjust="spacingAndGlyphs" textLength="28" x="229" y="237.2104">x: int</text><rect fill="none" height="6" style="stroke: #C82930; stroke-width: 1.0;" width="6" x="217" y="243.8047"/><text fill="#000000" font-family="sans-serif" font-size="11" lengthAdjust="spacingAndGlyphs" textLength="28" x="229" y="250.0151">y: int</text><line style="stroke: #A80036; stroke-width: 1.5;" x1="210" x2="420" y1="256.6094" y2="256.6094"/><ellipse cx="220" cy="267.6094" fill="#84BE84" rx="3" ry="3" style="stroke: #038048; stroke-width: 1.0;"/><text fill="#000000" font-family="sans-serif" font-size="11" lengthAdjust="spacingAndGlyphs" textLength="143" x="229" y="270.8198">Position2D(int, int, World)</text><ellipse cx="220" cy="280.4141" fill="#84BE84" rx="3" ry="3" style="stroke: #038048; stroke-width: 1.0;"/><text fill="#000000" font-family="sans-serif" font-size="11" lengthAdjust="spacingAndGlyphs" textLength="128" x="229" y="283.6245">Position2D(Position2D)</text><ellipse cx="220" cy="293.2188" fill="#84BE84" rx="3" ry="3" style="stroke: #038048; stroke-width: 1.0;"/><text fill="#000000" font-family="sans-serif" font-size="11" lengthAdjust="spacingAndGlyphs" textLength="106" x="229" y="296.4292">move(int, int): void</text><ellipse cx="220" cy="306.0234" fill="#84BE84" rx="3" ry="3" style="stroke: #038048; stroke-width: 1.0;"/><text fill="#000000" font-family="sans-serif" font-size="11" lengthAdjust="spacingAndGlyphs" textLength="138" x="229" y="309.2339">setPosition(int, int): void</text><ellipse cx="220" cy="318.8281" fill="#84BE84" rx="3" ry="3" style="stroke: #038048; stroke-width: 1.0;"/><text fill="#000000" font-family="sans-serif" font-size="11" lengthAdjust="spacingAndGlyphs" textLength="186" x="229" y="322.0386">distanceSquared(Position2D): int</text><ellipse cx="220" cy="331.6328" fill="#84BE84" rx="3" ry="3" style="stroke: #038048; stroke-width: 1.0;"/><text fill="#000000" font-family="sans-serif" font-size="11" lengthAdjust="spacingAndGlyphs" textLength="164" x="229" y="334.8433">delta(Position2D): Position2D</text><ellipse cx="220" cy="344.4375" fill="#84BE84" rx="3" ry="3" style="stroke: #038048; stroke-width: 1.0;"/><text fill="#000000" font-family="sans-serif" font-size="11" lengthAdjust="spacingAndGlyphs" textLength="55" x="229" y="347.6479">getX(): int</text><ellipse cx="220" cy="357.2422" fill="#84BE84" rx="3" ry="3" style="stroke: #038048; stroke-width: 1.0;"/><text fill="#000000" font-family="sans-serif" font-size="11" lengthAdjust="spacingAndGlyphs" textLength="55" x="229" y="360.4526">getY(): int</text></a><!--MD5=[e0482b18df9ae4a1c0083229bf001a33]
class pwr.sim.World--><a href="World.html" target="_top" title="World.html" xlink:actuate="onRequest" xlink:href="World.html" xlink:show="new" xlink:title="World.html" xlink:type="simple"><rect fill="#FEFECE" filter="url(#fyqfivg08f6vr)" height="291.2891" id="pwr.sim.World" style="stroke: #A80036; stroke-width: 1.5;" width="288" x="133" y="444"/><ellipse cx="255.25" cy="460" fill="#ADD1B2" rx="11" ry="11" style="stroke: #A80036; stroke-width: 1.0;"/><path d="M258.2188,465.6406 Q257.6406,465.9375 257,466.0781 Q256.3594,466.2344 255.6563,466.2344 Q253.1563,466.2344 251.8281,464.5938 Q250.5156,462.9375 250.5156,459.8125 Q250.5156,456.6875 251.8281,455.0313 Q253.1563,453.375 255.6563,453.375 Q256.3594,453.375 257,453.5313 Q257.6563,453.6875 258.2188,453.9844 L258.2188,456.7031 Q257.5938,456.125 257,455.8594 Q256.4063,455.5781 255.7813,455.5781 Q254.4375,455.5781 253.75,456.6563 Q253.0625,457.7188 253.0625,459.8125 Q253.0625,461.9063 253.75,462.9844 Q254.4375,464.0469 255.7813,464.0469 Q256.4063,464.0469 257,463.7813 Q257.5938,463.5 258.2188,462.9219 L258.2188,465.6406 Z "/><text fill="#000000" font-family="sans-serif" font-size="12" lengthAdjust="spacingAndGlyphs" textLength="35" x="275.75" y="464.1543">World</text><line style="stroke: #A80036; stroke-width: 1.5;" x1="134" x2="420" y1="476" y2="476"/><rect fill="none" height="6" style="stroke: #C82930; stroke-width: 1.0;" width="6" x="141" y="484"/><text fill="#000000" font-family="sans-serif" font-size="11" lengthAdjust="spacingAndGlyphs" textLength="52" x="153" y="490.2104">width: int</text><rect fill="none" height="6" style="stroke: #C82930; stroke-width: 1.0;" width="6" x="141" y="496.8047"/><text fill="#000000" font-family="sans-serif" font-size="11" lengthAdjust="spacingAndGlyphs" textLength="57" x="153" y="503.0151">height: int</text><line style="stroke: #A80036; stroke-width: 1.5;" x1="134" x2="420" y1="509.6094" y2="509.6094"/><ellipse cx="144" cy="520.6094" fill="#84BE84" rx="3" ry="3" style="stroke: #038048; stroke-width: 1.0;"/><text fill="#000000" font-family="sans-serif" font-size="11" lengthAdjust="spacingAndGlyphs" textLength="111" x="153" y="523.8198">World(int, int, Tile[])</text><ellipse cx="144" cy="533.4141" fill="#84BE84" rx="3" ry="3" style="stroke: #038048; stroke-width: 1.0;"/><text fill="#000000" font-family="sans-serif" font-size="11" lengthAdjust="spacingAndGlyphs" text-decoration="underline" textLength="153" x="153" y="536.6245">loadFromFile(String): World</text><ellipse cx="144" cy="546.2188" fill="#84BE84" rx="3" ry="3" style="stroke: #038048; stroke-width: 1.0;"/><text fill="#000000" font-family="sans-serif" font-size="11" lengthAdjust="spacingAndGlyphs" textLength="78" x="153" y="549.4292">update(): void</text><ellipse cx="144" cy="559.0234" fill="#84BE84" rx="3" ry="3" style="stroke: #038048; stroke-width: 1.0;"/><text fill="#000000" font-family="sans-serif" font-size="11" lengthAdjust="spacingAndGlyphs" textLength="175" x="153" y="562.2339">populate(int, AnimalType): void</text><rect fill="#F24D5C" height="6" style="stroke: #C82930; stroke-width: 1.0;" width="6" x="141" y="568.8281"/><text fill="#000000" font-family="sans-serif" font-size="11" lengthAdjust="spacingAndGlyphs" textLength="179" x="153" y="575.0386">spawnAnimal(AnimalType): void</text><rect fill="#F24D5C" height="6" style="stroke: #C82930; stroke-width: 1.0;" width="6" x="141" y="581.6328"/><text fill="#000000" font-family="sans-serif" font-size="11" lengthAdjust="spacingAndGlyphs" textLength="262" x="153" y="587.8433">spawnAnimal(AnimalType, Position2D): Animal</text><rect fill="#F24D5C" height="6" style="stroke: #C82930; stroke-width: 1.0;" width="6" x="141" y="594.4375"/><text fill="#000000" font-family="sans-serif" font-size="11" lengthAdjust="spacingAndGlyphs" textLength="220" x="153" y="600.6479">spawnAnimal(Animal, Position2D): void</text><ellipse cx="144" cy="610.2422" fill="#84BE84" rx="3" ry="3" style="stroke: #038048; stroke-width: 1.0;"/><text fill="#000000" font-family="sans-serif" font-size="11" lengthAdjust="spacingAndGlyphs" textLength="194" x="153" y="613.4526">toSpawn(Animal, Position2D): void</text><rect fill="#F24D5C" height="6" style="stroke: #C82930; stroke-width: 1.0;" width="6" x="141" y="620.0469"/><text fill="#000000" font-family="sans-serif" font-size="11" lengthAdjust="spacingAndGlyphs" textLength="112" x="153" y="626.2573">addToSpawn(): void</text><ellipse cx="144" cy="635.8516" fill="#84BE84" rx="3" ry="3" style="stroke: #038048; stroke-width: 1.0;"/><text fill="#000000" font-family="sans-serif" font-size="11" lengthAdjust="spacingAndGlyphs" textLength="133" x="153" y="639.062">toRemove(Animal): void</text><rect fill="#F24D5C" height="6" style="stroke: #C82930; stroke-width: 1.0;" width="6" x="141" y="645.6563"/><text fill="#000000" font-family="sans-serif" font-size="11" lengthAdjust="spacingAndGlyphs" textLength="141" x="153" y="651.8667">removeToRemove(): void</text><ellipse cx="144" cy="661.4609" fill="#84BE84" rx="3" ry="3" style="stroke: #038048; stroke-width: 1.0;"/><text fill="#000000" font-family="sans-serif" font-size="11" lengthAdjust="spacingAndGlyphs" textLength="67" x="153" y="664.6714">draw(): void</text><ellipse cx="144" cy="674.2656" fill="#84BE84" rx="3" ry="3" style="stroke: #038048; stroke-width: 1.0;"/><text fill="#000000" font-family="sans-serif" font-size="11" lengthAdjust="spacingAndGlyphs" textLength="143" x="153" y="677.4761">drawAnimal(Animal): void</text><ellipse cx="144" cy="687.0703" fill="#84BE84" rx="3" ry="3" style="stroke: #038048; stroke-width: 1.0;"/><text fill="#000000" font-family="sans-serif" font-size="11" lengthAdjust="spacingAndGlyphs" textLength="110" x="153" y="690.2808">getTile(int, int): Tile</text><ellipse cx="144" cy="699.875" fill="#84BE84" rx="3" ry="3" style="stroke: #038048; stroke-width: 1.0;"/><text fill="#000000" font-family="sans-serif" font-size="11" lengthAdjust="spacingAndGlyphs" textLength="134" x="153" y="703.0854">getTile(Position2D): Tile</text><ellipse cx="144" cy="712.6797" fill="#84BE84" rx="3" ry="3" style="stroke: #038048; stroke-width: 1.0;"/><text fill="#000000" font-family="sans-serif" font-size="11" lengthAdjust="spacingAndGlyphs" textLength="110" x="153" y="715.8901">breed(Animal): void</text><rect fill="#F24D5C" height="6" style="stroke: #C82930; stroke-width: 1.0;" width="6" x="141" y="722.4844"/><text fill="#000000" font-family="sans-serif" font-size="11" lengthAdjust="spacingAndGlyphs" textLength="180" x="153" y="728.6948">newPosition(int, int): Position2D</text></a><!--MD5=[549ac8facc89d3c0e244f97ab8bb88ce]
class pwr.sim.App--><a href="App.html" target="_top" title="App.html" xlink:actuate="onRequest" xlink:href="App.html" xlink:show="new" xlink:title="App.html" xlink:type="simple"><rect fill="#FEFECE" filter="url(#fyqfivg08f6vr)" height="60.8047" id="pwr.sim.App" style="stroke: #A80036; stroke-width: 1.5;" width="135" x="38.5" y="248.5"/><ellipse cx="89.75" cy="264.5" fill="#ADD1B2" rx="11" ry="11" style="stroke: #A80036; stroke-width: 1.0;"/><path d="M92.7188,270.1406 Q92.1406,270.4375 91.5,270.5781 Q90.8594,270.7344 90.1563,270.7344 Q87.6563,270.7344 86.3281,269.0938 Q85.0156,267.4375 85.0156,264.3125 Q85.0156,261.1875 86.3281,259.5313 Q87.6563,257.875 90.1563,257.875 Q90.8594,257.875 91.5,258.0313 Q92.1563,258.1875 92.7188,258.4844 L92.7188,261.2031 Q92.0938,260.625 91.5,260.3594 Q90.9063,260.0781 90.2813,260.0781 Q88.9375,260.0781 88.25,261.1563 Q87.5625,262.2188 87.5625,264.3125 Q87.5625,266.4063 88.25,267.4844 Q88.9375,268.5469 90.2813,268.5469 Q90.9063,268.5469 91.5,268.2813 Q92.0938,268 92.7188,267.4219 L92.7188,270.1406 Z "/><text fill="#000000" font-family="sans-serif" font-size="12" lengthAdjust="spacingAndGlyphs" textLength="24" x="110.25" y="268.6543">App</text><line style="stroke: #A80036; stroke-width: 1.5;" x1="39.5" x2="172.5" y1="280.5" y2="280.5"/><line style="stroke: #A80036; stroke-width: 1.5;" x1="39.5" x2="172.5" y1="288.5" y2="288.5"/><ellipse cx="49.5" cy="299.5" fill="#84BE84" rx="3" ry="3" style="stroke: #038048; stroke-width: 1.0;"/><text fill="#000000" font-family="sans-serif" font-size="11" lengthAdjust="spacingAndGlyphs" text-decoration="underline" textLength="109" x="58.5" y="302.7104">main(String[]): void</text></a><!--MD5=[e928e726d300d3bec07862808e5ce117]
class java.lang.Cloneable--><rect fill="#FEFECE" filter="url(#fyqfivg08f6vr)" height="48" id="java.lang.Cloneable" style="stroke: #A80036; stroke-width: 1.5;" width="94" x="268" y="59"/><ellipse cx="283" cy="75" fill="#B4A7E5" rx="11" ry="11" style="stroke: #A80036; stroke-width: 1.0;"/><path d="M278.9219,70.7656 L278.9219,68.6094 L286.3125,68.6094 L286.3125,70.7656 L283.8438,70.7656 L283.8438,78.8438 L286.3125,78.8438 L286.3125,81 L278.9219,81 L278.9219,78.8438 L281.3906,78.8438 L281.3906,70.7656 L278.9219,70.7656 Z "/><text fill="#000000" font-family="sans-serif" font-size="12" font-style="italic" lengthAdjust="spacingAndGlyphs" textLength="62" x="297" y="79.1543">Cloneable</text><line style="stroke: #A80036; stroke-width: 1.5;" x1="269" x2="361" y1="91" y2="91"/><line style="stroke: #A80036; stroke-width: 1.5;" x1="269" x2="361" y1="99" y2="99"/><!--MD5=[987227bc14f49794a20df13de0d78393]
class pwr.sim.animal.AnimalFactory--><rect fill="#FEFECE" filter="url(#fyqfivg08f6vr)" height="48" id="pwr.sim.animal.AnimalFactory" style="stroke: #A80036; stroke-width: 1.5;" width="119" x="85.5" y="865"/><ellipse cx="100.5" cy="881" fill="#ADD1B2" rx="11" ry="11" style="stroke: #A80036; stroke-width: 1.0;"/><path d="M103.4688,886.6406 Q102.8906,886.9375 102.25,887.0781 Q101.6094,887.2344 100.9063,887.2344 Q98.4063,887.2344 97.0781,885.5938 Q95.7656,883.9375 95.7656,880.8125 Q95.7656,877.6875 97.0781,876.0313 Q98.4063,874.375 100.9063,874.375 Q101.6094,874.375 102.25,874.5313 Q102.9063,874.6875 103.4688,874.9844 L103.4688,877.7031 Q102.8438,877.125 102.25,876.8594 Q101.6563,876.5781 101.0313,876.5781 Q99.6875,876.5781 99,877.6563 Q98.3125,878.7188 98.3125,880.8125 Q98.3125,882.9063 99,883.9844 Q99.6875,885.0469 101.0313,885.0469 Q101.6563,885.0469 102.25,884.7813 Q102.8438,884.5 103.4688,883.9219 L103.4688,886.6406 Z "/><text fill="#000000" font-family="sans-serif" font-size="12" lengthAdjust="spacingAndGlyphs" textLength="87" x="114.5" y="885.1543">AnimalFactory</text><line style="stroke: #A80036; stroke-width: 1.5;" x1="86.5" x2="203.5" y1="897" y2="897"/><line style="stroke: #A80036; stroke-width: 1.5;" x1="86.5" x2="203.5" y1="905" y2="905"/><!--MD5=[c3d732d9f16640c78ebd86f186b6dc1a]
class pwr.sim.animal.Animal--><rect fill="#FEFECE" filter="url(#fyqfivg08f6vr)" height="48" id="pwr.sim.animal.Animal" style="stroke: #A80036; stroke-width: 1.5;" width="73" x="239.5" y="865"/><ellipse cx="254.5" cy="881" fill="#ADD1B2" rx="11" ry="11" style="stroke: #A80036; stroke-width: 1.0;"/><path d="M257.4688,886.6406 Q256.8906,886.9375 256.25,887.0781 Q255.6094,887.2344 254.9063,887.2344 Q252.4063,887.2344 251.0781,885.5938 Q249.7656,883.9375 249.7656,880.8125 Q249.7656,877.6875 251.0781,876.0313 Q252.4063,874.375 254.9063,874.375 Q255.6094,874.375 256.25,874.5313 Q256.9063,874.6875 257.4688,874.9844 L257.4688,877.7031 Q256.8438,877.125 256.25,876.8594 Q255.6563,876.5781 255.0313,876.5781 Q253.6875,876.5781 253,877.6563 Q252.3125,878.7188 252.3125,880.8125 Q252.3125,882.9063 253,883.9844 Q253.6875,885.0469 255.0313,885.0469 Q255.6563,885.0469 256.25,884.7813 Q256.8438,884.5 257.4688,883.9219 L257.4688,886.6406 Z "/><text fill="#000000" font-family="sans-serif" font-size="12" lengthAdjust="spacingAndGlyphs" textLength="41" x="268.5" y="885.1543">Animal</text><line style="stroke: #A80036; stroke-width: 1.5;" x1="240.5" x2="311.5" y1="897" y2="897"/><line style="stroke: #A80036; stroke-width: 1.5;" x1="240.5" x2="311.5" y1="905" y2="905"/><!--MD5=[255d31fd1638d93d5cc60083b3595b03]
class pwr.sim.tile.Tile--><rect fill="#FEFECE" filter="url(#fyqfivg08f6vr)" height="48" id="pwr.sim.tile.Tile" style="stroke: #A80036; stroke-width: 1.5;" width="53" x="369.5" y="865"/><ellipse cx="384.5" cy="881" fill="#ADD1B2" rx="11" ry="11" style="stroke: #A80036; stroke-width: 1.0;"/><path d="M387.4688,886.6406 Q386.8906,886.9375 386.25,887.0781 Q385.6094,887.2344 384.9063,887.2344 Q382.4063,887.2344 381.0781,885.5938 Q379.7656,883.9375 379.7656,880.8125 Q379.7656,877.6875 381.0781,876.0313 Q382.4063,874.375 384.9063,874.375 Q385.6094,874.375 386.25,874.5313 Q386.9063,874.6875 387.4688,874.9844 L387.4688,877.7031 Q386.8438,877.125 386.25,876.8594 Q385.6563,876.5781 385.0313,876.5781 Q383.6875,876.5781 383,877.6563 Q382.3125,878.7188 382.3125,880.8125 Q382.3125,882.9063 383,883.9844 Q383.6875,885.0469 385.0313,885.0469 Q385.6563,885.0469 386.25,884.7813 Q386.8438,884.5 387.4688,883.9219 L387.4688,886.6406 Z "/><text fill="#000000" font-family="sans-serif" font-size="12" lengthAdjust="spacingAndGlyphs" textLength="21" x="398.5" y="885.1543">Tile</text><line style="stroke: #A80036; stroke-width: 1.5;" x1="370.5" x2="421.5" y1="897" y2="897"/><line style="stroke: #A80036; stroke-width: 1.5;" x1="370.5" x2="421.5" y1="905" y2="905"/><!--MD5=[2148e9623f9ef5c1cadec63057a2d595]
reverse link java.lang.Cloneable to pwr.sim.Position2D--><path d="M315,127.02 C315,145.86 315,168.69 315,190.82 " fill="none" id="java.lang.Cloneable&lt;-pwr.sim.Position2D" style="stroke: #A80036; stroke-width: 1.0; stroke-dasharray: 7.0,7.0;"/><polygon fill="none" points="308,127.02,315,107.02,322,127.02,308,127.02" style="stroke: #A80036; stroke-width: 1.0;"/><!--MD5=[6c51088a85eec768b1bfc96db52d9ccf]
link pwr.sim.Position2D to pwr.sim.World--><path d="M304.26,367.17 C301.52,389.46 298.49,414.07 295.47,438.54 " fill="none" id="pwr.sim.Position2D-&gt;pwr.sim.World" style="stroke: #A80036; stroke-width: 1.0;"/><polygon fill="#A80036" points="294.83,443.75,299.9035,435.3085,295.4432,438.7877,291.9639,434.3274,294.83,443.75" style="stroke: #A80036; stroke-width: 1.0;"/><text fill="#000000" font-family="sans-serif" font-size="13" lengthAdjust="spacingAndGlyphs" textLength="33" x="301" y="410.0669">world</text><!--MD5=[03b29c26dadd101f34a3823bbbdf192d]
link pwr.sim.World to pwr.sim.animal.AnimalFactory--><path d="M190.09,735.37 C185.01,745.92 180.25,756.53 176,767 C163.6,797.58 154.99,834.56 150.04,859.53 " fill="none" id="pwr.sim.World-&gt;pwr.sim.animal.AnimalFactory" style="stroke: #A80036; stroke-width: 1.0;"/><polygon fill="#A80036" points="149.04,864.66,154.6912,856.5938,149.9986,859.7527,146.8396,855.0601,149.04,864.66" style="stroke: #A80036; stroke-width: 1.0;"/><text fill="#000000" font-family="sans-serif" font-size="13" lengthAdjust="spacingAndGlyphs" textLength="90" x="177" y="795.0669">animalFactory</text><!--MD5=[af8e19ab388f7c598b04694d638f4929]
link pwr.sim.World to pwr.sim.tile.Tile--><path d="M338.26,735.27 C342.62,745.98 346.91,756.65 351,767 C363.52,798.65 377.02,835.34 385.93,859.94 " fill="none" id="pwr.sim.World-&gt;pwr.sim.tile.Tile" style="stroke: #A80036; stroke-width: 1.0;"/><polygon fill="#A80036" points="387.65,864.7,388.3503,854.8761,385.9493,859.9981,380.8273,857.5972,387.65,864.7" style="stroke: #A80036; stroke-width: 1.0;"/><text fill="#000000" font-family="sans-serif" font-size="13" lengthAdjust="spacingAndGlyphs" textLength="26" x="369" y="795.0669">tiles</text><text fill="#000000" font-family="sans-serif" font-size="13" lengthAdjust="spacingAndGlyphs" textLength="7" x="377.7616" y="854.0318">*</text><!--MD5=[bebff4904899ea4f952af4b7fcb9f442]
link pwr.sim.World to pwr.sim.animal.Animal--><path d="M276.51,735.33 C276.35,782.63 276.19,830.45 276.1,859.66 " fill="none" id="pwr.sim.World-&gt;pwr.sim.animal.Animal" style="stroke: #A80036; stroke-width: 1.0;"/><polygon fill="#A80036" points="276.08,864.9,280.1057,855.9115,276.0943,859.9,272.1057,855.8886,276.08,864.9" style="stroke: #A80036; stroke-width: 1.0;"/><text fill="#000000" font-family="sans-serif" font-size="13" lengthAdjust="spacingAndGlyphs" textLength="50" x="284.5" y="780.0669">animals</text><text fill="#000000" font-family="sans-serif" font-size="13" lengthAdjust="spacingAndGlyphs" textLength="55" x="282" y="795.1997">toSpawn</text><text fill="#000000" font-family="sans-serif" font-size="13" lengthAdjust="spacingAndGlyphs" textLength="65" x="277" y="810.3325">toRemove</text><text fill="#000000" font-family="sans-serif" font-size="13" lengthAdjust="spacingAndGlyphs" textLength="7" x="268.2036" y="853.8864">*</text><text fill="#888888" font-family="sans-serif" font-size="10" lengthAdjust="spacingAndGlyphs" textLength="186" x="154.5" y="964.2822">UMLDoclet 2.0.9, PlantUML 1.2020.08</text><!--MD5=[952d7a27ead33d79f00a957fbc127135]
@startuml
    namespace pwr.sim {

        class Position2D [[Position2D.html]] {
            -x: int
            -y: int
            +Position2D(int, int, World)
            +Position2D(Position2D)
            +move(int, int): void
            +setPosition(int, int): void
            +distanceSquared(Position2D): int
            +delta(Position2D): Position2D
            +getX(): int
            +getY(): int
        }

        class World [[World.html]] {
            -width: int
            -height: int
            +World(int, int, Tile[])
            {static} +loadFromFile(String): World
            +update(): void
            +populate(int, AnimalType): void
            -spawnAnimal(AnimalType): void
            -spawnAnimal(AnimalType, Position2D): Animal
            -spawnAnimal(Animal, Position2D): void
            +toSpawn(Animal, Position2D): void
            -addToSpawn(): void
            +toRemove(Animal): void
            -removeToRemove(): void
            +draw(): void
            +drawAnimal(Animal): void
            +getTile(int, int): Tile
            +getTile(Position2D): Tile
            +breed(Animal): void
            -newPosition(int, int): Position2D
        }

        class App [[App.html]] {
            {static} +main(String[]): void
        }

        java.lang.Cloneable <|.. Position2D
        Position2D - -> World: world
        World - -> pwr.sim.animal.AnimalFactory: animalFactory
        World - -> "*" pwr.sim.tile.Tile: tiles
        World - -> "*" pwr.sim.animal.Animal: animals\ntoSpawn\ntoRemove
    }

    namespace java.lang {
        interface Cloneable
    }

    center footer UMLDoclet 2.0.9, PlantUML 1.2020.08
@enduml

PlantUML version 1.2020.08(Sun Apr 26 16:08:22 CEST 2020)
(APACHE source distribution)
Java Runtime: OpenJDK Runtime Environment
JVM: OpenJDK 64-Bit Server VM
Java Version: 11.0.7+10-post-Ubuntu-3ubuntu1
Operating System: Linux
Default Encoding: UTF-8
Language: en
Country: GB
--></g></svg>