<?xml version="1.0" encoding="UTF-8" standalone="no"?><svg xmlns="http://www.w3.org/2000/svg" xmlns:xlink="http://www.w3.org/1999/xlink" contentScriptType="application/ecmascript" contentStyleType="text/css" height="333px" preserveAspectRatio="none" style="width:229px;height:333px;" version="1.1" viewBox="0 0 229 333" width="229px" zoomAndPan="magnify"><defs><filter height="300%" id="f1vh473ch7k48j" width="300%" x="-1" y="-1"><feGaussianBlur result="blurOut" stdDeviation="2.0"/><feColorMatrix in="blurOut" result="blurOut2" type="matrix" values="0 0 0 0 0 0 0 0 0 0 0 0 0 0 0 0 0 0 .4 0"/><feOffset dx="4.0" dy="4.0" in="blurOut2" result="blurOut3"/><feBlend in="SourceGraphic" in2="blurOut3" mode="normal"/></filter></defs><g><!--MD5=[866a64d3a691050e330e45953268b773]
class pwr.sim.Position2D--><a href="Position2D.html" target="_top" title="Position2D.html" xlink:actuate="onRequest" xlink:href="Position2D.html" xlink:show="new" xlink:title="Position2D.html" xlink:type="simple"><rect fill="#FEFECE" filter="url(#f1vh473ch7k48j)" height="194.7891" id="pwr.sim.Position2D" style="stroke: #A80036; stroke-width: 1.5;" width="212" x="6" y="106"/><ellipse cx="70.25" cy="124.9688" fill="#ADD1B2" rx="11" ry="11" style="stroke: #A80036; stroke-width: 1.0;"/><path d="M73.2188,130.6094 Q72.6406,130.9063 72,131.0469 Q71.3594,131.2031 70.6563,131.2031 Q68.1563,131.2031 66.8281,129.5625 Q65.5156,127.9063 65.5156,124.7813 Q65.5156,121.6563 66.8281,120 Q68.1563,118.3438 70.6563,118.3438 Q71.3594,118.3438 72,118.5 Q72.6563,118.6563 73.2188,118.9531 L73.2188,121.6719 Q72.5938,121.0938 72,120.8281 Q71.4063,120.5469 70.7813,120.5469 Q69.4375,120.5469 68.75,121.625 Q68.0625,122.6875 68.0625,124.7813 Q68.0625,126.875 68.75,127.9531 Q69.4375,129.0156 70.7813,129.0156 Q71.4063,129.0156 72,128.75 Q72.5938,128.4688 73.2188,127.8906 L73.2188,130.6094 Z "/><text fill="#000000" font-family="sans-serif" font-size="14" lengthAdjust="spacingAndGlyphs" textLength="75" x="90.75" y="123.9951">Position2D</text><text fill="#000000" font-family="sans-serif" font-size="10" lengthAdjust="spacingAndGlyphs" textLength="38" x="109.25" y="136.5791">pwr.sim</text><line style="stroke: #A80036; stroke-width: 1.5;" x1="7" x2="217" y1="143.9375" y2="143.9375"/><rect fill="none" height="6" style="stroke: #C82930; stroke-width: 1.0;" width="6" x="14" y="151.9375"/><text fill="#000000" font-family="sans-serif" font-size="11" lengthAdjust="spacingAndGlyphs" textLength="70" x="26" y="158.1479">world: World</text><rect fill="none" height="6" style="stroke: #C82930; stroke-width: 1.0;" width="6" x="14" y="164.7422"/><text fill="#000000" font-family="sans-serif" font-size="11" lengthAdjust="spacingAndGlyphs" textLength="28" x="26" y="170.9526">x: int</text><rect fill="none" height="6" style="stroke: #C82930; stroke-width: 1.0;" width="6" x="14" y="177.5469"/><text fill="#000000" font-family="sans-serif" font-size="11" lengthAdjust="spacingAndGlyphs" textLength="28" x="26" y="183.7573">y: int</text><line style="stroke: #A80036; stroke-width: 1.5;" x1="7" x2="217" y1="190.3516" y2="190.3516"/><ellipse cx="17" cy="201.3516" fill="#84BE84" rx="3" ry="3" style="stroke: #038048; stroke-width: 1.0;"/><text fill="#000000" font-family="sans-serif" font-size="11" lengthAdjust="spacingAndGlyphs" textLength="143" x="26" y="204.562">Position2D(int, int, World)</text><ellipse cx="17" cy="214.1563" fill="#84BE84" rx="3" ry="3" style="stroke: #038048; stroke-width: 1.0;"/><text fill="#000000" font-family="sans-serif" font-size="11" lengthAdjust="spacingAndGlyphs" textLength="128" x="26" y="217.3667">Position2D(Position2D)</text><ellipse cx="17" cy="226.9609" fill="#84BE84" rx="3" ry="3" style="stroke: #038048; stroke-width: 1.0;"/><text fill="#000000" font-family="sans-serif" font-size="11" lengthAdjust="spacingAndGlyphs" textLength="106" x="26" y="230.1714">move(int, int): void</text><ellipse cx="17" cy="239.7656" fill="#84BE84" rx="3" ry="3" style="stroke: #038048; stroke-width: 1.0;"/><text fill="#000000" font-family="sans-serif" font-size="11" lengthAdjust="spacingAndGlyphs" textLength="138" x="26" y="242.9761">setPosition(int, int): void</text><ellipse cx="17" cy="252.5703" fill="#84BE84" rx="3" ry="3" style="stroke: #038048; stroke-width: 1.0;"/><text fill="#000000" font-family="sans-serif" font-size="11" lengthAdjust="spacingAndGlyphs" textLength="186" x="26" y="255.7808">distanceSquared(Position2D): int</text><ellipse cx="17" cy="265.375" fill="#84BE84" rx="3" ry="3" style="stroke: #038048; stroke-width: 1.0;"/><text fill="#000000" font-family="sans-serif" font-size="11" lengthAdjust="spacingAndGlyphs" textLength="164" x="26" y="268.5854">delta(Position2D): Position2D</text><ellipse cx="17" cy="278.1797" fill="#84BE84" rx="3" ry="3" style="stroke: #038048; stroke-width: 1.0;"/><text fill="#000000" font-family="sans-serif" font-size="11" lengthAdjust="spacingAndGlyphs" textLength="55" x="26" y="281.3901">getX(): int</text><ellipse cx="17" cy="290.9844" fill="#84BE84" rx="3" ry="3" style="stroke: #038048; stroke-width: 1.0;"/><text fill="#000000" font-family="sans-serif" font-size="11" lengthAdjust="spacingAndGlyphs" textLength="55" x="26" y="294.1948">getY(): int</text></a><!--MD5=[e928e726d300d3bec07862808e5ce117]
class java.lang.Cloneable--><rect fill="#FEFECE" filter="url(#f1vh473ch7k48j)" height="37.9375" id="java.lang.Cloneable" style="stroke: #A80036; stroke-width: 1.5;" width="101" x="61.5" y="8"/><ellipse cx="76.5" cy="26.9688" fill="#B4A7E5" rx="11" ry="11" style="stroke: #A80036; stroke-width: 1.0;"/><path d="M72.4219,22.7344 L72.4219,20.5781 L79.8125,20.5781 L79.8125,22.7344 L77.3438,22.7344 L77.3438,30.8125 L79.8125,30.8125 L79.8125,32.9688 L72.4219,32.9688 L72.4219,30.8125 L74.8906,30.8125 L74.8906,22.7344 L72.4219,22.7344 Z "/><text fill="#000000" font-family="sans-serif" font-size="14" font-style="italic" lengthAdjust="spacingAndGlyphs" textLength="69" x="90.5" y="25.9951">Cloneable</text><text fill="#000000" font-family="sans-serif" font-size="10" font-style="italic" lengthAdjust="spacingAndGlyphs" textLength="45" x="102.5" y="38.5791">java.lang</text><!--MD5=[2148e9623f9ef5c1cadec63057a2d595]
reverse link java.lang.Cloneable to pwr.sim.Position2D--><path d="M112,66.24 C112,78.1 112,91.74 112,105.72 " fill="none" id="java.lang.Cloneable&lt;-pwr.sim.Position2D" style="stroke: #A80036; stroke-width: 1.0; stroke-dasharray: 7.0,7.0;"/><polygon fill="none" points="105,66.02,112,46.02,119,66.02,105,66.02" style="stroke: #A80036; stroke-width: 1.0;"/><text fill="#888888" font-family="sans-serif" font-size="10" lengthAdjust="spacingAndGlyphs" textLength="186" x="25" y="320.2822">UMLDoclet 2.0.9, PlantUML 1.2020.08</text><!--MD5=[f263e27793dfc87b6aec4ea4196194c0]
@startuml
    set namespaceSeparator none
    hide empty fields
    hide empty methods

    class "<size:14>Position2D\n<size:10>pwr.sim" as pwr.sim.Position2D [[Position2D.html]] {
        -world: World
        -x: int
        -y: int
        +Position2D(int, int, World)
        +Position2D(Position2D)
        +move(int, int): void
        +setPosition(int, int): void
        +distanceSquared(Position2D): int
        +delta(Position2D): Position2D
        +getX(): int
        +getY(): int
    }

    interface "<size:14>Cloneable\n<size:10>java.lang" as java.lang.Cloneable

    java.lang.Cloneable <|.. pwr.sim.Position2D

    center footer UMLDoclet 2.0.9, PlantUML 1.2020.08
@enduml

PlantUML version 1.2020.08(Sun Apr 26 16:08:22 CEST 2020)
(APACHE source distribution)
Java Runtime: OpenJDK Runtime Environment
JVM: OpenJDK 64-Bit Server VM
Java Version: 11.0.7+10-post-Ubuntu-3ubuntu1
Operating System: Linux
Default Encoding: UTF-8
Language: en
Country: GB
--></g></svg>