<?xml version="1.0" encoding="UTF-8" standalone="no"?><svg xmlns="http://www.w3.org/2000/svg" xmlns:xlink="http://www.w3.org/1999/xlink" contentScriptType="application/ecmascript" contentStyleType="text/css" height="95px" preserveAspectRatio="none" style="width:198px;height:95px;" version="1.1" viewBox="0 0 198 95" width="198px" zoomAndPan="magnify"><defs><filter height="300%" id="f13fw5q6u1jibj" width="300%" x="-1" y="-1"><feGaussianBlur result="blurOut" stdDeviation="2.0"/><feColorMatrix in="blurOut" result="blurOut2" type="matrix" values="0 0 0 0 0 0 0 0 0 0 0 0 0 0 0 0 0 0 .4 0"/><feOffset dx="4.0" dy="4.0" in="blurOut2" result="blurOut3"/><feBlend in="SourceGraphic" in2="blurOut3" mode="normal"/></filter></defs><g><!--MD5=[36afbd8015daf50f8140428b26f6964c]
class pwr.sim.Tile--><a href="Tile.html" target="_top" title="Tile.html" xlink:actuate="onRequest" xlink:href="Tile.html" xlink:show="new" xlink:title="Tile.html" xlink:type="simple"><rect fill="#FEFECE" filter="url(#f13fw5q6u1jibj)" height="58.7422" id="pwr.sim.Tile" style="stroke: #A80036; stroke-width: 1.5;" width="93" x="46.5" y="7"/><ellipse cx="71.85" cy="25.9688" fill="#ADD1B2" rx="11" ry="11" style="stroke: #A80036; stroke-width: 1.0;"/><path d="M74.8188,31.6094 Q74.2406,31.9063 73.6,32.0469 Q72.9594,32.2031 72.2563,32.2031 Q69.7563,32.2031 68.4281,30.5625 Q67.1156,28.9063 67.1156,25.7813 Q67.1156,22.6563 68.4281,21 Q69.7563,19.3438 72.2563,19.3438 Q72.9594,19.3438 73.6,19.5 Q74.2563,19.6563 74.8188,19.9531 L74.8188,22.6719 Q74.1938,22.0938 73.6,21.8281 Q73.0063,21.5469 72.3813,21.5469 Q71.0375,21.5469 70.35,22.625 Q69.6625,23.6875 69.6625,25.7813 Q69.6625,27.875 70.35,28.9531 Q71.0375,30.0156 72.3813,30.0156 Q73.0063,30.0156 73.6,29.75 Q74.1938,29.4688 74.8188,28.8906 L74.8188,31.6094 Z "/><text fill="#000000" font-family="sans-serif" font-size="14" lengthAdjust="spacingAndGlyphs" textLength="24" x="95.15" y="24.9951">Tile</text><text fill="#000000" font-family="sans-serif" font-size="10" lengthAdjust="spacingAndGlyphs" textLength="38" x="88.15" y="37.5791">pwr.sim</text><line style="stroke: #A80036; stroke-width: 1.5;" x1="47.5" x2="138.5" y1="44.9375" y2="44.9375"/><ellipse cx="57.5" cy="55.9375" fill="#84BE84" rx="3" ry="3" style="stroke: #038048; stroke-width: 1.0;"/><text fill="#000000" font-family="sans-serif" font-size="11" lengthAdjust="spacingAndGlyphs" textLength="67" x="66.5" y="59.1479">draw(): void</text></a><text fill="#888888" font-family="sans-serif" font-size="10" lengthAdjust="spacingAndGlyphs" textLength="186" x="0" y="82.0244">UMLDoclet 2.0.8, PlantUML 1.2020.01</text><!--MD5=[919ec9b0439e2955a89df965483c42db]
@startuml
    set namespaceSeparator none
    hide empty fields
    hide empty methods

    class "<size:14>Tile\n<size:10>pwr.sim" as pwr.sim.Tile [[Tile.html]] {
        +draw(): void
    }

    center footer UMLDoclet 2.0.8, PlantUML 1.2020.01
@enduml

PlantUML version 1.2020.01(Sun Feb 16 18:40:32 CET 2020)
(APACHE source distribution)
Java Runtime: OpenJDK Runtime Environment
JVM: OpenJDK 64-Bit Server VM
Java Version: 11.0.7+10-post-Ubuntu-2ubuntu219.10
Operating System: Linux
Default Encoding: UTF-8
Language: en
Country: GB
--></g></svg>