<?xml version="1.0" encoding="UTF-8" standalone="no"?><svg xmlns="http://www.w3.org/2000/svg" xmlns:xlink="http://www.w3.org/1999/xlink" contentScriptType="application/ecmascript" contentStyleType="text/css" height="193px" preserveAspectRatio="none" style="width:198px;height:193px;" version="1.1" viewBox="0 0 198 193" width="198px" zoomAndPan="magnify"><defs><filter height="300%" id="f1ljvxzx6ijg6l" width="300%" x="-1" y="-1"><feGaussianBlur result="blurOut" stdDeviation="2.0"/><feColorMatrix in="blurOut" result="blurOut2" type="matrix" values="0 0 0 0 0 0 0 0 0 0 0 0 0 0 0 0 0 0 .4 0"/><feOffset dx="4.0" dy="4.0" in="blurOut2" result="blurOut3"/><feBlend in="SourceGraphic" in2="blurOut3" mode="normal"/></filter></defs><g><!--MD5=[e0482b18df9ae4a1c0083229bf001a33]
class pwr.sim.World--><a href="World.html" target="_top" title="World.html" xlink:actuate="onRequest" xlink:href="World.html" xlink:show="new" xlink:title="World.html" xlink:type="simple"><rect fill="#FEFECE" filter="url(#f1ljvxzx6ijg6l)" height="156.375" id="pwr.sim.World" style="stroke: #A80036; stroke-width: 1.5;" width="155" x="15.5" y="7"/><ellipse cx="69.25" cy="25.9688" fill="#ADD1B2" rx="11" ry="11" style="stroke: #A80036; stroke-width: 1.0;"/><path d="M72.2188,31.6094 Q71.6406,31.9063 71,32.0469 Q70.3594,32.2031 69.6563,32.2031 Q67.1563,32.2031 65.8281,30.5625 Q64.5156,28.9063 64.5156,25.7813 Q64.5156,22.6563 65.8281,21 Q67.1563,19.3438 69.6563,19.3438 Q70.3594,19.3438 71,19.5 Q71.6563,19.6563 72.2188,19.9531 L72.2188,22.6719 Q71.5938,22.0938 71,21.8281 Q70.4063,21.5469 69.7813,21.5469 Q68.4375,21.5469 67.75,22.625 Q67.0625,23.6875 67.0625,25.7813 Q67.0625,27.875 67.75,28.9531 Q68.4375,30.0156 69.7813,30.0156 Q70.4063,30.0156 71,29.75 Q71.5938,29.4688 72.2188,28.8906 L72.2188,31.6094 Z "/><text fill="#000000" font-family="sans-serif" font-size="14" lengthAdjust="spacingAndGlyphs" textLength="39" x="89.75" y="24.9951">World</text><text fill="#000000" font-family="sans-serif" font-size="10" lengthAdjust="spacingAndGlyphs" textLength="38" x="90.25" y="37.5791">pwr.sim</text><line style="stroke: #A80036; stroke-width: 1.5;" x1="16.5" x2="169.5" y1="44.9375" y2="44.9375"/><rect fill="none" height="6" style="stroke: #C82930; stroke-width: 1.0;" width="6" x="23.5" y="52.9375"/><text fill="#000000" font-family="sans-serif" font-size="11" lengthAdjust="spacingAndGlyphs" textLength="60" x="35.5" y="59.1479">tiles: Tile[]</text><rect fill="none" height="6" style="stroke: #C82930; stroke-width: 1.0;" width="6" x="23.5" y="65.7422"/><text fill="#000000" font-family="sans-serif" font-size="11" lengthAdjust="spacingAndGlyphs" textLength="129" x="35.5" y="71.9526">animals: List&lt;Animal&gt;</text><rect fill="none" height="6" style="stroke: #C82930; stroke-width: 1.0;" width="6" x="23.5" y="78.5469"/><text fill="#000000" font-family="sans-serif" font-size="11" lengthAdjust="spacingAndGlyphs" textLength="52" x="35.5" y="84.7573">width: int</text><rect fill="none" height="6" style="stroke: #C82930; stroke-width: 1.0;" width="6" x="23.5" y="91.3516"/><text fill="#000000" font-family="sans-serif" font-size="11" lengthAdjust="spacingAndGlyphs" textLength="57" x="35.5" y="97.562">height: int</text><line style="stroke: #A80036; stroke-width: 1.5;" x1="16.5" x2="169.5" y1="104.1563" y2="104.1563"/><ellipse cx="26.5" cy="115.1563" fill="#84BE84" rx="3" ry="3" style="stroke: #038048; stroke-width: 1.0;"/><text fill="#000000" font-family="sans-serif" font-size="11" lengthAdjust="spacingAndGlyphs" textLength="75" x="35.5" y="118.3667">World(int, int)</text><ellipse cx="26.5" cy="127.9609" fill="#84BE84" rx="3" ry="3" style="stroke: #038048; stroke-width: 1.0;"/><text fill="#000000" font-family="sans-serif" font-size="11" lengthAdjust="spacingAndGlyphs" textLength="78" x="35.5" y="131.1714">update(): void</text><ellipse cx="26.5" cy="140.7656" fill="#84BE84" rx="3" ry="3" style="stroke: #038048; stroke-width: 1.0;"/><text fill="#000000" font-family="sans-serif" font-size="11" lengthAdjust="spacingAndGlyphs" textLength="102" x="35.5" y="143.9761">populate(int): void</text><ellipse cx="26.5" cy="153.5703" fill="#84BE84" rx="3" ry="3" style="stroke: #038048; stroke-width: 1.0;"/><text fill="#000000" font-family="sans-serif" font-size="11" lengthAdjust="spacingAndGlyphs" textLength="67" x="35.5" y="156.7808">draw(): void</text></a><text fill="#888888" font-family="sans-serif" font-size="10" lengthAdjust="spacingAndGlyphs" textLength="186" x="0" y="179.6572">UMLDoclet 2.0.8, PlantUML 1.2020.01</text><!--MD5=[8b70d6b9cf47ebf24a01f9c0f164854d]
@startuml
    set namespaceSeparator none
    hide empty fields
    hide empty methods

    class "<size:14>World\n<size:10>pwr.sim" as pwr.sim.World [[World.html]] {
        -tiles: Tile[]
        -animals: List<Animal>
        -width: int
        -height: int
        +World(int, int)
        +update(): void
        +populate(int): void
        +draw(): void
    }

    center footer UMLDoclet 2.0.8, PlantUML 1.2020.01
@enduml

PlantUML version 1.2020.01(Sun Feb 16 18:40:32 CET 2020)
(APACHE source distribution)
Java Runtime: OpenJDK Runtime Environment
JVM: OpenJDK 64-Bit Server VM
Java Version: 11.0.7+10-post-Ubuntu-2ubuntu219.10
Operating System: Linux
Default Encoding: UTF-8
Language: en
Country: GB
--></g></svg>