<?xml version="1.0" encoding="UTF-8" standalone="no"?><svg xmlns="http://www.w3.org/2000/svg" xmlns:xlink="http://www.w3.org/1999/xlink" contentScriptType="application/ecmascript" contentStyleType="text/css" height="141px" preserveAspectRatio="none" style="width:305px;height:141px;" version="1.1" viewBox="0 0 305 141" width="305px" zoomAndPan="magnify"><defs><filter height="300%" id="f4lm53nv3t971" width="300%" x="-1" y="-1"><feGaussianBlur result="blurOut" stdDeviation="2.0"/><feColorMatrix in="blurOut" result="blurOut2" type="matrix" values="0 0 0 0 0 0 0 0 0 0 0 0 0 0 0 0 0 0 .4 0"/><feOffset dx="4.0" dy="4.0" in="blurOut2" result="blurOut3"/><feBlend in="SourceGraphic" in2="blurOut3" mode="normal"/></filter></defs><g><!--MD5=[987227bc14f49794a20df13de0d78393]
class pwr.sim.animal.AnimalFactory--><a href="AnimalFactory.html" target="_top" title="AnimalFactory.html" xlink:actuate="onRequest" xlink:href="AnimalFactory.html" xlink:show="new" xlink:title="AnimalFactory.html" xlink:type="simple"><rect fill="#FEFECE" filter="url(#f4lm53nv3t971)" height="105.1563" id="pwr.sim.animal.AnimalFactory" style="stroke: #A80036; stroke-width: 1.5;" width="287" x="7" y="7"/><ellipse cx="98.75" cy="25.9688" fill="#ADD1B2" rx="11" ry="11" style="stroke: #A80036; stroke-width: 1.0;"/><path d="M101.7188,31.6094 Q101.1406,31.9063 100.5,32.0469 Q99.8594,32.2031 99.1563,32.2031 Q96.6563,32.2031 95.3281,30.5625 Q94.0156,28.9063 94.0156,25.7813 Q94.0156,22.6563 95.3281,21 Q96.6563,19.3438 99.1563,19.3438 Q99.8594,19.3438 100.5,19.5 Q101.1563,19.6563 101.7188,19.9531 L101.7188,22.6719 Q101.0938,22.0938 100.5,21.8281 Q99.9063,21.5469 99.2813,21.5469 Q97.9375,21.5469 97.25,22.625 Q96.5625,23.6875 96.5625,25.7813 Q96.5625,27.875 97.25,28.9531 Q97.9375,30.0156 99.2813,30.0156 Q99.9063,30.0156 100.5,29.75 Q101.0938,29.4688 101.7188,28.8906 L101.7188,31.6094 Z "/><text fill="#000000" font-family="sans-serif" font-size="14" lengthAdjust="spacingAndGlyphs" textLength="95" x="119.25" y="24.9951">AnimalFactory</text><text fill="#000000" font-family="sans-serif" font-size="10" lengthAdjust="spacingAndGlyphs" textLength="73" x="130.25" y="37.5791">pwr.sim.animal</text><line style="stroke: #A80036; stroke-width: 1.5;" x1="8" x2="293" y1="44.9375" y2="44.9375"/><rect fill="none" height="6" style="stroke: #C82930; stroke-width: 1.0;" width="6" x="15" y="52.9375"/><text fill="#000000" font-family="sans-serif" font-size="11" lengthAdjust="spacingAndGlyphs" textLength="70" x="27" y="59.1479">world: World</text><line style="stroke: #A80036; stroke-width: 1.5;" x1="8" x2="293" y1="65.7422" y2="65.7422"/><ellipse cx="18" cy="76.7422" fill="#84BE84" rx="3" ry="3" style="stroke: #038048; stroke-width: 1.0;"/><text fill="#000000" font-family="sans-serif" font-size="11" lengthAdjust="spacingAndGlyphs" textLength="118" x="27" y="79.9526">AnimalFactory(World)</text><ellipse cx="18" cy="89.5469" fill="#84BE84" rx="3" ry="3" style="stroke: #038048; stroke-width: 1.0;"/><text fill="#000000" font-family="sans-serif" font-size="11" lengthAdjust="spacingAndGlyphs" textLength="261" x="27" y="92.7573">createAnimal(AnimalType, Position2D): Animal</text><ellipse cx="18" cy="102.3516" fill="#84BE84" rx="3" ry="3" style="stroke: #038048; stroke-width: 1.0;"/><text fill="#000000" font-family="sans-serif" font-size="11" lengthAdjust="spacingAndGlyphs" textLength="234" x="27" y="105.562">createAnimal(Animal, Position2D): Animal</text></a><text fill="#888888" font-family="sans-serif" font-size="10" lengthAdjust="spacingAndGlyphs" textLength="186" x="57.5" y="128.4385">UMLDoclet 2.0.9, PlantUML 1.2020.08</text><!--MD5=[b3d14dbe2123a9beb1b9a0aba1f58582]
@startuml
    set namespaceSeparator none
    hide empty fields
    hide empty methods

    class "<size:14>AnimalFactory\n<size:10>pwr.sim.animal" as pwr.sim.animal.AnimalFactory [[AnimalFactory.html]] {
        -world: World
        +AnimalFactory(World)
        +createAnimal(AnimalType, Position2D): Animal
        +createAnimal(Animal, Position2D): Animal
    }

    center footer UMLDoclet 2.0.9, PlantUML 1.2020.08
@enduml

PlantUML version 1.2020.08(Sun Apr 26 16:08:22 CEST 2020)
(APACHE source distribution)
Java Runtime: OpenJDK Runtime Environment
JVM: OpenJDK 64-Bit Server VM
Java Version: 11.0.7+10-post-Ubuntu-3ubuntu1
Operating System: Linux
Default Encoding: UTF-8
Language: en
Country: GB
--></g></svg>