<?xml version="1.0" encoding="UTF-8" standalone="no"?><svg xmlns="http://www.w3.org/2000/svg" xmlns:xlink="http://www.w3.org/1999/xlink" contentScriptType="application/ecmascript" contentStyleType="text/css" height="720px" preserveAspectRatio="none" style="width:1168px;height:720px;" version="1.1" viewBox="0 0 1168 720" width="1168px" zoomAndPan="magnify"><defs><filter height="300%" id="f1p1zpbxbc0hs1" width="300%" x="-1" y="-1"><feGaussianBlur result="blurOut" stdDeviation="2.0"/><feColorMatrix in="blurOut" result="blurOut2" type="matrix" values="0 0 0 0 0 0 0 0 0 0 0 0 0 0 0 0 0 0 .4 0"/><feOffset dx="4.0" dy="4.0" in="blurOut2" result="blurOut3"/><feBlend in="SourceGraphic" in2="blurOut3" mode="normal"/></filter></defs><g><!--MD5=[38d21fd4d824cca984a032be1183e02d]
cluster pwr.sim.animal--><polygon fill="#FFFFFF" filter="url(#f1p1zpbxbc0hs1)" points="22,24,146,24,153,46.2969,970,46.2969,970,672,22,672,22,24" style="stroke: #000000; stroke-width: 1.5;"/><line style="stroke: #000000; stroke-width: 1.5;" x1="22" x2="153" y1="46.2969" y2="46.2969"/><text fill="#000000" font-family="sans-serif" font-size="14" font-weight="bold" lengthAdjust="spacingAndGlyphs" textLength="118" x="26" y="38.9951">pwr.sim.animal</text><!--MD5=[cb8a12caddea0e4f4a4443ac73e0810b]
cluster pwr.sim.animal.ai--><polygon fill="#FFFFFF" filter="url(#f1p1zpbxbc0hs1)" points="994,554,1136,554,1143,576.2969,1146,576.2969,1146,653,994,653,994,554" style="stroke: #000000; stroke-width: 1.5;"/><line style="stroke: #000000; stroke-width: 1.5;" x1="994" x2="1143" y1="576.2969" y2="576.2969"/><text fill="#000000" font-family="sans-serif" font-size="14" font-weight="bold" lengthAdjust="spacingAndGlyphs" textLength="136" x="998" y="568.9951">pwr.sim.animal.ai</text><!--MD5=[c3d732d9f16640c78ebd86f186b6dc1a]
class pwr.sim.animal.Animal--><a href="Animal.html" target="_top" title="Animal.html" xlink:actuate="onRequest" xlink:href="Animal.html" xlink:show="new" xlink:title="Animal.html" xlink:type="simple"><rect fill="#FEFECE" filter="url(#f1p1zpbxbc0hs1)" height="432.1406" id="pwr.sim.animal.Animal" style="stroke: #A80036; stroke-width: 1.5;" width="218" x="551" y="59"/><ellipse cx="635.25" cy="75" fill="#A9DCDF" rx="11" ry="11" style="stroke: #A80036; stroke-width: 1.0;"/><path d="M635.3594,70.3438 L634.2031,75.4219 L636.5313,75.4219 L635.3594,70.3438 Z M633.875,68.1094 L636.8594,68.1094 L640.2188,80.5 L637.7656,80.5 L637,77.4375 L633.7188,77.4375 L632.9688,80.5 L630.5313,80.5 L633.875,68.1094 Z "/><text fill="#000000" font-family="sans-serif" font-size="12" font-style="italic" lengthAdjust="spacingAndGlyphs" textLength="41" x="655.75" y="79.1543">Animal</text><line style="stroke: #A80036; stroke-width: 1.5;" x1="552" x2="768" y1="91" y2="91"/><ellipse cx="562" cy="102" fill="none" rx="3" ry="3" style="stroke: #038048; stroke-width: 1.0;"/><text fill="#000000" font-family="sans-serif" font-size="11" lengthAdjust="spacingAndGlyphs" textLength="121" x="571" y="105.2104">wantToMate: boolean</text><ellipse cx="562" cy="114.8047" fill="none" rx="3" ry="3" style="stroke: #038048; stroke-width: 1.0;"/><text fill="#000000" font-family="sans-serif" font-size="11" lengthAdjust="spacingAndGlyphs" textLength="103" x="571" y="118.0151">isHungry: boolean</text><ellipse cx="562" cy="127.6094" fill="none" rx="3" ry="3" style="stroke: #038048; stroke-width: 1.0;"/><text fill="#000000" font-family="sans-serif" font-size="11" lengthAdjust="spacingAndGlyphs" textLength="92" x="571" y="130.8198">isTired: boolean</text><polygon fill="none" points="562,135.4141,566,139.4141,562,143.4141,558,139.4141" style="stroke: #B38D22; stroke-width: 1.0;"/><text fill="#000000" font-family="sans-serif" font-size="11" lengthAdjust="spacingAndGlyphs" textLength="70" x="571" y="143.6245">world: World</text><rect fill="none" height="6" style="stroke: #C82930; stroke-width: 1.0;" width="6" x="559" y="150.2188"/><text fill="#000000" font-family="sans-serif" font-size="11" lengthAdjust="spacingAndGlyphs" textLength="57" x="571" y="156.4292">health: int</text><polygon fill="none" points="562,161.0234,566,165.0234,562,169.0234,558,165.0234" style="stroke: #B38D22; stroke-width: 1.0;"/><text fill="#000000" font-family="sans-serif" font-size="11" lengthAdjust="spacingAndGlyphs" textLength="113" x="571" y="169.2339">position: Position2D</text><polygon fill="none" points="562,173.8281,566,177.8281,562,181.8281,558,177.8281" style="stroke: #B38D22; stroke-width: 1.0;"/><text fill="#000000" font-family="sans-serif" font-size="11" lengthAdjust="spacingAndGlyphs" textLength="137" x="571" y="182.0386">nextPosition: Position2D</text><rect fill="none" height="6" style="stroke: #C82930; stroke-width: 1.0;" width="6" x="559" y="188.6328"/><text fill="#000000" font-family="sans-serif" font-size="11" lengthAdjust="spacingAndGlyphs" textLength="61" x="571" y="194.8433">energy: int</text><rect fill="none" height="6" style="stroke: #C82930; stroke-width: 1.0;" width="6" x="559" y="201.4375"/><text fill="#000000" font-family="sans-serif" font-size="11" lengthAdjust="spacingAndGlyphs" textLength="62" x="571" y="207.6479">hunger: int</text><line style="stroke: #A80036; stroke-width: 1.5;" x1="552" x2="768" y1="214.2422" y2="214.2422"/><ellipse cx="562" cy="225.2422" fill="#84BE84" rx="3" ry="3" style="stroke: #038048; stroke-width: 1.0;"/><text fill="#000000" font-family="sans-serif" font-size="11" lengthAdjust="spacingAndGlyphs" textLength="78" x="571" y="228.4526">update(): void</text><ellipse cx="562" cy="238.0469" fill="#84BE84" rx="3" ry="3" style="stroke: #038048; stroke-width: 1.0;"/><text fill="#000000" font-family="sans-serif" font-size="11" lengthAdjust="spacingAndGlyphs" textLength="152" x="571" y="241.2573">approach(Position2D): void</text><ellipse cx="562" cy="250.8516" fill="#84BE84" rx="3" ry="3" style="stroke: #038048; stroke-width: 1.0;"/><text fill="#000000" font-family="sans-serif" font-size="11" lengthAdjust="spacingAndGlyphs" textLength="133" x="571" y="254.062">evade(Position2D): void</text><polygon fill="#FFFF44" points="562,258.6563,566,262.6563,562,266.6563,558,262.6563" style="stroke: #B38D22; stroke-width: 1.0;"/><text fill="#000000" font-family="sans-serif" font-size="11" lengthAdjust="spacingAndGlyphs" textLength="143" x="571" y="266.8667">move(int, int): Position2D</text><ellipse cx="562" cy="276.4609" fill="#84BE84" rx="3" ry="3" style="stroke: #038048; stroke-width: 1.0;"/><text fill="#000000" font-family="sans-serif" font-size="11" lengthAdjust="spacingAndGlyphs" textLength="67" x="571" y="279.6714">draw(): void</text><ellipse cx="562" cy="289.2656" fill="#84BE84" rx="3" ry="3" style="stroke: #038048; stroke-width: 1.0;"/><text fill="#000000" font-family="sans-serif" font-size="11" lengthAdjust="spacingAndGlyphs" textLength="139" x="571" y="292.4761">getPosition(): Position2D</text><ellipse cx="562" cy="302.0703" fill="#84BE84" rx="3" ry="3" style="stroke: #038048; stroke-width: 1.0;"/><text fill="#000000" font-family="sans-serif" font-size="11" lengthAdjust="spacingAndGlyphs" textLength="162" x="571" y="305.2808">setPosition(Position2D): void</text><ellipse cx="562" cy="314.875" fill="#84BE84" rx="3" ry="3" style="stroke: #038048; stroke-width: 1.0;"/><text fill="#000000" font-family="sans-serif" font-size="11" lengthAdjust="spacingAndGlyphs" textLength="96" x="571" y="318.0854">getWorld(): World</text><ellipse cx="562" cy="327.6797" fill="#84BE84" rx="3" ry="3" style="stroke: #038048; stroke-width: 1.0;"/><text fill="#000000" font-family="sans-serif" font-size="11" lengthAdjust="spacingAndGlyphs" textLength="119" x="571" y="330.8901">setWorld(World): void</text><ellipse cx="562" cy="340.4844" fill="#84BE84" rx="3" ry="3" style="stroke: #038048; stroke-width: 1.0;"/><text fill="#000000" font-family="sans-serif" font-size="11" font-style="italic" lengthAdjust="spacingAndGlyphs" textLength="125" x="571" y="343.6948">getAnimalChar(): char</text><ellipse cx="562" cy="353.2891" fill="#84BE84" rx="3" ry="3" style="stroke: #038048; stroke-width: 1.0;"/><text fill="#000000" font-family="sans-serif" font-size="11" lengthAdjust="spacingAndGlyphs" textLength="87" x="571" y="356.4995">getEnergy(): int</text><ellipse cx="562" cy="366.0938" fill="#84BE84" rx="3" ry="3" style="stroke: #038048; stroke-width: 1.0;"/><text fill="#000000" font-family="sans-serif" font-size="11" lengthAdjust="spacingAndGlyphs" textLength="133" x="571" y="369.3042">changeEnergy(int): void</text><ellipse cx="562" cy="378.8984" fill="#84BE84" rx="3" ry="3" style="stroke: #038048; stroke-width: 1.0;"/><text fill="#000000" font-family="sans-serif" font-size="11" lengthAdjust="spacingAndGlyphs" textLength="89" x="571" y="382.1089">getHunger(): int</text><ellipse cx="562" cy="391.7031" fill="#84BE84" rx="3" ry="3" style="stroke: #038048; stroke-width: 1.0;"/><text fill="#000000" font-family="sans-serif" font-size="11" lengthAdjust="spacingAndGlyphs" textLength="135" x="571" y="394.9136">changeHunger(int): void</text><ellipse cx="562" cy="404.5078" fill="#84BE84" rx="3" ry="3" style="stroke: #038048; stroke-width: 1.0;"/><text fill="#000000" font-family="sans-serif" font-size="11" lengthAdjust="spacingAndGlyphs" textLength="84" x="571" y="407.7183">getHealth(): int</text><ellipse cx="562" cy="417.3125" fill="#84BE84" rx="3" ry="3" style="stroke: #038048; stroke-width: 1.0;"/><text fill="#000000" font-family="sans-serif" font-size="11" lengthAdjust="spacingAndGlyphs" textLength="130" x="571" y="420.5229">changeHealth(int): void</text><ellipse cx="562" cy="430.1172" fill="#84BE84" rx="3" ry="3" style="stroke: #038048; stroke-width: 1.0;"/><text fill="#000000" font-family="sans-serif" font-size="11" lengthAdjust="spacingAndGlyphs" textLength="149" x="571" y="433.3276">canPassTile(Tile): boolean</text><ellipse cx="562" cy="442.9219" fill="#84BE84" rx="3" ry="3" style="stroke: #038048; stroke-width: 1.0;"/><text fill="#000000" font-family="sans-serif" font-size="11" lengthAdjust="spacingAndGlyphs" textLength="192" x="571" y="446.1323">checkHungerAndEnergy(): IAiState</text><ellipse cx="562" cy="455.7266" fill="#84BE84" rx="3" ry="3" style="stroke: #038048; stroke-width: 1.0;"/><text fill="#000000" font-family="sans-serif" font-size="11" lengthAdjust="spacingAndGlyphs" textLength="97" x="571" y="458.937">getStrength(): int</text><ellipse cx="562" cy="468.5313" fill="#84BE84" rx="3" ry="3" style="stroke: #038048; stroke-width: 1.0;"/><text fill="#000000" font-family="sans-serif" font-size="11" lengthAdjust="spacingAndGlyphs" textLength="69" x="571" y="471.7417">swap(): void</text><ellipse cx="562" cy="481.3359" fill="#84BE84" rx="3" ry="3" style="stroke: #038048; stroke-width: 1.0;"/><text fill="#000000" font-family="sans-serif" font-size="11" lengthAdjust="spacingAndGlyphs" textLength="123" x="571" y="484.5464">getStringInfo(): String</text></a><!--MD5=[ae591f3673b39f6f38258875ac411879]
class pwr.sim.animal.Lion--><a href="Lion.html" target="_top" title="Lion.html" xlink:actuate="onRequest" xlink:href="Lion.html" xlink:show="new" xlink:title="Lion.html" xlink:type="simple"><rect fill="#FEFECE" filter="url(#f1p1zpbxbc0hs1)" height="73.6094" id="pwr.sim.animal.Lion" style="stroke: #A80036; stroke-width: 1.5;" width="150" x="38" y="576"/><ellipse cx="96.25" cy="592" fill="#ADD1B2" rx="11" ry="11" style="stroke: #A80036; stroke-width: 1.0;"/><path d="M99.2188,597.6406 Q98.6406,597.9375 98,598.0781 Q97.3594,598.2344 96.6563,598.2344 Q94.1563,598.2344 92.8281,596.5938 Q91.5156,594.9375 91.5156,591.8125 Q91.5156,588.6875 92.8281,587.0313 Q94.1563,585.375 96.6563,585.375 Q97.3594,585.375 98,585.5313 Q98.6563,585.6875 99.2188,585.9844 L99.2188,588.7031 Q98.5938,588.125 98,587.8594 Q97.4063,587.5781 96.7813,587.5781 Q95.4375,587.5781 94.75,588.6563 Q94.0625,589.7188 94.0625,591.8125 Q94.0625,593.9063 94.75,594.9844 Q95.4375,596.0469 96.7813,596.0469 Q97.4063,596.0469 98,595.7813 Q98.5938,595.5 99.2188,594.9219 L99.2188,597.6406 Z "/><text fill="#000000" font-family="sans-serif" font-size="12" lengthAdjust="spacingAndGlyphs" textLength="25" x="116.75" y="596.1543">Lion</text><line style="stroke: #A80036; stroke-width: 1.5;" x1="39" x2="187" y1="608" y2="608"/><line style="stroke: #A80036; stroke-width: 1.5;" x1="39" x2="187" y1="616" y2="616"/><ellipse cx="49" cy="627" fill="#84BE84" rx="3" ry="3" style="stroke: #038048; stroke-width: 1.0;"/><text fill="#000000" font-family="sans-serif" font-size="11" lengthAdjust="spacingAndGlyphs" textLength="124" x="58" y="630.2104">getAnimalChar(): char</text><ellipse cx="49" cy="639.8047" fill="#84BE84" rx="3" ry="3" style="stroke: #038048; stroke-width: 1.0;"/><text fill="#000000" font-family="sans-serif" font-size="11" lengthAdjust="spacingAndGlyphs" textLength="97" x="58" y="643.0151">getStrength(): int</text></a><!--MD5=[29f46aa792a47979f70cc8b131d6f6d8]
class pwr.sim.animal.AnimalType--><a href="AnimalType.html" target="_top" title="AnimalType.html" xlink:actuate="onRequest" xlink:href="AnimalType.html" xlink:show="new" xlink:title="AnimalType.html" xlink:type="simple"><rect fill="#FEFECE" filter="url(#f1p1zpbxbc0hs1)" height="112.0234" id="pwr.sim.animal.AnimalType" style="stroke: #A80036; stroke-width: 1.5;" width="102" x="406" y="219"/><ellipse cx="421" cy="235" fill="#EB937F" rx="11" ry="11" style="stroke: #A80036; stroke-width: 1.0;"/><path d="M425.1094,241 L417.3906,241 L417.3906,228.6094 L425.1094,228.6094 L425.1094,230.7656 L419.8438,230.7656 L419.8438,233.4375 L424.6094,233.4375 L424.6094,235.5938 L419.8438,235.5938 L419.8438,238.8438 L425.1094,238.8438 L425.1094,241 Z "/><text fill="#000000" font-family="sans-serif" font-size="12" lengthAdjust="spacingAndGlyphs" textLength="70" x="435" y="239.1543">AnimalType</text><line style="stroke: #A80036; stroke-width: 1.5;" x1="407" x2="507" y1="251" y2="251"/><ellipse cx="417" cy="262" fill="none" rx="3" ry="3" style="stroke: #038048; stroke-width: 1.0;"/><text fill="#000000" font-family="sans-serif" font-size="11" lengthAdjust="spacingAndGlyphs" text-decoration="underline" textLength="30" x="426" y="265.2104">WOLF</text><ellipse cx="417" cy="274.8047" fill="none" rx="3" ry="3" style="stroke: #038048; stroke-width: 1.0;"/><text fill="#000000" font-family="sans-serif" font-size="11" lengthAdjust="spacingAndGlyphs" text-decoration="underline" textLength="26" x="426" y="278.0151">LION</text><ellipse cx="417" cy="287.6094" fill="none" rx="3" ry="3" style="stroke: #038048; stroke-width: 1.0;"/><text fill="#000000" font-family="sans-serif" font-size="11" lengthAdjust="spacingAndGlyphs" text-decoration="underline" textLength="34" x="426" y="290.8198">HIPPO</text><ellipse cx="417" cy="300.4141" fill="none" rx="3" ry="3" style="stroke: #038048; stroke-width: 1.0;"/><text fill="#000000" font-family="sans-serif" font-size="11" lengthAdjust="spacingAndGlyphs" text-decoration="underline" textLength="65" x="426" y="303.6245">CROCODILE</text><ellipse cx="417" cy="313.2188" fill="none" rx="3" ry="3" style="stroke: #038048; stroke-width: 1.0;"/><text fill="#000000" font-family="sans-serif" font-size="11" lengthAdjust="spacingAndGlyphs" text-decoration="underline" textLength="58" x="426" y="316.4292">ANTELOPE</text><line style="stroke: #A80036; stroke-width: 1.5;" x1="407" x2="507" y1="323.0234" y2="323.0234"/></a><!--MD5=[51044fa7bd27f700e7b14792f0478e8b]
class pwr.sim.animal.Wolf--><a href="Wolf.html" target="_top" title="Wolf.html" xlink:actuate="onRequest" xlink:href="Wolf.html" xlink:show="new" xlink:title="Wolf.html" xlink:type="simple"><rect fill="#FEFECE" filter="url(#f1p1zpbxbc0hs1)" height="73.6094" id="pwr.sim.animal.Wolf" style="stroke: #A80036; stroke-width: 1.5;" width="150" x="223" y="576"/><ellipse cx="280.75" cy="592" fill="#ADD1B2" rx="11" ry="11" style="stroke: #A80036; stroke-width: 1.0;"/><path d="M283.7188,597.6406 Q283.1406,597.9375 282.5,598.0781 Q281.8594,598.2344 281.1563,598.2344 Q278.6563,598.2344 277.3281,596.5938 Q276.0156,594.9375 276.0156,591.8125 Q276.0156,588.6875 277.3281,587.0313 Q278.6563,585.375 281.1563,585.375 Q281.8594,585.375 282.5,585.5313 Q283.1563,585.6875 283.7188,585.9844 L283.7188,588.7031 Q283.0938,588.125 282.5,587.8594 Q281.9063,587.5781 281.2813,587.5781 Q279.9375,587.5781 279.25,588.6563 Q278.5625,589.7188 278.5625,591.8125 Q278.5625,593.9063 279.25,594.9844 Q279.9375,596.0469 281.2813,596.0469 Q281.9063,596.0469 282.5,595.7813 Q283.0938,595.5 283.7188,594.9219 L283.7188,597.6406 Z "/><text fill="#000000" font-family="sans-serif" font-size="12" lengthAdjust="spacingAndGlyphs" textLength="26" x="301.25" y="596.1543">Wolf</text><line style="stroke: #A80036; stroke-width: 1.5;" x1="224" x2="372" y1="608" y2="608"/><line style="stroke: #A80036; stroke-width: 1.5;" x1="224" x2="372" y1="616" y2="616"/><ellipse cx="234" cy="627" fill="#84BE84" rx="3" ry="3" style="stroke: #038048; stroke-width: 1.0;"/><text fill="#000000" font-family="sans-serif" font-size="11" lengthAdjust="spacingAndGlyphs" textLength="124" x="243" y="630.2104">getAnimalChar(): char</text><ellipse cx="234" cy="639.8047" fill="#84BE84" rx="3" ry="3" style="stroke: #038048; stroke-width: 1.0;"/><text fill="#000000" font-family="sans-serif" font-size="11" lengthAdjust="spacingAndGlyphs" textLength="97" x="243" y="643.0151">getStrength(): int</text></a><!--MD5=[0d9c5885e47712ba48fdc187dade87ba]
class pwr.sim.animal.Hippo--><a href="Hippo.html" target="_top" title="Hippo.html" xlink:actuate="onRequest" xlink:href="Hippo.html" xlink:show="new" xlink:title="Hippo.html" xlink:type="simple"><rect fill="#FEFECE" filter="url(#f1p1zpbxbc0hs1)" height="60.8047" id="pwr.sim.animal.Hippo" style="stroke: #A80036; stroke-width: 1.5;" width="150" x="408" y="582.5"/><ellipse cx="460.75" cy="598.5" fill="#ADD1B2" rx="11" ry="11" style="stroke: #A80036; stroke-width: 1.0;"/><path d="M463.7188,604.1406 Q463.1406,604.4375 462.5,604.5781 Q461.8594,604.7344 461.1563,604.7344 Q458.6563,604.7344 457.3281,603.0938 Q456.0156,601.4375 456.0156,598.3125 Q456.0156,595.1875 457.3281,593.5313 Q458.6563,591.875 461.1563,591.875 Q461.8594,591.875 462.5,592.0313 Q463.1563,592.1875 463.7188,592.4844 L463.7188,595.2031 Q463.0938,594.625 462.5,594.3594 Q461.9063,594.0781 461.2813,594.0781 Q459.9375,594.0781 459.25,595.1563 Q458.5625,596.2188 458.5625,598.3125 Q458.5625,600.4063 459.25,601.4844 Q459.9375,602.5469 461.2813,602.5469 Q461.9063,602.5469 462.5,602.2813 Q463.0938,602 463.7188,601.4219 L463.7188,604.1406 Z "/><text fill="#000000" font-family="sans-serif" font-size="12" lengthAdjust="spacingAndGlyphs" textLength="36" x="481.25" y="602.6543">Hippo</text><line style="stroke: #A80036; stroke-width: 1.5;" x1="409" x2="557" y1="614.5" y2="614.5"/><line style="stroke: #A80036; stroke-width: 1.5;" x1="409" x2="557" y1="622.5" y2="622.5"/><ellipse cx="419" cy="633.5" fill="#84BE84" rx="3" ry="3" style="stroke: #038048; stroke-width: 1.0;"/><text fill="#000000" font-family="sans-serif" font-size="11" lengthAdjust="spacingAndGlyphs" textLength="124" x="428" y="636.7104">getAnimalChar(): char</text></a><!--MD5=[987227bc14f49794a20df13de0d78393]
class pwr.sim.animal.AnimalFactory--><a href="AnimalFactory.html" target="_top" title="AnimalFactory.html" xlink:actuate="onRequest" xlink:href="AnimalFactory.html" xlink:show="new" xlink:title="AnimalFactory.html" xlink:type="simple"><rect fill="#FEFECE" filter="url(#f1p1zpbxbc0hs1)" height="99.2188" id="pwr.sim.animal.AnimalFactory" style="stroke: #A80036; stroke-width: 1.5;" width="287" x="68.5" y="225.5"/><ellipse cx="164.25" cy="241.5" fill="#ADD1B2" rx="11" ry="11" style="stroke: #A80036; stroke-width: 1.0;"/><path d="M167.2188,247.1406 Q166.6406,247.4375 166,247.5781 Q165.3594,247.7344 164.6563,247.7344 Q162.1563,247.7344 160.8281,246.0938 Q159.5156,244.4375 159.5156,241.3125 Q159.5156,238.1875 160.8281,236.5313 Q162.1563,234.875 164.6563,234.875 Q165.3594,234.875 166,235.0313 Q166.6563,235.1875 167.2188,235.4844 L167.2188,238.2031 Q166.5938,237.625 166,237.3594 Q165.4063,237.0781 164.7813,237.0781 Q163.4375,237.0781 162.75,238.1563 Q162.0625,239.2188 162.0625,241.3125 Q162.0625,243.4063 162.75,244.4844 Q163.4375,245.5469 164.7813,245.5469 Q165.4063,245.5469 166,245.2813 Q166.5938,245 167.2188,244.4219 L167.2188,247.1406 Z "/><text fill="#000000" font-family="sans-serif" font-size="12" lengthAdjust="spacingAndGlyphs" textLength="87" x="184.75" y="245.6543">AnimalFactory</text><line style="stroke: #A80036; stroke-width: 1.5;" x1="69.5" x2="354.5" y1="257.5" y2="257.5"/><rect fill="none" height="6" style="stroke: #C82930; stroke-width: 1.0;" width="6" x="76.5" y="265.5"/><text fill="#000000" font-family="sans-serif" font-size="11" lengthAdjust="spacingAndGlyphs" textLength="70" x="88.5" y="271.7104">world: World</text><line style="stroke: #A80036; stroke-width: 1.5;" x1="69.5" x2="354.5" y1="278.3047" y2="278.3047"/><ellipse cx="79.5" cy="289.3047" fill="#84BE84" rx="3" ry="3" style="stroke: #038048; stroke-width: 1.0;"/><text fill="#000000" font-family="sans-serif" font-size="11" lengthAdjust="spacingAndGlyphs" textLength="118" x="88.5" y="292.5151">AnimalFactory(World)</text><ellipse cx="79.5" cy="302.1094" fill="#84BE84" rx="3" ry="3" style="stroke: #038048; stroke-width: 1.0;"/><text fill="#000000" font-family="sans-serif" font-size="11" lengthAdjust="spacingAndGlyphs" textLength="261" x="88.5" y="305.3198">createAnimal(AnimalType, Position2D): Animal</text><ellipse cx="79.5" cy="314.9141" fill="#84BE84" rx="3" ry="3" style="stroke: #038048; stroke-width: 1.0;"/><text fill="#000000" font-family="sans-serif" font-size="11" lengthAdjust="spacingAndGlyphs" textLength="234" x="88.5" y="318.1245">createAnimal(Animal, Position2D): Animal</text></a><!--MD5=[42e61e67efa47235d09441cf7bdd044b]
class pwr.sim.animal.Antelope--><a href="Antelope.html" target="_top" title="Antelope.html" xlink:actuate="onRequest" xlink:href="Antelope.html" xlink:show="new" xlink:title="Antelope.html" xlink:type="simple"><rect fill="#FEFECE" filter="url(#f1p1zpbxbc0hs1)" height="60.8047" id="pwr.sim.animal.Antelope" style="stroke: #A80036; stroke-width: 1.5;" width="150" x="593" y="582.5"/><ellipse cx="635.9" cy="598.5" fill="#ADD1B2" rx="11" ry="11" style="stroke: #A80036; stroke-width: 1.0;"/><path d="M638.8688,604.1406 Q638.2906,604.4375 637.65,604.5781 Q637.0094,604.7344 636.3063,604.7344 Q633.8063,604.7344 632.4781,603.0938 Q631.1656,601.4375 631.1656,598.3125 Q631.1656,595.1875 632.4781,593.5313 Q633.8063,591.875 636.3063,591.875 Q637.0094,591.875 637.65,592.0313 Q638.3063,592.1875 638.8688,592.4844 L638.8688,595.2031 Q638.2438,594.625 637.65,594.3594 Q637.0563,594.0781 636.4313,594.0781 Q635.0875,594.0781 634.4,595.1563 Q633.7125,596.2188 633.7125,598.3125 Q633.7125,600.4063 634.4,601.4844 Q635.0875,602.5469 636.4313,602.5469 Q637.0563,602.5469 637.65,602.2813 Q638.2438,602 638.8688,601.4219 L638.8688,604.1406 Z "/><text fill="#000000" font-family="sans-serif" font-size="12" lengthAdjust="spacingAndGlyphs" textLength="56" x="656.1" y="602.6543">Antelope</text><line style="stroke: #A80036; stroke-width: 1.5;" x1="594" x2="742" y1="614.5" y2="614.5"/><line style="stroke: #A80036; stroke-width: 1.5;" x1="594" x2="742" y1="622.5" y2="622.5"/><ellipse cx="604" cy="633.5" fill="#84BE84" rx="3" ry="3" style="stroke: #038048; stroke-width: 1.0;"/><text fill="#000000" font-family="sans-serif" font-size="11" lengthAdjust="spacingAndGlyphs" textLength="124" x="613" y="636.7104">getAnimalChar(): char</text></a><!--MD5=[b1b8f6298c44d0173040989d99b205cc]
class pwr.sim.animal.Crocodile--><a href="Crocodile.html" target="_top" title="Crocodile.html" xlink:actuate="onRequest" xlink:href="Crocodile.html" xlink:show="new" xlink:title="Crocodile.html" xlink:type="simple"><rect fill="#FEFECE" filter="url(#f1p1zpbxbc0hs1)" height="86.4141" id="pwr.sim.animal.Crocodile" style="stroke: #A80036; stroke-width: 1.5;" width="175" x="778.5" y="570"/><ellipse cx="832.75" cy="586" fill="#ADD1B2" rx="11" ry="11" style="stroke: #A80036; stroke-width: 1.0;"/><path d="M835.7188,591.6406 Q835.1406,591.9375 834.5,592.0781 Q833.8594,592.2344 833.1563,592.2344 Q830.6563,592.2344 829.3281,590.5938 Q828.0156,588.9375 828.0156,585.8125 Q828.0156,582.6875 829.3281,581.0313 Q830.6563,579.375 833.1563,579.375 Q833.8594,579.375 834.5,579.5313 Q835.1563,579.6875 835.7188,579.9844 L835.7188,582.7031 Q835.0938,582.125 834.5,581.8594 Q833.9063,581.5781 833.2813,581.5781 Q831.9375,581.5781 831.25,582.6563 Q830.5625,583.7188 830.5625,585.8125 Q830.5625,587.9063 831.25,588.9844 Q831.9375,590.0469 833.2813,590.0469 Q833.9063,590.0469 834.5,589.7813 Q835.0938,589.5 835.7188,588.9219 L835.7188,591.6406 Z "/><text fill="#000000" font-family="sans-serif" font-size="12" lengthAdjust="spacingAndGlyphs" textLength="58" x="853.25" y="590.1543">Crocodile</text><line style="stroke: #A80036; stroke-width: 1.5;" x1="779.5" x2="952.5" y1="602" y2="602"/><line style="stroke: #A80036; stroke-width: 1.5;" x1="779.5" x2="952.5" y1="610" y2="610"/><ellipse cx="789.5" cy="621" fill="#84BE84" rx="3" ry="3" style="stroke: #038048; stroke-width: 1.0;"/><text fill="#000000" font-family="sans-serif" font-size="11" lengthAdjust="spacingAndGlyphs" textLength="149" x="798.5" y="624.2104">canPassTile(Tile): boolean</text><ellipse cx="789.5" cy="633.8047" fill="#84BE84" rx="3" ry="3" style="stroke: #038048; stroke-width: 1.0;"/><text fill="#000000" font-family="sans-serif" font-size="11" lengthAdjust="spacingAndGlyphs" textLength="124" x="798.5" y="637.0151">getAnimalChar(): char</text><ellipse cx="789.5" cy="646.6094" fill="#84BE84" rx="3" ry="3" style="stroke: #038048; stroke-width: 1.0;"/><text fill="#000000" font-family="sans-serif" font-size="11" lengthAdjust="spacingAndGlyphs" textLength="97" x="798.5" y="649.8198">getStrength(): int</text></a><!--MD5=[ef2616cc0edc2f56e121b970d24f922a]
class pwr.sim.animal.ai.AiBehaviour--><rect fill="#FEFECE" filter="url(#f1p1zpbxbc0hs1)" height="48" id="pwr.sim.animal.ai.AiBehaviour" style="stroke: #A80036; stroke-width: 1.5;" width="105" x="1010.5" y="589"/><ellipse cx="1025.5" cy="605" fill="#ADD1B2" rx="11" ry="11" style="stroke: #A80036; stroke-width: 1.0;"/><path d="M1028.4688,610.6406 Q1027.8906,610.9375 1027.25,611.0781 Q1026.6094,611.2344 1025.9063,611.2344 Q1023.4063,611.2344 1022.0781,609.5938 Q1020.7656,607.9375 1020.7656,604.8125 Q1020.7656,601.6875 1022.0781,600.0313 Q1023.4063,598.375 1025.9063,598.375 Q1026.6094,598.375 1027.25,598.5313 Q1027.9063,598.6875 1028.4688,598.9844 L1028.4688,601.7031 Q1027.8438,601.125 1027.25,600.8594 Q1026.6563,600.5781 1026.0313,600.5781 Q1024.6875,600.5781 1024,601.6563 Q1023.3125,602.7188 1023.3125,604.8125 Q1023.3125,606.9063 1024,607.9844 Q1024.6875,609.0469 1026.0313,609.0469 Q1026.6563,609.0469 1027.25,608.7813 Q1027.8438,608.5 1028.4688,607.9219 L1028.4688,610.6406 Z "/><text fill="#000000" font-family="sans-serif" font-size="12" lengthAdjust="spacingAndGlyphs" textLength="73" x="1039.5" y="609.1543">AiBehaviour</text><line style="stroke: #A80036; stroke-width: 1.5;" x1="1011.5" x2="1114.5" y1="621" y2="621"/><line style="stroke: #A80036; stroke-width: 1.5;" x1="1011.5" x2="1114.5" y1="629" y2="629"/><!--MD5=[52d6a25f107e5990b33b9f5740933ce2]
link pwr.sim.animal.Animal to pwr.sim.animal.ai.AiBehaviour--><path d="M769.06,366.93 C857.16,440.38 975.35,538.92 1031.21,585.5 " fill="none" id="pwr.sim.animal.Animal-&gt;pwr.sim.animal.ai.AiBehaviour" style="stroke: #A80036; stroke-width: 1.0;"/><polygon fill="#A80036" points="1035.13,588.76,1030.7929,579.9175,1031.2947,585.5521,1025.6602,586.0539,1035.13,588.76" style="stroke: #A80036; stroke-width: 1.0;"/><text fill="#000000" font-family="sans-serif" font-size="13" lengthAdjust="spacingAndGlyphs" textLength="75" x="966" y="534.0669">aiBehaviour</text><!--MD5=[0800056615779f0dd300cd144b3e14f7]
reverse link pwr.sim.animal.Animal to pwr.sim.animal.Lion--><path d="M535.27,484.36 C532.24,486.67 529.15,488.88 526,491 C466.12,531.25 272.63,518.32 206,546 C188.26,553.37 170.62,564.63 155.54,575.77 " fill="none" id="pwr.sim.animal.Animal&lt;-pwr.sim.animal.Lion" style="stroke: #A80036; stroke-width: 1.0;"/><polygon fill="none" points="531.09,478.72,550.9,471.18,540.12,489.42,531.09,478.72" style="stroke: #A80036; stroke-width: 1.0;"/><!--MD5=[6c69e18a1baf2883ad8c1a9296ae8651]
reverse link pwr.sim.animal.Animal to pwr.sim.animal.Wolf--><path d="M536.26,481.86 C532.91,485.01 529.48,488.06 526,491 C476.45,532.75 447.79,514.82 391,546 C375.21,554.67 358.89,565.52 344.42,575.89 " fill="none" id="pwr.sim.animal.Animal&lt;-pwr.sim.animal.Wolf" style="stroke: #A80036; stroke-width: 1.0;"/><polygon fill="none" points="531.52,476.7,550.58,467.45,541.45,486.57,531.52,476.7" style="stroke: #A80036; stroke-width: 1.0;"/><!--MD5=[aa43b6d8d15548c6030ab792b7b46440]
reverse link pwr.sim.animal.Animal to pwr.sim.animal.Hippo--><path d="M541.39,501.16 C524.5,533.22 509.27,562.13 498.6,582.38 " fill="none" id="pwr.sim.animal.Animal&lt;-pwr.sim.animal.Hippo" style="stroke: #A80036; stroke-width: 1.0;"/><polygon fill="none" points="535.41,497.49,550.93,483.05,547.8,504.01,535.41,497.49" style="stroke: #A80036; stroke-width: 1.0;"/><!--MD5=[f0ca4d8d7b91aca9404b4386d9ad3192]
reverse link pwr.sim.animal.Animal to pwr.sim.animal.Antelope--><path d="M665.6,511.39 C666.27,539.23 666.86,564.11 667.29,582.17 " fill="none" id="pwr.sim.animal.Animal&lt;-pwr.sim.animal.Antelope" style="stroke: #A80036; stroke-width: 1.0;"/><polygon fill="none" points="658.6,511.33,665.12,491.17,672.6,511,658.6,511.33" style="stroke: #A80036; stroke-width: 1.0;"/><!--MD5=[eb525c31fe53d0a7c54753579ebbab9c]
reverse link pwr.sim.animal.Animal to pwr.sim.animal.Crocodile--><path d="M779.6,471.08 C802.46,508.37 824.21,543.84 840.16,569.86 " fill="none" id="pwr.sim.animal.Animal&lt;-pwr.sim.animal.Crocodile" style="stroke: #A80036; stroke-width: 1.0;"/><polygon fill="none" points="773.52,474.55,769.03,453.84,785.45,467.23,773.52,474.55" style="stroke: #A80036; stroke-width: 1.0;"/><text fill="#888888" font-family="sans-serif" font-size="10" lengthAdjust="spacingAndGlyphs" textLength="186" x="497" y="707.2822">UMLDoclet 2.0.9, PlantUML 1.2020.08</text><!--MD5=[d6799d3bdf7edc8f9cb72f7478e9156f]
@startuml
    namespace pwr.sim.animal {

        abstract class Animal [[Animal.html]] {
            +wantToMate: boolean
            +isHungry: boolean
            +isTired: boolean
            #world: World
            -health: int
            #position: Position2D
            #nextPosition: Position2D
            -energy: int
            -hunger: int
            +update(): void
            +approach(Position2D): void
            +evade(Position2D): void
            #move(int, int): Position2D
            +draw(): void
            +getPosition(): Position2D
            +setPosition(Position2D): void
            +getWorld(): World
            +setWorld(World): void
            {abstract} +getAnimalChar(): char
            +getEnergy(): int
            +changeEnergy(int): void
            +getHunger(): int
            +changeHunger(int): void
            +getHealth(): int
            +changeHealth(int): void
            +canPassTile(Tile): boolean
            +checkHungerAndEnergy(): IAiState
            +getStrength(): int
            +swap(): void
            +getStringInfo(): String
        }

        class Lion [[Lion.html]] {
            +getAnimalChar(): char
            +getStrength(): int
        }

        enum AnimalType [[AnimalType.html]] {
            {static} +WOLF
            {static} +LION
            {static} +HIPPO
            {static} +CROCODILE
            {static} +ANTELOPE
        }

        class Wolf [[Wolf.html]] {
            +getAnimalChar(): char
            +getStrength(): int
        }

        class Hippo [[Hippo.html]] {
            +getAnimalChar(): char
        }

        class AnimalFactory [[AnimalFactory.html]] {
            -world: World
            +AnimalFactory(World)
            +createAnimal(AnimalType, Position2D): Animal
            +createAnimal(Animal, Position2D): Animal
        }

        class Antelope [[Antelope.html]] {
            +getAnimalChar(): char
        }

        class Crocodile [[Crocodile.html]] {
            +canPassTile(Tile): boolean
            +getAnimalChar(): char
            +getStrength(): int
        }

        Animal - -> pwr.sim.animal.ai.AiBehaviour: aiBehaviour
        Animal <|- - Lion
        Animal <|- - Wolf
        Animal <|- - Hippo
        Animal <|- - Antelope
        Animal <|- - Crocodile
    }

    center footer UMLDoclet 2.0.9, PlantUML 1.2020.08
@enduml

PlantUML version 1.2020.08(Sun Apr 26 16:08:22 CEST 2020)
(APACHE source distribution)
Java Runtime: OpenJDK Runtime Environment
JVM: OpenJDK 64-Bit Server VM
Java Version: 11.0.7+10-post-Ubuntu-3ubuntu1
Operating System: Linux
Default Encoding: UTF-8
Language: en
Country: GB
--></g></svg>