<?xml version="1.0" encoding="UTF-8" standalone="no"?><svg xmlns="http://www.w3.org/2000/svg" xmlns:xlink="http://www.w3.org/1999/xlink" contentScriptType="application/ecmascript" contentStyleType="text/css" height="230px" preserveAspectRatio="none" style="width:214px;height:230px;" version="1.1" viewBox="0 0 214 230" width="214px" zoomAndPan="magnify"><defs><filter height="300%" id="f1ovrbzwgzr9gy" width="300%" x="-1" y="-1"><feGaussianBlur result="blurOut" stdDeviation="2.0"/><feColorMatrix in="blurOut" result="blurOut2" type="matrix" values="0 0 0 0 0 0 0 0 0 0 0 0 0 0 0 0 0 0 .4 0"/><feOffset dx="4.0" dy="4.0" in="blurOut2" result="blurOut3"/><feBlend in="SourceGraphic" in2="blurOut3" mode="normal"/></filter></defs><g><!--MD5=[3044d891e27180e598955a46038cb3c9]
class pwr.sim.animal.ai.AiBehaviourHerbivore--><a href="AiBehaviourHerbivore.html" target="_top" title="AiBehaviourHerbivore.html" xlink:actuate="onRequest" xlink:href="AiBehaviourHerbivore.html" xlink:show="new" xlink:title="AiBehaviourHerbivore.html" xlink:type="simple"><rect fill="#FEFECE" filter="url(#f1ovrbzwgzr9gy)" height="92.3516" id="pwr.sim.animal.ai.AiBehaviourHerbivore" style="stroke: #A80036; stroke-width: 1.5;" width="194" x="6" y="106"/><ellipse cx="27.75" cy="124.9688" fill="#ADD1B2" rx="11" ry="11" style="stroke: #A80036; stroke-width: 1.0;"/><path d="M30.7188,130.6094 Q30.1406,130.9063 29.5,131.0469 Q28.8594,131.2031 28.1563,131.2031 Q25.6563,131.2031 24.3281,129.5625 Q23.0156,127.9063 23.0156,124.7813 Q23.0156,121.6563 24.3281,120 Q25.6563,118.3438 28.1563,118.3438 Q28.8594,118.3438 29.5,118.5 Q30.1563,118.6563 30.7188,118.9531 L30.7188,121.6719 Q30.0938,121.0938 29.5,120.8281 Q28.9063,120.5469 28.2813,120.5469 Q26.9375,120.5469 26.25,121.625 Q25.5625,122.6875 25.5625,124.7813 Q25.5625,126.875 26.25,127.9531 Q26.9375,129.0156 28.2813,129.0156 Q28.9063,129.0156 29.5,128.75 Q30.0938,128.4688 30.7188,127.8906 L30.7188,130.6094 Z "/><text fill="#000000" font-family="sans-serif" font-size="14" lengthAdjust="spacingAndGlyphs" textLength="147" x="43.25" y="123.9951">AiBehaviourHerbivore</text><text fill="#000000" font-family="sans-serif" font-size="10" lengthAdjust="spacingAndGlyphs" textLength="84" x="74.75" y="136.5791">pwr.sim.animal.ai</text><line style="stroke: #A80036; stroke-width: 1.5;" x1="7" x2="199" y1="143.9375" y2="143.9375"/><rect fill="none" height="6" style="stroke: #C82930; stroke-width: 1.0;" width="6" x="14" y="151.9375"/><text fill="#000000" font-family="sans-serif" font-size="11" lengthAdjust="spacingAndGlyphs" textLength="95" x="26" y="158.1479">predator: Animal</text><line style="stroke: #A80036; stroke-width: 1.5;" x1="7" x2="199" y1="164.7422" y2="164.7422"/><ellipse cx="17" cy="175.7422" fill="#84BE84" rx="3" ry="3" style="stroke: #038048; stroke-width: 1.0;"/><text fill="#000000" font-family="sans-serif" font-size="11" lengthAdjust="spacingAndGlyphs" textLength="168" x="26" y="178.9526">AiBehaviourHerbivore(Animal)</text><ellipse cx="17" cy="188.5469" fill="#84BE84" rx="3" ry="3" style="stroke: #038048; stroke-width: 1.0;"/><text fill="#000000" font-family="sans-serif" font-size="11" lengthAdjust="spacingAndGlyphs" textLength="78" x="26" y="191.7573">update(): void</text></a><!--MD5=[ef2616cc0edc2f56e121b970d24f922a]
class pwr.sim.animal.ai.AiBehaviour--><a href="AiBehaviour.html" target="_top" title="AiBehaviour.html" xlink:actuate="onRequest" xlink:href="AiBehaviour.html" xlink:show="new" xlink:title="AiBehaviour.html" xlink:type="simple"><rect fill="#FEFECE" filter="url(#f1ovrbzwgzr9gy)" height="37.9375" id="pwr.sim.animal.ai.AiBehaviour" style="stroke: #A80036; stroke-width: 1.5;" width="116" x="45" y="8"/><ellipse cx="60" cy="26.9688" fill="#ADD1B2" rx="11" ry="11" style="stroke: #A80036; stroke-width: 1.0;"/><path d="M62.9688,32.6094 Q62.3906,32.9063 61.75,33.0469 Q61.1094,33.2031 60.4063,33.2031 Q57.9063,33.2031 56.5781,31.5625 Q55.2656,29.9063 55.2656,26.7813 Q55.2656,23.6563 56.5781,22 Q57.9063,20.3438 60.4063,20.3438 Q61.1094,20.3438 61.75,20.5 Q62.4063,20.6563 62.9688,20.9531 L62.9688,23.6719 Q62.3438,23.0938 61.75,22.8281 Q61.1563,22.5469 60.5313,22.5469 Q59.1875,22.5469 58.5,23.625 Q57.8125,24.6875 57.8125,26.7813 Q57.8125,28.875 58.5,29.9531 Q59.1875,31.0156 60.5313,31.0156 Q61.1563,31.0156 61.75,30.75 Q62.3438,30.4688 62.9688,29.8906 L62.9688,32.6094 Z "/><text fill="#000000" font-family="sans-serif" font-size="14" lengthAdjust="spacingAndGlyphs" textLength="81" x="75.5" y="25.9951">AiBehaviour</text><text fill="#000000" font-family="sans-serif" font-size="10" lengthAdjust="spacingAndGlyphs" textLength="84" x="74" y="38.5791">pwr.sim.animal.ai</text></a><!--MD5=[68780f816ef1ef8ebd97b5c3b88d7a27]
reverse link pwr.sim.animal.ai.AiBehaviour to pwr.sim.animal.ai.AiBehaviourHerbivore--><path d="M103,66.51 C103,79.01 103,92.99 103,105.93 " fill="none" id="pwr.sim.animal.ai.AiBehaviour&lt;-pwr.sim.animal.ai.AiBehaviourHerbivore" style="stroke: #A80036; stroke-width: 1.0;"/><polygon fill="none" points="96,66.15,103,46.15,110,66.15,96,66.15" style="stroke: #A80036; stroke-width: 1.0;"/><text fill="#888888" font-family="sans-serif" font-size="10" lengthAdjust="spacingAndGlyphs" textLength="186" x="16" y="217.2822">UMLDoclet 2.0.9, PlantUML 1.2020.08</text><!--MD5=[5b81e2fecd77c2a7ed4fe316d5f0d18e]
@startuml
    set namespaceSeparator none
    hide empty fields
    hide empty methods

    class "<size:14>AiBehaviourHerbivore\n<size:10>pwr.sim.animal.ai" as pwr.sim.animal.ai.AiBehaviourHerbivore [[AiBehaviourHerbivore.html]] {
        -predator: Animal
        +AiBehaviourHerbivore(Animal)
        +update(): void
    }

    class "<size:14>AiBehaviour\n<size:10>pwr.sim.animal.ai" as pwr.sim.animal.ai.AiBehaviour [[AiBehaviour.html]]

    pwr.sim.animal.ai.AiBehaviour <|- - pwr.sim.animal.ai.AiBehaviourHerbivore

    center footer UMLDoclet 2.0.9, PlantUML 1.2020.08
@enduml

PlantUML version 1.2020.08(Sun Apr 26 16:08:22 CEST 2020)
(APACHE source distribution)
Java Runtime: OpenJDK Runtime Environment
JVM: OpenJDK 64-Bit Server VM
Java Version: 11.0.7+10-post-Ubuntu-3ubuntu1
Operating System: Linux
Default Encoding: UTF-8
Language: en
Country: GB
--></g></svg>