<?xml version="1.0" encoding="UTF-8" standalone="no"?><svg xmlns="http://www.w3.org/2000/svg" xmlns:xlink="http://www.w3.org/1999/xlink" contentScriptType="application/ecmascript" contentStyleType="text/css" height="277px" preserveAspectRatio="none" style="width:262px;height:277px;" version="1.1" viewBox="0 0 262 277" width="262px" zoomAndPan="magnify"><defs><filter height="300%" id="fxep3lw5meroj" width="300%" x="-1" y="-1"><feGaussianBlur result="blurOut" stdDeviation="2.0"/><feColorMatrix in="blurOut" result="blurOut2" type="matrix" values="0 0 0 0 0 0 0 0 0 0 0 0 0 0 0 0 0 0 .4 0"/><feOffset dx="4.0" dy="4.0" in="blurOut2" result="blurOut3"/><feBlend in="SourceGraphic" in2="blurOut3" mode="normal"/></filter></defs><g><!--MD5=[08383b39ab380372cb4e4081a667c24f]
class pwr.sim.animal.ai.AiBehaviourAntelope--><a href="AiBehaviourAntelope.html" target="_top" title="AiBehaviourAntelope.html" xlink:actuate="onRequest" xlink:href="AiBehaviourAntelope.html" xlink:show="new" xlink:title="AiBehaviourAntelope.html" xlink:type="simple"><rect fill="#FEFECE" filter="url(#fxep3lw5meroj)" height="117.9609" id="pwr.sim.animal.ai.AiBehaviourAntelope" style="stroke: #A80036; stroke-width: 1.5;" width="245" x="6" y="127"/><ellipse cx="52.75" cy="145.9688" fill="#ADD1B2" rx="11" ry="11" style="stroke: #A80036; stroke-width: 1.0;"/><path d="M55.7188,151.6094 Q55.1406,151.9063 54.5,152.0469 Q53.8594,152.2031 53.1563,152.2031 Q50.6563,152.2031 49.3281,150.5625 Q48.0156,148.9063 48.0156,145.7813 Q48.0156,142.6563 49.3281,141 Q50.6563,139.3438 53.1563,139.3438 Q53.8594,139.3438 54.5,139.5 Q55.1563,139.6563 55.7188,139.9531 L55.7188,142.6719 Q55.0938,142.0938 54.5,141.8281 Q53.9063,141.5469 53.2813,141.5469 Q51.9375,141.5469 51.25,142.625 Q50.5625,143.6875 50.5625,145.7813 Q50.5625,147.875 51.25,148.9531 Q51.9375,150.0156 53.2813,150.0156 Q53.9063,150.0156 54.5,149.75 Q55.0938,149.4688 55.7188,148.8906 L55.7188,151.6094 Z "/><text fill="#000000" font-family="sans-serif" font-size="14" lengthAdjust="spacingAndGlyphs" textLength="143" x="73.25" y="144.9951">AiBehaviourAntelope</text><text fill="#000000" font-family="sans-serif" font-size="10" lengthAdjust="spacingAndGlyphs" textLength="84" x="102.75" y="157.5791">pwr.sim.animal.ai</text><line style="stroke: #A80036; stroke-width: 1.5;" x1="7" x2="250" y1="164.9375" y2="164.9375"/><rect fill="none" height="6" style="stroke: #C82930; stroke-width: 1.0;" width="6" x="14" y="172.9375"/><text fill="#000000" font-family="sans-serif" font-size="11" lengthAdjust="spacingAndGlyphs" textLength="219" x="26" y="179.1479">stateLookForFood: AiStateLookForFood</text><rect fill="none" height="6" style="stroke: #C82930; stroke-width: 1.0;" width="6" x="14" y="185.7422"/><text fill="#000000" font-family="sans-serif" font-size="11" lengthAdjust="spacingAndGlyphs" textLength="141" x="26" y="191.9526">stateSleep: AiStateSleep</text><rect fill="none" height="6" style="stroke: #C82930; stroke-width: 1.0;" width="6" x="14" y="198.5469"/><text fill="#000000" font-family="sans-serif" font-size="11" lengthAdjust="spacingAndGlyphs" textLength="169" x="26" y="204.7573">stateEatPlant: AiStateEatPlant</text><rect fill="none" height="6" style="stroke: #C82930; stroke-width: 1.0;" width="6" x="14" y="211.3516"/><text fill="#000000" font-family="sans-serif" font-size="11" lengthAdjust="spacingAndGlyphs" textLength="177" x="26" y="217.562">stateCopulate: AiStateCopulate</text><line style="stroke: #A80036; stroke-width: 1.5;" x1="7" x2="250" y1="224.1563" y2="224.1563"/><ellipse cx="17" cy="235.1563" fill="#84BE84" rx="3" ry="3" style="stroke: #038048; stroke-width: 1.0;"/><text fill="#000000" font-family="sans-serif" font-size="11" lengthAdjust="spacingAndGlyphs" textLength="78" x="26" y="238.3667">update(): void</text></a><!--MD5=[42286ad51aa720358575a37c59436338]
class pwr.sim.animal.ai.IAiBehaviour--><a href="IAiBehaviour.html" target="_top" title="IAiBehaviour.html" xlink:actuate="onRequest" xlink:href="IAiBehaviour.html" xlink:show="new" xlink:title="IAiBehaviour.html" xlink:type="simple"><rect fill="#FEFECE" filter="url(#fxep3lw5meroj)" height="58.7422" id="pwr.sim.animal.ai.IAiBehaviour" style="stroke: #A80036; stroke-width: 1.5;" width="120" x="68.5" y="8"/><ellipse cx="83.5" cy="26.9688" fill="#B4A7E5" rx="11" ry="11" style="stroke: #A80036; stroke-width: 1.0;"/><path d="M79.4219,22.7344 L79.4219,20.5781 L86.8125,20.5781 L86.8125,22.7344 L84.3438,22.7344 L84.3438,30.8125 L86.8125,30.8125 L86.8125,32.9688 L79.4219,32.9688 L79.4219,30.8125 L81.8906,30.8125 L81.8906,22.7344 L79.4219,22.7344 Z "/><text fill="#000000" font-family="sans-serif" font-size="14" font-style="italic" lengthAdjust="spacingAndGlyphs" textLength="87" x="98" y="25.9951">IAiBehaviour</text><text fill="#000000" font-family="sans-serif" font-size="10" font-style="italic" lengthAdjust="spacingAndGlyphs" textLength="88" x="97.5" y="38.5791">pwr.sim.animal.ai</text><line style="stroke: #A80036; stroke-width: 1.5;" x1="69.5" x2="187.5" y1="45.9375" y2="45.9375"/><ellipse cx="79.5" cy="56.9375" fill="#84BE84" rx="3" ry="3" style="stroke: #038048; stroke-width: 1.0;"/><text fill="#000000" font-family="sans-serif" font-size="11" font-style="italic" lengthAdjust="spacingAndGlyphs" textLength="79" x="88.5" y="60.1479">update(): void</text></a><!--MD5=[eddb5cc51229409d80c78b8e9f1a9ade]
reverse link pwr.sim.animal.ai.IAiBehaviour to pwr.sim.animal.ai.AiBehaviourAntelope--><path d="M128.5,87.2587 C128.5,99.9681 128.5,113.7556 128.5,126.8838 " fill="none" id="pwr.sim.animal.ai.IAiBehaviour&lt;-pwr.sim.animal.ai.AiBehaviourAntelope" style="stroke: #A80036; stroke-width: 1.0; stroke-dasharray: 7.0,7.0;"/><polygon fill="none" points="121.5001,87.1943,128.5,67.1943,135.5001,87.1942,121.5001,87.1943" style="stroke: #A80036; stroke-width: 1.0;"/><text fill="#888888" font-family="sans-serif" font-size="10" lengthAdjust="spacingAndGlyphs" textLength="186" x="41.5" y="264.2822">UMLDoclet 2.0.8, PlantUML 1.2020.01</text><!--MD5=[71f5c8d05e1710196c0ace9b5ae5aa3a]
@startuml
    set namespaceSeparator none
    hide empty fields
    hide empty methods

    class "<size:14>AiBehaviourAntelope\n<size:10>pwr.sim.animal.ai" as pwr.sim.animal.ai.AiBehaviourAntelope [[AiBehaviourAntelope.html]] {
        -stateLookForFood: AiStateLookForFood
        -stateSleep: AiStateSleep
        -stateEatPlant: AiStateEatPlant
        -stateCopulate: AiStateCopulate
        +update(): void
    }

    interface "<size:14>IAiBehaviour\n<size:10>pwr.sim.animal.ai" as pwr.sim.animal.ai.IAiBehaviour [[IAiBehaviour.html]] {
        {abstract} +update(): void
    }

    pwr.sim.animal.ai.IAiBehaviour <|.. pwr.sim.animal.ai.AiBehaviourAntelope

    center footer UMLDoclet 2.0.8, PlantUML 1.2020.01
@enduml

PlantUML version 1.2020.01(Sun Feb 16 18:40:32 CET 2020)
(APACHE source distribution)
Java Runtime: OpenJDK Runtime Environment
JVM: OpenJDK 64-Bit Server VM
Java Version: 11.0.7+10-post-Ubuntu-2ubuntu219.10
Operating System: Linux
Default Encoding: UTF-8
Language: en
Country: GB
--></g></svg>