<?xml version="1.0" encoding="UTF-8" standalone="no"?><svg xmlns="http://www.w3.org/2000/svg" xmlns:xlink="http://www.w3.org/1999/xlink" contentScriptType="application/ecmascript" contentStyleType="text/css" height="197px" preserveAspectRatio="none" style="width:211px;height:197px;" version="1.1" viewBox="0 0 211 197" width="211px" zoomAndPan="magnify"><defs><filter height="300%" id="f1b3p3h23a8gg" width="300%" x="-1" y="-1"><feGaussianBlur result="blurOut" stdDeviation="2.0"/><feColorMatrix in="blurOut" result="blurOut2" type="matrix" values="0 0 0 0 0 0 0 0 0 0 0 0 0 0 0 0 0 0 .4 0"/><feOffset dx="4.0" dy="4.0" in="blurOut2" result="blurOut3"/><feBlend in="SourceGraphic" in2="blurOut3" mode="normal"/></filter></defs><g><!--MD5=[2a6a70c569dd2000bb5e9f200611b38b]
class pwr.sim.animal.ai.AiBehaviourPredator--><a href="AiBehaviourPredator.html" target="_top" title="AiBehaviourPredator.html" xlink:actuate="onRequest" xlink:href="AiBehaviourPredator.html" xlink:show="new" xlink:title="AiBehaviourPredator.html" xlink:type="simple"><rect fill="#FEFECE" filter="url(#f1b3p3h23a8gg)" height="58.7422" id="pwr.sim.animal.ai.AiBehaviourPredator" style="stroke: #A80036; stroke-width: 1.5;" width="188" x="6" y="106"/><ellipse cx="28.2" cy="124.9688" fill="#ADD1B2" rx="11" ry="11" style="stroke: #A80036; stroke-width: 1.0;"/><path d="M31.1688,130.6094 Q30.5906,130.9063 29.95,131.0469 Q29.3094,131.2031 28.6063,131.2031 Q26.1063,131.2031 24.7781,129.5625 Q23.4656,127.9063 23.4656,124.7813 Q23.4656,121.6563 24.7781,120 Q26.1063,118.3438 28.6063,118.3438 Q29.3094,118.3438 29.95,118.5 Q30.6063,118.6563 31.1688,118.9531 L31.1688,121.6719 Q30.5438,121.0938 29.95,120.8281 Q29.3563,120.5469 28.7313,120.5469 Q27.3875,120.5469 26.7,121.625 Q26.0125,122.6875 26.0125,124.7813 Q26.0125,126.875 26.7,127.9531 Q27.3875,129.0156 28.7313,129.0156 Q29.3563,129.0156 29.95,128.75 Q30.5438,128.4688 31.1688,127.8906 L31.1688,130.6094 Z "/><text fill="#000000" font-family="sans-serif" font-size="14" lengthAdjust="spacingAndGlyphs" textLength="140" x="43.8" y="123.9951">AiBehaviourPredator</text><text fill="#000000" font-family="sans-serif" font-size="10" lengthAdjust="spacingAndGlyphs" textLength="84" x="71.8" y="136.5791">pwr.sim.animal.ai</text><line style="stroke: #A80036; stroke-width: 1.5;" x1="7" x2="193" y1="143.9375" y2="143.9375"/><ellipse cx="17" cy="154.9375" fill="#84BE84" rx="3" ry="3" style="stroke: #038048; stroke-width: 1.0;"/><text fill="#000000" font-family="sans-serif" font-size="11" lengthAdjust="spacingAndGlyphs" textLength="162" x="26" y="158.1479">AiBehaviourPredator(Animal)</text></a><!--MD5=[ef2616cc0edc2f56e121b970d24f922a]
class pwr.sim.animal.ai.AiBehaviour--><a href="AiBehaviour.html" target="_top" title="AiBehaviour.html" xlink:actuate="onRequest" xlink:href="AiBehaviour.html" xlink:show="new" xlink:title="AiBehaviour.html" xlink:type="simple"><rect fill="#FEFECE" filter="url(#f1b3p3h23a8gg)" height="37.9375" id="pwr.sim.animal.ai.AiBehaviour" style="stroke: #A80036; stroke-width: 1.5;" width="116" x="42" y="8"/><ellipse cx="57" cy="26.9688" fill="#ADD1B2" rx="11" ry="11" style="stroke: #A80036; stroke-width: 1.0;"/><path d="M59.9688,32.6094 Q59.3906,32.9063 58.75,33.0469 Q58.1094,33.2031 57.4063,33.2031 Q54.9063,33.2031 53.5781,31.5625 Q52.2656,29.9063 52.2656,26.7813 Q52.2656,23.6563 53.5781,22 Q54.9063,20.3438 57.4063,20.3438 Q58.1094,20.3438 58.75,20.5 Q59.4063,20.6563 59.9688,20.9531 L59.9688,23.6719 Q59.3438,23.0938 58.75,22.8281 Q58.1563,22.5469 57.5313,22.5469 Q56.1875,22.5469 55.5,23.625 Q54.8125,24.6875 54.8125,26.7813 Q54.8125,28.875 55.5,29.9531 Q56.1875,31.0156 57.5313,31.0156 Q58.1563,31.0156 58.75,30.75 Q59.3438,30.4688 59.9688,29.8906 L59.9688,32.6094 Z "/><text fill="#000000" font-family="sans-serif" font-size="14" lengthAdjust="spacingAndGlyphs" textLength="81" x="72.5" y="25.9951">AiBehaviour</text><text fill="#000000" font-family="sans-serif" font-size="10" lengthAdjust="spacingAndGlyphs" textLength="84" x="71" y="38.5791">pwr.sim.animal.ai</text></a><!--MD5=[9e77128cb89224cf63b6305ba9ad27bf]
reverse link pwr.sim.animal.ai.AiBehaviour to pwr.sim.animal.ai.AiBehaviourPredator--><path d="M100,66.22 C100,79.3 100,93.7 100,105.89 " fill="none" id="pwr.sim.animal.ai.AiBehaviour&lt;-pwr.sim.animal.ai.AiBehaviourPredator" style="stroke: #A80036; stroke-width: 1.0;"/><polygon fill="none" points="93,66.07,100,46.07,107,66.07,93,66.07" style="stroke: #A80036; stroke-width: 1.0;"/><text fill="#888888" font-family="sans-serif" font-size="10" lengthAdjust="spacingAndGlyphs" textLength="186" x="13" y="184.2822">UMLDoclet 2.0.9, PlantUML 1.2020.08</text><!--MD5=[06ba6474cc5c6f5561fd4f71bcb1d4ad]
@startuml
    set namespaceSeparator none
    hide empty fields
    hide empty methods

    class "<size:14>AiBehaviourPredator\n<size:10>pwr.sim.animal.ai" as pwr.sim.animal.ai.AiBehaviourPredator [[AiBehaviourPredator.html]] {
        +AiBehaviourPredator(Animal)
    }

    class "<size:14>AiBehaviour\n<size:10>pwr.sim.animal.ai" as pwr.sim.animal.ai.AiBehaviour [[AiBehaviour.html]]

    pwr.sim.animal.ai.AiBehaviour <|- - pwr.sim.animal.ai.AiBehaviourPredator

    center footer UMLDoclet 2.0.9, PlantUML 1.2020.08
@enduml

PlantUML version 1.2020.08(Sun Apr 26 16:08:22 CEST 2020)
(APACHE source distribution)
Java Runtime: OpenJDK Runtime Environment
JVM: OpenJDK 64-Bit Server VM
Java Version: 11.0.7+10-post-Ubuntu-3ubuntu1
Operating System: Linux
Default Encoding: UTF-8
Language: en
Country: GB
--></g></svg>