<?xml version="1.0" encoding="UTF-8" standalone="no"?><svg xmlns="http://www.w3.org/2000/svg" xmlns:xlink="http://www.w3.org/1999/xlink" contentScriptType="application/ecmascript" contentStyleType="text/css" height="387px" preserveAspectRatio="none" style="width:714px;height:387px;" version="1.1" viewBox="0 0 714 387" width="714px" zoomAndPan="magnify"><defs><filter height="300%" id="f1dy1cpr2b5a2b" width="300%" x="-1" y="-1"><feGaussianBlur result="blurOut" stdDeviation="2.0"/><feColorMatrix in="blurOut" result="blurOut2" type="matrix" values="0 0 0 0 0 0 0 0 0 0 0 0 0 0 0 0 0 0 .4 0"/><feOffset dx="4.0" dy="4.0" in="blurOut2" result="blurOut3"/><feBlend in="SourceGraphic" in2="blurOut3" mode="normal"/></filter></defs><g><!--MD5=[cb8a12caddea0e4f4a4443ac73e0810b]
cluster pwr.sim.animal.ai--><polygon fill="#FFFFFF" filter="url(#f1dy1cpr2b5a2b)" points="22,24,164,24,171,46.2969,471,46.2969,471,339,22,339,22,24" style="stroke: #000000; stroke-width: 1.5;"/><line style="stroke: #000000; stroke-width: 1.5;" x1="22" x2="171" y1="46.2969" y2="46.2969"/><text fill="#000000" font-family="sans-serif" font-size="14" font-weight="bold" lengthAdjust="spacingAndGlyphs" textLength="136" x="26" y="38.9951">pwr.sim.animal.ai</text><!--MD5=[7eeeb206a6d334978b95fb0cfc669640]
cluster pwr.sim.animal.ai.state--><polygon fill="#FFFFFF" filter="url(#f1dy1cpr2b5a2b)" points="495,221,682,221,689,243.2969,692,243.2969,692,320,495,320,495,221" style="stroke: #000000; stroke-width: 1.5;"/><line style="stroke: #000000; stroke-width: 1.5;" x1="495" x2="689" y1="243.2969" y2="243.2969"/><text fill="#000000" font-family="sans-serif" font-size="14" font-weight="bold" lengthAdjust="spacingAndGlyphs" textLength="181" x="499" y="235.9951">pwr.sim.animal.ai.state</text><!--MD5=[ef2616cc0edc2f56e121b970d24f922a]
class pwr.sim.animal.ai.AiBehaviour--><a href="AiBehaviour.html" target="_top" title="AiBehaviour.html" xlink:actuate="onRequest" xlink:href="AiBehaviour.html" xlink:show="new" xlink:title="AiBehaviour.html" xlink:type="simple"><rect fill="#FEFECE" filter="url(#f1dy1cpr2b5a2b)" height="99.2188" id="pwr.sim.animal.ai.AiBehaviour" style="stroke: #A80036; stroke-width: 1.5;" width="139" x="288.5" y="59"/><ellipse cx="318.8" cy="75" fill="#ADD1B2" rx="11" ry="11" style="stroke: #A80036; stroke-width: 1.0;"/><path d="M321.7688,80.6406 Q321.1906,80.9375 320.55,81.0781 Q319.9094,81.2344 319.2063,81.2344 Q316.7063,81.2344 315.3781,79.5938 Q314.0656,77.9375 314.0656,74.8125 Q314.0656,71.6875 315.3781,70.0313 Q316.7063,68.375 319.2063,68.375 Q319.9094,68.375 320.55,68.5313 Q321.2063,68.6875 321.7688,68.9844 L321.7688,71.7031 Q321.1438,71.125 320.55,70.8594 Q319.9563,70.5781 319.3313,70.5781 Q317.9875,70.5781 317.3,71.6563 Q316.6125,72.7188 316.6125,74.8125 Q316.6125,76.9063 317.3,77.9844 Q317.9875,79.0469 319.3313,79.0469 Q319.9563,79.0469 320.55,78.7813 Q321.1438,78.5 321.7688,77.9219 L321.7688,80.6406 Z "/><text fill="#000000" font-family="sans-serif" font-size="12" lengthAdjust="spacingAndGlyphs" textLength="73" x="336.2" y="79.1543">AiBehaviour</text><line style="stroke: #A80036; stroke-width: 1.5;" x1="289.5" x2="426.5" y1="91" y2="91"/><ellipse cx="299.5" cy="102" fill="none" rx="3" ry="3" style="stroke: #038048; stroke-width: 1.0;"/><text fill="#000000" font-family="sans-serif" font-size="11" lengthAdjust="spacingAndGlyphs" textLength="84" x="308.5" y="105.2104">animal: Animal</text><line style="stroke: #A80036; stroke-width: 1.5;" x1="289.5" x2="426.5" y1="111.8047" y2="111.8047"/><ellipse cx="299.5" cy="122.8047" fill="#84BE84" rx="3" ry="3" style="stroke: #038048; stroke-width: 1.0;"/><text fill="#000000" font-family="sans-serif" font-size="11" lengthAdjust="spacingAndGlyphs" textLength="113" x="308.5" y="126.0151">AiBehaviour(Animal)</text><ellipse cx="299.5" cy="135.6094" fill="#84BE84" rx="3" ry="3" style="stroke: #038048; stroke-width: 1.0;"/><text fill="#000000" font-family="sans-serif" font-size="11" lengthAdjust="spacingAndGlyphs" textLength="78" x="308.5" y="138.8198">update(): void</text><ellipse cx="299.5" cy="148.4141" fill="#84BE84" rx="3" ry="3" style="stroke: #038048; stroke-width: 1.0;"/><text fill="#000000" font-family="sans-serif" font-size="11" lengthAdjust="spacingAndGlyphs" textLength="106" x="308.5" y="151.6245">debugInfo(): String</text></a><!--MD5=[2a6a70c569dd2000bb5e9f200611b38b]
class pwr.sim.animal.ai.AiBehaviourPredator--><a href="AiBehaviourPredator.html" target="_top" title="AiBehaviourPredator.html" xlink:actuate="onRequest" xlink:href="AiBehaviourPredator.html" xlink:show="new" xlink:title="AiBehaviourPredator.html" xlink:type="simple"><rect fill="#FEFECE" filter="url(#f1dy1cpr2b5a2b)" height="60.8047" id="pwr.sim.animal.ai.AiBehaviourPredator" style="stroke: #A80036; stroke-width: 1.5;" width="188" x="38" y="249.5"/><ellipse cx="65.6" cy="265.5" fill="#ADD1B2" rx="11" ry="11" style="stroke: #A80036; stroke-width: 1.0;"/><path d="M68.5688,271.1406 Q67.9906,271.4375 67.35,271.5781 Q66.7094,271.7344 66.0063,271.7344 Q63.5062,271.7344 62.1781,270.0938 Q60.8656,268.4375 60.8656,265.3125 Q60.8656,262.1875 62.1781,260.5313 Q63.5062,258.875 66.0063,258.875 Q66.7094,258.875 67.35,259.0313 Q68.0063,259.1875 68.5688,259.4844 L68.5688,262.2031 Q67.9438,261.625 67.35,261.3594 Q66.7563,261.0781 66.1313,261.0781 Q64.7875,261.0781 64.1,262.1563 Q63.4125,263.2188 63.4125,265.3125 Q63.4125,267.4063 64.1,268.4844 Q64.7875,269.5469 66.1313,269.5469 Q66.7563,269.5469 67.35,269.2813 Q67.9438,269 68.5688,268.4219 L68.5688,271.1406 Z "/><text fill="#000000" font-family="sans-serif" font-size="12" lengthAdjust="spacingAndGlyphs" textLength="128" x="82.4" y="269.6543">AiBehaviourPredator</text><line style="stroke: #A80036; stroke-width: 1.5;" x1="39" x2="225" y1="281.5" y2="281.5"/><line style="stroke: #A80036; stroke-width: 1.5;" x1="39" x2="225" y1="289.5" y2="289.5"/><ellipse cx="49" cy="300.5" fill="#84BE84" rx="3" ry="3" style="stroke: #038048; stroke-width: 1.0;"/><text fill="#000000" font-family="sans-serif" font-size="11" lengthAdjust="spacingAndGlyphs" textLength="162" x="58" y="303.7104">AiBehaviourPredator(Animal)</text></a><!--MD5=[3044d891e27180e598955a46038cb3c9]
class pwr.sim.animal.ai.AiBehaviourHerbivore--><a href="AiBehaviourHerbivore.html" target="_top" title="AiBehaviourHerbivore.html" xlink:actuate="onRequest" xlink:href="AiBehaviourHerbivore.html" xlink:show="new" xlink:title="AiBehaviourHerbivore.html" xlink:type="simple"><rect fill="#FEFECE" filter="url(#f1dy1cpr2b5a2b)" height="86.4141" id="pwr.sim.animal.ai.AiBehaviourHerbivore" style="stroke: #A80036; stroke-width: 1.5;" width="194" x="261" y="237"/><ellipse cx="289.05" cy="253" fill="#ADD1B2" rx="11" ry="11" style="stroke: #A80036; stroke-width: 1.0;"/><path d="M292.0188,258.6406 Q291.4406,258.9375 290.8,259.0781 Q290.1594,259.2344 289.4563,259.2344 Q286.9563,259.2344 285.6281,257.5938 Q284.3156,255.9375 284.3156,252.8125 Q284.3156,249.6875 285.6281,248.0313 Q286.9563,246.375 289.4563,246.375 Q290.1594,246.375 290.8,246.5313 Q291.4563,246.6875 292.0188,246.9844 L292.0188,249.7031 Q291.3938,249.125 290.8,248.8594 Q290.2063,248.5781 289.5813,248.5781 Q288.2375,248.5781 287.55,249.6563 Q286.8625,250.7188 286.8625,252.8125 Q286.8625,254.9063 287.55,255.9844 Q288.2375,257.0469 289.5813,257.0469 Q290.2063,257.0469 290.8,256.7813 Q291.3938,256.5 292.0188,255.9219 L292.0188,258.6406 Z "/><text fill="#000000" font-family="sans-serif" font-size="12" lengthAdjust="spacingAndGlyphs" textLength="133" x="305.95" y="257.1543">AiBehaviourHerbivore</text><line style="stroke: #A80036; stroke-width: 1.5;" x1="262" x2="454" y1="269" y2="269"/><rect fill="none" height="6" style="stroke: #C82930; stroke-width: 1.0;" width="6" x="269" y="277"/><text fill="#000000" font-family="sans-serif" font-size="11" lengthAdjust="spacingAndGlyphs" textLength="95" x="281" y="283.2104">predator: Animal</text><line style="stroke: #A80036; stroke-width: 1.5;" x1="262" x2="454" y1="289.8047" y2="289.8047"/><ellipse cx="272" cy="300.8047" fill="#84BE84" rx="3" ry="3" style="stroke: #038048; stroke-width: 1.0;"/><text fill="#000000" font-family="sans-serif" font-size="11" lengthAdjust="spacingAndGlyphs" textLength="168" x="281" y="304.0151">AiBehaviourHerbivore(Animal)</text><ellipse cx="272" cy="313.6094" fill="#84BE84" rx="3" ry="3" style="stroke: #038048; stroke-width: 1.0;"/><text fill="#000000" font-family="sans-serif" font-size="11" lengthAdjust="spacingAndGlyphs" textLength="78" x="281" y="316.8198">update(): void</text></a><!--MD5=[af772f8550f9215bd32b0d137f557a72]
class pwr.sim.animal.ai.state.IAiState--><rect fill="#FEFECE" filter="url(#f1dy1cpr2b5a2b)" height="48" id="pwr.sim.animal.ai.state.IAiState" style="stroke: #A80036; stroke-width: 1.5;" width="80" x="511" y="256"/><ellipse cx="526" cy="272" fill="#ADD1B2" rx="11" ry="11" style="stroke: #A80036; stroke-width: 1.0;"/><path d="M528.9688,277.6406 Q528.3906,277.9375 527.75,278.0781 Q527.1094,278.2344 526.4063,278.2344 Q523.9063,278.2344 522.5781,276.5938 Q521.2656,274.9375 521.2656,271.8125 Q521.2656,268.6875 522.5781,267.0313 Q523.9063,265.375 526.4063,265.375 Q527.1094,265.375 527.75,265.5313 Q528.4063,265.6875 528.9688,265.9844 L528.9688,268.7031 Q528.3438,268.125 527.75,267.8594 Q527.1563,267.5781 526.5313,267.5781 Q525.1875,267.5781 524.5,268.6563 Q523.8125,269.7188 523.8125,271.8125 Q523.8125,273.9063 524.5,274.9844 Q525.1875,276.0469 526.5313,276.0469 Q527.1563,276.0469 527.75,275.7813 Q528.3438,275.5 528.9688,274.9219 L528.9688,277.6406 Z "/><text fill="#000000" font-family="sans-serif" font-size="12" lengthAdjust="spacingAndGlyphs" textLength="48" x="540" y="276.1543">IAiState</text><line style="stroke: #A80036; stroke-width: 1.5;" x1="512" x2="590" y1="288" y2="288"/><line style="stroke: #A80036; stroke-width: 1.5;" x1="512" x2="590" y1="296" y2="296"/><!--MD5=[849702cc23b915e2ea5e20e452e24f18]
link pwr.sim.animal.ai.AiBehaviour to pwr.sim.animal.ai.state.IAiState--><path d="M413.31,158.07 C448.27,188.78 492.12,227.29 520.82,252.49 " fill="none" id="pwr.sim.animal.ai.AiBehaviour-&gt;pwr.sim.animal.ai.state.IAiState" style="stroke: #A80036; stroke-width: 1.0;"/><polygon fill="#A80036" points="524.59,255.8,520.4676,246.8554,520.8333,252.5004,515.1883,252.8661,524.59,255.8" style="stroke: #A80036; stroke-width: 1.0;"/><text fill="#000000" font-family="sans-serif" font-size="13" lengthAdjust="spacingAndGlyphs" textLength="81" x="467" y="201.0669">currentState</text><!--MD5=[9e77128cb89224cf63b6305ba9ad27bf]
reverse link pwr.sim.animal.ai.AiBehaviour to pwr.sim.animal.ai.AiBehaviourPredator--><path d="M277.15,170.14 C241.28,197.04 200.69,227.48 171.58,249.32 " fill="none" id="pwr.sim.animal.ai.AiBehaviour&lt;-pwr.sim.animal.ai.AiBehaviourPredator" style="stroke: #A80036; stroke-width: 1.0;"/><polygon fill="none" points="273.04,164.47,293.24,158.07,281.44,175.67,273.04,164.47" style="stroke: #A80036; stroke-width: 1.0;"/><!--MD5=[68780f816ef1ef8ebd97b5c3b88d7a27]
reverse link pwr.sim.animal.ai.AiBehaviour to pwr.sim.animal.ai.AiBehaviourHerbivore--><path d="M358,178.12 C358,197.96 358,219.03 358,236.76 " fill="none" id="pwr.sim.animal.ai.AiBehaviour&lt;-pwr.sim.animal.ai.AiBehaviourHerbivore" style="stroke: #A80036; stroke-width: 1.0;"/><polygon fill="none" points="351,178.07,358,158.07,365,178.07,351,178.07" style="stroke: #A80036; stroke-width: 1.0;"/><text fill="#888888" font-family="sans-serif" font-size="10" lengthAdjust="spacingAndGlyphs" textLength="186" x="270" y="374.2822">UMLDoclet 2.0.9, PlantUML 1.2020.08</text><!--MD5=[30f0c9f7f703e7ed8ad127764537c331]
@startuml
    namespace pwr.sim.animal.ai {

        class AiBehaviour [[AiBehaviour.html]] {
            +animal: Animal
            +AiBehaviour(Animal)
            +update(): void
            +debugInfo(): String
        }

        class AiBehaviourPredator [[AiBehaviourPredator.html]] {
            +AiBehaviourPredator(Animal)
        }

        class AiBehaviourHerbivore [[AiBehaviourHerbivore.html]] {
            -predator: Animal
            +AiBehaviourHerbivore(Animal)
            +update(): void
        }

        AiBehaviour - -> pwr.sim.animal.ai.state.IAiState: currentState
        AiBehaviour <|- - AiBehaviourPredator
        AiBehaviour <|- - AiBehaviourHerbivore
    }

    center footer UMLDoclet 2.0.9, PlantUML 1.2020.08
@enduml

PlantUML version 1.2020.08(Sun Apr 26 16:08:22 CEST 2020)
(APACHE source distribution)
Java Runtime: OpenJDK Runtime Environment
JVM: OpenJDK 64-Bit Server VM
Java Version: 11.0.7+10-post-Ubuntu-3ubuntu1
Operating System: Linux
Default Encoding: UTF-8
Language: en
Country: GB
--></g></svg>