<?xml version="1.0" encoding="UTF-8" standalone="no"?><svg xmlns="http://www.w3.org/2000/svg" xmlns:xlink="http://www.w3.org/1999/xlink" contentScriptType="application/ecmascript" contentStyleType="text/css" height="466px" preserveAspectRatio="none" style="width:2471px;height:466px;" version="1.1" viewBox="0 0 2471 466" width="2471px" zoomAndPan="magnify"><defs><filter height="300%" id="f1if5cr7eucmrr" width="300%" x="-1" y="-1"><feGaussianBlur result="blurOut" stdDeviation="2.0"/><feColorMatrix in="blurOut" result="blurOut2" type="matrix" values="0 0 0 0 0 0 0 0 0 0 0 0 0 0 0 0 0 0 .4 0"/><feOffset dx="4.0" dy="4.0" in="blurOut2" result="blurOut3"/><feBlend in="SourceGraphic" in2="blurOut3" mode="normal"/></filter></defs><g><!--MD5=[cb8a12caddea0e4f4a4443ac73e0810b]
cluster pwr.sim.animal.ai--><polygon fill="#FFFFFF" filter="url(#f1if5cr7eucmrr)" points="700.856,16,842.856,16,849.856,38.2969,1584.856,38.2969,1584.856,296,700.856,296,700.856,16" style="stroke: #000000; stroke-width: 1.5;"/><line style="stroke: #000000; stroke-width: 1.5;" x1="700.856" x2="849.856" y1="38.2969" y2="38.2969"/><text fill="#000000" font-family="sans-serif" font-size="14" font-weight="bold" lengthAdjust="spacingAndGlyphs" textLength="136" x="704.856" y="30.9951">pwr.sim.animal.ai</text><!--MD5=[7eeeb206a6d334978b95fb0cfc669640]
cluster pwr.sim.animal.ai.state--><polygon fill="#FFFFFF" filter="url(#f1if5cr7eucmrr)" points="772.856,343,959.856,343,966.856,365.2969,1745.856,365.2969,1745.856,426,772.856,426,772.856,343" style="stroke: #000000; stroke-width: 1.5;"/><line style="stroke: #000000; stroke-width: 1.5;" x1="772.856" x2="966.856" y1="365.2969" y2="365.2969"/><text fill="#000000" font-family="sans-serif" font-size="14" font-weight="bold" lengthAdjust="spacingAndGlyphs" textLength="181" x="776.856" y="357.9951">pwr.sim.animal.ai.state</text><!--MD5=[6e5091db196423e8828a8b761bd947a5]
class pwr.sim.animal.ai.AiBehaviourLion--><a href="AiBehaviourLion.html" target="_top" title="AiBehaviourLion.html" xlink:actuate="onRequest" xlink:href="AiBehaviourLion.html" xlink:show="new" xlink:title="AiBehaviourLion.html" xlink:type="simple"><rect fill="#FEFECE" filter="url(#f1if5cr7eucmrr)" height="60.8047" id="pwr.sim.animal.ai.AiBehaviourLion" style="stroke: #A80036; stroke-width: 1.5;" width="130" x="1073.856" y="227"/><ellipse cx="1088.856" cy="243" fill="#ADD1B2" rx="11" ry="11" style="stroke: #A80036; stroke-width: 1.0;"/><path d="M1091.8248,248.6406 Q1091.2466,248.9375 1090.606,249.0781 Q1089.9654,249.2344 1089.2623,249.2344 Q1086.7623,249.2344 1085.4341,247.5938 Q1084.1216,245.9375 1084.1216,242.8125 Q1084.1216,239.6875 1085.4341,238.0313 Q1086.7623,236.375 1089.2623,236.375 Q1089.9654,236.375 1090.606,236.5313 Q1091.2623,236.6875 1091.8248,236.9844 L1091.8248,239.7031 Q1091.1998,239.125 1090.606,238.8594 Q1090.0123,238.5781 1089.3873,238.5781 Q1088.0435,238.5781 1087.356,239.6563 Q1086.6685,240.7188 1086.6685,242.8125 Q1086.6685,244.9063 1087.356,245.9844 Q1088.0435,247.0469 1089.3873,247.0469 Q1090.0123,247.0469 1090.606,246.7813 Q1091.1998,246.5 1091.8248,245.9219 L1091.8248,248.6406 Z "/><text fill="#000000" font-family="sans-serif" font-size="12" lengthAdjust="spacingAndGlyphs" textLength="98" x="1102.856" y="247.1543">AiBehaviourLion</text><line style="stroke: #A80036; stroke-width: 1.5;" x1="1074.856" x2="1202.856" y1="259" y2="259"/><line style="stroke: #A80036; stroke-width: 1.5;" x1="1074.856" x2="1202.856" y1="267" y2="267"/><ellipse cx="1084.856" cy="278" fill="#84BE84" rx="3" ry="3" style="stroke: #038048; stroke-width: 1.0;"/><text fill="#000000" font-family="sans-serif" font-size="11" lengthAdjust="spacingAndGlyphs" textLength="78" x="1093.856" y="281.2104">update(): void</text></a><!--MD5=[42286ad51aa720358575a37c59436338]
class pwr.sim.animal.ai.IAiBehaviour--><a href="IAiBehaviour.html" target="_top" title="IAiBehaviour.html" xlink:actuate="onRequest" xlink:href="IAiBehaviour.html" xlink:show="new" xlink:title="IAiBehaviour.html" xlink:type="simple"><rect fill="#FEFECE" filter="url(#f1if5cr7eucmrr)" height="60.8047" id="pwr.sim.animal.ai.IAiBehaviour" style="stroke: #A80036; stroke-width: 1.5;" width="109" x="1084.356" y="43"/><ellipse cx="1099.356" cy="59" fill="#B4A7E5" rx="11" ry="11" style="stroke: #A80036; stroke-width: 1.0;"/><path d="M1095.2779,54.7656 L1095.2779,52.6094 L1102.6685,52.6094 L1102.6685,54.7656 L1100.1998,54.7656 L1100.1998,62.8438 L1102.6685,62.8438 L1102.6685,65 L1095.2779,65 L1095.2779,62.8438 L1097.7466,62.8438 L1097.7466,54.7656 L1095.2779,54.7656 Z "/><text fill="#000000" font-family="sans-serif" font-size="12" font-style="italic" lengthAdjust="spacingAndGlyphs" textLength="77" x="1113.356" y="63.1543">IAiBehaviour</text><line style="stroke: #A80036; stroke-width: 1.5;" x1="1085.356" x2="1192.356" y1="75" y2="75"/><line style="stroke: #A80036; stroke-width: 1.5;" x1="1085.356" x2="1192.356" y1="83" y2="83"/><ellipse cx="1095.356" cy="94" fill="#84BE84" rx="3" ry="3" style="stroke: #038048; stroke-width: 1.0;"/><text fill="#000000" font-family="sans-serif" font-size="11" font-style="italic" lengthAdjust="spacingAndGlyphs" textLength="79" x="1104.356" y="97.2104">update(): void</text></a><!--MD5=[08383b39ab380372cb4e4081a667c24f]
class pwr.sim.animal.ai.AiBehaviourAntelope--><a href="AiBehaviourAntelope.html" target="_top" title="AiBehaviourAntelope.html" xlink:actuate="onRequest" xlink:href="AiBehaviourAntelope.html" xlink:show="new" xlink:title="AiBehaviourAntelope.html" xlink:type="simple"><rect fill="#FEFECE" filter="url(#f1if5cr7eucmrr)" height="60.8047" id="pwr.sim.animal.ai.AiBehaviourAntelope" style="stroke: #A80036; stroke-width: 1.5;" width="161" x="1239.356" y="227"/><ellipse cx="1254.356" cy="243" fill="#ADD1B2" rx="11" ry="11" style="stroke: #A80036; stroke-width: 1.0;"/><path d="M1257.3248,248.6406 Q1256.7466,248.9375 1256.106,249.0781 Q1255.4654,249.2344 1254.7623,249.2344 Q1252.2623,249.2344 1250.9341,247.5938 Q1249.6216,245.9375 1249.6216,242.8125 Q1249.6216,239.6875 1250.9341,238.0313 Q1252.2623,236.375 1254.7623,236.375 Q1255.4654,236.375 1256.106,236.5313 Q1256.7623,236.6875 1257.3248,236.9844 L1257.3248,239.7031 Q1256.6998,239.125 1256.106,238.8594 Q1255.5123,238.5781 1254.8873,238.5781 Q1253.5435,238.5781 1252.856,239.6563 Q1252.1685,240.7188 1252.1685,242.8125 Q1252.1685,244.9063 1252.856,245.9844 Q1253.5435,247.0469 1254.8873,247.0469 Q1255.5123,247.0469 1256.106,246.7813 Q1256.6998,246.5 1257.3248,245.9219 L1257.3248,248.6406 Z "/><text fill="#000000" font-family="sans-serif" font-size="12" lengthAdjust="spacingAndGlyphs" textLength="129" x="1268.356" y="247.1543">AiBehaviourAntelope</text><line style="stroke: #A80036; stroke-width: 1.5;" x1="1240.356" x2="1399.356" y1="259" y2="259"/><line style="stroke: #A80036; stroke-width: 1.5;" x1="1240.356" x2="1399.356" y1="267" y2="267"/><ellipse cx="1250.356" cy="278" fill="#84BE84" rx="3" ry="3" style="stroke: #038048; stroke-width: 1.0;"/><text fill="#000000" font-family="sans-serif" font-size="11" lengthAdjust="spacingAndGlyphs" textLength="78" x="1259.356" y="281.2104">update(): void</text></a><!--MD5=[f299b650506ae904504709ee1bbc5eee]
class pwr.sim.animal.ai.AiBehaviourWolf--><a href="AiBehaviourWolf.html" target="_top" title="AiBehaviourWolf.html" xlink:actuate="onRequest" xlink:href="AiBehaviourWolf.html" xlink:show="new" xlink:title="AiBehaviourWolf.html" xlink:type="simple"><rect fill="#FEFECE" filter="url(#f1if5cr7eucmrr)" height="60.8047" id="pwr.sim.animal.ai.AiBehaviourWolf" style="stroke: #A80036; stroke-width: 1.5;" width="131" x="709.356" y="227"/><ellipse cx="724.356" cy="243" fill="#ADD1B2" rx="11" ry="11" style="stroke: #A80036; stroke-width: 1.0;"/><path d="M727.3248,248.6406 Q726.7466,248.9375 726.106,249.0781 Q725.4654,249.2344 724.7623,249.2344 Q722.2623,249.2344 720.9341,247.5938 Q719.6216,245.9375 719.6216,242.8125 Q719.6216,239.6875 720.9341,238.0313 Q722.2623,236.375 724.7623,236.375 Q725.4654,236.375 726.106,236.5313 Q726.7623,236.6875 727.3248,236.9844 L727.3248,239.7031 Q726.6998,239.125 726.106,238.8594 Q725.5123,238.5781 724.8873,238.5781 Q723.5435,238.5781 722.856,239.6563 Q722.1685,240.7188 722.1685,242.8125 Q722.1685,244.9063 722.856,245.9844 Q723.5435,247.0469 724.8873,247.0469 Q725.5123,247.0469 726.106,246.7813 Q726.6998,246.5 727.3248,245.9219 L727.3248,248.6406 Z "/><text fill="#000000" font-family="sans-serif" font-size="12" lengthAdjust="spacingAndGlyphs" textLength="99" x="738.356" y="247.1543">AiBehaviourWolf</text><line style="stroke: #A80036; stroke-width: 1.5;" x1="710.356" x2="839.356" y1="259" y2="259"/><line style="stroke: #A80036; stroke-width: 1.5;" x1="710.356" x2="839.356" y1="267" y2="267"/><ellipse cx="720.356" cy="278" fill="#84BE84" rx="3" ry="3" style="stroke: #038048; stroke-width: 1.0;"/><text fill="#000000" font-family="sans-serif" font-size="11" lengthAdjust="spacingAndGlyphs" textLength="78" x="729.356" y="281.2104">update(): void</text></a><!--MD5=[903a8be7c906695e3ea777a9599aedcd]
class pwr.sim.animal.ai.AiBehaviourHippo--><a href="AiBehaviourHippo.html" target="_top" title="AiBehaviourHippo.html" xlink:actuate="onRequest" xlink:href="AiBehaviourHippo.html" xlink:show="new" xlink:title="AiBehaviourHippo.html" xlink:type="simple"><rect fill="#FEFECE" filter="url(#f1if5cr7eucmrr)" height="60.8047" id="pwr.sim.animal.ai.AiBehaviourHippo" style="stroke: #A80036; stroke-width: 1.5;" width="141" x="1435.356" y="227"/><ellipse cx="1450.356" cy="243" fill="#ADD1B2" rx="11" ry="11" style="stroke: #A80036; stroke-width: 1.0;"/><path d="M1453.3248,248.6406 Q1452.7466,248.9375 1452.106,249.0781 Q1451.4654,249.2344 1450.7623,249.2344 Q1448.2623,249.2344 1446.9341,247.5938 Q1445.6216,245.9375 1445.6216,242.8125 Q1445.6216,239.6875 1446.9341,238.0313 Q1448.2623,236.375 1450.7623,236.375 Q1451.4654,236.375 1452.106,236.5313 Q1452.7623,236.6875 1453.3248,236.9844 L1453.3248,239.7031 Q1452.6998,239.125 1452.106,238.8594 Q1451.5123,238.5781 1450.8873,238.5781 Q1449.5435,238.5781 1448.856,239.6563 Q1448.1685,240.7188 1448.1685,242.8125 Q1448.1685,244.9063 1448.856,245.9844 Q1449.5435,247.0469 1450.8873,247.0469 Q1451.5123,247.0469 1452.106,246.7813 Q1452.6998,246.5 1453.3248,245.9219 L1453.3248,248.6406 Z "/><text fill="#000000" font-family="sans-serif" font-size="12" lengthAdjust="spacingAndGlyphs" textLength="109" x="1464.356" y="247.1543">AiBehaviourHippo</text><line style="stroke: #A80036; stroke-width: 1.5;" x1="1436.356" x2="1575.356" y1="259" y2="259"/><line style="stroke: #A80036; stroke-width: 1.5;" x1="1436.356" x2="1575.356" y1="267" y2="267"/><ellipse cx="1446.356" cy="278" fill="#84BE84" rx="3" ry="3" style="stroke: #038048; stroke-width: 1.0;"/><text fill="#000000" font-family="sans-serif" font-size="11" lengthAdjust="spacingAndGlyphs" textLength="78" x="1455.356" y="281.2104">update(): void</text></a><!--MD5=[1325c757bf5b1e182acfce8f4a0a4ccf]
class pwr.sim.animal.ai.AiBehaviourCrocodile--><a href="AiBehaviourCrocodile.html" target="_top" title="AiBehaviourCrocodile.html" xlink:actuate="onRequest" xlink:href="AiBehaviourCrocodile.html" xlink:show="new" xlink:title="AiBehaviourCrocodile.html" xlink:type="simple"><rect fill="#FEFECE" filter="url(#f1if5cr7eucmrr)" height="60.8047" id="pwr.sim.animal.ai.AiBehaviourCrocodile" style="stroke: #A80036; stroke-width: 1.5;" width="163" x="875.356" y="227"/><ellipse cx="890.356" cy="243" fill="#ADD1B2" rx="11" ry="11" style="stroke: #A80036; stroke-width: 1.0;"/><path d="M893.3248,248.6406 Q892.7466,248.9375 892.106,249.0781 Q891.4654,249.2344 890.7623,249.2344 Q888.2623,249.2344 886.9341,247.5938 Q885.6216,245.9375 885.6216,242.8125 Q885.6216,239.6875 886.9341,238.0313 Q888.2623,236.375 890.7623,236.375 Q891.4654,236.375 892.106,236.5313 Q892.7623,236.6875 893.3248,236.9844 L893.3248,239.7031 Q892.6998,239.125 892.106,238.8594 Q891.5123,238.5781 890.8873,238.5781 Q889.5435,238.5781 888.856,239.6563 Q888.1685,240.7188 888.1685,242.8125 Q888.1685,244.9063 888.856,245.9844 Q889.5435,247.0469 890.8873,247.0469 Q891.5123,247.0469 892.106,246.7813 Q892.6998,246.5 893.3248,245.9219 L893.3248,248.6406 Z "/><text fill="#000000" font-family="sans-serif" font-size="12" lengthAdjust="spacingAndGlyphs" textLength="131" x="904.356" y="247.1543">AiBehaviourCrocodile</text><line style="stroke: #A80036; stroke-width: 1.5;" x1="876.356" x2="1037.356" y1="259" y2="259"/><line style="stroke: #A80036; stroke-width: 1.5;" x1="876.356" x2="1037.356" y1="267" y2="267"/><ellipse cx="886.356" cy="278" fill="#84BE84" rx="3" ry="3" style="stroke: #038048; stroke-width: 1.0;"/><text fill="#000000" font-family="sans-serif" font-size="11" lengthAdjust="spacingAndGlyphs" textLength="78" x="895.356" y="281.2104">update(): void</text></a><!--MD5=[2101adf7b36736fda214d54ec3e7eccf]
class pwr.sim.animal.ai.state.AiStateHunt--><rect fill="#FEFECE" filter="url(#f1if5cr7eucmrr)" height="48" id="pwr.sim.animal.ai.state.AiStateHunt" style="stroke: #A80036; stroke-width: 1.5;" width="107" x="780.356" y="370"/><ellipse cx="795.356" cy="386" fill="#ADD1B2" rx="11" ry="11" style="stroke: #A80036; stroke-width: 1.0;"/><path d="M798.3248,391.6406 Q797.7466,391.9375 797.106,392.0781 Q796.4654,392.2344 795.7623,392.2344 Q793.2623,392.2344 791.9341,390.5938 Q790.6216,388.9375 790.6216,385.8125 Q790.6216,382.6875 791.9341,381.0313 Q793.2623,379.375 795.7623,379.375 Q796.4654,379.375 797.106,379.5313 Q797.7623,379.6875 798.3248,379.9844 L798.3248,382.7031 Q797.6998,382.125 797.106,381.8594 Q796.5123,381.5781 795.8873,381.5781 Q794.5435,381.5781 793.856,382.6563 Q793.1685,383.7188 793.1685,385.8125 Q793.1685,387.9063 793.856,388.9844 Q794.5435,390.0469 795.8873,390.0469 Q796.5123,390.0469 797.106,389.7813 Q797.6998,389.5 798.3248,388.9219 L798.3248,391.6406 Z "/><text fill="#000000" font-family="sans-serif" font-size="12" lengthAdjust="spacingAndGlyphs" textLength="75" x="809.356" y="390.1543">AiStateHunt</text><line style="stroke: #A80036; stroke-width: 1.5;" x1="781.356" x2="886.356" y1="402" y2="402"/><line style="stroke: #A80036; stroke-width: 1.5;" x1="781.356" x2="886.356" y1="410" y2="410"/><!--MD5=[d6ff7de480351f15b4a4cfc2ecc38967]
class pwr.sim.animal.ai.state.AiStateSleep--><rect fill="#FEFECE" filter="url(#f1if5cr7eucmrr)" height="48" id="pwr.sim.animal.ai.state.AiStateSleep" style="stroke: #A80036; stroke-width: 1.5;" width="112" x="1099.856" y="370"/><ellipse cx="1114.856" cy="386" fill="#ADD1B2" rx="11" ry="11" style="stroke: #A80036; stroke-width: 1.0;"/><path d="M1117.8248,391.6406 Q1117.2466,391.9375 1116.606,392.0781 Q1115.9654,392.2344 1115.2623,392.2344 Q1112.7623,392.2344 1111.4341,390.5938 Q1110.1216,388.9375 1110.1216,385.8125 Q1110.1216,382.6875 1111.4341,381.0313 Q1112.7623,379.375 1115.2623,379.375 Q1115.9654,379.375 1116.606,379.5313 Q1117.2623,379.6875 1117.8248,379.9844 L1117.8248,382.7031 Q1117.1998,382.125 1116.606,381.8594 Q1116.0123,381.5781 1115.3873,381.5781 Q1114.0435,381.5781 1113.356,382.6563 Q1112.6685,383.7188 1112.6685,385.8125 Q1112.6685,387.9063 1113.356,388.9844 Q1114.0435,390.0469 1115.3873,390.0469 Q1116.0123,390.0469 1116.606,389.7813 Q1117.1998,389.5 1117.8248,388.9219 L1117.8248,391.6406 Z "/><text fill="#000000" font-family="sans-serif" font-size="12" lengthAdjust="spacingAndGlyphs" textLength="80" x="1128.856" y="390.1543">AiStateSleep</text><line style="stroke: #A80036; stroke-width: 1.5;" x1="1100.856" x2="1210.856" y1="402" y2="402"/><line style="stroke: #A80036; stroke-width: 1.5;" x1="1100.856" x2="1210.856" y1="410" y2="410"/><!--MD5=[08aadd0f49c91bafe227b24a75895544]
class pwr.sim.animal.ai.state.AiStateEatCorpse--><rect fill="#FEFECE" filter="url(#f1if5cr7eucmrr)" height="48" id="pwr.sim.animal.ai.state.AiStateEatCorpse" style="stroke: #A80036; stroke-width: 1.5;" width="142" x="922.856" y="370"/><ellipse cx="937.856" cy="386" fill="#ADD1B2" rx="11" ry="11" style="stroke: #A80036; stroke-width: 1.0;"/><path d="M940.8248,391.6406 Q940.2466,391.9375 939.606,392.0781 Q938.9654,392.2344 938.2623,392.2344 Q935.7623,392.2344 934.4341,390.5938 Q933.1216,388.9375 933.1216,385.8125 Q933.1216,382.6875 934.4341,381.0313 Q935.7623,379.375 938.2623,379.375 Q938.9654,379.375 939.606,379.5313 Q940.2623,379.6875 940.8248,379.9844 L940.8248,382.7031 Q940.1998,382.125 939.606,381.8594 Q939.0123,381.5781 938.3873,381.5781 Q937.0435,381.5781 936.356,382.6563 Q935.6685,383.7188 935.6685,385.8125 Q935.6685,387.9063 936.356,388.9844 Q937.0435,390.0469 938.3873,390.0469 Q939.0123,390.0469 939.606,389.7813 Q940.1998,389.5 940.8248,388.9219 L940.8248,391.6406 Z "/><text fill="#000000" font-family="sans-serif" font-size="12" lengthAdjust="spacingAndGlyphs" textLength="110" x="951.856" y="390.1543">AiStateEatCorpse</text><line style="stroke: #A80036; stroke-width: 1.5;" x1="923.856" x2="1063.856" y1="402" y2="402"/><line style="stroke: #A80036; stroke-width: 1.5;" x1="923.856" x2="1063.856" y1="410" y2="410"/><!--MD5=[35291f84c5102aa19c3fb4f3ba4efe54]
class pwr.sim.animal.ai.state.AiStateCopulate--><rect fill="#FEFECE" filter="url(#f1if5cr7eucmrr)" height="48" id="pwr.sim.animal.ai.state.AiStateCopulate" style="stroke: #A80036; stroke-width: 1.5;" width="133" x="1247.356" y="370"/><ellipse cx="1262.356" cy="386" fill="#ADD1B2" rx="11" ry="11" style="stroke: #A80036; stroke-width: 1.0;"/><path d="M1265.3248,391.6406 Q1264.7466,391.9375 1264.106,392.0781 Q1263.4654,392.2344 1262.7623,392.2344 Q1260.2623,392.2344 1258.9341,390.5938 Q1257.6216,388.9375 1257.6216,385.8125 Q1257.6216,382.6875 1258.9341,381.0313 Q1260.2623,379.375 1262.7623,379.375 Q1263.4654,379.375 1264.106,379.5313 Q1264.7623,379.6875 1265.3248,379.9844 L1265.3248,382.7031 Q1264.6998,382.125 1264.106,381.8594 Q1263.5123,381.5781 1262.8873,381.5781 Q1261.5435,381.5781 1260.856,382.6563 Q1260.1685,383.7188 1260.1685,385.8125 Q1260.1685,387.9063 1260.856,388.9844 Q1261.5435,390.0469 1262.8873,390.0469 Q1263.5123,390.0469 1264.106,389.7813 Q1264.6998,389.5 1265.3248,388.9219 L1265.3248,391.6406 Z "/><text fill="#000000" font-family="sans-serif" font-size="12" lengthAdjust="spacingAndGlyphs" textLength="101" x="1276.356" y="390.1543">AiStateCopulate</text><line style="stroke: #A80036; stroke-width: 1.5;" x1="1248.356" x2="1379.356" y1="402" y2="402"/><line style="stroke: #A80036; stroke-width: 1.5;" x1="1248.356" x2="1379.356" y1="410" y2="410"/><!--MD5=[40300abaaeb8bc98273b3cd335c7cf0b]
class pwr.sim.animal.ai.state.AiStateLookForFood--><rect fill="#FEFECE" filter="url(#f1if5cr7eucmrr)" height="48" id="pwr.sim.animal.ai.state.AiStateLookForFood" style="stroke: #A80036; stroke-width: 1.5;" width="157" x="1415.356" y="370"/><ellipse cx="1430.356" cy="386" fill="#ADD1B2" rx="11" ry="11" style="stroke: #A80036; stroke-width: 1.0;"/><path d="M1433.3248,391.6406 Q1432.7466,391.9375 1432.106,392.0781 Q1431.4654,392.2344 1430.7623,392.2344 Q1428.2623,392.2344 1426.9341,390.5938 Q1425.6216,388.9375 1425.6216,385.8125 Q1425.6216,382.6875 1426.9341,381.0313 Q1428.2623,379.375 1430.7623,379.375 Q1431.4654,379.375 1432.106,379.5313 Q1432.7623,379.6875 1433.3248,379.9844 L1433.3248,382.7031 Q1432.6998,382.125 1432.106,381.8594 Q1431.5123,381.5781 1430.8873,381.5781 Q1429.5435,381.5781 1428.856,382.6563 Q1428.1685,383.7188 1428.1685,385.8125 Q1428.1685,387.9063 1428.856,388.9844 Q1429.5435,390.0469 1430.8873,390.0469 Q1431.5123,390.0469 1432.106,389.7813 Q1432.6998,389.5 1433.3248,388.9219 L1433.3248,391.6406 Z "/><text fill="#000000" font-family="sans-serif" font-size="12" lengthAdjust="spacingAndGlyphs" textLength="125" x="1444.356" y="390.1543">AiStateLookForFood</text><line style="stroke: #A80036; stroke-width: 1.5;" x1="1416.356" x2="1571.356" y1="402" y2="402"/><line style="stroke: #A80036; stroke-width: 1.5;" x1="1416.356" x2="1571.356" y1="410" y2="410"/><!--MD5=[c59dbee51b91129f0f8245b72bd2908b]
class pwr.sim.animal.ai.state.AiStateEatPlant--><rect fill="#FEFECE" filter="url(#f1if5cr7eucmrr)" height="48" id="pwr.sim.animal.ai.state.AiStateEatPlant" style="stroke: #A80036; stroke-width: 1.5;" width="130" x="1607.856" y="370"/><ellipse cx="1622.856" cy="386" fill="#ADD1B2" rx="11" ry="11" style="stroke: #A80036; stroke-width: 1.0;"/><path d="M1625.8248,391.6406 Q1625.2466,391.9375 1624.606,392.0781 Q1623.9654,392.2344 1623.2623,392.2344 Q1620.7623,392.2344 1619.4341,390.5938 Q1618.1216,388.9375 1618.1216,385.8125 Q1618.1216,382.6875 1619.4341,381.0313 Q1620.7623,379.375 1623.2623,379.375 Q1623.9654,379.375 1624.606,379.5313 Q1625.2623,379.6875 1625.8248,379.9844 L1625.8248,382.7031 Q1625.1998,382.125 1624.606,381.8594 Q1624.0123,381.5781 1623.3873,381.5781 Q1622.0435,381.5781 1621.356,382.6563 Q1620.6685,383.7188 1620.6685,385.8125 Q1620.6685,387.9063 1621.356,388.9844 Q1622.0435,390.0469 1623.3873,390.0469 Q1624.0123,390.0469 1624.606,389.7813 Q1625.1998,389.5 1625.8248,388.9219 L1625.8248,391.6406 Z "/><text fill="#000000" font-family="sans-serif" font-size="12" lengthAdjust="spacingAndGlyphs" textLength="98" x="1636.856" y="390.1543">AiStateEatPlant</text><line style="stroke: #A80036; stroke-width: 1.5;" x1="1608.856" x2="1736.856" y1="402" y2="402"/><line style="stroke: #A80036; stroke-width: 1.5;" x1="1608.856" x2="1736.856" y1="410" y2="410"/><!--MD5=[5d51f22fca9485db8aa5bada1d84e269]
reverse link pwr.sim.animal.ai.IAiBehaviour to pwr.sim.animal.ai.AiBehaviourLion--><path d="M1138.856,124.4087 C1138.856,157.308 1138.856,199.0307 1138.856,226.9088 " fill="none" id="pwr.sim.animal.ai.IAiBehaviour&lt;-pwr.sim.animal.ai.AiBehaviourLion" style="stroke: #A80036; stroke-width: 1.0; stroke-dasharray: 7.0,7.0;"/><polygon fill="none" points="1131.8561,124.2975,1138.856,104.2975,1145.8561,124.2974,1131.8561,124.2975" style="stroke: #A80036; stroke-width: 1.0;"/><!--MD5=[77a4d1b58ab2eb4433100c898e6438b7]
link pwr.sim.animal.ai.AiBehaviourLion to pwr.sim.animal.ai.state.AiStateHunt--><path d="M1077.9702,288.0787 C1070.6341,291.0622 1063.1546,293.7943 1055.856,296 C994.3022,314.6022 970.4938,289.4903 912.856,318 C890.3677,329.1236 870.0913,348.9443 855.7121,365.5553 " fill="none" id="pwr.sim.animal.ai.AiBehaviourLion-&gt;pwr.sim.animal.ai.state.AiStateHunt" style="stroke: #A80036; stroke-width: 1.0;"/><polygon fill="#A80036" points="852.1857,369.702,861.0633,365.4372,855.4248,365.893,854.9689,360.2546,852.1857,369.702" style="stroke: #A80036; stroke-width: 1.0;"/><text fill="#000000" font-family="sans-serif" font-size="13" lengthAdjust="spacingAndGlyphs" textLength="64" x="913.856" y="331.0669">stateHunt</text><!--MD5=[a3888899b89980b109d004a7041650b2]
link pwr.sim.animal.ai.AiBehaviourLion to pwr.sim.animal.ai.state.AiStateSleep--><path d="M1113.6839,288.0931 C1105.1152,302.2175 1099.012,319.3029 1104.856,335 C1109.1135,346.4356 1116.6942,357.1318 1124.7306,366.192 " fill="none" id="pwr.sim.animal.ai.AiBehaviourLion-&gt;pwr.sim.animal.ai.state.AiStateSleep" style="stroke: #A80036; stroke-width: 1.0;"/><polygon fill="#A80036" points="1128.1943,369.9721,1125.0631,360.6342,1124.8163,366.2857,1119.1649,366.039,1128.1943,369.9721" style="stroke: #A80036; stroke-width: 1.0;"/><text fill="#000000" font-family="sans-serif" font-size="13" lengthAdjust="spacingAndGlyphs" textLength="69" x="1105.856" y="331.0669">stateSleep</text><!--MD5=[f9d2feaf105646d52176a25494d915c1]
link pwr.sim.animal.ai.AiBehaviourLion to pwr.sim.animal.ai.state.AiStateEatCorpse--><path d="M1074.3193,288.1444 C1068.1125,290.8773 1061.8855,293.5381 1055.856,296 C1028.7866,307.0526 1010.7235,294.1169 993.856,318 C984.4188,331.3625 984.1227,349.6083 986.327,364.8729 " fill="none" id="pwr.sim.animal.ai.AiBehaviourLion-&gt;pwr.sim.animal.ai.state.AiStateEatCorpse" style="stroke: #A80036; stroke-width: 1.0;"/><polygon fill="#A80036" points="987.1608,369.924,989.6414,360.3926,986.3464,364.9908,981.7482,361.6958,987.1608,369.924" style="stroke: #A80036; stroke-width: 1.0;"/><text fill="#000000" font-family="sans-serif" font-size="13" lengthAdjust="spacingAndGlyphs" textLength="99" x="994.856" y="331.0669">stateEatCorpse</text><!--MD5=[a269a2160b03095fd369d4a324408b47]
link pwr.sim.animal.ai.AiBehaviourLion to pwr.sim.animal.ai.state.AiStateCopulate--><path d="M1199.2196,288.1093 C1206.7135,291.1274 1214.3729,293.8592 1221.856,296 C1260.1753,306.9626 1373.4582,288.1387 1399.856,318 C1404.8603,323.6608 1403.3768,328.3149 1399.856,335 C1393.093,347.8414 1382.1338,358.4254 1370.2693,366.9068 " fill="none" id="pwr.sim.animal.ai.AiBehaviourLion-&gt;pwr.sim.animal.ai.state.AiStateCopulate" style="stroke: #A80036; stroke-width: 1.0;"/><polygon fill="#A80036" points="1365.8633,369.9367,1375.5456,368.1329,1369.9832,367.1036,1371.0125,361.5411,1365.8633,369.9367" style="stroke: #A80036; stroke-width: 1.0;"/><text fill="#000000" font-family="sans-serif" font-size="13" lengthAdjust="spacingAndGlyphs" textLength="90" x="1403.856" y="331.0669">stateCopulate</text><!--MD5=[eddb5cc51229409d80c78b8e9f1a9ade]
reverse link pwr.sim.animal.ai.IAiBehaviour to pwr.sim.animal.ai.AiBehaviourAntelope--><path d="M1183.4759,118.8594 C1216.5625,152.4944 1260.773,197.4377 1289.7636,226.9088 " fill="none" id="pwr.sim.animal.ai.IAiBehaviour&lt;-pwr.sim.animal.ai.AiBehaviourAntelope" style="stroke: #A80036; stroke-width: 1.0; stroke-dasharray: 7.0,7.0;"/><polygon fill="none" points="1178.1866,123.4643,1169.1514,104.2975,1188.1671,113.6465,1178.1866,123.4643" style="stroke: #A80036; stroke-width: 1.0;"/><!--MD5=[7735963400d8d190fd88b762af7b8e62]
link pwr.sim.animal.ai.AiBehaviourAntelope to pwr.sim.animal.ai.state.AiStateLookForFood--><path d="M1390.8211,288.0895 C1399.8015,291.1527 1408.9606,293.9006 1417.856,296 C1471.2734,308.6067 1626.8154,277.4989 1663.856,318 C1706.7877,364.9424 1671.4693,318.3631 1590.856,343 C1572.0623,348.7437 1552.6434,358.1549 1536.1633,367.339 " fill="none" id="pwr.sim.animal.ai.AiBehaviourAntelope-&gt;pwr.sim.animal.ai.state.AiStateLookForFood" style="stroke: #A80036; stroke-width: 1.0;"/><polygon fill="#A80036" points="1531.596,369.9202,1541.3993,368.9744,1535.9489,367.4601,1537.4632,362.0097,1531.596,369.9202" style="stroke: #A80036; stroke-width: 1.0;"/><text fill="#000000" font-family="sans-serif" font-size="13" lengthAdjust="spacingAndGlyphs" textLength="114" x="1678.856" y="331.0669">stateLookForFood</text><!--MD5=[0adc86cf17b08cf1f0a54d2265f98c4a]
link pwr.sim.animal.ai.AiBehaviourAntelope to pwr.sim.animal.ai.state.AiStateSleep--><path d="M1325.1338,288.2464 C1326.0336,304.321 1323.8453,323.0779 1311.856,335 C1298.8736,347.9099 1247.0526,336.7161 1229.856,343 C1214.8461,348.4849 1200.0016,357.7444 1187.5928,366.8803 " fill="none" id="pwr.sim.animal.ai.AiBehaviourAntelope-&gt;pwr.sim.animal.ai.state.AiStateSleep" style="stroke: #A80036; stroke-width: 1.0;"/><polygon fill="#A80036" points="1183.4813,369.9681,1193.0798,367.7616,1187.4793,366.9654,1188.2755,361.3649,1183.4813,369.9681" style="stroke: #A80036; stroke-width: 1.0;"/><text fill="#000000" font-family="sans-serif" font-size="13" lengthAdjust="spacingAndGlyphs" textLength="69" x="1321.856" y="331.0669">stateSleep</text><!--MD5=[0b2b9903555d8bf80e75d5f0c43ae800]
link pwr.sim.animal.ai.AiBehaviourAntelope to pwr.sim.animal.ai.state.AiStateEatPlant--><path d="M1389.0859,288.084 C1398.5999,291.2822 1408.3628,294.0657 1417.856,296 C1461.1501,304.8212 2182.0487,286.3283 2212.856,318 C2218.1242,323.416 2217.9002,329.3748 2212.856,335 C2182.0281,369.3796 1882.2959,385.6881 1743.1621,391.4534 " fill="none" id="pwr.sim.animal.ai.AiBehaviourAntelope-&gt;pwr.sim.animal.ai.state.AiStateEatPlant" style="stroke: #A80036; stroke-width: 1.0;"/><polygon fill="#A80036" points="1737.8755,391.6706,1747.0321,395.2977,1742.8713,391.4653,1746.7037,387.3045,1737.8755,391.6706" style="stroke: #A80036; stroke-width: 1.0;"/><text fill="#000000" font-family="sans-serif" font-size="13" lengthAdjust="spacingAndGlyphs" textLength="86" x="2216.856" y="331.0669">stateEatPlant</text><!--MD5=[d43cc9f36837e4f633ac126dd060c9d5]
link pwr.sim.animal.ai.AiBehaviourAntelope to pwr.sim.animal.ai.state.AiStateCopulate--><path d="M1392.5878,288.0545 C1401.0208,291.0041 1409.5685,293.7351 1417.856,296 C1478.9245,312.6896 1598.4676,289.1096 1554.856,335 C1542.8233,347.6615 1414.5518,337.8668 1397.856,343 C1380.8607,348.2253 1363.7814,357.6486 1349.5033,366.9858 " fill="none" id="pwr.sim.animal.ai.AiBehaviourAntelope-&gt;pwr.sim.animal.ai.state.AiStateCopulate" style="stroke: #A80036; stroke-width: 1.0;"/><polygon fill="#A80036" points="1345.1653,369.876,1354.873,368.2144,1349.3263,367.1036,1350.4371,361.5569,1345.1653,369.876" style="stroke: #A80036; stroke-width: 1.0;"/><text fill="#000000" font-family="sans-serif" font-size="13" lengthAdjust="spacingAndGlyphs" textLength="90" x="1564.856" y="331.0669">stateCopulate</text><!--MD5=[63291f6cd271fbfca979b4057ae5034f]
reverse link pwr.sim.animal.ai.IAiBehaviour to pwr.sim.animal.ai.AiBehaviourWolf--><path d="M1065.782,110.4385 C998.1188,144.6419 898.6786,194.9084 835.3571,226.9171 " fill="none" id="pwr.sim.animal.ai.IAiBehaviour&lt;-pwr.sim.animal.ai.AiBehaviourWolf" style="stroke: #A80036; stroke-width: 1.0; stroke-dasharray: 7.0,7.0;"/><polygon fill="none" points="1062.9604,104.0214,1083.9675,101.2459,1069.2762,116.5158,1062.9604,104.0214" style="stroke: #A80036; stroke-width: 1.0;"/><!--MD5=[b1d0b49dfc905e976ea9e5cb49db5263]
link pwr.sim.animal.ai.AiBehaviourWolf to pwr.sim.animal.ai.state.AiStateHunt--><path d="M709.356,260.284 C528.4166,268.2892 33.4773,292.437 9.856,318 C4.7284,323.5492 4.7078,329.4699 9.856,335 C35.9216,362.9987 590.9916,385.3123 775.1035,391.9665 " fill="none" id="pwr.sim.animal.ai.AiBehaviourWolf-&gt;pwr.sim.animal.ai.state.AiStateHunt" style="stroke: #A80036; stroke-width: 1.0;"/><polygon fill="#A80036" points="780.1774,392.1493,771.3274,387.8276,775.1806,391.9692,771.0391,395.8224,780.1774,392.1493" style="stroke: #A80036; stroke-width: 1.0;"/><text fill="#000000" font-family="sans-serif" font-size="13" lengthAdjust="spacingAndGlyphs" textLength="64" x="10.856" y="331.0669">stateHunt</text><!--MD5=[d561d8ca3e6ed399fa09c8186653c380]
link pwr.sim.animal.ai.AiBehaviourWolf to pwr.sim.animal.ai.state.AiStateSleep--><path d="M709.1681,258.6416 C567.6438,262.2132 251.2003,276.7445 308.856,335 C323.9612,350.2623 1061.386,336.513 1081.856,343 C1097.3573,347.9124 1112.5017,357.2775 1125.0106,366.6558 " fill="none" id="pwr.sim.animal.ai.AiBehaviourWolf-&gt;pwr.sim.animal.ai.state.AiStateSleep" style="stroke: #A80036; stroke-width: 1.0;"/><polygon fill="#A80036" points="1129.1484,369.8303,1124.4427,361.1783,1125.1814,366.7868,1119.573,367.5255,1129.1484,369.8303" style="stroke: #A80036; stroke-width: 1.0;"/><text fill="#000000" font-family="sans-serif" font-size="13" lengthAdjust="spacingAndGlyphs" textLength="69" x="309.856" y="331.0669">stateSleep</text><!--MD5=[c24bdf9a31ed1ae22caa0f06cb3086e4]
link pwr.sim.animal.ai.AiBehaviourWolf to pwr.sim.animal.ai.state.AiStateEatCorpse--><path d="M709.2199,258.6168 C550.3716,261.9974 155.3492,274.7151 115.856,318 C110.7635,323.5815 110.5406,329.6304 115.856,335 C131.2755,350.5766 883.7048,337.2543 904.856,343 C923.0782,347.95 941.4736,357.5486 956.7726,367.0958 " fill="none" id="pwr.sim.animal.ai.AiBehaviourWolf-&gt;pwr.sim.animal.ai.state.AiStateEatCorpse" style="stroke: #A80036; stroke-width: 1.0;"/><polygon fill="#A80036" points="961.0029,369.7834,955.5514,361.5809,956.7826,367.1021,951.2614,368.3333,961.0029,369.7834" style="stroke: #A80036; stroke-width: 1.0;"/><text fill="#000000" font-family="sans-serif" font-size="13" lengthAdjust="spacingAndGlyphs" textLength="99" x="116.856" y="331.0669">stateEatCorpse</text><!--MD5=[f6e2d64fba6aca8bb983cfd91c055a73]
link pwr.sim.animal.ai.AiBehaviourWolf to pwr.sim.animal.ai.state.AiStateCopulate--><path d="M771.865,288.1309 C772.0839,304.5843 775.6327,323.7457 788.856,335 C807.4743,350.8459 1205.355,336.26 1228.856,343 C1246.2464,347.9875 1263.6877,357.4789 1278.2056,366.9341 " fill="none" id="pwr.sim.animal.ai.AiBehaviourWolf-&gt;pwr.sim.animal.ai.state.AiStateCopulate" style="stroke: #A80036; stroke-width: 1.0;"/><polygon fill="#A80036" points="1282.614,369.8623,1277.3303,361.5507,1278.4491,367.0958,1272.904,368.2146,1282.614,369.8623" style="stroke: #A80036; stroke-width: 1.0;"/><text fill="#000000" font-family="sans-serif" font-size="13" lengthAdjust="spacingAndGlyphs" textLength="90" x="789.856" y="331.0669">stateCopulate</text><!--MD5=[513d33f0f7b05a843a34ff78739ad0e9]
reverse link pwr.sim.animal.ai.IAiBehaviour to pwr.sim.animal.ai.AiBehaviourHippo--><path d="M1211.2938,109.8176 C1279.5453,144.0363 1380.6564,194.7296 1444.8858,226.9318 " fill="none" id="pwr.sim.animal.ai.IAiBehaviour&lt;-pwr.sim.animal.ai.AiBehaviourHippo" style="stroke: #A80036; stroke-width: 1.0; stroke-dasharray: 7.0,7.0;"/><polygon fill="none" points="1208.1448,116.0694,1193.4034,100.848,1214.4195,103.5542,1208.1448,116.0694" style="stroke: #A80036; stroke-width: 1.0;"/><!--MD5=[c739e78fad2ad4426a36344feaf733bd]
link pwr.sim.animal.ai.AiBehaviourHippo to pwr.sim.animal.ai.state.AiStateLookForFood--><path d="M1576.5149,259.6764 C1723.6956,264.9392 2052.3085,280.7711 2085.856,318 C2090.9139,323.6129 2091.1553,329.6144 2085.856,335 C2076.2109,344.8022 1604.18,339.5963 1590.856,343 C1571.3102,347.9931 1551.3152,357.5991 1534.5963,367.1402 " fill="none" id="pwr.sim.animal.ai.AiBehaviourHippo-&gt;pwr.sim.animal.ai.state.AiStateLookForFood" style="stroke: #A80036; stroke-width: 1.0;"/><polygon fill="#A80036" points="1529.9707,369.8257,1539.7624,368.7659,1534.2947,367.3151,1535.7454,361.8475,1529.9707,369.8257" style="stroke: #A80036; stroke-width: 1.0;"/><text fill="#000000" font-family="sans-serif" font-size="13" lengthAdjust="spacingAndGlyphs" textLength="114" x="2089.856" y="331.0669">stateLookForFood</text><!--MD5=[0cd1d562b31981242c9d2e7079644a6e]
link pwr.sim.animal.ai.AiBehaviourHippo to pwr.sim.animal.ai.state.AiStateSleep--><path d="M1576.691,264.8392 C1674.5594,276.337 1835.5181,300.8638 1801.856,335 C1790.6987,346.3145 1244.9953,338.172 1229.856,343 C1214.3637,347.9406 1199.2211,357.3109 1186.711,366.6855 " fill="none" id="pwr.sim.animal.ai.AiBehaviourHippo-&gt;pwr.sim.animal.ai.state.AiStateSleep" style="stroke: #A80036; stroke-width: 1.0;"/><polygon fill="#A80036" points="1182.5727,369.8584,1192.1488,367.5567,1186.5407,366.8161,1187.2812,361.208,1182.5727,369.8584" style="stroke: #A80036; stroke-width: 1.0;"/><text fill="#000000" font-family="sans-serif" font-size="13" lengthAdjust="spacingAndGlyphs" textLength="69" x="1806.856" y="331.0669">stateSleep</text><!--MD5=[2f190e50dc6501102bd1252df0b36c46]
link pwr.sim.animal.ai.AiBehaviourHippo to pwr.sim.animal.ai.state.AiStateEatPlant--><path d="M1576.5527,259.8493 C1778.1141,266.8876 2342.922,289.114 2369.856,318 C2375.0087,323.526 2374.9684,329.4367 2369.856,335 C2328.0441,380.5008 1912.1125,390.945 1743.4007,393.3148 " fill="none" id="pwr.sim.animal.ai.AiBehaviourHippo-&gt;pwr.sim.animal.ai.state.AiStateEatPlant" style="stroke: #A80036; stroke-width: 1.0;"/><polygon fill="#A80036" points="1737.9929,393.3892,1747.0471,397.2649,1742.9924,393.3203,1746.937,389.2656,1737.9929,393.3892" style="stroke: #A80036; stroke-width: 1.0;"/><text fill="#000000" font-family="sans-serif" font-size="13" lengthAdjust="spacingAndGlyphs" textLength="86" x="2373.856" y="331.0669">stateEatPlant</text><!--MD5=[3bac82873852ed098d4bc7995e878352]
link pwr.sim.animal.ai.AiBehaviourHippo to pwr.sim.animal.ai.state.AiStateCopulate--><path d="M1576.5639,259.1802 C1715.9571,263.7064 2008.2282,279.8399 1953.856,335 C1943.0129,346.0003 1412.7005,338.7311 1397.856,343 C1380.6195,347.9568 1363.3743,357.4428 1349.0342,366.9022 " fill="none" id="pwr.sim.animal.ai.AiBehaviourHippo-&gt;pwr.sim.animal.ai.state.AiStateCopulate" style="stroke: #A80036; stroke-width: 1.0;"/><polygon fill="#A80036" points="1344.6803,369.832,1354.3803,368.1259,1348.8285,367.0405,1349.9139,361.4888,1344.6803,369.832" style="stroke: #A80036; stroke-width: 1.0;"/><text fill="#000000" font-family="sans-serif" font-size="13" lengthAdjust="spacingAndGlyphs" textLength="90" x="1960.856" y="331.0669">stateCopulate</text><!--MD5=[920e46d7c33b8758455582de5b837a05]
reverse link pwr.sim.animal.ai.IAiBehaviour to pwr.sim.animal.ai.AiBehaviourCrocodile--><path d="M1093.9896,118.8594 C1060.7202,152.4944 1016.2655,197.4377 987.1148,226.9088 " fill="none" id="pwr.sim.animal.ai.IAiBehaviour&lt;-pwr.sim.animal.ai.AiBehaviourCrocodile" style="stroke: #A80036; stroke-width: 1.0; stroke-dasharray: 7.0,7.0;"/><polygon fill="none" points="1089.3519,113.5941,1108.3933,104.2975,1099.3054,123.4393,1089.3519,113.5941" style="stroke: #A80036; stroke-width: 1.0;"/><!--MD5=[e8c495853f06208951202a3bc3de071f]
link pwr.sim.animal.ai.AiBehaviourCrocodile to pwr.sim.animal.ai.state.AiStateHunt--><path d="M886.3211,288.0871 C876.8911,291.2385 867.2366,294.0091 857.856,296 C807.3672,306.7157 429.4776,280.6495 393.856,318 C340.031,374.4376 642.6333,389.1077 774.6246,392.8019 " fill="none" id="pwr.sim.animal.ai.AiBehaviourCrocodile-&gt;pwr.sim.animal.ai.state.AiStateHunt" style="stroke: #A80036; stroke-width: 1.0;"/><polygon fill="#A80036" points="780.0136,392.9493,771.1263,388.7047,775.0155,392.8126,770.9076,396.7017,780.0136,392.9493" style="stroke: #A80036; stroke-width: 1.0;"/><text fill="#000000" font-family="sans-serif" font-size="13" lengthAdjust="spacingAndGlyphs" textLength="64" x="394.856" y="331.0669">stateHunt</text><!--MD5=[b11de2c43bbcc6102b015c3f8c352e2d]
link pwr.sim.animal.ai.AiBehaviourCrocodile to pwr.sim.animal.ai.state.AiStateSleep--><path d="M885.1482,288.0739 C876.0794,291.1397 866.8327,293.8926 857.856,296 C805.0703,308.3923 651.4267,277.9689 614.856,318 C609.76,323.5782 609.5594,329.6119 614.856,335 C623.9512,344.2523 1069.5015,339.0387 1081.856,343 C1097.3406,347.9649 1112.4818,357.3398 1124.9929,366.7112 " fill="none" id="pwr.sim.animal.ai.AiBehaviourCrocodile-&gt;pwr.sim.animal.ai.state.AiStateSleep" style="stroke: #A80036; stroke-width: 1.0;"/><polygon fill="#A80036" points="1129.1317,369.8827,1124.4211,361.2334,1125.163,366.8414,1119.555,367.5834,1129.1317,369.8827" style="stroke: #A80036; stroke-width: 1.0;"/><text fill="#000000" font-family="sans-serif" font-size="13" lengthAdjust="spacingAndGlyphs" textLength="69" x="615.856" y="331.0669">stateSleep</text><!--MD5=[2607ec2fb2fb0664522b0558b63b56a8]
link pwr.sim.animal.ai.AiBehaviourCrocodile to pwr.sim.animal.ai.state.AiStateEatCorpse--><path d="M886.0302,288.0903 C876.6898,291.2186 867.1366,293.9825 857.856,296 C774.0414,314.2205 413.7713,273.7896 473.856,335 C482.2442,343.5453 893.3139,339.8123 904.856,343 C923.0572,348.0267 941.449,357.6384 956.751,367.1748 " fill="none" id="pwr.sim.animal.ai.AiBehaviourCrocodile-&gt;pwr.sim.animal.ai.state.AiStateEatCorpse" style="stroke: #A80036; stroke-width: 1.0;"/><polygon fill="#A80036" points="960.9823,369.8586,955.5247,361.6601,956.76,367.1805,951.2397,368.4158,960.9823,369.8586" style="stroke: #A80036; stroke-width: 1.0;"/><text fill="#000000" font-family="sans-serif" font-size="13" lengthAdjust="spacingAndGlyphs" textLength="99" x="474.856" y="331.0669">stateEatCorpse</text><!--MD5=[0c688d56b1267c7ff038a75fe2206563]
link pwr.sim.animal.ai.AiBehaviourCrocodile to pwr.sim.animal.ai.state.AiStateCopulate--><path d="M1030.6539,288.0014 C1039.0751,290.9423 1047.5989,293.6859 1055.856,296 C1109.7513,311.1042 1126.9401,299.7588 1179.856,318 C1195.0814,323.2485 1197.4548,327.7915 1211.856,335 C1219.3232,338.7377 1221.4888,339.0691 1228.856,343 C1242.7702,350.424 1257.6148,359.0681 1270.9407,367.1075 " fill="none" id="pwr.sim.animal.ai.AiBehaviourCrocodile-&gt;pwr.sim.animal.ai.state.AiStateCopulate" style="stroke: #A80036; stroke-width: 1.0;"/><polygon fill="#A80036" points="1275.3981,369.8081,1269.7736,361.7233,1271.1218,367.2171,1265.628,368.5653,1275.3981,369.8081" style="stroke: #A80036; stroke-width: 1.0;"/><text fill="#000000" font-family="sans-serif" font-size="13" lengthAdjust="spacingAndGlyphs" textLength="90" x="1212.856" y="331.0669">stateCopulate</text><text fill="#888888" font-family="sans-serif" font-size="10" lengthAdjust="spacingAndGlyphs" textLength="186" x="1146.5" y="453.2822">UMLDoclet 2.0.8, PlantUML 1.2020.01</text><!--MD5=[2b97095f662abc974f332801f2e7db0b]
@startuml
    namespace pwr.sim.animal.ai {

        class AiBehaviourLion [[AiBehaviourLion.html]] {
            +update(): void
        }

        interface IAiBehaviour [[IAiBehaviour.html]] {
            {abstract} +update(): void
        }

        class AiBehaviourAntelope [[AiBehaviourAntelope.html]] {
            +update(): void
        }

        class AiBehaviourWolf [[AiBehaviourWolf.html]] {
            +update(): void
        }

        class AiBehaviourHippo [[AiBehaviourHippo.html]] {
            +update(): void
        }

        class AiBehaviourCrocodile [[AiBehaviourCrocodile.html]] {
            +update(): void
        }

        IAiBehaviour <|.. AiBehaviourLion
        AiBehaviourLion - -> pwr.sim.animal.ai.state.AiStateHunt: stateHunt
        AiBehaviourLion - -> pwr.sim.animal.ai.state.AiStateSleep: stateSleep
        AiBehaviourLion - -> pwr.sim.animal.ai.state.AiStateEatCorpse: stateEatCorpse
        AiBehaviourLion - -> pwr.sim.animal.ai.state.AiStateCopulate: stateCopulate
        IAiBehaviour <|.. AiBehaviourAntelope
        AiBehaviourAntelope - -> pwr.sim.animal.ai.state.AiStateLookForFood: stateLookForFood
        AiBehaviourAntelope - -> pwr.sim.animal.ai.state.AiStateSleep: stateSleep
        AiBehaviourAntelope - -> pwr.sim.animal.ai.state.AiStateEatPlant: stateEatPlant
        AiBehaviourAntelope - -> pwr.sim.animal.ai.state.AiStateCopulate: stateCopulate
        IAiBehaviour <|.. AiBehaviourWolf
        AiBehaviourWolf - -> pwr.sim.animal.ai.state.AiStateHunt: stateHunt
        AiBehaviourWolf - -> pwr.sim.animal.ai.state.AiStateSleep: stateSleep
        AiBehaviourWolf - -> pwr.sim.animal.ai.state.AiStateEatCorpse: stateEatCorpse
        AiBehaviourWolf - -> pwr.sim.animal.ai.state.AiStateCopulate: stateCopulate
        IAiBehaviour <|.. AiBehaviourHippo
        AiBehaviourHippo - -> pwr.sim.animal.ai.state.AiStateLookForFood: stateLookForFood
        AiBehaviourHippo - -> pwr.sim.animal.ai.state.AiStateSleep: stateSleep
        AiBehaviourHippo - -> pwr.sim.animal.ai.state.AiStateEatPlant: stateEatPlant
        AiBehaviourHippo - -> pwr.sim.animal.ai.state.AiStateCopulate: stateCopulate
        IAiBehaviour <|.. AiBehaviourCrocodile
        AiBehaviourCrocodile - -> pwr.sim.animal.ai.state.AiStateHunt: stateHunt
        AiBehaviourCrocodile - -> pwr.sim.animal.ai.state.AiStateSleep: stateSleep
        AiBehaviourCrocodile - -> pwr.sim.animal.ai.state.AiStateEatCorpse: stateEatCorpse
        AiBehaviourCrocodile - -> pwr.sim.animal.ai.state.AiStateCopulate: stateCopulate
    }

    center footer UMLDoclet 2.0.8, PlantUML 1.2020.01
@enduml

PlantUML version 1.2020.01(Sun Feb 16 18:40:32 CET 2020)
(APACHE source distribution)
Java Runtime: OpenJDK Runtime Environment
JVM: OpenJDK 64-Bit Server VM
Java Version: 11.0.7+10-post-Ubuntu-2ubuntu219.10
Operating System: Linux
Default Encoding: UTF-8
Language: en
Country: GB
--></g></svg>